<?xml version="1.0" encoding="UTF-8"?>
<svg width="165px" height="80px" viewBox="0 0 165 80" version="1.1" xmlns="http://www.w3.org/2000/svg">
  <title>2ship_logo</title>
  <g id="m" stroke="none" stroke-width="1" fill="none" fill-rule="evenodd">
    <g id="Logoshapes" transform="translate(37.000000, 14.000000)">
      <path d="M17.8434735,40 L0,40 L0,35.9329752 L6.30865364,30.5680488 C8.47802346,28.576372 9.26078746,27.5 9.99702572,26.4493948 C10.733264,25.3987897 10.7939739,24.6680755 10.8902475,24.089616 C10.9865211,23.5111565 10.9967021,23.1299745 10.8902475,22.6331436 C10.7837929,22.1363127 10.5040128,21.5941731 10.0849393,21.2225089 C9.66586581,20.8508447 9.18590796,20.6090671 8.40560657,20.4558799 C7.62530518,20.3026927 6.60955201,20.4020155 5.80190252,20.5552027 C4.99425304,20.7083898 3.14188018,21.4289852 2.13383855,22.2962017 L0.190118539,17.6121433 C1.37791193,16.629161 3.94309025,15.7309851 5.16122169,15.4136017 C6.37935313,15.0962184 7.554551,15 8.83440137,15 C10.2268501,15 11.8084297,15.2773006 13.0713134,15.8404282 C14.334197,16.4035559 15.5185766,17.2533026 16.2151447,18.2950887 C16.9117128,19.3368748 17.4019491,20.5552027 17.550118,21.703983 C17.6730873,22.6573858 17.6300154,23.9183082 17.550118,24.3357514 C17.4702207,24.7531946 17.1561713,26.0159164 16.6722631,26.9536532 C16.188355,27.89139 15.7710992,28.4692876 14.4988979,29.9681847 C13.6507637,30.9674493 11.9047269,32.5113001 9.26078746,34.5997369 L18,34.5997369 L17.8434735,40 Z" id="Path" fill="#92BA61"/>
      <path d="M37,32.4901951 C37,34.1189376 36.4866234,35.7386473 35.6907014,37.0021203 C34.8947795,38.2655934 33.5803676,39.248503 32.0808045,39.9491018 C30.5812413,40.6497006 28.8221385,41 26.8034958,41 C25.119371,41 23.7063212,40.8772455 22.5643462,40.6317365 C21.4223712,40.3862275 20.2342558,39.9580838 19,39.3473054 L20.2367038,33.7404898 C20.8435774,34.0701195 21.6513127,34.4032729 22.9745699,34.799494 C24.2978271,35.195715 25.6269155,35.2928515 26.8034958,35.2928515 C27.8185847,35.2928515 28.8915073,35.1647634 29.3644464,34.799494 C29.8373855,34.4342245 30.3010892,34.1009355 30.3010892,33.3546715 C30.3010892,32.6084076 30.1695807,32.4128931 29.9792516,32.1434321 C29.7889224,31.873971 29.3921038,31.5089173 28.9710726,31.2334682 C28.5500414,30.9580191 27.9010636,30.5104328 26.0796622,29.7877037 C24.4079349,29.124365 22.845067,28.2305389 22.0203073,27.5 C21.1955476,26.7694611 20.3210537,25.9983523 19.9230927,25.0522445 C19.5251317,24.1061367 19.3388562,22.8745533 19.3388562,21.5811401 C19.3388562,19.4674487 20.5949699,17.5168563 22.0203073,16.2704793 C23.4456447,15.0241022 25.7422665,14 28.7067874,14 C31.3252554,14 33.3182484,14.2282921 36.0405322,15.4857771 L34.6658404,20.7348999 C32.2943631,19.8885797 30.2178857,19.6766467 28.4991556,19.6766467 C27.6109529,19.6766467 27.2072243,19.7920327 26.8034958,20.115386 C26.3997673,20.4387393 26.0796622,20.7447236 26.0796622,21.2237655 C26.0796622,21.7387356 26.0600995,22.4065025 26.5734115,22.8136881 C27.0867235,23.2208738 28.9007925,24.2409333 31.0283198,25.2 C33.1558471,26.1590667 34.6912209,27.1758593 35.5390508,28.343524 C36.3868807,29.5111887 37,30.71774 37,32.4901951 Z" id="Path" fill="#16395F"/>
      <path d="M50.4737794,40 L50.4737794,30.0426346 C50.4737794,27.5714809 49.5502386,26.6976801 48.321802,26.6976801 C47.2802106,26.6976801 46.4412779,27.0369223 46.1039783,27.64464 C45.7666787,28.2523578 45.6849005,29.9667658 45.6849005,31.9935454 L45.6849005,40 L39,40 L39.0325497,15 L45.7174503,15 L45.6849005,18.3859426 C45.6849005,19.4697819 45.6957505,21.2378732 45.7174503,23.6902165 C46.3385615,23.0094653 47.0251936,22.2959927 47.8606367,21.9058106 C48.6960797,21.5156284 49.6784289,21.2759642 50.7851196,21.2759642 C52.8466025,21.2759642 54.1042084,21.8550404 55.2488739,23.0418444 C56.3935393,24.2286485 57,25.9728179 57,28.1079814 L57,40 L50.4737794,40 Z" id="Path" fill="#16395F"/>
      <polygon id="Path" fill="#16395F" points="66 40 59 40 59 21 66 21"/>
      <path d="M80.5773031,40.891895 C79.2968072,40.9645596 78.2808616,40.760351 77.4405309,40.4307129 C76.6002003,40.1010749 76.0758246,39.8177847 75.2478517,38.9618823 C75.2478517,39.585233 75.2478517,40.0087154 75.2478517,40.2323295 L75.2478517,48 L68.1177461,48 C68.185675,31.0872023 68.1464263,22.2351273 68,21.443775 C68,21.443775 70.0109367,21.3727912 74.03281,21.2308238 L74.5258448,23.6114335 L74.7690471,23.6114335 C76.174257,21.8065571 78.2046048,21 80.5773031,21 C82.9005701,21 85.3492916,22.0735047 86.6756283,23.7291334 C88.001965,25.3847621 89,27.7455923 89,30.8916118 C89,34.0607639 87.7826411,36.5123196 86.469253,38.1307702 C85.1558649,39.7492207 82.8953742,40.760351 80.5773031,40.891895 Z M78.4726032,26.1570025 C77.3507571,26.1570025 76.4970628,26.6351285 76.1114362,27.010065 C75.7258097,27.3850014 75.4799509,27.7205141 75.2478517,28.0965138 L75.2180045,34.0152626 C75.4102292,34.3941897 75.5902902,34.7013611 75.8941642,34.9662167 C76.1980381,35.2310724 77.1553098,35.8832746 78.1650416,35.8832746 C79.1401729,35.8832746 80.1121171,35.5546213 80.6592841,34.8197493 C81.206451,34.0848772 81.7272019,32.7198429 81.7272019,31.0243014 C81.7272019,29.3628984 81.3856848,28.3094877 80.9769838,27.5868912 C80.5682828,26.8642947 79.4424549,26.1570025 78.4726032,26.1570025 Z" id="Shape" fill="#16395F"/>
      <path d="M58.6702754,0.154667465 C62.9085633,0.522512075 65.4014233,2.12103207 66.3225831,3.13140782 C67.2437429,4.14178357 68.2015966,5.144055 67.9629812,8.66185226 C67.8353518,10.5434337 66.7420337,12.3989415 65.8006736,14.135704 C66.3551592,14.7578526 66.6912952,15.5784272 66.6912952,16.477716 C66.6912952,18.4230198 65.1184301,20 63.1782027,20 C61.2379753,20 59.6651103,18.4230198 59.6651103,16.477716 C59.6651103,14.5324123 61.2379753,12.9554321 63.1782027,12.9554321 C63.613352,12.9554321 64.0300228,13.0347548 64.4146155,13.179765 L64.3908397,13.3748854 C64.5574434,12.1596765 64.5574434,11.0190494 64.3908397,9.95300405 C64.140934,8.35393604 62.774275,6.3650232 60.8124661,5.407213 C58.8506572,4.4494028 56.6681404,3.75991275 51.1302007,3.75991275 C48.689122,3.75991275 41.8863416,4.00750229 32.0806392,7.86377701 C27.0559058,9.83984682 20.0826616,13.4427058 15.3673397,16.9269897 C15.3673397,16.9269897 15,16.6695125 15,16.6695125 C17.9745653,13.7182093 23.2633947,10.2944116 27.1842983,8.242427 C32.6017856,5.407213 38.3817965,3.13140782 44.0005798,1.60678833 C49.9414612,-0.005230371 54.4605948,-0.210694296 58.6702754,0.154667465 Z" id="Combined-Shape" fill="#92BA61"/>
      <path d="M86,21.5035714 C86,20.6071429 86.6285018,20 87.498173,20 C88.3678441,20 89,20.6071429 89,21.5035714 C89,22.4 88.3714982,23 87.498173,23 C86.6138855,23 86,22.4 86,21.5035714 Z M86.3,21.4839892 C86.3,22.2634232 86.837845,22.6957143 87.5179586,22.6957143 C88.1980722,22.6957143 88.7428571,22.2568733 88.7428571,21.4839892 C88.7428571,20.7111051 88.1980722,20.2657143 87.5179586,20.2657143 C86.8413149,20.2657143 86.3,20.7045553 86.3,21.4839892 Z M87.9403167,22.3107143 L87.4323995,21.6 L87.2679659,21.6 L87.2679659,22.2857143 L86.9756395,22.2857143 L86.9756395,20.6214286 L87.4908648,20.6214286 C87.8453106,20.6214286 88.0828258,20.7964286 88.0828258,21.1071429 C88.0828258,21.3464286 87.9512789,21.5 87.7393423,21.5642857 L88.228989,22.2428571 L87.9403167,22.3107143 Z M87.4945189,20.8785714 L87.2679659,20.8785714 L87.2679659,21.3678571 L87.4799026,21.3678571 C87.6699147,21.3678571 87.7904994,21.2892857 87.7904994,21.1214286 C87.7904994,20.9535714 87.6845311,20.875 87.4945189,20.875" id="Shape" fill="#16395F"/>
    </g>
  </g>
</svg>
