<?xml version="1.0" encoding="UTF-8"?>
<svg width="165px" height="80px" viewBox="0 0 165 80" version="1.1" xmlns="http://www.w3.org/2000/svg">
    <title>50E2598A-8712-4292-8B3A-614DF776D8B1</title>
    <g id="LAB-A:-Zapier-integration-discoverability" stroke="none" stroke-width="1" fill="none" fill-rule="evenodd">
        <g id="BigCommerce-via-Zapier" transform="translate(-414.000000, -682.000000)">
            <g id="bigcommerce-logo-asset" transform="translate(414.000000, 682.000000)">
                <path d="M50.8852489,41.0899432 C50.2978648,40.2932386 49.2991068,39.6416023 48.0895443,39.6416023 C45.8492966,39.6416023 44.233683,41.3514205 44.233683,43.6673636 C44.233683,45.9841364 45.8492966,47.6935341 48.0895443,47.6935341 C49.1361943,47.6935341 50.1144864,47.2472273 50.6261455,46.8025682 C50.6605284,46.7726477 50.6781295,46.7296136 50.6781295,46.684125 L50.6781295,45.428 C50.6781295,45.3493068 50.614275,45.2849659 50.5352739,45.2849659 L47.6540205,45.2849659 C47.5394091,45.2849659 47.446492,45.1919318 47.446492,45.0775909 L47.446492,43.2132727 C47.446492,43.0985227 47.5394091,43.0054886 47.6540205,43.0054886 L52.8201386,43.0054886 L52.8201386,40.2387273 L51.1521307,41.1522386 C51.0633068,41.2010114 50.9454205,41.1715 50.8852489,41.0899432 Z M26.63372,42.3991023 L29.7110416,42.3991023 C30.592323,42.3991023 31.1432773,41.9023864 31.1432773,41.1122386 C31.1432773,40.3581477 30.592323,39.825375 29.7110416,39.825375 L26.63372,39.825375 C26.5281136,39.825375 26.4429735,39.9110227 26.4429735,40.0163523 L26.4429735,42.208125 C26.4429735,42.3134545 26.5281136,42.3991023 26.63372,42.3991023 Z M39.1450091,49.6182159 C39.1450091,49.7128864 39.0684648,49.789125 38.9743205,49.789125 L36.7086943,49.789125 C36.6141398,49.789125 36.5375955,49.7128864 36.5375955,49.6182159 L36.5375955,37.6987273 C36.5375955,37.6044659 36.6141398,37.5278295 36.7086943,37.5278295 L38.9743205,37.5278295 C39.0684648,37.5278295 39.1450091,37.6044659 39.1450091,37.6987273 L39.1450091,49.6182159 Z M52.1689807,21.0797045 L29.7001944,37.5278295 L30.280211,37.5278295 C32.6121478,37.5278295 33.8053364,39.0163295 33.8053364,40.6523636 C33.8053364,41.9253068 33.1409989,42.8654545 32.249484,43.2810227 C32.1013075,43.3502841 32.1066288,43.5601136 32.2580799,43.622 C33.2973614,44.0478068 34.0443841,45.1613182 34.0443841,46.4617045 C34.0443841,48.3186477 32.8323659,49.789125 30.4824186,49.789125 L24.0265107,49.789125 C23.9209042,49.789125 23.8353549,49.703875 23.8353549,49.5981364 L23.8353549,41.8207955 L7.16837148,54.0218409 C6.84909636,54.2558523 7.01405523,54.7624091 7.41028386,54.7624091 L52.4108932,54.7624091 C52.636842,54.7624091 52.8202205,54.5788068 52.8202205,54.3525795 L52.8202205,48.1817614 C51.6159795,49.3059318 50.0327023,50.0100227 48.089217,50.0100227 C44.4908216,50.0100227 41.5530807,47.5285 41.5530807,43.6674886 C41.5530807,39.7884432 44.4908216,37.3253636 48.089217,37.3253636 C50.3519773,37.3253636 51.8677159,38.3515795 52.8202205,39.60525 L52.8202205,21.4104432 C52.8202205,21.0752045 52.4395466,20.8817614 52.1689807,21.0797045 Z M26.63372,47.491125 L29.8211506,47.491125 C30.7941213,47.491125 31.3815057,46.976375 31.3815057,46.0940114 C31.3815057,45.3222955 30.83137,44.6968977 29.8211506,44.6968977 L26.63372,44.6968977 C26.5281136,44.6968977 26.4429735,44.7825568 26.4429735,44.887875 L26.4429735,47.3001364 C26.4429735,47.4054659 26.5281136,47.491125 26.63372,47.491125 Z M65.8798852,47.1192045 L64.4754841,46.3901136 C64.3850227,46.3429773 64.2708205,46.3774091 64.2159705,46.4634773 C63.6220364,47.3958409 62.5262682,48.0880341 61.3355352,48.0880341 C58.9978682,48.0880341 57.2623205,46.2130682 57.2623205,43.6573636 C57.2623205,41.0656023 58.9978682,39.2271023 61.3355352,39.2271023 C62.5254489,39.2271023 63.6208091,39.9020909 64.2151523,40.8471591 C64.2704114,40.9352727 64.3858409,40.9692955 64.4775307,40.9197045 L65.8712898,40.1594659 C65.9773057,40.1016818 66.0145545,39.9693068 65.9494705,39.8668523 C65.0677807,38.4775227 63.6077102,37.31525 61.3355352,37.31525 C57.8464307,37.31525 55.1366852,39.8709432 55.1366852,43.6573636 C55.1366852,47.4261591 57.8464307,49.9998977 61.3355352,49.9998977 C63.6052545,49.9998977 65.048542,48.806875 65.9601136,47.4167386 C66.0292898,47.3114091 65.9912227,47.1769886 65.8798852,47.1192045 Z M73.200292,48.088125 C70.8069568,48.088125 69.2822125,46.1762614 69.2822125,43.6574432 C69.2822125,41.1210114 70.8069568,39.2271818 73.200292,39.2271818 C75.5756182,39.2271818 77.1179625,41.1210114 77.1179625,43.6574432 C77.1179625,46.1762614 75.5756182,48.088125 73.200292,48.088125 Z M71.5261443,37.5296705 C68.892942,38.2341705 67.1549398,40.6070795 67.1549398,43.6574432 C67.1549398,47.316 69.6547,49.9999773 73.200292,49.9999773 C76.2194898,49.9999773 78.4986227,48.0340227 79.0929659,45.1734091 C80.061025,40.514875 75.9763489,36.3395227 71.5261443,37.5296705 Z M93.9524841,37.5177386 L91.2648409,37.5177386 C91.1453182,37.5177386 91.0380739,37.5906932 90.9942761,37.7021705 L87.7438091,46.1155682 L84.4749227,37.7013523 C84.431125,37.5906932 84.3238807,37.5177386 84.2043568,37.5177386 L81.5163057,37.5177386 C81.4368966,37.5177386 81.3722227,37.5825 81.3722227,37.662 L81.3722227,49.6351932 C81.3722227,49.7146932 81.4368966,49.7794432 81.5163057,49.7794432 L83.3766977,49.7794432 C83.4561068,49.7794432 83.5207807,49.7146932 83.5207807,49.6351932 L83.5207807,40.3119659 L87.2591659,49.7142841 C87.2747205,49.753625 87.3127875,49.7794432 87.3549489,49.7794432 L88.1326705,49.7794432 C88.1748307,49.7794432 88.2128977,49.753625 88.2284523,49.7142841 L91.9484182,40.3119659 L91.9484182,49.6351932 C91.9484182,49.7146932 92.0126818,49.7794432 92.0925011,49.7794432 L93.9524841,49.7794432 C94.0323023,49.7794432 94.096567,49.7146932 94.096567,49.6351932 L94.096567,37.662 C94.096567,37.5825 94.0323023,37.5177386 93.9524841,37.5177386 Z M121.425581,37.5177386 L113.477266,37.5177386 C113.354877,37.5177386 113.25582,37.6169205 113.25582,37.7394659 L113.25582,49.5577273 C113.25582,49.6802727 113.354877,49.7794432 113.477266,49.7794432 L121.425581,49.7794432 C121.54797,49.7794432 121.647027,49.6802727 121.647027,49.5577273 L121.647027,48.10775 C121.647027,47.9852159 121.54797,47.8860341 121.425581,47.8860341 L115.625825,47.8860341 C115.503435,47.8860341 115.404378,47.7868523 115.404378,47.6643182 L115.404378,44.688125 C115.404378,44.5655909 115.503435,44.4664091 115.625825,44.4664091 L121.297461,44.4664091 C121.419441,44.4664091 121.518908,44.3668182 121.518908,44.2446932 L121.518908,42.7947159 C121.518908,42.6721705 121.419441,42.573 121.297461,42.573 L115.625825,42.573 C115.503435,42.573 115.404378,42.4738182 115.404378,42.3512841 L115.404378,39.632875 C115.404378,39.5103409 115.503435,39.4111591 115.625825,39.4111591 L121.425581,39.4111591 C121.54797,39.4111591 121.647027,39.3115682 121.647027,39.1894432 L121.647027,37.7394659 C121.647027,37.6169205 121.54797,37.5177386 121.425581,37.5177386 Z M129.804794,43.3083977 L127.068033,43.3083977 C126.946873,43.3083977 126.848634,43.2100341 126.848634,43.0887273 L126.848634,39.6305795 C126.848634,39.5092727 126.946873,39.4109091 127.068033,39.4109091 L129.804794,39.4109091 C131.015993,39.4109091 131.897684,40.165 131.897684,41.341625 C131.897684,42.5362727 131.015993,43.3083977 129.804794,43.3083977 Z M131.490403,44.8993523 C132.861241,44.5534545 134.100683,43.3780682 134.100683,41.3596591 C134.100683,39.0801818 132.503489,37.5179091 130.079863,37.5179091 L124.919475,37.5179091 C124.798314,37.5179091 124.700076,37.6162614 124.700076,37.7375795 L124.700076,49.5595341 C124.700076,49.6808409 124.798314,49.7796136 124.919475,49.7796136 L126.628825,49.7796136 C126.749986,49.7796136 126.848634,49.6808409 126.848634,49.5595341 L126.848634,45.4214773 C126.848634,45.3001705 126.946873,45.2018068 127.068033,45.2018068 L128.871528,45.2018068 C128.949301,45.2018068 129.020933,45.2427955 129.060638,45.3095909 L131.632031,49.6714205 C131.671326,49.7382159 131.743368,49.7796136 131.82114,49.7796136 L133.796553,49.7796136 C133.96888,49.7796136 134.074895,49.5906818 133.983207,49.444375 C133.416289,48.5374205 131.859617,46.0472841 131.347549,45.2280341 C131.266092,45.0985341 131.342227,44.9366477 131.490403,44.8993523 Z M150.973476,39.4110341 L156.784284,39.4110341 C156.903399,39.4110341 157,39.3143182 157,39.1946477 L157,37.7340114 C157,37.61475 156.903399,37.517625 156.784284,37.517625 L148.824918,37.517625 C148.705803,37.517625 148.608793,37.61475 148.608793,37.7340114 L148.608793,49.5629318 C148.608793,49.6826023 148.705803,49.7793295 148.824918,49.7793295 L156.784284,49.7793295 C156.903399,49.7793295 157,49.6826023 157,49.5629318 L157,48.1022955 C157,47.9830455 156.903399,47.8863182 156.784284,47.8863182 L150.973476,47.8863182 C150.853952,47.8863182 150.757351,47.7891932 150.757351,47.6699318 L150.757351,44.6826818 C150.757351,44.5630114 150.853952,44.4662841 150.973476,44.4662841 L156.655756,44.4662841 C156.77528,44.4662841 156.871881,44.3695682 156.871881,44.2498977 L156.871881,42.7892614 C156.871881,42.67 156.77528,42.572875 156.655756,42.572875 L150.973476,42.572875 C150.853952,42.572875 150.757351,42.4761591 150.757351,42.3564886 L150.757351,39.6274205 C150.757351,39.50775 150.853952,39.4110341 150.973476,39.4110341 Z M146.416806,47.0682159 L145.012403,46.339125 C144.921942,46.292 144.80774,46.3264205 144.752891,46.4124886 C144.158957,47.3448523 143.063187,48.0370568 141.872456,48.0370568 C139.534787,48.0370568 137.799241,46.1620795 137.799241,43.6063864 C137.799241,41.0146136 139.534787,39.176125 141.872456,39.176125 C143.062369,39.176125 144.157728,39.8511136 144.752072,40.7961818 C144.807331,40.8842955 144.922761,40.9183068 145.01445,40.8687159 L146.408209,40.1084886 C146.514225,40.0506932 146.551474,39.9179091 146.486391,39.8158636 C145.6047,38.4265455 144.144631,37.2642614 141.872456,37.2642614 C138.38335,37.2642614 135.673605,39.8199659 135.673605,43.6063864 C135.673605,47.3751818 138.38335,49.9489091 141.872456,49.9489091 C144.141765,49.9489091 145.585461,48.7558977 146.497033,47.36575 C146.56621,47.2604318 146.528142,47.126 146.416806,47.0682159 Z M109.814198,37.5177386 L107.126556,37.5177386 C107.007032,37.5177386 106.899789,37.5906932 106.85599,37.7021705 L103.605523,46.1155682 L100.336636,37.7013523 C100.292839,37.5906932 100.185594,37.5177386 100.066072,37.5177386 L97.3780193,37.5177386 C97.2986102,37.5177386 97.2339364,37.5825 97.2339364,37.662 L97.2339364,49.6351932 C97.2339364,49.7146932 97.2986102,49.7794432 97.3780193,49.7794432 L99.2384114,49.7794432 C99.3178216,49.7794432 99.3824943,49.7146932 99.3824943,49.6351932 L99.3824943,40.3119659 L103.12088,49.7142841 C103.136434,49.753625 103.174501,49.7794432 103.216663,49.7794432 L103.994384,49.7794432 C104.036544,49.7794432 104.074613,49.753625 104.090167,49.7142841 L107.810132,40.3119659 L107.810132,49.6351932 C107.810132,49.7146932 107.874397,49.7794432 107.954215,49.7794432 L109.814198,49.7794432 C109.894016,49.7794432 109.958281,49.7146932 109.958281,49.6351932 L109.958281,37.662 C109.958281,37.5825 109.894016,37.5177386 109.814198,37.5177386 Z" id="BG---Logo-Main" fill="#34313F" />
            </g>
        </g>
    </g>
</svg>
