<?xml version="1.0" encoding="UTF-8"?>
<svg width="165px" height="80px" viewBox="0 0 165 80" version="1.1" xmlns="http://www.w3.org/2000/svg" xmlns:xlink="http://www.w3.org/1999/xlink">
    <title>94D43E7A-3410-492A-A225-3C1E2F4F5F9C</title>
    <g id="Master:-Integrations-page" stroke="none" stroke-width="1" fill="none" fill-rule="evenodd">
        <g id="Third-party" transform="translate(-414.000000, -1313.000000)">
            <g id="Integration-item-CartRover" transform="translate(414.000000, 1313.000000)">
                <g id="CR_logo" transform="translate(5.000000, 26.000000)">
                    <path d="M68.7980989,19.7361111 C69.4764765,19.7361111 70.1234478,19.6505208 70.7390127,19.4793403 C71.3545776,19.3081597 71.8476577,19.1147891 72.2182529,18.8992284 C72.5888481,18.6836677 72.9311776,18.4364069 73.2452413,18.157446 C73.559305,17.8784851 73.7603058,17.6851145 73.8482437,17.5773341 C73.9361815,17.4695538 73.9989943,17.3839635 74.0366819,17.3205633 L74.0366819,17.3205633 L72.0769242,15.5516975 C72.0769242,15.5643776 72.0329553,15.6182677 71.9450175,15.7133681 C71.8570796,15.8084684 71.7220322,15.9320988 71.5398752,16.0842593 C71.3577183,16.2364198 71.1441549,16.3854102 70.8991852,16.5312307 C70.6542155,16.6770512 70.3495737,16.8006816 69.9852598,16.9021219 C69.6209458,17.0035622 69.2377881,17.0542824 68.8357865,17.0542824 C67.680032,17.0542824 66.7189969,16.6548611 65.9526814,15.8560185 C65.1863659,15.0571759 64.8032082,14.0681327 64.8032082,12.8888889 C64.8032082,11.7096451 65.1863659,10.7206019 65.9526814,9.92175926 C66.7189969,9.12291667 67.680032,8.72349537 68.8357865,8.72349537 C69.212663,8.72349537 69.5769769,8.77104552 69.9287283,8.86614583 C70.2804797,8.96124614 70.563137,9.06585648 70.7767004,9.17997685 C70.9902637,9.29409722 71.1912645,9.42723765 71.3797027,9.57939815 C71.568141,9.73155864 71.6906258,9.83616898 71.7471573,9.89322917 C71.8036888,9.95028935 71.8445171,9.99783951 71.8696422,10.0358796 L71.8696422,10.0358796 L73.9424628,8.22897377 L73.7728684,8.00073302 C73.6472429,7.84857253 73.4431015,7.66788194 73.1604441,7.45866127 C72.8777867,7.24944059 72.5511605,7.0370499 72.1805653,6.8214892 C71.8099701,6.6059285 71.3325932,6.4220679 70.7484346,6.26990741 C70.1642761,6.11774691 69.5455705,6.04166667 68.892318,6.04166667 C66.9325603,6.04166667 65.280585,6.71053884 63.9363923,8.04828318 C62.5921995,9.38602752 61.9201031,11.0185828 61.9201031,12.9459491 C61.9201031,14.8733153 62.5764963,16.4868506 63.8892827,17.7865548 C65.2020691,19.086259 66.8383412,19.7361111 68.7980989,19.7361111 Z M79.160613,19.7361111 C80.4168679,19.7361111 81.403028,19.39375 82.1190933,18.7090278 L82.1190933,18.7090278 L82.3452192,19.5459105 L84.4745713,19.5459105 L84.4745713,13.9730324 C84.4745713,12.5782279 84.0757104,11.4877443 83.2779885,10.7015818 C82.4802666,9.91541924 81.3841842,9.52233796 79.9897412,9.52233796 C79.2234257,9.52233796 78.4916572,9.63645833 77.7944357,9.86469907 C77.0972142,10.0929398 76.6449624,10.2768004 76.4376804,10.4162809 C76.2303983,10.5557613 76.0765071,10.6698817 75.9760067,10.758642 L75.9760067,10.758642 L77.0877923,12.6796682 L77.3704497,12.4894676 C77.5588879,12.3626672 77.8541078,12.2358668 78.2561094,12.1090664 C78.658111,11.9822659 79.0789564,11.9188657 79.5186456,11.9188657 C80.1844607,11.9188657 80.7183691,12.0963863 81.1203706,12.4514275 C81.5223722,12.8064686 81.723373,13.3073302 81.723373,13.9540123 L81.723373,13.9540123 L81.723373,14.3724537 C81.0575579,13.9032922 80.2284296,13.6687114 79.2359882,13.6687114 C78.0927963,13.6687114 77.1694489,13.9603524 76.4659461,14.5436343 C75.7624434,15.1269162 75.410692,15.8623585 75.410692,16.7499614 C75.410692,17.6248843 75.7498808,18.3413066 76.4282585,18.8992284 C77.1066361,19.4571502 78.017421,19.7361111 79.160613,19.7361111 Z M79.9520536,17.9862654 C79.4244265,17.9862654 78.9941592,17.856295 78.6612516,17.5963542 C78.3283441,17.3364133 78.1618903,17.0162423 78.1618903,16.635841 C78.1618903,16.2554398 78.3252034,15.9384388 78.6518297,15.684838 C78.9910185,15.4185571 79.4244265,15.2854167 79.9520536,15.2854167 C80.5173683,15.2854167 80.9696201,15.4153871 81.3088089,15.6753279 C81.6479977,15.9352688 81.8175921,16.2554398 81.8175921,16.635841 C81.8175921,17.0162423 81.6479977,17.3364133 81.3088089,17.5963542 C80.9696201,17.856295 80.5173683,17.9862654 79.9520536,17.9862654 Z M97.0041252,7.37307099 L97.0041252,9.71253858 L99.4711641,9.71233184 L99.4711641,12.0136904 L97.0041252,12.013966 L97.0041252,15.9130787 L97.0053213,15.9951757 C97.0292437,16.8026872 97.4120028,17.2064429 98.1535984,17.2064429 C98.3797243,17.2064429 98.6215534,17.1874228 98.8790857,17.1493827 L99.0610463,17.1208526 L99.22063,17.0923225 L99.3578366,17.0637924 C99.3788396,17.0590374 99.3989102,17.0542824 99.4180485,17.0495274 L99.4711641,17.0354002 L99.4716495,19.4754137 C98.9390128,19.6356838 98.3209613,19.7220564 97.6174949,19.7345316 L97.4375331,19.7361111 C96.4576543,19.7361111 95.6819169,19.4634902 95.1103209,18.9182485 C94.5635769,18.3967129 94.2783191,17.6721528 94.2545477,16.7445682 L94.2529269,16.616821 L94.2529269,7.37307099 L97.0041252,7.37307099 Z M93.0092345,9.52233796 L92.9715468,12.3563272 L92.4062321,12.3563272 L92.2052954,12.3603301 C90.4297457,12.4323831 89.5419709,13.4771522 89.5419709,15.4946373 L89.5419709,15.4946373 L89.5419709,19.5459105 L86.8096164,19.5459105 L86.8096164,9.71253858 L89.2404697,9.71253858 L89.3912203,11.6335648 L89.4934299,11.437283 C90.198186,10.160653 91.3701209,9.52233796 93.0092345,9.52233796 L93.0092345,9.52233796 Z" id="Cart-Copy" fill="#000000" fill-rule="nonzero"></path>
                    <path d="M105.16834,19.9460094 L105.16834,15.2976135 L107.196654,15.2976135 L110.172778,19.9460094 L113.546982,19.9460094 L110.191734,14.8925665 C111.051082,14.5711007 111.730346,14.050326 112.229526,13.3302426 C112.728706,12.6101591 112.978296,11.7743479 112.978296,10.8228091 C112.978296,9.52408712 112.535984,8.46967919 111.651361,7.65958529 C110.766739,6.84949139 109.616729,6.44444444 108.201333,6.44444444 L108.201333,6.44444444 L102.268041,6.44444444 L102.268041,19.9460094 L105.16834,19.9460094 Z M107.841165,13.0216354 L105.16834,13.0216354 L105.16834,8.93258998 L107.841165,8.93258998 C108.536226,8.93258998 109.082796,9.12225483 109.480876,9.50158451 C109.878957,9.88091419 110.077997,10.3727569 110.077997,10.9771127 C110.077997,11.5814684 109.878957,12.0733112 109.480876,12.4526408 C109.082796,12.8319705 108.536226,13.0216354 107.841165,13.0216354 L107.841165,13.0216354 Z M119.725105,20.1388889 C121.241601,20.1388889 122.511667,19.6341875 123.535302,18.6247848 C124.558937,17.6153821 125.070754,16.3777387 125.070754,14.9118545 C125.070754,13.4459703 124.574734,12.2244001 123.582692,11.247144 C122.590651,10.2698878 121.336382,9.78125978 119.819886,9.78125978 C118.30339,9.78125978 117.033324,10.2859611 116.009689,11.2953638 C114.986055,12.3047666 114.474237,13.54241 114.474237,15.0082942 C114.474237,16.4741784 114.967098,17.6957486 115.952821,18.6730047 C116.951181,19.6502608 118.208609,20.1388889 119.725105,20.1388889 Z M119.781974,17.5735915 C119.049001,17.5735915 118.439243,17.3228482 117.9527,16.8213615 C117.466158,16.3198748 117.222886,15.7026604 117.222886,14.9697183 C117.222886,14.2367762 117.462998,13.6195618 117.943222,13.1180751 C118.436083,12.6165884 119.049001,12.3658451 119.781974,12.3658451 C120.502309,12.3658451 121.105749,12.6165884 121.592291,13.1180751 C122.078834,13.6195618 122.322105,14.2367762 122.322105,14.9697183 C122.322105,15.7026604 122.078834,16.3198748 121.592291,16.8213615 C121.105749,17.3228482 120.502309,17.5735915 119.781974,17.5735915 Z M132.388448,19.9460094 L136.293425,9.97413928 L133.37417,9.97413928 L131.118382,16.2812989 L128.88155,9.97413928 L125.810645,9.97413928 L129.715623,19.9460094 L132.388448,19.9460094 Z M142.284185,20.1388889 C142.852871,20.1388889 143.396282,20.0681664 143.914418,19.9267214 C144.432554,19.7852765 144.846431,19.6245436 145.156049,19.4445227 C145.465667,19.2645018 145.75001,19.0587637 146.009078,18.8273083 C146.268146,18.5958529 146.432434,18.43512 146.50194,18.3451095 C146.571446,18.2550991 146.625155,18.1843766 146.663067,18.1329421 L145.032834,16.5320423 L144.938053,16.6670579 C144.874866,16.7442097 144.770606,16.8406495 144.625276,16.9563772 C144.479945,17.0721049 144.312498,17.1846179 144.122936,17.2939163 C143.933374,17.4032147 143.690103,17.4996544 143.393122,17.5832355 C143.096142,17.6668166 142.789683,17.7086072 142.473747,17.7086072 C141.766048,17.7086072 141.172087,17.5060837 140.691864,17.1010368 C140.21164,16.6959898 139.927297,16.1655712 139.838834,15.5097809 L147.061148,15.5097809 L147.09906,15.3940532 C147.111697,15.32976 147.127494,15.2204617 147.14645,15.0661581 C147.165407,14.9118545 147.174885,14.7511215 147.174885,14.5839593 C147.174885,13.2723787 146.704139,12.1440336 145.762648,11.1989241 C144.821156,10.2538146 143.667987,9.78125978 142.303141,9.78125978 C140.811919,9.78125978 139.56081,10.2859611 138.549813,11.2953638 C137.538815,12.3047666 137.033316,13.54241 137.033316,15.0082942 C137.033316,16.4741784 137.529337,17.6957486 138.521378,18.6730047 C139.51342,19.6502608 140.767688,20.1388889 142.284185,20.1388889 Z M139.838834,13.8124413 C139.965209,13.2466615 140.249552,12.780536 140.691864,12.4140649 C141.134175,12.0475939 141.65863,11.8643584 142.265228,11.8643584 C142.821277,11.8643584 143.314138,12.0540232 143.743812,12.4333529 C144.173486,12.8126826 144.432554,13.2723787 144.521016,13.8124413 L139.838834,13.8124413 Z M151.512059,19.9460094 L151.512059,15.8376761 C151.512059,13.7160016 152.472506,12.6551643 154.393402,12.6551643 L154.962088,12.6551643 L155,9.78125978 C153.268667,9.78125978 152.05547,10.4949139 151.360409,11.9222222 L151.20876,9.97413928 L148.763409,9.97413928 L148.763409,19.9460094 L151.512059,19.9460094 Z" id="Rover-Copy" fill="#C54E15" fill-rule="nonzero"></path>
                    <path d="M47.8057282,23.8214286 C49.2271659,23.8214286 50.3794688,24.9806913 50.3794688,26.4107143 C50.3794688,27.8407373 49.2271659,29 47.8057282,29 C46.3842905,29 45.2319876,27.8407373 45.2319876,26.4107143 C45.2319876,24.9806913 46.3842905,23.8214286 47.8057282,23.8214286 Z M35.4517731,23.8214286 C36.8732108,23.8214286 38.0255138,24.9806913 38.0255138,26.4107143 C38.0255138,27.8407373 36.8732108,29 35.4517731,29 C34.0303354,29 32.8780325,27.8407373 32.8780325,26.4107143 C32.8780325,24.9806913 34.0303354,23.8214286 35.4517731,23.8214286 Z M25.5436993,0 L27.7155428,4.79102619 L53.6125492,4.79102619 C55.2674243,4.79102619 55.8296606,5.83103975 55.3786521,7.00792719 C54.9276437,8.18481463 51.1513169,19.2839665 50.7042485,20.507556 C50.2820172,21.6631684 49.783971,22.0648014 48.995788,22.1058606 L48.8536414,22.1094435 L35.010248,22.1094435 C33.8910726,22.1094435 33.499203,21.7566281 32.8780325,20.507556 C32.4700088,19.6870872 29.7551629,13.6166503 24.7334949,2.29624551 L24.5071025,1.78585316 L20.2381176,1.78585316 L19.5747423,0 L25.5436993,0 Z M53.4486984,6.31042055 L28.4743438,6.31027054 L34.7232505,20.3639312 L48.9684192,20.3639312 C52.0921015,11.6698592 53.734541,7.15406438 53.8957379,6.81654684 C54.1214135,6.3440223 53.7213362,6.31252066 53.4486984,6.31042055 Z" id="Combined-Shape-Copy-3" fill="#C54E15"></path>
                    <path d="M25.5510747,23.8214286 C26.980249,23.8214286 28.1388236,24.9806913 28.1388236,26.4107143 C28.1388236,27.8407373 26.980249,29 25.5510747,29 C24.1219004,29 22.9633258,27.8407373 22.9633258,26.4107143 C22.9633258,24.9806913 24.1219004,23.8214286 25.5510747,23.8214286 Z M15.5890736,0 L17.7727379,4.79102619 L23.6336289,4.791 L24.2936289,6.31 L18.5356689,6.31027054 L24.8185869,20.3639312 L30.4006289,20.363 L31.1596289,22.109 L25.1071465,22.1094435 C23.9818797,22.1094435 23.5878772,21.7566281 22.9633258,20.507556 C22.5530813,19.6870872 19.8234591,13.6166503 14.7744594,2.29624551 L14.5468348,1.78585316 L10.2546148,1.78585316 L9.58762887,0 L15.5890736,0 Z" id="Combined-Shape-Copy-4" fill="#D6825F"></path>
                    <path d="M15.9634458,23.8214286 C17.3926201,23.8214286 18.5511947,24.9806913 18.5511947,26.4107143 C18.5511947,27.8407373 17.3926201,29 15.9634458,29 C14.5342716,29 13.3756969,27.8407373 13.3756969,26.4107143 C13.3756969,24.9806913 14.5342716,23.8214286 15.9634458,23.8214286 Z M6.00144469,0 L8.18510899,4.79102619 L14.046,4.791 L14.706,6.31 L8.94804003,6.31027054 L15.230958,20.3639312 L20.813,20.363 L21.572,22.109 L15.5195176,22.1094435 C14.3942508,22.1094435 14.0002483,21.7566281 13.3756969,20.507556 C12.9654524,19.6870872 10.2358303,13.6166503 5.18683054,2.29624551 L4.95920589,1.78585316 L0.666985975,1.78585316 L0,0 L6.00144469,0 Z" id="Combined-Shape-Copy-5" fill="#E7B8A2"></path>
                </g>
            </g>
        </g>
    </g>
</svg>