<?xml version="1.0" encoding="UTF-8"?>
<svg width="165px" height="80px" viewBox="0 0 165 80" version="1.1" xmlns="http://www.w3.org/2000/svg">
  <title>33B44FA8-9BB4-4F88-ABDF-1342CC05903E</title>
  <defs>
    <linearGradient x1="77.6831803%" y1="-160.76908%" x2="49.8729898%" y2="43.8297037%" id="linearGradient-1">
      <stop stop-color="#BE0000" offset="0%" />
      <stop stop-color="#808080" offset="100%" />
    </linearGradient>
    <linearGradient x1="53.1727082%" y1="38.6173849%" x2="13.8846683%" y2="257.599619%" id="linearGradient-2">
      <stop stop-color="#BE0000" offset="0%" />
      <stop stop-color="#808080" offset="100%" />
    </linearGradient>
    <linearGradient x1="47.3226027%" y1="39.8905103%" x2="4.48424596%" y2="229.709266%" id="linearGradient-3">
      <stop stop-color="#BE0000" offset="0%" />
      <stop stop-color="#808080" offset="100%" />
    </linearGradient>
    <linearGradient x1="58.7993343%" y1="17.0119455%" x2="20.0808369%" y2="191.554406%" id="linearGradient-4">
      <stop stop-color="#BE0000" offset="0%" />
      <stop stop-color="#808080" offset="100%" />
    </linearGradient>
    <linearGradient x1="70.7391065%" y1="-58.8784536%" x2="33.3057547%" y2="164.659345%" id="linearGradient-5">
      <stop stop-color="#BE0000" offset="0%" />
      <stop stop-color="#808080" offset="100%" />
    </linearGradient>
    <linearGradient x1="0.710593248%" y1="50.0041615%" x2="95.9800489%" y2="50.0041615%" id="linearGradient-6">
      <stop stop-color="#FFFFFF" offset="0%" />
      <stop stop-color="#000000" offset="43.8%" />
      <stop stop-color="#FFFFFF" offset="100%" />
    </linearGradient>
  </defs>
  <g id="Master:-Integrations-page" stroke="none" stroke-width="1" fill="none" fill-rule="evenodd">
    <g id="Third-party-via-Zapier" transform="translate(-414.000000, -997.000000)">
      <g id="Integration-item-Easy-Insight" transform="translate(414.000000, 996.000000)">
        <g id="Easy_Insight_logo" transform="translate(0.000000, 1.000000)">
          <g id="easy-insight-vector" transform="translate(8.000000, 24.000000)">
            <path d="M38.5502812,18.2539286 C38.5502812,15.4075568 40.4941927,15.0837989 42.3460175,15.0837989 L44.4411807,15.0837989 C46.7790611,15.0837989 48.4642605,15.6843998 48.4642605,18.484756 L48.4642605,19.3616004 L39.8550219,19.3616004 L39.8550219,19.8541321 C39.8550219,21.6388477 40.7044544,22.1002028 42.9825483,22.1002028 L44.7730339,22.1002028 C46.4128889,22.1002028 47.0806329,21.8848138 47.1567246,20.684811 L48.4627076,20.684811 L48.4627076,20.8384462 C48.4627076,22.6386002 46.9890122,23.1766979 44.5602876,23.1766979 L42.1921258,23.1766979 C40.491708,23.1766979 38.547486,22.85294 38.547486,19.9601029 L38.547486,18.2528794 L38.5502812,18.2539286 Z M47.1587434,17.7610971 C47.1587434,16.9612951 46.5667806,16.1610434 44.4411807,16.1610434 L42.5280166,16.1610434 C40.463756,16.1610434 39.9781663,16.4993405 39.8562642,18.2845057 L47.1587434,18.2845057 L47.1587434,17.7610971 Z M58.3628662,22.2694262 L58.33274,22.2694262 C57.9833391,22.9776467 57.5733754,23.1777471 55.5695223,23.1777471 L52.4419959,23.1777471 C50.4682689,23.1777471 49.9522426,22.3001533 49.9522426,20.8230077 L49.9522426,20.3001986 C49.9522426,18.5156329 51.1976627,18.3000941 53.4742038,18.3000941 L55.5706093,18.3000941 C57.2710271,18.3000941 57.8782083,18.484756 58.3347588,19.2383925 L58.3658167,19.2383925 L58.3658167,17.7613969 C58.3658167,16.3458553 57.4853264,16.1613432 55.4820944,16.1613432 L53.5689303,16.1613432 C51.9290753,16.1613432 51.6107323,16.5612442 51.6107323,17.207561 L51.6107323,17.4845539 L50.3047493,17.4845539 L50.3047493,17.1000913 C50.3047493,15.6691112 51.2007685,15.0840987 53.5394253,15.0840987 L55.604773,15.0840987 C58.0350505,15.0840987 59.6733525,15.4538722 59.6733525,17.7922738 L59.6733525,23.0545392 L58.3689225,23.0545392 L58.3689225,22.2694262 L58.3628662,22.2694262 Z M58.3628662,20.5921803 C58.3628662,19.5150856 57.4215025,19.3765892 55.4178047,19.3765892 L53.4137963,19.3765892 C51.7282863,19.3765892 51.2576044,19.6234546 51.2576044,20.6077687 L51.2576044,20.8540345 C51.2576044,21.7311787 51.561195,22.1002028 53.3527676,22.1002028 L55.0826904,22.1002028 C57.4508521,22.1002028 58.3624003,21.9308294 58.3624003,20.9460657 L58.3624003,20.5923302 L58.3628662,20.5921803 Z M61.5358924,20.3463641 L62.7502547,20.3463641 L62.7502547,20.7308266 C62.7502547,21.7006016 63.2518391,22.1008023 64.5873271,22.1008023 L67.3809815,22.1008023 C69.3394901,22.1008023 69.9618896,22.0243595 69.9618896,20.8552336 L69.9618896,20.7937796 C69.9618896,20.0398433 69.7491433,19.6246537 68.1853801,19.6246537 L64.1623003,19.6246537 C62.3252279,19.6246537 61.641955,19.025102 61.641955,17.5322182 L61.641955,17.0705634 C61.641955,15.7935182 62.3558199,15.0860472 65.5743458,15.0860472 L67.5791306,15.0860472 C70.5249686,15.0860472 70.9349324,15.9479028 70.9349324,17.0570735 L70.9349324,17.472263 L69.7205701,17.472263 L69.7205701,17.3958202 C69.7205701,16.1967168 68.9317004,16.1652403 67.5045918,16.1652403 L65.2264978,16.1652403 C63.3599205,16.1652403 62.9499567,16.3496025 62.9499567,17.2429345 L62.9499567,17.535216 C62.9499567,18.1827318 63.162703,18.5514561 64.5292489,18.5514561 L67.9751184,18.5514561 C69.9348693,18.5514561 71.2703572,18.7508071 71.2703572,20.8747191 L71.2703572,20.9061955 C71.2703572,23.1065503 69.2671253,23.1844921 67.6723042,23.1844921 L65.2730846,23.1844921 C63.3459444,23.1844921 61.538377,23.1844921 61.538377,20.8312516 L61.538377,20.3546079 L61.5358924,20.3463641 Z M73.7121261,24.900559 C75.7164451,24.900559 76.1413166,24.7620625 76.8245895,23.1774473 L76.5046936,23.1774473 L72.1180815,15.2073065 L73.590224,15.2073065 L77.341237,22.1463683 L80.7110147,15.2073065 L82.122905,15.2073065 L77.7507349,24.0237146 C76.945094,25.6392067 76.398631,25.9467767 73.7121261,25.9776536 L73.7121261,24.900559 L73.7121261,24.900559 Z" id="Shape" fill="#C80000" />
            <path d="M83.7988827,11.7318436 L86.7347717,11.7318436 L86.7347717,23.3393704 L83.7991888,23.3393704 L83.7988827,11.7318436 Z M88.8726353,15.1630474 L91.7474557,15.1630474 L91.7474557,16.4772751 L91.7760768,16.4772751 C92.2842174,15.339371 93.2876419,15.0342016 94.8298178,15.0342016 C96.6098402,15.0342016 99.0942188,15.1146326 99.0942188,18.6418852 L99.0942188,23.3393704 L96.2213882,23.3393704 L96.2213882,18.6420414 C96.2213882,17.8400736 95.6217211,17.4394802 94.3651447,17.4394802 L93.7063986,17.4394802 C92.4804331,17.4394802 91.7473026,18.0485696 91.7473026,19.2191146 L91.7473026,23.3406198 L88.8726353,23.3406198 L88.8726353,15.1632036 L88.8726353,15.1630474 Z M103.596772,20.7900968 C103.596772,21.2394174 103.747225,21.543806 105.378938,21.543806 L106.395525,21.543806 C107.756944,21.543806 108.101469,21.4316711 108.101469,20.9344042 C108.101469,20.4536921 107.876785,20.2612823 106.860198,20.2612823 L104.166441,20.2612823 C101.487683,20.2450399 100.695627,19.6197081 100.695627,17.3751354 C100.695627,15.339371 102.220508,15.0343578 104.196746,15.0343578 L106.201452,15.0343578 C109.957712,15.0343578 110.616612,15.5959695 110.644927,17.5195989 L107.772096,17.5195989 C107.623633,17.0385744 107.353339,16.9573625 105.632396,16.9573625 C103.972062,16.9573625 103.657994,17.0057773 103.657994,17.5664519 C103.657994,17.9178497 103.882678,18.0459146 105.379091,18.0459146 L107.368492,18.0459146 C110.810684,18.0459146 111.063989,19.2797112 111.063989,20.7384023 C111.063989,22.9030125 110.256781,23.4636872 106.980193,23.4636872 L104.255825,23.4636872 C101.607525,23.4636872 100.634558,22.8061829 100.634558,20.7852554 L103.596772,20.7852554 L103.596772,20.7900968 Z M112.769627,15.1630474 L115.642458,15.1630474 L115.642458,23.3393704 L112.769627,23.3393704 L112.769627,15.1630474 Z" id="Shape" fill="#666666" />
            <path d="M112.290647,8.82165155 C112.290647,8.57826499 112.461241,8.37988827 112.673112,8.37988827 C112.737482,8.37988827 112.798677,8.39855902 112.850634,8.43073272 L116.245195,10.4655111 C116.383748,10.5338593 116.480447,10.6905603 116.480447,10.8739337 C116.480447,11.0389698 116.4015,11.1840015 116.286616,11.2590179 L112.863191,13.3478081 C112.807336,13.3861498 112.742822,13.4078212 112.67268,13.4078212 C112.460952,13.4078212 112.290503,13.2094445 112.290503,12.9660579 L112.290503,8.82165155 L112.290647,8.82165155 Z" id="Path" fill="#C80000" />
            <path d="M117.318436,18.1443428 C117.318436,15.6488836 118.530317,14.9851715 120.823085,14.9851715 L122.500721,14.9851715 C123.954671,14.9851715 124.297859,15.1750233 125.01794,16.2172083 L125.047049,16.2172083 L125.047049,15.1119445 L127.743523,15.1119445 L127.743523,22.661093 C127.743523,24.3349892 127.23487,25.9776536 123.625273,25.9776536 L120.447724,25.9776536 C118.517294,25.9776536 117.423384,25.4881005 117.423384,23.4665017 L120.389504,23.4665017 C120.389504,23.8454361 120.630042,24.082674 121.092732,24.082674 L123.176371,24.082674 C124.434215,24.082674 125.048582,23.655892 125.048582,22.2975437 L125.048582,21.7606046 C124.481709,22.3606225 124.000634,22.5980142 122.474675,22.5980142 L120.962505,22.5980142 C118.175639,22.5980142 117.322266,21.4290563 117.322266,19.2492988 L117.322266,18.1443428 L117.318436,18.1443428 Z M123.264466,20.4182568 C124.687775,20.4182568 125.017633,20.0237835 125.017633,18.8074395 C125.017633,17.5754027 124.686703,17.1649289 123.263394,17.1649289 L121.855405,17.1649289 C120.433629,17.1649289 120.10423,17.5754027 120.10423,18.8074395 C120.10423,20.0236297 120.433629,20.4182568 121.855405,20.4182568 L123.263394,20.4182568 L123.264466,20.4182568 Z M129.568545,11.7318436 L132.446264,11.7318436 L132.446264,16.4067524 L132.474914,16.4067524 C132.983567,15.2857959 133.988004,14.9851715 135.531735,14.9851715 C137.313552,14.9851715 139.800589,15.0644046 139.800589,18.5391238 L139.800589,23.1666466 L136.924862,23.1666466 L136.924862,18.5392776 C136.924862,17.7492541 136.324284,17.3546269 135.06644,17.3546269 L134.407183,17.3546269 C133.179981,17.3546269 132.446111,17.9546448 132.446111,19.1077562 L132.446111,23.1668005 L129.568392,23.1668005 L129.568392,11.7318436 L129.568545,11.7318436 Z M142.316123,17.2912404 L140.877187,17.2912404 L140.877187,15.1119445 L142.316123,15.1119445 L142.316123,13.2165033 L145.191851,13.2165033 L145.191851,15.1119445 L149.65528,15.1119445 L149.65528,17.2912404 L145.192004,17.2912404 L145.192004,20.3867174 C145.192004,20.9870431 145.611183,21.1135084 146.301235,21.1135084 C147.22922,21.1135084 147.484619,20.8919633 147.484619,20.1488642 L147.484619,19.6119251 L150,19.6119251 L150,20.5904158 C150,22.1212308 149.041526,23.2904965 146.748911,23.2904965 L145.61103,23.2904965 C143.844533,23.2904965 142.31597,22.7058636 142.31597,20.4781048 L142.31597,17.2887788 L142.316123,17.2912404 Z" id="Shape" fill="#666666" />
            <path d="M5.12790611,13.8873343 C5.13734027,13.5174158 5.17888365,13.1510484 5.24426068,12.7903039 L0.36597542,12.5698324 C0.15412073,13.402889 0.0266768932,14.256661 0.00350528646,15.1252298 C-0.0411828122,16.9171152 0.342803813,18.5995048 1.07601965,20.1117318 L5.86592179,17.1730989 C5.36111178,16.1817171 5.09960365,15.0719615 5.13105083,13.8882221 L5.12790611,13.8873343 Z" id="Path" fill="url(#linearGradient-1)" />
            <path d="M21.0901232,5.86447353 L25.1396648,2.34907213 C25.0531638,2.29645214 24.6714275,1.95224983 24.5055395,1.83317096 C24.3457955,1.72004603 24.189447,1.60885211 24.103916,1.56186423 C22.751428,0.811184587 21.4335403,0.30509938 19.8246212,0 L18.4357542,4.48364137 C19.499636,4.80547616 20.2514674,5.23351643 21.0889914,5.86592179 L21.0901232,5.86447353 Z" id="Path" fill="url(#linearGradient-2)" />
            <path d="M14.6198658,4.06015487 C15.4939995,4.00109179 16.3374321,4.04998705 17.1376671,4.18994413 L18.4357542,0.104872041 C17.4662772,-0.00607684232 16.4605452,-0.0301506566 15.4276604,0.0381830896 C14.4520123,0.105470148 13.4976545,0.255744579 12.5698324,0.476745185 L13.965114,4.12519903 C14.1814104,4.09828421 14.3997124,4.07286465 14.6198658,4.05940724 L14.6198658,4.06015487 Z" id="Path" fill="url(#linearGradient-3)" />
            <path d="M12.5698324,4.37834817 L11.1719889,0.837988827 C9.23030945,1.4528965 7.43558683,2.37121649 5.86592179,3.52184825 L9.12861913,5.86592179 C10.1611425,5.20521038 11.3259589,4.69568124 12.5698324,4.37849786 L12.5698324,4.37834817 Z" id="Path" fill="url(#linearGradient-4)" />
            <path d="M7.54189944,7.5618482 L4.43676489,5.02793296 C2.88003772,6.64645818 1.64161996,8.56069446 0.837988827,10.6507145 L5.3430069,10.8938547 C5.85683163,9.65942534 6.60900326,8.52816624 7.54189944,7.5618482 L7.54189944,7.5618482 Z" id="Path" fill="url(#linearGradient-5)" />
            <path d="M14.8731371,21.8113066 L13.1905276,27.6333563 C13.8332538,27.6639924 14.4878448,27.6613024 15.1544566,27.6157219 C18.1966732,27.4135238 21.0490536,26.4345144 23.4636872,24.9212418 L19.409532,20.3960694 C18.0550767,21.1567408 16.511722,21.6582757 14.8728248,21.8113066 L14.8731371,21.8113066 Z M7.1982025,19.273743 L2.51396648,22.3508004 C4.30929107,24.7362298 7.03709163,26.4780027 10.286473,27.2341907 L11.8910249,21.6820373 C10.0202966,21.3311422 8.39451314,20.4784132 7.1982025,19.273743 L7.1982025,19.273743 Z" id="Shape" fill="#808080" />
            <path d="M16.2529627,15.6338452 C14.6571316,16.8308906 12.563007,16.8120726 11.2978193,15.7088064 L20.5140706,9.330889 C20.4179272,9.20118447 20.323286,9.07427931 20.2166268,8.95250634 C17.7965158,6.16821337 13.3558901,5.96463635 10.3003309,8.36961353 C7.31387492,10.721558 6.65138644,14.7957424 8.81010742,17.5861007 C11.034927,20.461218 15.4665393,20.9836131 18.7143854,18.6254477 C19.6998558,17.9116062 20.4419631,17.0189155 20.9497207,16.0469091 L16.9717853,14.9582619 C16.7614715,15.1993195 16.5301263,15.4294906 16.2582206,15.6316679 L16.2529627,15.6338452 Z M11.8700231,10.211138 C13.1409193,9.2235795 14.7693491,9.0039838 16.0408462,9.5445749 L10.2533108,13.6332227 C10.1505575,12.4186035 10.7205079,11.106006 11.8701733,10.2086497 L11.8700231,10.211138 Z" id="Shape" fill="#C80000" />
            <path d="M29.6295198,15.2672289 C29.6121213,15.3781225 29.588671,15.4897755 29.5579588,15.5999095 L29.3951687,16.0948289 C28.6674549,18.5475507 27.2634664,20.7929169 25.3859343,22.6256983 L21.4462942,18.0104007 C22.4584368,16.8946295 23.2043057,15.5865415 23.5976645,14.1636104 C23.6097679,14.1210759 23.6400262,13.9980297 23.6551554,13.9327088 L23.6657458,13.8886552 L19.273743,12.883018 L28.3164578,7.54189944 L34.3575419,16.3526184 L29.6311841,15.2649503 L29.6295198,15.2672289 Z" id="Path" fill="#808080" />
            <path d="M40.2234637,31.0052379 C40.2234637,31.4693226 31.7821428,31.8435754 21.3693379,31.8435754 C10.9554431,31.8435754 2.51396648,31.4693226 2.51396648,31.0052379 C2.51396648,30.5421296 10.9554431,30.1675978 21.3693379,30.1675978 C31.7821428,30.1675978 40.2234637,30.5419901 40.2234637,31.0052379 Z" id="Path" fill="url(#linearGradient-6)" opacity="0.5" />
          </g>
        </g>
      </g>
    </g>
  </g>
</svg>
