<?xml version="1.0" encoding="UTF-8"?>
<svg width="165px" height="80px" viewBox="0 0 165 80" version="1.1" xmlns="http://www.w3.org/2000/svg">
  <title>B295376D-4D07-440C-AE53-7D352BF0C08E</title>
  <g id="LAB-A:-Zapier-integration-discoverability" stroke="none" stroke-width="1" fill="none" fill-rule="evenodd">
    <g id="Amazon,-Mgento-via-Zapier" transform="translate(-414.000000, -892.000000)">
      <g id="EBay_logo" transform="translate(414.000000, 892.000000)">
        <path d="M49.5635713,30.827286 C43.27228,30.827286 38.0297512,33.4963677 38.0297512,41.5488652 C38.0297512,47.9282161 41.5549723,51.945548 49.7260194,51.945548 C59.3437243,51.945548 59.9602541,45.6100693 59.9602541,45.6100693 L55.3000222,45.6100693 C55.3000222,45.6100693 54.3008295,49.021481 49.4417351,49.021481 C45.4841355,49.021481 42.6376747,46.3480065 42.6376747,42.600743 L60.4475986,42.600743 L60.4475986,40.2492798 C60.4475986,36.5420581 58.0941893,30.827286 49.5635713,30.827286 L49.5635713,30.827286 Z M49.4011229,33.832577 C53.168348,33.832577 55.7366017,36.1404588 55.7366017,39.5994869 L42.7407481,39.5994869 C42.7407481,35.9273055 46.0929735,33.832577 49.4011229,33.832577 L49.4011229,33.832577 Z" id="e" fill="#E53238" />
        <path d="M60.4442928,23.0297737 L60.4442928,47.9016153 C60.4442928,49.3134199 60.3435294,51.2957554 60.3435294,51.2957554 L64.7884087,51.2957554 C64.7884087,51.2957554 64.9479505,49.872014 64.9479505,48.570853 C64.9479505,48.570853 67.144008,52.006466 73.1152509,52.006466 C79.4032102,52.006466 83.6743812,47.6409411 83.6743812,41.3864169 C83.6743812,35.5679231 79.7511726,30.888204 73.1254023,30.888204 C66.9208365,30.888204 64.9928417,34.2386975 64.9928417,34.2386975 L64.9928417,23.0297737 L60.4442928,23.0297737 Z M71.9781121,33.9645661 C76.2481256,33.9645661 78.9633855,37.1336553 78.9633855,41.3864169 C78.9633855,45.9467317 75.8273511,48.9301038 72.0085722,48.9301038 C67.4511942,48.9301038 64.9928417,45.3717222 64.9928417,41.427029 C64.9928417,37.7513436 67.1987934,33.9645661 71.9781121,33.9645661 Z" id="b" fill="#0064D2" />
        <path d="M94.7208562,30.827286 C85.2560843,30.827286 84.6490707,36.0097318 84.6490707,36.8378683 L89.3600664,36.8378683 C89.3600664,36.8378683 89.6071098,33.8122709 94.3959607,33.8122709 C97.5078334,33.8122709 99.9191997,35.2366246 99.9191997,37.9750054 L99.9191997,38.9496944 L94.3959607,38.9496944 C87.0634688,38.9496944 83.1870364,41.094738 83.1870364,45.4476212 C83.1870364,49.7314834 86.7687359,52.0623076 91.6089597,52.0623076 C98.2054331,52.0623076 100.330394,48.4173769 100.330394,48.4173769 C100.330394,49.8671308 100.442167,51.2957554 100.442167,51.2957554 L104.630195,51.2957554 C104.630195,51.2957554 104.467746,49.5249306 104.467746,48.3919942 L104.467746,38.5994156 C104.467746,32.1785558 99.2886522,30.827286 94.7208562,30.827286 L94.7208562,30.827286 Z M99.9191997,41.8737614 L99.9191997,43.1733468 C99.9191997,44.8683604 98.8732569,49.082399 92.7156383,49.082399 C89.3437474,49.082399 87.898035,47.3995757 87.898035,45.4476212 C87.898035,41.8966309 92.7665977,41.8737614 99.9191997,41.8737614 L99.9191997,41.8737614 Z" id="a" fill="#F5AF02" />
        <polygon id="y" fill="#86B817" points="101.930945 31.6403454 107.230818 31.6403454 114.836871 46.8785638 122.425522 31.6403454 127.226446 31.6403454 113.403848 58.7691805 108.367953 58.7691805 112.356637 51.2066477" />
      </g>
    </g>
  </g>
</svg>
