<?xml version="1.0" encoding="UTF-8"?>
<svg width="165px" height="80px" viewBox="0 0 165 80" version="1.1" xmlns="http://www.w3.org/2000/svg">
  <title>FE9925F3-60F4-4B70-B76B-2B304160F972</title>
  <g id="LAB-A:-Zapier-integration-discoverability" stroke="none" stroke-width="1" fill="none" fill-rule="evenodd">
    <g id="Third-party-via-Zapier" transform="translate(-414.000000, -997.000000)" fill="#000000">
      <g id="Ecwid_logo_vector" transform="translate(414.000000, 997.000000)">
        <path d="M45.5436279,28 L32.4563721,28 C29.4435349,28 27,30.4435349 27,33.4574884 L27,46.5436279 C27,49.5575814 29.4435349,52 32.4563721,52 L45.5436279,52 C48.5575814,52 51,49.5575814 51,46.5436279 L51,33.4563721 C51,30.4435349 48.5564651,28 45.5436279,28 Z M42.0061395,34.4576744 C42.6044651,34.4576744 43.0889302,34.9421395 43.0889302,35.5404651 C43.0889302,36.1387907 42.6044651,36.6232558 42.0061395,36.6232558 C41.407814,36.6232558 40.9233488,36.1387907 40.9233488,35.5404651 C40.9233488,34.9421395 41.407814,34.4576744 42.0061395,34.4576744 Z M42.0061395,37.5162791 C42.6044651,37.5162791 43.0889302,38.0007442 43.0889302,38.5990698 C43.0889302,39.1973953 42.6044651,39.6818605 42.0061395,39.6818605 C41.407814,39.6818605 40.9233488,39.1973953 40.9233488,38.5990698 C40.9233488,38.0007442 41.407814,37.5162791 42.0061395,37.5162791 Z M38.9542326,34.4576744 C39.5525581,34.4576744 40.0370233,34.9421395 40.0370233,35.5404651 C40.0370233,36.1387907 39.5525581,36.6232558 38.9542326,36.6232558 C38.355907,36.6232558 37.8714419,36.1387907 37.8714419,35.5404651 C37.8714419,34.9421395 38.355907,34.4576744 38.9542326,34.4576744 Z M38.9542326,37.5162791 C39.5525581,37.5162791 40.0370233,38.0007442 40.0370233,38.5990698 C40.0370233,39.1973953 39.5525581,39.6818605 38.9542326,39.6818605 C38.355907,39.6818605 37.8714419,39.1973953 37.8714419,38.5990698 C37.8714419,38.0007442 38.355907,37.5162791 38.9542326,37.5162791 Z M35.9023256,34.4576744 C36.5006512,34.4576744 36.9851163,34.9421395 36.9851163,35.5404651 C36.9851163,36.1387907 36.5006512,36.6232558 35.9023256,36.6232558 C35.304,36.6232558 34.8195349,36.1387907 34.8195349,35.5404651 C34.8195349,34.9421395 35.304,34.4576744 35.9023256,34.4576744 Z M35.9023256,37.5162791 C36.5006512,37.5162791 36.9851163,38.0007442 36.9851163,38.5990698 C36.9851163,39.1973953 36.5006512,39.6818605 35.9023256,39.6818605 C35.304,39.6818605 34.8195349,39.1973953 34.8195349,38.5990698 C34.8195349,38.0007442 35.304,37.5162791 35.9023256,37.5162791 Z M32.9676279,48.9547907 C31.8245581,48.9547907 30.8969302,48.0271628 30.8969302,46.884093 C30.8969302,45.739907 31.8245581,44.8122791 32.9676279,44.8122791 C34.1118139,44.8122791 35.0394429,45.739907 35.0394429,46.884093 C35.0405581,48.0271628 34.1118139,48.9547907 32.9676279,48.9547907 Z M44.9363721,49.0474419 C43.7933023,49.0474419 42.8656744,48.119814 42.8656744,46.9767442 C42.8656744,45.8325581 43.7933023,44.9049302 44.9363721,44.9049302 C46.0805581,44.9049302 47.008186,45.8325581 47.008186,46.9767442 C47.008186,48.119814 46.0805581,49.0474419 44.9363721,49.0474419 Z M48.5743256,32.203907 L46.4333023,40.1786047 C45.8617674,42.3073488 44.0578605,43.6435349 41.8532093,43.6435349 L40.4411163,43.6435349 C39.9745116,43.6435349 39.2991628,43.3912558 39.0189767,43.127814 C38.972093,43.0842791 38.8984186,43.0842791 38.8515349,43.127814 C38.5713488,43.3912558 37.896,43.6435349 37.4293953,43.6435349 L35.8777674,43.6435349 C33.7434419,43.6435349 32.1259535,42.4267907 31.4785116,40.3929302 L29.6578605,34.6820465 C29.6221395,34.5681861 29.6411163,34.4476279 29.7125581,34.3505116 C29.7828837,34.2545116 29.8911628,34.1986977 30.0128372,34.1986977 L30.3611163,34.1998139 C31.2005581,34.2031628 31.936186,34.7423256 32.1895814,35.5415814 L33.5268837,39.7410233 C33.8885581,40.8785116 35.0461395,41.6431628 36.2394419,41.6431628 L36.7585116,41.6420465 C37.2943256,41.6420465 37.6716279,41.3674419 37.8993488,41.1218605 C38.0176744,40.9934884 38.1828837,40.9186977 38.3581395,40.9186977 L39.5235349,40.919814 C39.6887442,40.919814 39.8494884,40.9856744 39.96,41.1073488 C40.1810233,41.3495814 40.5728372,41.6420465 41.1131163,41.6420465 L41.6076279,41.6431628 C42.84,41.6431628 44.0355349,40.8115349 44.355907,39.6215814 L46.0894884,33.1650233 C46.316093,32.3244651 47.0807442,31.7384186 47.9503256,31.7384186 L48.256186,31.7384186 C48.2852093,31.7384186 48.3142326,31.7428837 48.3410233,31.7540465 C48.5363721,31.8366512 48.6223256,32.0275349 48.5743256,32.203907 L48.5743256,32.203907 Z" id="Shape" />
        <path d="M44.9363721,46.2333023 C44.5266977,46.2333023 44.1940465,46.5659535 44.1940465,46.9767442 C44.1940465,47.3875349 44.5266977,47.720186 44.9363721,47.720186 C45.3471628,47.720186 45.679814,47.3875349 45.679814,46.9767442 C45.679814,46.5659535 45.3471628,46.2333023 44.9363721,46.2333023 Z M32.9676279,46.1406512 C32.5579535,46.1406512 32.2253023,46.4733023 32.2253023,46.884093 C32.2253023,47.2948837 32.5579535,47.6275349 32.9676279,47.6275349 C33.3784186,47.6275349 33.7110698,47.2948837 33.7110698,46.884093 C33.7110698,46.4733023 33.3784186,46.1406512 32.9676279,46.1406512 Z M91.313949,45.6616618 C90.7739377,45.6616618 90.1836147,45.6358802 89.9219943,46.1089171 C89.101356,47.5952844 87.2275279,48.0615957 85.6879924,48.0615957 C82.6256922,48.0615957 80.2990595,45.5675028 80.2990595,42.5017301 C80.2990595,39.4359574 82.6256922,36.9418645 85.6879924,36.9418645 C87.0486421,36.9418645 88.819611,37.2052855 89.8705647,38.7981422 C90.1679622,39.2487604 90.7560491,39.1456338 91.2960604,39.1456338 C92.0529707,39.1456338 91.8707309,38.2410347 91.5733333,37.7892956 C90.0438602,35.4711904 87.5293975,34.9835812 85.6891105,34.9835812 C81.5490236,34.9835812 78.1814995,38.3553707 78.1814995,42.4994882 C78.1814995,46.6436058 81.5501416,50.0153953 85.6891105,50.0153953 C88.3656884,50.0153953 90.6677243,48.8552217 91.6985534,46.9888555 C91.9590557,46.5180605 92.1144627,45.6616618 91.313949,45.6616618 L91.313949,45.6616618 Z M119.517522,35.3759104 C118.977511,35.3759104 118.540359,35.6135498 118.540359,36.1538432 L118.540359,49.1253684 C118.540359,49.6656618 118.977511,49.8338029 119.517522,49.8338029 C120.057533,49.8338029 120.494688,49.6656618 120.494688,49.1253684 L120.494688,36.1538432 C120.495804,35.6135498 120.057533,35.3759104 119.517522,35.3759104 Z M119.517522,29 C118.833284,29 118.276502,29.5571075 118.276502,30.2431232 C118.276502,30.9291389 118.833284,31.4862464 119.517522,31.4862464 C120.20176,31.4862464 120.758544,30.9291389 120.758544,30.2431232 C120.75966,29.5571075 120.202878,29 119.517522,29 Z M113.985481,35.4498925 C113.966474,35.4498925 113.928461,35.4476506 113.927343,35.4476506 C113.923989,35.4476506 113.006081,35.4476506 112.726572,36.1471176 C112.457126,36.8252867 110.989144,41.4570134 109.435075,45.9710414 C109.384763,46.1178847 109.324389,46.2613651 109.268487,46.4048455 L105.926678,37.9877021 C105.777979,37.6267592 105.556608,37.3554916 105.267037,37.1929552 C105.100449,37.0965543 104.914855,37.0292979 104.68454,37.0292979 C104.682304,37.0292979 104.681186,37.0304188 104.67895,37.0304188 C104.676714,37.0304188 104.675596,37.0292979 104.67336,37.0292979 C104.443044,37.0292979 104.25745,37.0965543 104.090863,37.1929552 C103.800174,37.3554916 103.579921,37.6256383 103.431222,37.9877021 L100.089413,46.4048455 C100.033511,46.2613651 99.9731369,46.1178847 99.9228253,45.9710414 C98.356457,41.4200224 96.9007743,36.8241657 96.6313277,36.1471176 C96.3529367,35.4476506 95.3925439,35.4487716 95.3735373,35.4498925 C94.8816015,35.459981 94.6859452,35.5888891 94.7015977,35.9072363 C94.6993617,35.9800974 94.7049518,36.0585633 94.7295486,36.1516013 C94.804457,36.4396831 97.1422701,43.5823169 99.0462852,49.0031859 C99.1703872,49.3562822 99.4387158,49.8584636 100.072642,49.8584636 C100.493024,49.8584636 100.804956,49.5804703 100.917877,49.2946305 L104.49112,40.162327 C104.525779,40.0782564 104.601805,40.0367816 104.677832,40.0345398 C104.754976,40.0367816 104.831003,40.0782564 104.864544,40.162327 L108.437787,49.2946305 C108.550708,49.5804703 108.885001,49.8584636 109.283022,49.8584636 C109.929246,49.8584636 110.193103,49.359645 110.309379,49.0031859 C112.096,43.5587772 114.551207,36.4396831 114.626115,36.1516013 C114.650712,36.0585633 114.656302,35.9800974 114.654066,35.9072363 C114.673073,35.5888891 114.477416,35.459981 113.985481,35.4498925 L113.985481,35.4498925 Z M75.3685212,47.8127469 L62.55583,47.8127469 C62.3411671,47.8127469 62.1678716,47.6390011 62.1678716,47.4249015 L62.1678716,40.1556013 L73.3694731,40.1556013 C73.8904778,40.1556013 74.1196752,39.6993785 74.1196752,39.1366663 C74.1196752,38.5739541 73.8904778,38.1177312 73.3694731,38.1177312 L62.1678716,38.1177312 L62.1678716,31.5848891 C62.1678716,31.3584591 62.3512295,31.1746249 62.5781907,31.1746249 L75.3685212,31.1746249 C75.889526,31.1746249 76.1187233,30.718402 76.1187233,30.1556898 C76.1187233,29.5929776 75.889526,29.1367548 75.3685212,29.1367548 L60.9212616,29.1367548 C60.3600075,29.1367548 60,29.6703225 60,30.5054233 C60,30.5054233 60.001118,48.7520952 60.001118,48.7633046 C60.0100623,49.3047189 60.3175222,49.851738 60.8239924,49.851738 L75.3685212,49.851738 C75.889526,49.851738 76.1187233,49.3955151 76.1187233,48.8328029 C76.1187233,48.2689698 75.889526,47.8127469 75.3685212,47.8127469 Z M137.95617,29 C137.416159,29 136.979007,29.2376394 136.979007,29.7779328 L136.979007,37.4451668 C135.868797,35.6258802 133.723286,35.0015162 131.833805,35.0015162 C127.698191,35.0015162 124.334021,38.3699429 124.334021,42.5095767 C124.334021,46.6492105 127.698191,50.0176372 131.833805,50.0176372 C133.447131,50.0176372 135.960476,49.2071971 136.979007,47.4473203 L136.979007,49.0973449 C136.979007,49.1007077 136.981243,49.1029496 136.981243,49.1063124 C136.981243,49.1253684 136.984597,49.1365778 136.987951,49.1376988 C137.012548,49.6410011 137.432929,49.8069003 137.95617,49.8069003 C138.496181,49.8069003 138.933333,49.6387592 138.933333,49.0984658 L138.933333,29.7779328 C138.933333,29.2376394 138.496181,29 137.95617,29 L137.95617,29 Z M131.832687,48.0627167 C128.773741,48.0627167 126.475059,45.5719866 126.475059,42.5095767 C126.475059,39.4471669 128.773741,36.9564367 131.832687,36.9564367 C133.605892,36.9564367 136.952174,38.0224513 136.977889,41.9905812 L136.977889,42.8873337 C136.953292,46.79157 133.439305,48.0627167 131.832687,48.0627167 L131.832687,48.0627167 Z" id="Shape" />
      </g>
    </g>
  </g>
</svg>
