<?xml version="1.0" encoding="UTF-8"?>
<svg width="165px" height="81px" viewBox="0 0 165 81" version="1.1" xmlns="http://www.w3.org/2000/svg">
  <title>4D804F4C-1287-4E81-9612-88F05FF81257</title>
  <g id="Master:-Integrations-page" stroke="none" stroke-width="1" fill="none" fill-rule="evenodd">
    <g id="Third-party-w-integromat" transform="translate(-414.000000, -1310.000000)" fill="#F45800">
      <g id="Ecwid_logo_asset-2" transform="translate(414.000000, 1310.000000)">
        <path d="M50.6836874,25.9902322 L50.6836874,37.0458109 C50.6836874,37.0458109 54.5223523,37.0458109 56.5767724,36.8875586 C58.1923843,36.6004963 58.4897585,36.442244 58.7871326,34.8026767 L59.3818809,32.4012902 L61.1389268,32.4012902 L60.8415527,37.6493778 L60.9974928,43.0262754 L59.2259408,43.0262754 L58.7871326,40.9266723 C58.3483244,39.4324763 57.7535761,39.1288527 56.5767724,38.9853215 C55.1044078,38.8270692 50.6836874,38.8270692 50.6836874,38.8270692 L50.6836874,48.0995494 C50.6836874,49.8826479 51.5758098,50.6444671 53.6302299,50.6444671 L59.820689,50.6444671 C61.7336751,50.6444671 63.6448479,50.4862148 64.8361577,47.6542348 L66.4372635,44.0604357 L67.9241342,44.0604357 C67.7681941,44.8075337 67.0320118,51.3915651 66.8905778,52.8728802 C66.8905778,52.8728802 61.2948669,52.729349 58.9430727,52.729349 L48.3318932,52.729349 L42,52.8728802 L42,51.248034 L44.0544201,50.7879982 C45.5412908,50.4862148 45.9800989,50.0409002 45.9800989,48.8466474 C45.9800989,48.8466474 46.136039,44.8075337 46.136039,38.0781311 C46.136039,31.3652897 45.9800989,27.3243359 45.9800989,27.3243359 C45.9800989,25.986552 45.5412908,25.6847685 44.0544201,25.3829851 L42,24.9413508 L42,23.3017834 L48.1904591,23.4305934 L59.9766291,23.4305934 C62.3284234,23.4305934 66.2940163,23 66.2940163,23 C66.2940163,23 66.1525822,25.5301965 65.9966421,31.510661 L64.3810302,31.510661 L63.7862819,29.4110579 C63.2060397,26.7226091 62.3266101,25.3848252 60.6983054,25.3848252 L51.4343758,25.3848252 C50.6836874,25.3866654 50.6836874,25.5301965 50.6836874,25.9902322 Z M74.5388955,27.1697639 L76.3104475,27.1697639 L76.3104475,33.4520118 L82.3594726,33.1502283 L82.0620985,35.9969294 L76.1690135,35.5368937 L76.1690135,46.6071935 C76.1690135,49.7409569 77.2025699,50.9480907 78.9741219,50.9480907 C80.5752278,50.9480907 81.7647243,50.0427403 82.2035325,49.2956423 L83.0811488,50.3445238 C82.2035325,52.4294057 79.7103042,53.4782872 77.3440039,53.4782872 C74.4119675,53.4782872 72.0311612,51.6951887 72.0311612,48.2596419 L72.0311612,35.6933059 L68.5170692,35.6933059 L68.5170692,34.1991098 C71.465425,33.8973264 73.6612791,32.0995067 74.5388955,27.1697639 Z M87.2171879,46.4471011 L88.3921784,49.2938022 C88.8309865,50.4862148 89.864543,51.6951887 92.2163372,51.6951887 C94.7240715,51.6951887 95.757628,50.3445238 95.757628,48.7049564 C95.757628,43.6151211 85.884444,45.1111573 85.884444,38.2382235 C85.884444,34.3573621 88.9724206,32.5448213 92.9525195,32.5448213 C94.7240715,32.5448213 97.3732399,32.8466048 98.7041705,33.4501716 C98.4067964,34.9443677 98.2508563,36.8857185 98.2508563,38.3817547 L96.7911844,38.5252858 L95.757628,35.5350536 C95.4602539,34.8026767 94.2707573,34.1972697 92.8110855,34.1972697 C91.0395335,34.1972697 89.2697947,34.9443677 89.2697947,36.8857185 C89.2697947,41.5155181 99.4403528,40.4795176 99.4403528,47.3524514 C99.4403528,51.248034 96.0550021,53.3329159 91.9189631,53.3329159 C88.8309865,53.3329159 85.728504,52.1257821 85.728504,52.1257821 C86.0258781,50.3426836 85.884444,48.403173 85.728504,46.4471011 L87.2171879,46.4471011 L87.2171879,46.4471011 Z M98.7059837,60.7946954 C99.1447919,59.1551281 99.4421661,57.0720863 99.7395402,55.1160144 L101.355152,54.9724832 L101.9499,58.1062466 C102.091334,58.8533446 102.530143,59.4569115 103.706946,59.4569115 C105.619932,59.4569115 108.127667,58.2644989 110.492154,54.0800139 C109.444091,51.5350963 106.356115,43.3262187 103.551006,37.0439708 C102.814824,35.3915224 102.67339,35.2461511 101.652526,34.9443677 L100.901838,34.6573054 L100.901838,33.1483882 L105.335251,33.3066405 L110.775022,33.0048571 L110.775022,34.5008932 L109.444091,34.8026767 C108.410535,34.9462078 107.984419,35.5350536 107.984419,36.1404606 C107.984419,36.2987129 107.984419,36.442244 108.125853,36.7440275 C108.408722,37.6493778 110.775022,44.3640593 112.546574,48.8484876 C114.006246,45.7147242 116.811354,38.6853782 117.250162,37.4911255 C117.406102,36.8875586 117.547536,36.7440275 117.547536,36.2987129 C117.547536,35.5368937 117.108728,35.0915791 116.087865,34.8045168 L115.039802,34.5008932 L115.039802,33.0066972 L119.175841,33.1502283 L123,33.0066972 L123,34.5008932 L122.263818,35.089739 C120.791453,35.6933059 120.635513,35.836837 120.053458,37.0439708 L113.58013,52.4257254 C109.741465,61.252891 105.761366,61.9999945 102.968951,61.9999945 C101.199212,62.0018292 99.8682814,61.5417934 98.7059837,60.7946954 Z" id="Shape" />
      </g>
    </g>
  </g>
</svg>
