<?xml version="1.0" encoding="UTF-8"?>
<svg width="165px" height="80px" viewBox="0 0 165 80" version="1.1" xmlns="http://www.w3.org/2000/svg">
  <title>A57F21A2-311B-4263-AACE-871EB6D250A6</title>
  <g id="Master:-Integrations-page" stroke="none" stroke-width="1" fill="none" fill-rule="evenodd">
    <g id="Third-party" transform="translate(-414.000000, -1512.000000)">
      <g id="faire" transform="translate(414.000000, 1512.000000)">
        <rect id="Bounds" x="0" y="0" width="165" height="80" />
        <g id="faire-wholesale-inc-logo-vector" transform="translate(14.000000, 33.558140)" fill="#000000">
          <path d="M15.0351667,4.30232558 L14.8035,4.41860465 C14.1548333,3.60465116 13.5293333,2.93023256 12.9501667,2.34883721 C12.371,1.76744186 11.7918333,1.34883721 11.2358333,1.09302326 C10.9578333,0.976744186 10.4713333,0.860465116 9.77633333,0.76744186 C9.08133333,0.674418605 8.24733333,0.627906977 7.32066667,0.627906977 C7.1585,0.627906977 6.97316667,0.627906977 6.76466667,0.651162791 C6.55616667,0.651162791 6.37083333,0.674418605 6.16233333,0.674418605 C5.977,0.674418605 5.79166667,0.697674419 5.6295,0.697674419 C5.46733333,0.697674419 5.3515,0.720930233 5.25883333,0.720930233 C5.23566667,0.813953488 5.2125,0.906976744 5.18933333,1 C5.16616667,1.09302326 5.143,1.20930233 5.11983333,1.3255814 C5.09666667,1.44186047 5.09666667,1.60465116 5.0735,1.81395349 C5.05033333,2.02325581 5.05033333,2.25581395 5.02716667,2.53488372 C5.004,3.09302326 5.004,3.69767442 4.98083333,4.34883721 C4.98083333,5 4.95766667,5.62790698 4.95766667,6.20930233 L4.95766667,8.46511628 L5.37466667,8.46511628 C5.6295,8.46511628 5.9075,8.46511628 6.20866667,8.44186047 C6.50983333,8.41860465 6.83416667,8.39534884 7.18166667,8.37209302 C7.506,8.34883721 7.784,8.30232558 8.01566667,8.25581395 C8.59483333,8.13953488 9.035,7.95348837 9.35933333,7.76744186 C9.68366667,7.58139535 9.96166667,7.3255814 10.147,7.02325581 C10.3323333,6.72093023 10.4713333,6.41860465 10.5408333,6.09302326 C10.6103333,5.74418605 10.6798333,5.39534884 10.7493333,4.97674419 L11.0273333,4.97674419 L11.0273333,12.627907 L10.7493333,12.627907 C10.6335,12.1162791 10.4481667,11.5813953 10.1933333,11.0232558 C9.9385,10.4651163 9.6605,10.0232558 9.33616667,9.72093023 C9.035,9.44186047 8.71066667,9.25581395 8.36316667,9.11627907 C8.01566667,8.97674419 7.62183333,8.90697674 7.1585,8.86046512 C6.92683333,8.8372093 6.71833333,8.8372093 6.533,8.81395349 C6.34766667,8.81395349 6.1855,8.79069767 6.02333333,8.79069767 L4.88816667,8.79069767 L4.88816667,11.744186 C4.88816667,12.1860465 4.88816667,12.6046512 4.91133333,12.9767442 C4.9345,13.3488372 4.9345,13.6744186 4.9345,13.9302326 C4.95766667,14.4418605 4.98083333,14.9069767 5.02716667,15.372093 C5.0735,15.8139535 5.16616667,16.1627907 5.30516667,16.372093 C5.44416667,16.6046512 5.699,16.7674419 6.02333333,16.8837209 C6.37083333,17 6.85733333,17.0697674 7.506,17.1162791 L7.506,17.3488372 L0,17.3488372 L0,17.1162791 C0.393833333,17.0465116 0.7645,16.9534884 1.112,16.8139535 C1.4595,16.6744186 1.7375,16.4651163 1.946,16.2093023 C2.0155,16.1162791 2.085,15.9767442 2.13133333,15.7906977 C2.17766667,15.6046512 2.224,15.3953488 2.27033333,15.1627907 C2.31666667,14.9302326 2.33983333,14.6744186 2.363,14.4186047 C2.38616667,14.1627907 2.38616667,13.9069767 2.38616667,13.6511628 C2.38616667,13.4186047 2.38616667,13.1395349 2.40933333,12.744186 C2.40933333,12.372093 2.4325,11.9534884 2.4325,11.4883721 C2.4325,11.0465116 2.45566667,10.5813953 2.45566667,10.0930233 L2.45566667,4.1627907 C2.45566667,3.88372093 2.45566667,3.58139535 2.4325,3.27906977 C2.4325,2.97674419 2.40933333,2.69767442 2.38616667,2.41860465 C2.363,2.13953488 2.31666667,1.90697674 2.27033333,1.69767442 C2.224,1.48837209 2.13133333,1.3255814 2.03866667,1.23255814 C1.807,0.976744186 1.55216667,0.813953488 1.27416667,0.744186047 C0.996166667,0.674418605 0.648666667,0.604651163 0.231666667,0.534883721 L0.231666667,0.302325581 L13.4366667,0.302325581 L15.0351667,4.30232558 Z M41.005,17.4186047 L41.005,17.1860465 C41.0513333,17.1860465 41.1671667,17.1627907 41.3525,17.1395349 C41.5378333,17.1162791 41.7231667,17.0465116 41.9316667,16.9767442 C42.1401667,16.9069767 42.3023333,16.7906977 42.4645,16.6511628 C42.6035,16.5116279 42.6961667,16.3255814 42.6961667,16.0930233 C42.6961667,15.9534884 42.6498333,15.7209302 42.5571667,15.3953488 C42.4645,15.0697674 42.3486667,14.6744186 42.1865,14.2093023 C42.0243333,13.744186 41.839,13.2325581 41.6305,12.6511628 C41.422,12.0697674 41.2135,11.4883721 40.9586667,10.8604651 L34.6341667,10.8604651 C34.4025,11.4651163 34.1708333,12.0465116 33.9391667,12.5813953 C33.7075,13.1395349 33.499,13.6744186 33.2673333,14.2325581 C32.943,15.0930233 32.7576667,15.6976744 32.7576667,16.0465116 C32.7576667,16.255814 32.8271667,16.4186047 32.943,16.5581395 C33.0588333,16.6976744 33.221,16.8139535 33.4295,16.8837209 C33.638,16.9767442 33.8465,17.0232558 34.0781667,17.0697674 C34.3098333,17.1162791 34.5183333,17.1395349 34.7268333,17.1860465 L34.7268333,17.4186047 L29.6996667,17.4186047 L29.6996667,17.1627907 C30.1166667,17.1162791 30.4641667,17 30.7653333,16.8372093 C31.0665,16.6744186 31.2286667,16.5348837 31.275,16.4883721 C31.3908333,16.372093 31.5761667,16.1162791 31.831,15.6976744 C32.0858333,15.2790698 32.387,14.6744186 32.7576667,13.8604651 C33.082,13.1162791 33.4526667,12.2790698 33.8696667,11.3255814 C34.2866667,10.372093 34.7036667,9.39534884 35.1438333,8.39534884 C35.584,7.39534884 36.001,6.37209302 36.4411667,5.34883721 C36.8581667,4.3255814 37.2751667,3.37209302 37.6458333,2.48837209 L37.4141667,1.97674419 C37.6921667,1.86046512 37.947,1.69767442 38.1786667,1.53488372 C38.4103333,1.37209302 38.6188333,1.18604651 38.781,0.976744186 C38.9663333,0.790697674 39.1053333,0.604651163 39.2211667,0.418604651 C39.337,0.255813953 39.4296667,0.0930232558 39.4991667,0 L39.6845,0 C40.171,1.3255814 40.6343333,2.55813953 41.0976667,3.74418605 C41.5378333,4.93023256 41.9548333,6.06976744 42.3718333,7.1627907 C42.7888333,8.25581395 43.1595,9.30232558 43.5533333,10.3255814 C43.924,11.3488372 44.3178333,12.3488372 44.6885,13.3488372 C44.8738333,13.8372093 45.036,14.255814 45.175,14.5813953 C45.314,14.9069767 45.4993333,15.2790698 45.6846667,15.6976744 C45.7078333,15.7674419 45.7773333,15.8604651 45.8931667,16.0232558 C46.009,16.1860465 46.148,16.3488372 46.3333333,16.5116279 C46.5186667,16.6744186 46.7503333,16.8139535 47.0051667,16.9534884 C47.2831667,17.0697674 47.5843333,17.1627907 47.955,17.1627907 L47.955,17.4418605 L41.005,17.4418605 L41.005,17.4186047 Z M37.9006667,3.02325581 C37.808,3.23255814 37.669,3.55813953 37.4836667,4 C37.2983333,4.44186047 37.0666667,4.97674419 36.8118333,5.60465116 C36.5338333,6.23255814 36.2558333,6.95348837 35.9315,7.74418605 C35.6071667,8.53488372 35.2596667,9.41860465 34.8658333,10.3488372 L40.7733333,10.3488372 C40.4953333,9.62790698 40.2405,8.93023256 39.9625,8.20930233 C39.6845,7.48837209 39.4065,6.81395349 39.1516667,6.1627907 C38.8968333,5.51162791 38.642,4.90697674 38.4335,4.34883721 C38.2018333,3.81395349 38.0396667,3.37209302 37.9006667,3.02325581 Z M71.307,17.4186047 L64.1021667,17.4186047 L64.1021667,17.1860465 C64.496,17.1162791 64.8666667,17.0232558 65.2141667,16.8837209 C65.5616667,16.744186 65.8396667,16.5348837 66.0713333,16.255814 C66.1408333,16.1627907 66.2103333,16.0232558 66.2566667,15.8604651 C66.303,15.6976744 66.3261667,15.4883721 66.3493333,15.2325581 C66.3725,15 66.3956667,14.744186 66.3956667,14.4883721 C66.3956667,14.2325581 66.4188333,13.9767442 66.4188333,13.7209302 C66.4188333,13.4883721 66.4188333,13.2093023 66.442,12.8139535 C66.442,12.4418605 66.4651667,12.0232558 66.4651667,11.5581395 C66.4651667,11.1162791 66.4883333,10.6511628 66.4883333,10.1627907 L66.4883333,3.30232558 C66.4883333,3.02325581 66.4651667,2.74418605 66.442,2.51162791 C66.4188333,2.25581395 66.3725,2.04651163 66.3261667,1.8372093 C66.2798333,1.62790698 66.2103333,1.48837209 66.1176667,1.37209302 C65.886,1.09302326 65.6311667,0.906976744 65.3068333,0.790697674 C64.9825,0.674418605 64.6118333,0.581395349 64.1948333,0.534883721 L64.1948333,0.302325581 L71.307,0.302325581 L71.307,0.534883721 C70.9826667,0.581395349 70.612,0.674418605 70.2413333,0.790697674 C69.8706667,0.906976744 69.5695,1.1627907 69.361,1.55813953 C69.222,1.8372093 69.1525,2.1627907 69.1293333,2.58139535 C69.1293333,3 69.1061667,3.37209302 69.083,3.74418605 C69.083,4.13953488 69.083,4.53488372 69.0598333,4.93023256 C69.0598333,5.3255814 69.0366667,5.72093023 69.0366667,6.11627907 L69.0366667,14.0697674 C69.0366667,14.5348837 69.0366667,14.9767442 69.0598333,15.3953488 C69.083,15.8139535 69.1525,16.1162791 69.2683333,16.3023256 C69.4536667,16.5813953 69.7548333,16.7674419 70.1718333,16.9302326 C70.5888333,17.0697674 70.9595,17.1627907 71.2838333,17.1860465 L71.2838333,17.4186047 L71.307,17.4186047 Z M107.284833,17.4186047 L102.419833,17.4186047 C102.280833,17.2790698 102.165,17.1627907 102.118667,17.0930233 C102.049167,17.0232558 101.979667,16.9302326 101.910167,16.8372093 C101.840667,16.744186 101.724833,16.6046512 101.609,16.4186047 C101.493167,16.2325581 101.307833,15.9534884 101.053,15.6046512 C100.751833,15.1627907 100.497,14.7674419 100.265333,14.3953488 C100.033667,14.0465116 99.802,13.6976744 99.5703333,13.3488372 C99.3386667,13 99.0838333,12.6511628 98.8058333,12.3023256 C98.5278333,11.9534884 98.2035,11.5348837 97.8096667,11.0930233 C97.4853333,10.7209302 97.1378333,10.3953488 96.7671667,10.0697674 C96.3965,9.74418605 96.0026667,9.55813953 95.5856667,9.46511628 C95.2845,9.39534884 95.0528333,9.37209302 94.8906667,9.37209302 C94.7516667,9.37209302 94.5663333,9.37209302 94.3346667,9.34883721 L94.3346667,12.0232558 C94.3346667,12.7906977 94.3346667,13.4186047 94.3578333,13.9534884 C94.381,14.4651163 94.381,14.9069767 94.4041667,15.255814 C94.4273333,15.627907 94.4968333,15.9302326 94.659,16.1627907 C94.7748333,16.372093 95.0296667,16.5813953 95.4003333,16.7906977 C95.771,17 96.2806667,17.1162791 96.9293333,17.1627907 L96.9293333,17.3953488 L89.3306667,17.3953488 L89.3306667,17.1627907 C89.7245,17.0930233 90.1183333,17 90.4658333,16.8837209 C90.8365,16.7674419 91.1145,16.5581395 91.323,16.3023256 C91.3925,16.2093023 91.462,16.0697674 91.5083333,15.8837209 C91.5546667,15.6976744 91.601,15.4883721 91.6241667,15.2325581 C91.6473333,15 91.6705,14.744186 91.6936667,14.4651163 C91.7168333,14.1860465 91.7168333,13.9302326 91.7168333,13.6744186 C91.7168333,13.4418605 91.7168333,13.1627907 91.74,12.7674419 C91.74,12.3953488 91.7631667,11.9767442 91.7631667,11.5116279 C91.7631667,11.0697674 91.7863333,10.6046512 91.7863333,10.1162791 L91.7863333,4.1627907 C91.7863333,3.88372093 91.7863333,3.58139535 91.7631667,3.30232558 C91.7631667,3 91.74,2.72093023 91.7168333,2.46511628 C91.6936667,2.20930233 91.6473333,1.97674419 91.601,1.74418605 C91.5546667,1.53488372 91.462,1.37209302 91.3693333,1.27906977 C91.1376667,1.02325581 90.8596667,0.860465116 90.5816667,0.76744186 C90.2805,0.674418605 89.933,0.604651163 89.4928333,0.534883721 L89.4928333,0.302325581 L90.4658333,0.302325581 C90.9986667,0.302325581 91.6241667,0.302325581 92.296,0.279069767 C92.9678333,0.279069767 93.6628333,0.255813953 94.3346667,0.255813953 L96.0026667,0.255813953 C97.0683333,0.255813953 98.0181667,0.279069767 98.829,0.348837209 C99.663,0.418604651 100.404333,0.627906977 101.076167,1 C101.771167,1.37209302 102.327167,1.86046512 102.767333,2.48837209 C103.184333,3.11627907 103.416,3.90697674 103.416,4.86046512 C103.416,5.44186047 103.300167,5.97674419 103.091667,6.44186047 C102.883167,6.90697674 102.582,7.3255814 102.2345,7.6744186 C101.887,8.02325581 101.47,8.3255814 100.9835,8.58139535 C100.497,8.8372093 100.0105,9.04651163 99.4776667,9.23255814 L99.4776667,9.30232558 C99.7556667,9.44186047 100.0105,9.65116279 100.265333,9.93023256 C100.520167,10.2093023 100.775,10.5116279 101.006667,10.8372093 C101.423667,11.4418605 101.863833,12.0930233 102.350333,12.7906977 C102.836833,13.4883721 103.253833,14.1162791 103.647667,14.6511628 C104.226833,15.4651163 104.806,16.0697674 105.362,16.4651163 C105.918,16.8604651 106.566667,17.0930233 107.308,17.2093023 L107.308,17.4186047 L107.284833,17.4186047 Z M100.659167,4.72093023 C100.659167,3.93023256 100.450667,3.23255814 100.056833,2.60465116 C99.663,1.97674419 99.0838333,1.48837209 98.3193333,1.13953488 C97.9486667,0.976744186 97.5316667,0.837209302 97.1146667,0.76744186 C96.6976667,0.697674419 96.2575,0.651162791 95.7941667,0.651162791 C95.4698333,0.651162791 95.1918333,0.651162791 94.9833333,0.674418605 C94.7748333,0.697674419 94.6126667,0.697674419 94.4968333,0.720930233 C94.4736667,0.813953488 94.4736667,0.906976744 94.4505,0.976744186 C94.4273333,1.04651163 94.4273333,1.13953488 94.4041667,1.25581395 C94.4041667,1.37209302 94.381,1.51162791 94.381,1.72093023 C94.381,1.93023256 94.3578333,2.20930233 94.3346667,2.55813953 C94.3115,3.11627907 94.3115,3.74418605 94.2883333,4.44186047 C94.2883333,5.13953488 94.2651667,5.81395349 94.2651667,6.46511628 L94.2651667,9.04651163 C94.9138333,9.04651163 95.5161667,9.02325581 96.0721667,8.95348837 C96.6281667,8.90697674 97.1841667,8.79069767 97.6938333,8.60465116 C98.2035,8.44186047 98.6436667,8.23255814 98.9911667,7.95348837 C99.3618333,7.6744186 99.663,7.37209302 99.8715,7.04651163 C100.103167,6.69767442 100.265333,6.34883721 100.381167,5.93023256 C100.497,5.51162791 100.659167,5.1627907 100.659167,4.72093023 Z M139,12.8837209 L137.8185,17.4186047 L123.269833,17.4186047 L123.269833,17.1860465 C123.663667,17.1162791 124.034333,17.0232558 124.381833,16.8837209 C124.729333,16.744186 125.007333,16.5348837 125.215833,16.2790698 C125.285333,16.1860465 125.354833,16.0465116 125.401167,15.8604651 C125.4475,15.6744186 125.493833,15.4651163 125.540167,15.2325581 C125.5865,15 125.609667,14.744186 125.632833,14.4883721 C125.656,14.2325581 125.656,13.9767442 125.656,13.7209302 C125.656,13.4883721 125.656,13.2093023 125.679167,12.8139535 C125.702333,12.4186047 125.702333,12.0232558 125.702333,11.5581395 C125.702333,11.1162791 125.7255,10.6511628 125.7255,10.1627907 C125.7255,9.6744186 125.7255,9.20930233 125.7255,8.79069767 L125.7255,4.1627907 C125.7255,3.88372093 125.7255,3.58139535 125.702333,3.27906977 C125.702333,2.97674419 125.679167,2.69767442 125.656,2.41860465 C125.632833,2.13953488 125.5865,1.90697674 125.540167,1.69767442 C125.493833,1.48837209 125.401167,1.3255814 125.3085,1.23255814 C125.076833,0.976744186 124.822,0.813953488 124.544,0.744186047 C124.266,0.674418605 123.9185,0.604651163 123.5015,0.534883721 L123.5015,0.302325581 L136.613833,0.302325581 L138.2355,4.23255814 L138.003833,4.34883721 C136.729667,2.74418605 135.525,1.6744186 134.389833,1.11627907 C134.111833,1 133.625333,0.88372093 132.884,0.790697674 C132.165833,0.697674419 131.262333,0.651162791 130.219833,0.651162791 C129.8955,0.651162791 129.548,0.674418605 129.177333,0.697674419 C128.829833,0.720930233 128.575,0.744186047 128.412833,0.790697674 C128.389667,1.04651163 128.343333,1.55813953 128.320167,2.34883721 C128.297,3.13953488 128.273833,4.06976744 128.273833,5.11627907 C128.273833,5.72093023 128.273833,6.23255814 128.273833,6.62790698 C128.273833,7.02325581 128.273833,7.37209302 128.297,7.62790698 C128.297,7.88372093 128.320167,8.09302326 128.320167,8.23255814 C128.320167,8.34883721 128.320167,8.44186047 128.320167,8.48837209 C128.389667,8.48837209 128.551833,8.48837209 128.806667,8.48837209 C129.038333,8.48837209 129.316333,8.48837209 129.6175,8.46511628 C129.918667,8.44186047 130.243,8.41860465 130.544167,8.39534884 C130.845333,8.37209302 131.100167,8.3255814 131.308667,8.27906977 C131.795167,8.1627907 132.189,8.02325581 132.490167,7.8372093 C132.791333,7.65116279 133.069333,7.41860465 133.254667,7.13953488 C133.463167,6.86046512 133.602167,6.55813953 133.741167,6.20930233 C133.880167,5.86046512 133.972833,5.44186047 134.0655,5 L134.3435,5 L134.3435,12.4883721 L134.0655,12.4883721 C133.949667,11.9767442 133.741167,11.4651163 133.486333,10.9302326 C133.2315,10.3953488 132.9535,9.97674419 132.6755,9.72093023 C132.420667,9.48837209 132.1195,9.3255814 131.772,9.1627907 C131.4245,9.02325581 131.0075,8.93023256 130.521,8.90697674 C130.289333,8.88372093 130.080833,8.88372093 129.918667,8.86046512 C129.7565,8.8372093 129.594333,8.8372093 129.432167,8.8372093 C129.293167,8.8372093 129.131,8.8372093 128.945667,8.8372093 C128.7835,8.8372093 128.575,8.8372093 128.320167,8.8372093 C128.297,9.06976744 128.273833,9.39534884 128.273833,9.81395349 C128.273833,10.2325581 128.273833,10.6744186 128.273833,11.1395349 C128.273833,11.3488372 128.273833,11.5813953 128.273833,11.8604651 C128.273833,12.1395349 128.273833,12.3953488 128.273833,12.6744186 C128.273833,12.9302326 128.273833,13.1627907 128.297,13.3953488 C128.297,13.627907 128.320167,13.8139535 128.320167,13.9767442 C128.343333,14.4883721 128.3665,14.9534884 128.412833,15.4186047 C128.459167,15.8604651 128.551833,16.2093023 128.690833,16.4186047 C128.829833,16.6511628 129.177333,16.7906977 129.710167,16.8837209 C130.243,16.9767442 130.845333,17.0232558 131.470833,17.0232558 C131.748833,17.0232558 132.073167,17.0232558 132.513333,17 C132.930333,16.9767442 133.3705,16.9534884 133.833833,16.8837209 C134.3435,16.8139535 134.806833,16.6976744 135.247,16.5116279 C135.664,16.3255814 136.081,16.0697674 136.474833,15.744186 C136.868667,15.4186047 137.2625,15 137.633167,14.5116279 C138.003833,14.0232558 138.397667,13.4418605 138.7915,12.7674419 L139,12.8837209 Z" id="Shape" />
        </g>
      </g>
    </g>
  </g>
</svg>
