<?xml version="1.0" encoding="UTF-8"?>
<svg width="165px" height="80px" viewBox="0 0 165 80" version="1.1" xmlns="http://www.w3.org/2000/svg" >
  <title>A6B05BEE-99A1-44D8-A553-D3E475596CA5</title>
  <g id="LAB-A:-Zapier-integration-discoverability" stroke="none" stroke-width="1" fill="none" fill-rule="evenodd">
    <g id="Third-party-via-Zapier" transform="translate(-414.000000, -787.000000)">
      <g id="Integration-item-Amazon-FBA" transform="translate(414.000000, 787.000000)">
        <g id="amazon-logo_rgb" transform="translate(31.777429, 19.000000)">
          <path d="M37.3246759,37.1258931 C43.0055298,40.4993425 50.0309308,42.5311644 57.2870697,42.5311644 C62.1817054,42.5311644 67.5622676,41.4945403 72.5134009,39.3512795 C73.2599758,39.0281067 73.8859593,39.8532391 73.1552891,40.4043772 C68.7389837,43.7303439 62.3364802,45.4990731 56.8229826,45.4990731 C49.0961098,45.4990731 42.1376512,42.584219 36.8722206,37.7320238 C36.4589338,37.3509512 36.8275923,36.8308222 37.3246759,37.1258931 Z M76.8779563,36.7949679 C77.3626959,37.4069129 76.7502432,41.6452251 74.3813811,43.667599 C74.0169955,43.9786588 73.6704138,43.8127117 73.8318354,43.4020837 C74.3652389,42.0432558 75.5585719,39.0017005 74.9931215,38.2630544 C74.4281459,37.525135 71.2595345,37.9134754 69.8354636,38.087417 C69.4043729,38.1402293 69.3374305,37.7555228 69.7260292,37.4771678 C72.2544139,35.6650744 76.3963027,36.1881105 76.8779563,36.7949679 Z" id="Combined-Shape" fill="#EC912D" />
          <path d="M69.9358773,24.6762295 L69.9358773,22.9154948 C69.9375391,22.6473147 70.1348058,22.4690124 70.3733774,22.4697392 L78.1061848,22.4690124 C78.3533023,22.4690124 78.5519933,22.6526444 78.5519933,22.9133145 L78.5519933,24.4233116 C78.5496195,24.676714 78.3404836,25.0071546 77.969926,25.5318865 L73.9640588,31.3681356 C75.4507993,31.3327659 77.0239479,31.5602466 78.3746669,32.3349893 C78.679469,32.5096576 78.7611293,32.7681474 78.7851051,33.0220343 L78.7851051,34.9009911 C78.7851051,35.159481 78.5071277,35.459397 78.2153819,35.3031402 C75.8355999,34.0307986 72.6769587,33.8919846 70.0450743,35.3191293 C69.7761174,35.4649689 69.4948165,35.1696558 69.4948165,34.9104392 L69.4948165,33.1247519 C69.4948165,32.8386447 69.5002764,32.3502516 69.7827642,31.9146707 L74.4233981,25.120047 L70.3828728,25.1198048 C70.1357553,25.1198048 69.9375391,24.940049 69.9358773,24.6762295" id="Fill-5" fill="#002F36" />
          <path d="M41.7288746,35.6733112 L39.3763919,35.6733112 C39.1525381,35.6585334 38.9737874,35.4870144 38.9555088,35.2675282 L38.9574079,22.9457771 C38.9574079,22.6989157 39.1603718,22.5022018 39.4115249,22.5022018 L41.6023485,22.5014751 C41.8314248,22.5133457 42.0153979,22.6904367 42.029641,22.9154948 L42.029641,24.5240912 L42.074032,24.5240912 C42.6449423,22.9683072 43.7210072,22.2422585 45.1700036,22.2422585 C46.6413141,22.2422585 47.5637912,22.9683072 48.2225338,24.5240912 C48.7936815,22.9683072 50.0893273,22.2422585 51.4728054,22.2422585 C52.461038,22.2422585 53.5368656,22.657005 54.1956082,23.5906692 C54.9421833,24.62802 54.78907,26.1314762 54.78907,27.4539653 L54.7866962,35.2299782 C54.7866962,35.4758705 54.5837323,35.6733112 54.3328167,35.6733112 L51.9831826,35.6733112 C51.7469848,35.6580489 51.56135,35.4673915 51.56135,35.2309472 L51.5606378,28.6984471 C51.5606378,28.1804985 51.604554,26.8836888 51.4944074,26.3911773 C51.3189802,25.5611997 50.7917487,25.3274203 50.111404,25.3274203 C49.5402564,25.3274203 48.9472693,25.7164874 48.7053743,26.3388495 C48.4641915,26.9614538 48.4860308,27.9980778 48.4860308,28.6984471 L48.4860308,35.2299782 C48.4860308,35.4758705 48.2830669,35.6733112 48.0323887,35.6733112 L45.6827546,35.6733112 C45.4463194,35.6580489 45.2602098,35.4673915 45.2602098,35.2309472 L45.2578359,28.6984471 C45.2578359,27.324357 45.4774168,25.3022254 43.8088396,25.3022254 C42.1174734,25.3022254 42.1837037,27.2722714 42.1837037,28.6984471 L42.1827542,35.2299782 C42.1827542,35.4758705 41.9795529,35.6733112 41.7288746,35.6733112" id="Fill-6" fill="#002F36" />
          <path d="M85.2089733,22.2422585 C88.7006652,22.2422585 90.5888233,25.3022254 90.5888233,29.1914431 C90.5888233,32.9505681 88.5031611,35.9332545 85.2089733,35.9332545 C81.7832743,35.9332545 79.9162434,32.8728031 79.9162434,29.0615926 C79.9162434,25.2239759 81.8048763,22.2422585 85.2089733,22.2422585 Z M85.2303379,24.7576283 C83.4955303,24.7576283 83.3860726,27.1685848 83.3860726,28.6727677 C83.3860726,30.1764661 83.3642565,33.3917208 85.2089733,33.3917208 C87.0320879,33.3917208 87.1194455,30.7985859 87.1194455,29.2176071 C87.1194455,28.1804985 87.0755294,26.9357744 86.7676414,25.9502669 C86.5041443,25.0943676 85.9769129,24.7576283 85.2303379,24.7576283 Z" id="Fill-7" fill="#002F36" />
          <path d="M95.1171743,35.6733112 L92.7730002,35.6733112 C92.5375146,35.6580489 92.3511675,35.4673915 92.3511675,35.2309472 L92.3473693,22.9043509 C92.3670722,22.6788083 92.5622025,22.5022018 92.7991124,22.5022018 L94.9811529,22.5014751 C95.1867281,22.512619 95.3562208,22.6553092 95.3991873,22.8464511 L95.3991873,24.7314644 L95.4435783,24.7314644 C96.1025583,23.0455876 97.0243233,22.2422585 98.6494591,22.2422585 C99.7034472,22.2422585 100.735833,22.6308411 101.394576,23.6943559 C102.009403,24.6796211 102.009403,26.3388495 102.009403,27.5317303 L102.009403,35.2856976 C101.98329,35.5037302 101.791008,35.6733112 101.558609,35.6733112 L99.200429,35.6733112 C98.9825098,35.6592601 98.8068452,35.4957357 98.7816824,35.2856976 L98.7816824,28.5954873 C98.7816824,27.2470765 98.9355076,25.2760615 97.3103718,25.2760615 C96.7392241,25.2760615 96.2122301,25.6651286 95.948733,26.2610845 C95.619243,27.0132971 95.5750895,27.7647829 95.5750895,28.5954873 L95.5750895,35.2299782 C95.571054,35.4758705 95.3678526,35.6733112 95.1171743,35.6733112" id="Fill-8" fill="#002F36" />
          <path d="M62.4950531,22.1230673 C63.6397222,22.1230673 65.1359582,22.4346117 66.0382575,23.3183707 C67.183164,24.4097452 67.0725427,25.8652341 67.0725427,27.4508159 L67.0725427,31.1905602 C67.0725427,32.316093 67.5309327,32.8093314 67.960599,33.4152199 C68.1108636,33.6342215 68.1443348,33.8936803 67.9527653,34.0535709 C67.472536,34.4646836 66.6189005,35.2212569 66.1488788,35.6481163 L66.1431815,35.6427866 C65.9876946,35.7852346 65.7631286,35.7946827 65.5874639,35.698506 C64.8064682,35.0359291 64.6664112,34.7297144 64.2388812,34.0986311 C62.9477458,35.4412275 62.0333398,35.8441034 60.3602522,35.8441034 C58.3799888,35.8441034 56.8391246,34.5962299 56.8391246,32.1019365 C56.8391246,30.1529671 57.8736472,28.8278132 59.3480437,28.1783182 C60.624224,27.6063459 62.4072207,27.502417 63.7719456,27.3461603 L63.7719456,27.0343736 C63.7719456,26.4624013 63.8158617,25.7874692 63.4854221,25.2935041 C63.1991362,24.8516246 62.6493531,24.6696885 62.1650883,24.6696885 C61.2677741,24.6696885 60.4703988,25.1387009 60.2740816,26.1111265 C60.2332514,26.3277056 60.0787139,26.5418621 59.8655424,26.553006 L57.5854621,26.3008149 C57.3927058,26.2562393 57.1790595,26.0990136 57.2341328,25.798613 C57.758753,22.9758172 60.2567525,22.1230673 62.4950531,22.1230673 Z M63.7719456,29.2694504 C62.069897,29.2694504 60.2726573,29.6410749 60.2726573,31.6859788 C60.2726573,32.72551 60.8006009,33.4273328 61.7029002,33.4273328 C62.3628297,33.4273328 62.9572412,33.0111326 63.3313595,32.3359582 C63.7165162,31.6426953 63.7657076,30.9861074 63.7714059,30.2449255 Z" id="Fill-9" fill="#002F36" />
          <path d="M31.6556911,22.1230673 C32.8001229,22.1230673 34.2965962,22.4346117 35.1988955,23.3183707 C36.3430899,24.4097452 36.2334181,25.8652341 36.2334181,27.4508159 L36.2334181,31.1905602 C36.2334181,32.316093 36.6910959,32.8093314 37.1209997,33.4152199 C37.2707894,33.6342215 37.3052102,33.8936803 37.1136407,34.0535709 C36.6329367,34.4646836 35.7788264,35.2212569 35.3092794,35.6481163 L35.3038196,35.6427866 C35.14857,35.7852346 34.9235293,35.7946827 34.7481019,35.698506 C33.966394,35.0359291 33.826337,34.7297144 33.3997567,34.0986311 C32.107909,35.4412275 31.193503,35.8441034 29.5211276,35.8441034 C27.5403895,35.8441034 26,34.5962299 26,32.1019365 C26,30.1529671 27.0340479,28.8278132 28.5086818,28.1783182 C29.7848621,27.6063459 31.5678588,27.502417 32.9318714,27.3461603 L32.9318714,27.0343736 C32.9318714,26.4624013 32.9762623,25.7874692 32.6462976,25.2935041 C32.3597742,24.8516246 31.8095164,24.6696885 31.3257263,24.6696885 C30.4284121,24.6696885 29.6303246,25.1387009 29.434957,26.1111265 C29.3941268,26.3277056 29.239352,26.5418621 29.0261805,26.553006 L26.7461002,26.3008149 C26.5533438,26.2562393 26.3392228,26.0990136 26.3947708,25.798613 C26.9186789,22.9758172 29.4166784,22.1230673 31.6556911,22.1230673 Z M32.9318714,29.2694504 C31.2305351,29.2694504 29.4328205,29.6410749 29.4328205,31.6859788 C29.4328205,32.72551 29.9614763,33.4273328 30.8633009,33.4273328 C31.5237052,33.4273328 32.1181166,33.0111326 32.4919975,32.3359582 C32.9539482,31.5040427 32.9318714,30.7249393 32.9318714,29.7890948 L32.9318714,29.7890948 Z" id="Fill-11" fill="#002F36" />
          <path d="M3.81457053,13 L3.81457053,5.368 L6.00657053,5.368 L6.00657053,4.2 L3.84657053,4.2 L3.84657053,3.096 C3.84657053,2.36 4.13457053,1.976 4.91857053,1.976 C5.36657053,1.976 5.71857053,2.04 6.05457053,2.136 L6.32657053,0.824 C5.99057053,0.728 5.57457053,0.648 4.96657053,0.648 C3.11057053,0.648 2.26257053,1.688 2.26257053,3.08 L2.26257053,4.2 L0.822570533,4.2 L0.822570533,5.368 L2.23057053,5.368 L2.23057053,13 L3.81457053,13 Z M10.1585705,13.176 C11.5185705,13.176 12.2865705,12.536 12.6225705,12.12 L12.6865705,12.12 L12.9425705,13 L14.2385705,13 L14.2385705,4.2 L12.6545705,4.2 L12.6545705,10.056 C12.5905705,11.128 11.8225705,11.864 10.6385705,11.864 C9.48657053,11.864 8.91057053,11.224 8.91057053,9.928 L8.91057053,4.2 L7.32657053,4.2 L7.32657053,10.184 C7.35857053,12.216 8.33457053,13.176 10.1585705,13.176 Z M18.7505705,13.128 C19.1505705,13.128 19.5505705,13.048 19.8705705,12.92 L19.8705705,11.624 C19.7265705,11.672 19.5345705,11.752 19.2465705,11.752 C18.6545705,11.752 18.3825705,11.448 18.3825705,10.712 L18.3825705,0.856 L16.8145705,0.856 L16.8145705,11.128 C16.8145705,12.376 17.4705705,13.128 18.7505705,13.128 Z M23.8145705,13 L23.8145705,5.368 L26.0065705,5.368 L26.0065705,4.2 L23.8465705,4.2 L23.8465705,3.096 C23.8465705,2.36 24.1345705,1.976 24.9185705,1.976 C25.3665705,1.976 25.7185705,2.04 26.0545705,2.136 L26.3265705,0.824 C25.9905705,0.728 25.5745705,0.648 24.9665705,0.648 C23.1105705,0.648 22.2625705,1.688 22.2625705,3.08 L22.2625705,4.2 L20.8225705,4.2 L20.8225705,5.368 L22.2305705,5.368 L22.2305705,13 L23.8145705,13 Z M28.4145705,2.744 C29.0225705,2.744 29.4705705,2.296 29.4705705,1.72 C29.4705705,1.096 29.0225705,0.648 28.4145705,0.648 C27.8385705,0.648 27.3745705,1.096 27.3745705,1.72 C27.3745705,2.296 27.8385705,2.744 28.4145705,2.744 Z M29.2625705,13 L29.2625705,4.2 L27.6785705,4.2 L27.6785705,13 L29.2625705,13 Z M34.0305705,13.128 C34.4305705,13.128 34.8305705,13.048 35.1505705,12.92 L35.1505705,11.624 C35.0065705,11.672 34.8145705,11.752 34.5265705,11.752 C33.9345705,11.752 33.6625705,11.448 33.6625705,10.712 L33.6625705,0.856 L32.0945705,0.856 L32.0945705,11.128 C32.0945705,12.376 32.7505705,13.128 34.0305705,13.128 Z M38.8585705,13.128 C39.2585705,13.128 39.6585705,13.048 39.9785705,12.92 L39.9785705,11.624 C39.8345705,11.672 39.6425705,11.752 39.3545705,11.752 C38.7625705,11.752 38.4905705,11.448 38.4905705,10.712 L38.4905705,0.856 L36.9225705,0.856 L36.9225705,11.128 C36.9225705,12.376 37.5785705,13.128 38.8585705,13.128 Z M43.0865705,13 L43.0865705,6.808 C43.2785705,6.088 43.9345705,5.384 44.8785705,5.384 C45.9185705,5.384 46.4785705,6.072 46.4785705,7.352 L46.4785705,13 L48.0625705,13 L48.0625705,6.712 C48.3025705,6.04 48.9905705,5.384 49.9185705,5.384 C50.8625705,5.384 51.4705705,5.976 51.4705705,7.24 L51.4705705,13 L53.0545705,13 L53.0545705,6.936 C53.0545705,4.984 52.0785705,4.008 50.3505705,4.008 C49.0065705,4.008 48.1425705,4.664 47.7585705,5.352 L47.6945705,5.352 C47.3745705,4.6 46.7345705,4.008 45.4065705,4.008 C44.1905705,4.008 43.4545705,4.632 43.1185705,5.096 L43.0545705,5.096 L42.7505705,4.2 L41.5025705,4.2 L41.5025705,13 L43.0865705,13 Z M59.0225705,13.128 C60.4145705,13.128 61.3105705,12.76 61.9345705,12.28 L61.2305705,11.096 C60.8625705,11.432 60.1105705,11.816 59.2145705,11.816 C57.5345705,11.816 56.7185705,11 56.6225705,9.064 L62.1265705,9.064 C62.1905705,8.472 62.2065705,7.96 62.2065705,7.528 C62.2065705,5.416 61.0385705,4.04 58.9105705,4.04 C56.7825705,4.04 55.0545705,5.48 55.0545705,8.568 C55.0545705,11.768 56.4305705,13.128 59.0225705,13.128 Z M60.6705705,7.88 L56.6545705,7.88 C56.7345705,6.072 57.6945705,5.336 58.8145705,5.336 C60.0945705,5.336 60.6865705,6.088 60.6865705,7.448 C60.6865705,7.56 60.6865705,7.72 60.6705705,7.88 Z M65.9345705,13 L65.9345705,6.808 C66.2225705,6.008 66.9745705,5.384 67.9505705,5.384 C69.0545705,5.384 69.6465705,6.072 69.6465705,7.272 L69.6465705,13 L71.2305705,13 L71.2305705,6.92 C71.1985705,4.968 70.1585705,4.008 68.4145705,4.008 C67.1825705,4.008 66.2865705,4.68 65.9505705,5.096 L65.8865705,5.096 L65.5665705,4.2 L64.3505705,4.2 L64.3505705,13 L65.9345705,13 Z M76.3025705,13.08 C77.4865705,13.08 78.0945705,12.84 78.4145705,12.632 L77.9985705,11.4 C77.7265705,11.592 77.3105705,11.736 76.6865705,11.736 C75.9665705,11.736 75.5185705,11.352 75.5185705,10.488 L75.5185705,5.448 L77.8705705,5.448 L77.8705705,4.2 L75.5185705,4.2 L75.5185705,1.912 L74.4625705,1.912 L73.9505705,4.136 L72.7025705,4.456 L72.7025705,5.448 L73.9505705,5.448 L73.9505705,10.52 C73.9505705,12.312 74.8305705,13.08 76.3025705,13.08 Z" id="fulfillment" fill="#EC912D" />
          <path d="M4.12657053,29.16 C7.05457053,29.16 8.51057053,27.16 8.51057053,24.36 C8.51057053,21.272 7.00657053,20.12 5.11857053,20.12 C4.12657053,20.12 3.40657053,20.504 3.11857053,20.744 L3.05457053,20.744 L3.05457053,16.856 L1.48657053,16.856 L1.48657053,28.664 C2.07857053,28.952 2.92657053,29.16 4.12657053,29.16 Z M4.31857053,27.832 C3.83857053,27.832 3.39057053,27.752 3.07057053,27.624 L3.07057053,22.216 C3.40657053,21.752 4.06257053,21.464 4.71857053,21.464 C5.88657053,21.464 6.92657053,22.152 6.92657053,24.536 C6.92657053,26.76 5.88657053,27.832 4.31857053,27.832 Z M10.9105705,32.36 C12.7985705,32.36 13.6785705,31.192 14.2065705,29.56 L17.2625705,20.2 L15.6305705,20.2 L14.4145705,24.12 C13.9185705,25.752 13.7265705,26.6 13.5985705,27.288 L13.5345705,27.288 C13.3425705,26.52 13.0705705,25.528 12.6065705,24.12 L11.3105705,20.2 L9.56657053,20.2 L12.7825705,29.208 C12.4945705,30.424 11.9185705,30.984 10.9105705,30.984 C10.6225705,30.984 10.2705705,30.904 10.0465705,30.808 L9.77457053,32.168 C9.99857053,32.264 10.4305705,32.36 10.9105705,32.36 Z" id="by" fill="#EC912D" />
        </g>
      </g>
    </g>
  </g>
</svg>
