<?xml version="1.0" encoding="UTF-8"?>
<svg width="165px" height="80px" viewBox="0 0 165 80" version="1.1" xmlns="http://www.w3.org/2000/svg">
  <title>46B4F0AA-2478-46A4-9AB2-52801721E30F</title>
  <g id="Master:-Integrations-page" stroke="none" stroke-width="1" fill="none" fill-rule="evenodd">
    <g id="Third-party" transform="translate(-414.000000, -1419.000000)">
      <g id="HubSpot_Logo" transform="translate(414.000000, 1419.000000)">
        <rect id="Bounds-border" x="0" y="0" width="165" height="80" />
        <path d="M41.48,29.9760857 L41.48,38.4510857 L33.694,38.4510857 L33.694,29.9760857 L30,29.9760857 L30,50.2070857 L33.695,50.2070857 L33.695,42.0070857 L41.479,42.0070857 L41.479,50.2070857 L45.175,50.2070857 L45.175,29.9760857 L41.48,29.9760857 Z M57.002,43.6680857 C57.002,45.3566963 55.6331106,46.7255857 53.9445,46.7255857 C52.2558894,46.7255857 50.887,45.3566963 50.887,43.6680857 L50.887,35.0020857 L47.382,35.0020857 L47.382,43.6680857 C47.382,47.2888645 50.3172212,50.2240856 53.938,50.2240856 C57.5587788,50.2240856 60.494,47.2888645 60.494,43.6680857 L60.494,35.0020857 L57.002,35.0020857 L57.002,43.6680857 L57.002,43.6680857 Z M82.973,35.8950857 C82.973,34.1180857 84.148,33.5550857 85.435,33.5550857 C86.473,33.5550857 87.843,34.3450857 88.74,35.3030857 L91.035,32.5970857 C89.889,31.0470857 87.565,29.9760857 85.662,29.9760857 C81.859,29.9760857 79.109,32.2030857 79.109,35.8950857 C79.109,42.7450857 87.481,40.5710857 87.481,44.4050857 C87.481,45.5870857 86.333,46.6310857 85.019,46.6310857 C82.946,46.6310857 82.274,45.6180857 81.322,44.5460857 L78.774,47.1950857 C80.404,49.1950857 82.414,50.2110857 84.821,50.2110857 C88.434,50.2110857 91.34,47.9570857 91.34,44.4330857 C91.34,36.8290857 82.967,39.1920857 82.967,35.8950857 M134.767,46.9750857 C132.696,46.9750857 132.107,46.0790857 132.107,44.7070857 L132.107,38.6320857 L135.327,38.6320857 L135.327,35.5540857 L132.107,35.5540857 L132.107,31.4930857 L128.553,33.0880857 L128.553,45.4620857 C128.553,48.6270857 130.737,50.2220857 133.731,50.2220857 C134.201,50.2300857 134.671,50.1920857 135.133,50.1100857 L136,46.9180857 C135.609,46.9450857 135.16,46.9720857 134.767,46.9720857 M70.344,35.1030857 C68.608,35.1030857 67.396,35.6070857 66.224,36.7560857 L66.224,30.0970857 L62.714,30.0970857 L62.714,42.4400857 C62.714,47.0600857 66.054,50.2260857 69.808,50.2260857 C73.972,50.2260857 77.635,47.0040857 77.635,42.6660857 C77.635,38.3820857 74.264,35.1060857 70.344,35.1060857 M70.322,46.6930857 C68.8988325,46.6930857 67.5837715,45.9338349 66.8721877,44.7013357 C66.160604,43.4688365 66.160604,41.9503349 66.8721877,40.7178357 C67.5837715,39.4853365 68.8988325,38.7260857 70.322,38.7260857 C72.5220263,38.7260857 74.3054999,40.5095595 74.3054999,42.7095857 C74.3054999,44.909612 72.5220263,46.6930857 70.322,46.6930857 M108.464,42.4820857 C108.464,38.1360857 104.809,34.9220857 100.637,34.9220857 C96.884,34.9220857 93.543,38.0870857 93.543,42.7080857 L93.543,55.0580857 L97.053,55.0580857 L97.053,48.3900857 C98.223,49.5370857 99.437,50.0430857 101.171,50.0430857 C105.091,50.0430857 108.463,46.7670857 108.463,42.4820857 M105.14,42.4380857 C105.14,44.638112 103.356526,46.4215857 101.1565,46.4215857 C98.9564737,46.4215857 97.173,44.638112 97.173,42.4380857 C97.173,40.2380594 98.9564737,38.4545857 101.1565,38.4545857 C103.356526,38.4545857 105.14,40.2380594 105.14,42.4380857" id="Shape" fill="#33475B" />
        <path d="M119.806,34.7520857 L119.806,31.2250857 C120.757362,30.7804509 121.367154,29.8272124 121.372,28.7770857 L121.372,28.6960857 C121.372,27.1960857 120.156,25.9800857 118.656,25.9800857 L118.575,25.9800857 C117.074995,25.9800857 115.859,27.1960803 115.859,28.6960857 L115.859,28.7770857 C115.863846,29.8272124 116.473638,30.7804509 117.425,31.2250857 L117.425,34.7520857 C116.085446,34.9571956 114.823869,35.5126069 113.768,36.3620857 L104.095,28.8280857 C104.164,28.5790857 104.2,28.3230857 104.204,28.0660857 C104.206426,26.8282524 103.462854,25.7108799 102.320096,25.2351261 C101.177338,24.7593723 99.8605102,25.0189576 98.9837987,25.8928078 C98.1070872,26.766658 97.8431985,28.0826304 98.3152141,29.2269375 C98.7872296,30.3712445 99.9021654,31.1184653 101.14,31.1200857 C101.669549,31.117592 102.189178,30.9762197 102.647,30.7100857 L112.172,38.1220857 C110.420891,40.7674986 110.467707,44.2151954 112.29,46.8120857 L109.393,49.7100857 C109.158823,49.6351961 108.914838,49.5954307 108.669,49.5920857 C107.28163,49.5931903 106.157633,50.7183812 106.158001,52.1057519 C106.158369,53.4931225 107.282963,54.6177166 108.670334,54.6180849 C110.057705,54.618453 111.182895,53.494456 111.184,52.1070857 C111.180773,51.8612373 111.141005,51.6172355 111.066,51.3830857 L113.932,48.5160857 C116.492754,50.4875289 120.00981,50.6573715 122.748612,48.9418496 C125.487413,47.2263278 126.869521,43.9877618 126.213302,40.8233623 C125.557082,37.6589629 123.00113,35.2370548 119.806,34.7520857 M118.618,46.3520857 C117.175978,46.3917623 115.826186,45.6451212 115.093477,44.4024871 C114.360769,43.1598529 114.360769,41.6173186 115.093477,40.3746844 C115.826186,39.1320502 117.175978,38.3854091 118.618,38.4250857 C120.751717,38.4998061 122.443157,40.2506304 122.444235,42.3856555 C122.445312,44.5206806 120.755641,46.2732114 118.622,46.3500857" id="Shape" fill="#FF7A59" />
      </g>
    </g>
  </g>
</svg>
