<?xml version="1.0" encoding="UTF-8"?>
<svg width="165px" height="80px" viewBox="0 0 165 80" version="1.1" xmlns="http://www.w3.org/2000/svg">
  <title>6737ADA4-3837-4044-87CC-53895D3B4C05</title>
  <g id="Master:-Integrations-page" stroke="none" stroke-width="1" fill="none" fill-rule="evenodd">
    <g id="Third-party-w-integromat" transform="translate(-414.000000, -1312.000000)">
      <g id="Integromat-logo" transform="translate(414.000000, 1312.000000)">
        <path d="M57.6077125,35.2975849 L59.8496375,35.2975849 L59.8496375,44.2656349 L57.6077125,44.2656349 L57.6077125,35.2975849 Z M60.0739875,32.7623599 C60.0739875,33.1991599 59.9761625,33.5125849 59.7806875,33.7022849 C59.5852125,33.8919849 59.2402875,33.9868349 58.7459125,33.9868349 C58.2515375,33.9868349 57.9066125,33.8919849 57.7111375,33.7022849 C57.5156625,33.5125849 57.4180125,33.1991599 57.4180125,32.7623599 C57.4180125,32.3369349 57.5156625,32.0264849 57.7111375,31.8310099 C57.9066125,31.6355349 58.2515375,31.5378849 58.7459125,31.5378849 C59.2402875,31.5378849 59.5852125,31.6355349 59.7806875,31.8310099 C59.9761625,32.0264849 60.0739875,32.3369349 60.0739875,32.7623599 Z" id="Shape" fill="#008EC0" />
        <path d="M61.6778625,44.2656349 L61.6778625,38.1604099 C61.6778625,37.5970849 61.7583625,37.1140849 61.9191875,36.7117599 C62.0801875,36.3092599 62.3274625,35.9844599 62.6608375,35.7373599 C62.9942125,35.4900849 63.4196375,35.3089599 63.9371125,35.1939849 C64.4544125,35.0790099 65.0695375,35.0216099 65.7824875,35.0216099 C67.2082125,35.0216099 68.2457875,35.2601349 68.8953875,35.7373599 C69.5449875,36.2144099 69.8697875,37.0222099 69.8697875,38.1604099 L69.8697875,44.2656349 L67.6278625,44.2656349 L67.6278625,38.4363849 C67.6278625,38.1719599 67.6105375,37.9420099 67.5760625,37.7465349 C67.5415875,37.5510599 67.4638875,37.3872599 67.3433125,37.2549599 C67.2225625,37.1228349 67.0386375,37.0250099 66.7913625,36.9618349 C66.5440875,36.8986599 66.2079125,36.8669849 65.7824875,36.8669849 C65.3570625,36.8669849 65.0207125,36.8986599 64.7736125,36.9618349 C64.5263375,37.0250099 64.3394375,37.1228349 64.2130875,37.2549599 C64.0865625,37.3872599 64.0060625,37.5510599 63.9715875,37.7465349 C63.9371125,37.9420099 63.9197875,38.1719599 63.9197875,38.4363849 L63.9197875,44.2656349 L61.6778625,44.2656349 L61.6778625,44.2656349 Z" id="Path" fill="#008EC0" />
        <path d="M76.6993375,44.2656349 L75.3024875,44.2656349 C74.5781625,44.2656349 73.9831625,44.2138349 73.5174875,44.1104099 C73.0518125,44.0069849 72.6837875,43.8258599 72.4135875,43.5672099 C72.1435625,43.3085599 71.9566625,42.9606599 71.8532375,42.5236849 C71.7496375,42.0868849 71.6980125,41.5407099 71.6980125,40.8853349 L71.6980125,33.2107099 L73.9399375,32.8486349 L73.9399375,35.2975849 L77.1650125,35.2975849 L76.8029375,37.1429599 L73.9399375,37.1429599 L73.9399375,40.7645849 C73.9399375,41.1095099 73.9600625,41.3912599 74.0003125,41.6096599 C74.0405625,41.8282349 74.1152875,41.9978099 74.2244875,42.1185599 C74.3336875,42.2391349 74.4889125,42.3196349 74.6901625,42.3598849 C74.8914125,42.4001349 75.1472625,42.4202599 75.4577125,42.4202599 L77.0615875,42.4202599 L76.6993375,44.2656349 Z" id="Path" fill="#008EC0" />
        <path d="M80.4590375,40.5404099 C80.4590375,40.9542849 80.4821375,41.2936099 80.5281625,41.5580349 C80.5740125,41.8224599 80.6688625,42.0293099 80.8127125,42.1787599 C80.9563875,42.3283849 81.1546625,42.4318099 81.4077125,42.4892099 C81.6605875,42.5467849 81.9939625,42.5754849 82.4080125,42.5754849 C82.8103375,42.5754849 83.2702375,42.5754849 83.7877125,42.5754849 C84.3050125,42.5754849 84.9430625,42.5639349 85.7020375,42.5410099 L85.3571125,44.2656349 C85.0351125,44.2771849 84.7477625,44.2857599 84.4947125,44.2915349 C84.2418375,44.2973099 83.9975375,44.3001099 83.7618125,44.3001099 L82.3044125,44.3001099 C81.4882125,44.3001099 80.8155125,44.2082349 80.2866625,44.0241349 C79.7578125,43.8402099 79.3409625,43.5757849 79.0362875,43.2308599 C78.7316125,42.8859349 78.5188125,42.4634849 78.3982375,41.9633349 C78.2774875,41.4631849 78.2171125,40.8911099 78.2171125,40.2472849 L78.2171125,39.2814599 C78.2171125,38.5916099 78.2802875,37.9822599 78.4068125,37.4534099 C78.5333375,36.9243849 78.7545375,36.4788349 79.0707625,36.1167599 C79.3869875,35.7545099 79.8124125,35.4815099 80.3470375,35.2975849 C80.8816625,35.1136599 81.5571625,35.0216099 82.3733625,35.0216099 C83.1323375,35.0216099 83.7618125,35.1049099 84.2619625,35.2716849 C84.7621125,35.4384599 85.1644375,35.6712099 85.4691125,35.9701099 C85.7737875,36.2690099 85.9893875,36.6226849 86.1159125,37.0307849 C86.2424375,37.4388849 86.3056125,37.8844349 86.3056125,38.3674349 L86.3056125,38.6605599 C86.3056125,39.0515099 86.2826875,39.3705349 86.2366625,39.6178099 C86.1906375,39.8649099 86.1131125,40.0575849 86.0037375,40.1954849 C85.8945375,40.3335599 85.7536625,40.4254349 85.5812875,40.4714599 C85.4087375,40.5174849 85.1961125,40.5404099 84.9430625,40.5404099 L80.4590375,40.5404099 L80.4590375,40.5404099 Z M82.3217375,36.7117599 C81.9307875,36.7117599 81.6145625,36.7434349 81.3732375,36.8066099 C81.1317375,36.8697849 80.9420375,36.9847599 80.8039625,37.1515349 C80.6660625,37.3183099 80.5740125,37.5424849 80.5281625,37.8240599 C80.4821375,38.1058099 80.4590375,38.4650849 80.4590375,38.9020599 L84.1671125,38.9020599 L84.1671125,38.5053349 C84.1671125,38.1719599 84.1382375,37.8902099 84.0808375,37.6602599 C84.0232625,37.4303099 83.9256125,37.2463849 83.7877125,37.1084849 C83.6496375,36.9704099 83.4599375,36.8697849 83.2184375,36.8066099 C82.9771125,36.7434349 82.6782125,36.7117599 82.3217375,36.7117599 L82.3217375,36.7117599 Z" id="Shape" fill="#008EC0" />
        <path d="M91.7899375,42.1271349 C92.2038125,42.1271349 92.5373625,42.0954599 92.7902375,42.0322849 C93.0431125,41.9689349 93.2443625,41.8627099 93.3938125,41.7132599 C93.5432625,41.5636349 93.6438875,41.3625599 93.6956875,41.1095099 C93.7474875,40.8566349 93.7732125,40.5346349 93.7732125,40.1436849 L93.7732125,39.2987849 C93.7732125,38.7928599 93.7560625,38.3788099 93.7215875,38.0569849 C93.6871125,37.7349849 93.6008375,37.4821099 93.4629375,37.2981849 C93.3248625,37.1140849 93.1236125,36.9877349 92.8591875,36.9187849 C92.5947625,36.8496599 92.2382875,36.8151849 91.7899375,36.8151849 C91.3415875,36.8151849 90.9851125,36.8496599 90.7206875,36.9187849 C90.4562625,36.9877349 90.2550125,37.1140849 90.1171125,37.2981849 C89.9790375,37.4821099 89.8929375,37.7349849 89.8582875,38.0569849 C89.8238125,38.3788099 89.8066625,38.7928599 89.8066625,39.2987849 L89.8066625,39.6437099 C89.8066625,40.1494599 89.8267875,40.5635099 89.8670375,40.8853349 C89.9072875,41.2073349 89.9933875,41.4602099 90.1256875,41.6441349 C90.2579875,41.8282349 90.4562625,41.9545849 90.7206875,42.0235349 C90.9851125,42.0926599 91.3415875,42.1271349 91.7899375,42.1271349 Z M93.7732125,43.2998099 C93.5432625,43.4837349 93.2501375,43.6333599 92.8936625,43.7483349 C92.5373625,43.8633099 92.0601375,43.9207099 91.4623375,43.9207099 C90.7149125,43.9207099 90.0912125,43.8344349 89.5910625,43.6620599 C89.0909125,43.4895099 88.6884125,43.2280599 88.3837375,42.8773599 C88.0790625,42.5266599 87.8606625,42.0868849 87.7283625,41.5580349 C87.5962375,41.0290099 87.5300875,40.4138849 87.5300875,39.7126599 L87.5300875,39.2296599 C87.5300875,38.5513599 87.5904625,37.9505849 87.7112125,37.4275099 C87.8319625,36.9042599 88.0531625,36.4644849 88.3751625,36.1081849 C88.6971625,35.7517099 89.1311625,35.4815099 89.6773375,35.2975849 C90.2233375,35.1136599 90.9219375,35.0216099 91.7727875,35.0216099 C92.6350125,35.0216099 93.3421875,35.1164599 93.8939625,35.3061599 C94.4459125,35.4958599 94.8799125,35.7632599 95.1961375,36.1081849 C95.5123625,36.4531099 95.7277875,36.8697849 95.8427625,37.3585599 C95.9577375,37.8471599 96.0153125,38.3903599 96.0153125,38.9883349 L96.0153125,43.4378849 C96.0153125,44.1277349 95.9377875,44.7197599 95.7825625,45.2141349 C95.6273375,45.7085099 95.3772625,46.1110099 95.0323375,46.4214599 C94.6874125,46.7319099 94.2446625,46.9588849 93.7042625,47.1027349 C93.1638625,47.2464099 92.5084875,47.3183349 91.7381375,47.3183349 L90.3412875,47.3183349 C90.0882375,47.3183349 89.8094625,47.3153599 89.5047875,47.3095849 C89.2001125,47.3038099 88.8408375,47.2952349 88.4269625,47.2836849 L88.7890375,45.4901099 C89.1110375,45.5016599 89.4013625,45.5102349 89.6600125,45.5160099 C89.9186625,45.5217849 90.1601625,45.5245849 90.3843375,45.5245849 L91.6347125,45.5245849 C92.0256625,45.5245849 92.3562375,45.4930849 92.6264375,45.4297349 C92.8966375,45.3665599 93.1178375,45.2573599 93.2903875,45.1021349 C93.4629375,44.9469099 93.5864875,44.7313099 93.6612125,44.4553349 C93.7359375,44.1793599 93.7732125,43.8344349 93.7732125,43.4205599 L93.7732125,43.2998099 L93.7732125,43.2998099 Z" id="Shape" fill="#008EC0" />
        <path d="M100.085463,44.2656349 L97.8433625,44.2656349 L97.8433625,38.3674349 C97.8433625,37.7925599 97.9238625,37.3067599 98.0848625,36.9100349 C98.2458625,36.5134849 98.4815875,36.1942849 98.7920375,35.9529599 C99.1024875,35.7114599 99.4818875,35.5361099 99.9302375,35.4269099 C100.378588,35.3177099 100.890288,35.2631099 101.465163,35.2631099 C101.902138,35.2631099 102.275763,35.2631099 102.586213,35.2631099 C102.896663,35.2631099 103.201338,35.2688849 103.500238,35.2802599 L103.137988,37.1429599 C102.908038,37.1314099 102.655163,37.1228349 102.379188,37.1170599 C102.103213,37.1112849 101.873263,37.1084849 101.689338,37.1084849 C101.321488,37.1084849 101.033963,37.1429599 100.827113,37.2119099 C100.620088,37.2808599 100.459088,37.3814849 100.344113,37.5137849 C100.229138,37.6459099 100.157388,37.8126849 100.128513,38.0137599 C100.099813,38.2150099 100.085463,38.4537099 100.085463,38.7295099 L100.085463,44.2656349 L100.085463,44.2656349 Z" id="Path" fill="#008EC0" />
        <path d="M108.415463,35.0216099 C109.185813,35.0216099 109.841188,35.0905599 110.381588,35.2286349 C110.921988,35.3665349 111.364563,35.5992849 111.709488,35.9270599 C112.054413,36.2546599 112.304488,36.6944349 112.459713,37.2463849 C112.614938,37.7983349 112.692463,38.4881849 112.692463,39.3159349 L112.692463,40.2472849 C112.692463,41.0750349 112.614938,41.7648849 112.459713,42.3168349 C112.304488,42.8686099 112.054413,43.3085599 111.709488,43.6361599 C111.364563,43.9637599 110.921988,44.1966849 110.381588,44.3345849 C109.841188,44.4726599 109.185813,44.5416099 108.415463,44.5416099 C107.633563,44.5416099 106.972413,44.4726599 106.432188,44.3345849 C105.891788,44.1966849 105.449038,43.9637599 105.104113,43.6361599 C104.759188,43.3085599 104.509113,42.8686099 104.353888,42.3168349 C104.198663,41.7648849 104.121138,41.0750349 104.121138,40.2472849 L104.121138,39.3159349 C104.121138,38.4881849 104.198663,37.7983349 104.353888,37.2463849 C104.509113,36.6944349 104.759188,36.2546599 105.104113,35.9270599 C105.449038,35.5992849 105.891788,35.3665349 106.432188,35.2286349 C106.972413,35.0905599 107.633563,35.0216099 108.415463,35.0216099 Z M110.416063,39.2814599 C110.416063,38.7526099 110.387363,38.3242099 110.329788,37.9966099 C110.272213,37.6688349 110.171763,37.4187599 110.027913,37.2463849 C109.884238,37.0738349 109.682988,36.9588599 109.424338,36.9014599 C109.165688,36.8438849 108.829338,36.8151849 108.415463,36.8151849 C108.001588,36.8151849 107.662438,36.8438849 107.397838,36.9014599 C107.133413,36.9588599 106.929363,37.0738349 106.785688,37.2463849 C106.642013,37.4187599 106.541388,37.6688349 106.483813,37.9966099 C106.426413,38.3242099 106.397538,38.7526099 106.397538,39.2814599 L106.397538,40.2989099 C106.397538,40.8279349 106.426413,41.2533599 106.483813,41.5751849 C106.541388,41.8971849 106.642013,42.1442849 106.785688,42.3168349 C106.929363,42.4892099 107.133413,42.6041849 107.397838,42.6617599 C107.662438,42.7191599 108.001588,42.7480349 108.415463,42.7480349 C108.829338,42.7480349 109.165688,42.7191599 109.424338,42.6617599 C109.682988,42.6041849 109.884238,42.4892099 110.027913,42.3168349 C110.171763,42.1442849 110.272213,41.8971849 110.329788,41.5751849 C110.387363,41.2533599 110.416063,40.8279349 110.416063,40.2989099 L110.416063,39.2814599 L110.416063,39.2814599 Z" id="Shape" fill="#008EC0" />
        <path d="M134.716213,42.6444349 L134.716213,41.2475849 C134.716213,41.0405599 134.696088,40.8652099 134.655838,40.7215349 C134.615588,40.5778599 134.532113,40.4599099 134.405763,40.3680349 C134.279238,40.2759849 134.101088,40.2098349 133.871138,40.1695849 C133.641188,40.1293349 133.336513,40.1092099 132.956938,40.1092099 L132.698288,40.1092099 C132.042913,40.1092099 131.600338,40.1897099 131.370388,40.3507099 C131.140438,40.5117099 131.025463,40.8048349 131.025463,41.2302599 L131.025463,41.5580349 C131.025463,41.9258849 131.131688,42.1988849 131.344488,42.3772099 C131.557113,42.5553599 131.951038,42.6444349 132.525913,42.6444349 L134.716213,42.6444349 Z M136.889188,42.6444349 C136.889188,43.2537849 136.751288,43.6764099 136.475313,43.9121349 C136.199338,44.1478599 135.722113,44.2656349 135.043813,44.2656349 L132.232613,44.2656349 C131.002363,44.2656349 130.131563,44.0356849 129.619863,43.5757849 C129.108163,43.1158849 128.852313,42.4547349 128.852313,41.5925099 L128.852313,41.2131099 C128.852313,40.2586599 129.134063,39.5660099 129.697388,39.1348099 C130.260888,38.7037849 131.140438,38.4881849 132.336213,38.4881849 C132.934013,38.4881849 133.431363,38.5370099 133.827913,38.6346599 C134.224638,38.7324849 134.520738,38.8444849 134.716213,38.9710099 L134.716213,38.6605599 C134.716213,38.3501099 134.684538,38.0914599 134.621363,37.8844349 C134.558013,37.6775849 134.451613,37.5137849 134.302163,37.3930349 C134.152713,37.2722849 133.948663,37.1888099 133.690013,37.1429599 C133.431363,37.0969349 133.106563,37.0738349 132.715613,37.0738349 C132.497038,37.0738349 132.255713,37.0738349 131.991288,37.0738349 C131.726688,37.0738349 131.459463,37.0768099 131.189263,37.0825849 C130.919063,37.0883599 130.651663,37.0939599 130.387238,37.0997349 C130.122813,37.1055099 129.881488,37.1084849 129.662913,37.1084849 L130.025163,35.2975849 C130.346988,35.2860349 130.749488,35.2774599 131.232313,35.2716849 C131.715313,35.2659099 132.244163,35.2631099 132.819038,35.2631099 C134.221663,35.2631099 135.250838,35.5102099 135.906213,36.0045849 C136.561413,36.4989599 136.889188,37.2750849 136.889188,38.3329599 L136.889188,42.6444349 L136.889188,42.6444349 Z" id="Shape" fill="#545454" />
        <path d="M143.718738,44.2656349 L142.321713,44.2656349 C141.597388,44.2656349 141.002388,44.2138349 140.536713,44.1104099 C140.071213,44.0069849 139.703188,43.8258599 139.432988,43.5672099 C139.162788,43.3085599 138.976063,42.9606599 138.872463,42.5236849 C138.769038,42.0868849 138.717238,41.5407099 138.717238,40.8853349 L138.717238,33.2107099 L140.959338,32.8486349 L140.959338,35.2975849 L144.184413,35.2975849 L143.822163,37.1429599 L140.959338,37.1429599 L140.959338,40.7645849 C140.959338,41.1095099 140.979463,41.3912599 141.019713,41.6096599 C141.059963,41.8282349 141.134688,41.9978099 141.243888,42.1185599 C141.353088,42.2391349 141.508313,42.3196349 141.709563,42.3598849 C141.910813,42.4001349 142.166488,42.4202599 142.476938,42.4202599 L144.080988,42.4202599 L143.718738,44.2656349 L143.718738,44.2656349 Z" id="Path" fill="#545454" />
        <path d="M114.348138,41.2293849 L114.348138,38.1259349 C114.348138,37.5510599 114.428638,37.0652599 114.589638,36.6687099 C114.750638,36.2719849 114.989163,35.9529599 115.305388,35.7114599 C115.621613,35.4699599 116.009588,35.2946099 116.469488,35.1854099 C116.929388,35.0762099 117.458238,35.0216099 118.056213,35.0216099 C118.676938,35.0216099 119.226088,35.1078849 119.703138,35.2802599 C120.180363,35.4528099 120.551188,35.6999099 120.815613,36.0219099 C121.080038,35.6999099 121.453663,35.4528099 121.936663,35.2802599 C122.419488,35.1078849 122.977038,35.0216099 123.609488,35.0216099 C124.195913,35.0216099 124.718988,35.0762099 125.178888,35.1854099 C125.638788,35.2946099 126.026763,35.4699599 126.342988,35.7114599 C126.659213,35.9529599 126.897738,36.2719849 127.058738,36.6687099 C127.219738,37.0652599 127.300238,37.5510599 127.300238,38.1259349 L127.300238,44.2656349 L125.058138,44.2656349 L125.058138,38.4363849 C125.058138,38.1719599 125.043788,37.9420099 125.015088,37.7465349 C124.986388,37.5510599 124.920238,37.3872599 124.816813,37.2549599 C124.713213,37.1228349 124.555188,37.0250099 124.342388,36.9618349 C124.129763,36.8986599 123.845213,36.8669849 123.488738,36.8669849 C123.155363,36.8669849 122.890938,36.8956849 122.695463,36.9532599 C122.499988,37.0106599 122.344763,37.0969349 122.229788,37.2119099 C122.114813,37.3268849 122.040088,37.4705599 122.005613,37.6431099 C121.971138,37.8154849 121.953813,38.0167349 121.953813,38.2466849 L121.953813,42.7571349 L119.711888,42.7571349 L119.711888,38.4363849 C119.711888,38.1719599 119.697363,37.9420099 119.668663,37.7465349 C119.639963,37.5510599 119.571013,37.3872599 119.461813,37.2549599 C119.352438,37.1228349 119.194413,37.0250099 118.987388,36.9618349 C118.780538,36.8986599 118.498788,36.8669849 118.142313,36.8669849 C117.786013,36.8669849 117.504263,36.8986599 117.297238,36.9618349 C117.090388,37.0250099 116.935163,37.1228349 116.831738,37.2549599 C116.728138,37.3872599 116.662163,37.5510599 116.633288,37.7465349 C116.604588,37.9420099 116.590238,38.1719599 116.590238,38.4363849 L116.590238,41.2293849 L114.348138,41.2293849 L114.348138,41.2293849 Z" id="Path" fill="#545454" />
        <path d="M29.9209625,26.4408349 L29.9209625,31.5639599 C27.1332125,33.1778099 25.2561625,36.1932349 25.2561625,39.6437099 C25.2561625,44.7927349 29.4365625,48.9731349 34.5857625,48.9731349 C39.7349625,48.9731349 43.9153625,44.7927349 43.9153625,39.6437099 C43.9153625,36.1932349 42.0383125,33.1778099 39.2505625,31.5639599 L39.2505625,26.4408349 C44.6869375,28.3639099 48.5855875,33.5521349 48.5855875,39.6437099 C48.5855875,47.3703099 42.3125375,53.6435349 34.5857625,53.6435349 C26.8589875,53.6435349 20.5857625,47.3703099 20.5857625,39.6437099 C20.5857625,33.5521349 24.4847625,28.3639099 29.9209625,26.4408349 Z" id="Path" fill="#CCCCCC" />
        <path d="M32.2533625,25.8374349 C33.0119875,25.7100349 33.7910875,25.6435349 34.5857625,25.6435349 C35.3804375,25.6435349 36.1595375,25.7100349 36.9181625,25.8374349 L36.9181625,30.6084599 C36.1726625,30.4163099 35.3909375,30.3141099 34.5857625,30.3141099 C33.7805875,30.3141099 32.9988625,30.4163099 32.2533625,30.6084599 L32.2533625,25.8374349 Z" id="Path" fill="#008EC0" />
        <path d="M32.2533625,43.9200099 L32.2533625,33.0453349 C32.9831125,32.7868599 33.7681625,32.6465099 34.5857625,32.6465099 C35.4033625,32.6465099 36.1884125,32.7868599 36.9181625,33.0453349 L36.9181625,43.9200099 C36.1884125,44.1783099 35.4033625,44.3188349 34.5857625,44.3188349 C33.7681625,44.3188349 32.9831125,44.1783099 32.2533625,43.9200099 L32.2533625,43.9200099 Z" id="Path" fill="#008EC0" />
        <rect id="Bounds-border" x="0" y="0" width="165" height="80" />
      </g>
    </g>
  </g>
</svg>
