<?xml version="1.0" encoding="UTF-8"?>
<svg xmlns="http://www.w3.org/2000/svg" xmlns:xlink="http://www.w3.org/1999/xlink" width="165px" height="80px" viewBox="0 0 363 80" version="1.1">
<g id="surface1">
<path style=" stroke:none;fill-rule:nonzero;fill:rgb(0%,21.176471%,23.921569%);fill-opacity:1;" d="M 143.5 59.078125 C 146.945312 57.273438 149.808594 54.515625 151.765625 51.152344 C 153.765625 47.683594 154.785156 43.734375 154.730469 39.714844 C 154.800781 35.738281 153.765625 31.816406 151.765625 28.367188 C 149.808594 25.027344 146.945312 22.316406 143.5 20.539062 C 135.984375 16.777344 127.148438 16.777344 119.632812 20.539062 C 116.1875 22.316406 113.324219 25.027344 111.367188 28.367188 C 109.367188 31.816406 108.347656 35.738281 108.402344 39.714844 C 108.347656 43.734375 109.367188 47.683594 111.367188 51.152344 C 113.324219 54.515625 116.1875 57.273438 119.632812 59.078125 C 123.292969 60.980469 127.363281 61.945312 131.488281 61.890625 C 135.65625 61.960938 139.796875 60.996094 143.5 59.078125 Z M 118.628906 39.800781 C 118.457031 36.179688 119.746094 32.65625 122.214844 30.015625 C 124.640625 27.515625 128.015625 26.179688 131.503906 26.335938 C 134.960938 26.222656 138.324219 27.558594 140.777344 30.015625 C 145.667969 35.609375 145.667969 43.992188 140.777344 49.589844 C 138.335938 52.074219 134.960938 53.410156 131.503906 53.265625 C 128.027344 53.378906 124.667969 52.046875 122.214844 49.589844 C 119.789062 46.933594 118.5 43.410156 118.628906 39.800781 Z M 118.628906 39.800781 "/>
<path style=" stroke:none;fill-rule:nonzero;fill:rgb(0%,21.176471%,23.921569%);fill-opacity:1;" d="M 296.328125 18.339844 L 290.9375 18.339844 C 290.273438 18.324219 289.632812 18.59375 289.167969 19.0625 C 288.699219 19.53125 288.429688 20.183594 288.441406 20.851562 L 288.441406 58.992188 C 288.429688 59.660156 288.699219 60.296875 289.167969 60.765625 C 289.632812 61.25 290.273438 61.503906 290.9375 61.503906 L 296.328125 61.503906 C 296.980469 61.503906 297.632812 61.25 298.097656 60.765625 C 298.566406 60.296875 298.824219 59.660156 298.824219 58.992188 L 298.824219 20.851562 C 298.824219 20.183594 298.566406 19.53125 298.097656 19.0625 C 297.632812 18.59375 296.980469 18.324219 296.328125 18.339844 Z M 296.328125 18.339844 "/>
<path style=" stroke:none;fill-rule:nonzero;fill:rgb(0%,21.176471%,23.921569%);fill-opacity:1;" d="M 338.597656 59.078125 C 342 57.257812 344.808594 54.515625 346.707031 51.152344 C 348.691406 47.683594 349.726562 43.734375 349.671875 39.714844 C 349.726562 35.738281 348.707031 31.816406 346.707031 28.367188 C 344.792969 25.058594 341.984375 22.34375 338.597656 20.539062 C 334.964844 18.621094 330.925781 17.65625 326.8125 17.714844 C 322.742188 17.640625 318.71875 18.609375 315.113281 20.527344 C 311.726562 22.316406 308.917969 25.027344 307.003906 28.367188 C 305.019531 31.816406 304 35.738281 304.039062 39.714844 C 303.957031 43.734375 304.992188 47.683594 307.003906 51.152344 C 308.933594 54.503906 311.742188 57.230469 315.113281 59.0625 C 322.488281 62.828125 331.222656 62.828125 338.597656 59.0625 Z M 314.195312 39.800781 C 314.007812 36.179688 315.3125 32.65625 317.78125 30.015625 C 320.148438 27.515625 323.46875 26.179688 326.898438 26.335938 C 330.316406 26.234375 333.621094 27.570312 336.03125 30.015625 C 340.808594 35.652344 340.808594 43.949219 336.03125 49.589844 C 333.648438 52.058594 330.328125 53.394531 326.898438 53.265625 C 323.480469 53.367188 320.175781 52.03125 317.78125 49.589844 C 315.328125 46.945312 314.023438 43.421875 314.195312 39.800781 Z M 314.195312 39.800781 "/>
<path style=" stroke:none;fill-rule:nonzero;fill:rgb(0%,21.176471%,23.921569%);fill-opacity:1;" d="M 280.957031 18.339844 L 275.339844 18.339844 C 274.5625 18.339844 273.867188 18.808594 273.539062 19.515625 L 260.125 49.902344 C 260.082031 49.972656 260.011719 50.015625 259.929688 50.015625 C 259.855469 50.015625 259.773438 49.972656 259.742188 49.902344 L 246.710938 19.589844 C 246.402344 18.878906 245.691406 18.421875 244.910156 18.421875 L 223.457031 18.421875 C 223.402344 18.421875 223.332031 18.410156 223.289062 18.367188 C 223.246094 18.308594 223.214844 18.253906 223.230469 18.183594 L 223.230469 12.003906 C 223.230469 11.476562 223.03125 10.980469 222.664062 10.609375 C 222.296875 10.242188 221.796875 10.027344 221.273438 10.042969 L 214.878906 10.042969 C 214.355469 10.027344 213.859375 10.242188 213.488281 10.609375 C 213.121094 10.980469 212.921875 11.476562 212.9375 12.003906 L 212.9375 18.183594 C 212.9375 18.238281 212.90625 18.308594 212.867188 18.351562 C 212.824219 18.394531 212.753906 18.421875 212.695312 18.410156 L 194.742188 18.410156 C 194.21875 18.410156 193.722656 18.609375 193.367188 18.976562 C 192.984375 19.347656 192.785156 19.84375 192.785156 20.371094 L 192.785156 40.183594 C 193.042969 43.707031 191.867188 47.1875 189.511719 49.816406 C 187.171875 52.128906 183.980469 53.351562 180.691406 53.183594 C 177.855469 53.367188 175.0625 52.316406 173.050781 50.285156 C 171.0625 47.839844 170.085938 44.730469 170.328125 41.589844 L 170.328125 20.3125 C 170.328125 19.785156 170.128906 19.289062 169.757812 18.921875 C 169.390625 18.550781 168.894531 18.339844 168.371094 18.351562 L 161.972656 18.351562 C 161.464844 18.351562 160.96875 18.550781 160.597656 18.921875 C 160.230469 19.289062 160.03125 19.785156 160.046875 20.3125 L 160.046875 42.941406 C 160.046875 49.203125 161.746094 53.992188 165.109375 57.203125 C 168.964844 60.554688 173.96875 62.273438 179.074219 61.972656 C 181.824219 61.972656 184.5625 61.449219 187.101562 60.398438 C 189.328125 59.488281 191.328125 58.097656 192.957031 56.335938 C 193.015625 56.265625 193.128906 56.234375 193.210938 56.265625 C 193.296875 56.308594 193.355469 56.390625 193.339844 56.492188 L 193.339844 59.460938 C 193.339844 59.984375 193.539062 60.484375 193.90625 60.851562 C 194.277344 61.222656 194.773438 61.433594 195.296875 61.421875 L 201.140625 61.421875 C 201.664062 61.433594 202.160156 61.222656 202.527344 60.851562 C 202.898438 60.484375 203.09375 59.984375 203.09375 59.460938 L 203.09375 29.21875 C 203.09375 28.691406 203.292969 28.195312 203.664062 27.828125 C 204.03125 27.457031 204.527344 27.257812 205.039062 27.257812 L 212.695312 27.257812 C 212.753906 27.246094 212.824219 27.273438 212.867188 27.316406 C 212.90625 27.371094 212.9375 27.429688 212.921875 27.5 L 212.921875 48.722656 C 212.625 52.726562 214.085938 56.675781 216.90625 59.53125 C 220.027344 62.171875 224.054688 63.496094 228.136719 63.210938 C 230.007812 63.210938 231.867188 62.984375 233.679688 62.5 C 234.675781 62.214844 235.652344 61.832031 236.574219 61.335938 C 237.4375 60.824219 237.820312 59.773438 237.511719 58.820312 L 235.792969 54.671875 C 235.539062 54.175781 235.015625 53.878906 234.460938 53.90625 C 234.25 53.90625 234.035156 53.964844 233.835938 54.046875 C 232.417969 54.703125 230.875 55.027344 229.3125 55 C 227.640625 55.097656 226.011719 54.503906 224.789062 53.351562 C 223.628906 52.046875 223.046875 50.328125 223.160156 48.566406 L 223.160156 27.273438 L 238.046875 27.273438 C 238.828125 27.273438 239.539062 27.726562 239.847656 28.4375 L 253.886719 60.328125 C 254.214844 61.035156 254.910156 61.492188 255.6875 61.492188 L 263.785156 61.492188 C 264.566406 61.492188 265.273438 61.035156 265.585938 60.328125 L 282.828125 21.164062 C 283.054688 20.527344 282.96875 19.828125 282.601562 19.277344 C 282.234375 18.707031 281.621094 18.367188 280.957031 18.339844 Z M 280.957031 18.339844 "/>
<path style=" stroke:none;fill-rule:nonzero;fill:rgb(29.411765%,70.588235%,70.196078%);fill-opacity:1;" d="M 37.25 38.933594 C 36.910156 40.753906 37.476562 42.613281 38.78125 43.90625 C 40.070312 45.214844 41.929688 45.78125 43.730469 45.441406 C 45.914062 45.042969 47.628906 43.324219 48.011719 41.136719 C 48.351562 39.316406 47.785156 37.472656 46.496094 36.164062 C 45.191406 34.859375 43.332031 34.289062 41.546875 34.628906 C 39.347656 35.027344 37.648438 36.746094 37.25 38.933594 Z M 37.25 38.933594 "/>
<path style=" stroke:none;fill-rule:nonzero;fill:rgb(29.411765%,70.588235%,70.196078%);fill-opacity:1;" d="M 40.453125 24.828125 C 41.179688 24.746094 41.902344 24.6875 42.636719 24.671875 C 43.289062 24.6875 43.941406 24.746094 44.582031 24.828125 C 45.175781 24.929688 45.757812 24.617188 45.984375 24.0625 L 55.046875 2.128906 C 55.144531 1.859375 55.144531 1.578125 55.015625 1.320312 C 54.902344 1.066406 54.675781 0.867188 54.421875 0.796875 C 53.34375 0.453125 52.253906 0.199219 51.132812 0.015625 C 50.664062 -0.0703125 50.195312 0.183594 50.039062 0.640625 L 42.710938 18.183594 C 42.695312 18.253906 42.625 18.308594 42.554688 18.308594 C 42.480469 18.308594 42.410156 18.253906 42.398438 18.183594 L 34.910156 0.796875 C 34.726562 0.328125 34.214844 0.0859375 33.734375 0.253906 C 32.484375 0.566406 31.324219 0.878906 30.074219 1.265625 C 29.804688 1.347656 29.578125 1.546875 29.464844 1.804688 C 29.351562 2.046875 29.335938 2.34375 29.453125 2.597656 L 38.964844 24.21875 C 39.304688 24.6875 39.886719 24.929688 40.453125 24.828125 Z M 40.453125 24.828125 "/>
<path style=" stroke:none;fill-rule:nonzero;fill:rgb(29.411765%,70.588235%,70.196078%);fill-opacity:1;" d="M 57.683594 37.996094 C 57.78125 38.722656 57.839844 39.460938 57.851562 40.183594 C 57.839844 40.851562 57.78125 41.503906 57.683594 42.160156 C 57.597656 42.742188 57.910156 43.324219 58.460938 43.566406 L 80.3125 52.640625 C 80.570312 52.753906 80.867188 52.753906 81.109375 52.628906 C 81.378906 52.515625 81.5625 52.285156 81.648438 52.015625 C 81.972656 50.953125 82.226562 49.84375 82.414062 48.734375 C 82.496094 48.253906 82.242188 47.796875 81.789062 47.628906 L 64.304688 40.269531 C 64.234375 40.253906 64.191406 40.183594 64.191406 40.113281 C 64.191406 40.042969 64.234375 39.972656 64.304688 39.957031 L 81.632812 32.429688 C 82.085938 32.257812 82.328125 31.734375 82.171875 31.265625 C 81.859375 30.015625 81.546875 28.835938 81.164062 27.585938 C 81.078125 27.316406 80.894531 27.089844 80.640625 26.972656 C 80.382812 26.847656 80.085938 26.847656 79.832031 26.960938 L 58.308594 36.503906 C 57.851562 36.859375 57.625 37.429688 57.683594 37.996094 Z M 57.683594 37.996094 "/>
<path style=" stroke:none;fill-rule:nonzero;fill:rgb(29.411765%,70.588235%,70.196078%);fill-opacity:1;" d="M 44.582031 55.15625 C 43.859375 55.242188 43.132812 55.296875 42.398438 55.296875 C 41.746094 55.296875 41.09375 55.242188 40.453125 55.15625 C 39.859375 55.058594 39.277344 55.371094 39.050781 55.921875 L 29.988281 77.871094 C 29.890625 78.140625 29.890625 78.421875 30.019531 78.679688 C 30.132812 78.933594 30.34375 79.121094 30.613281 79.203125 C 31.691406 79.546875 32.796875 79.800781 33.902344 79.984375 C 34.371094 80.070312 34.839844 79.816406 34.996094 79.359375 L 42.328125 61.804688 C 42.355469 61.734375 42.410156 61.691406 42.480469 61.691406 C 42.554688 61.691406 42.625 61.734375 42.636719 61.804688 L 50.140625 79.191406 C 50.308594 79.671875 50.820312 79.914062 51.300781 79.746094 C 52.550781 79.433594 53.710938 79.121094 54.960938 78.722656 C 55.230469 78.652344 55.457031 78.453125 55.570312 78.195312 C 55.699219 77.941406 55.699219 77.65625 55.585938 77.402344 L 46.070312 55.78125 C 45.742188 55.296875 45.164062 55.042969 44.582031 55.15625 Z M 44.582031 55.15625 "/>
<path style=" stroke:none;fill-rule:nonzero;fill:rgb(29.411765%,70.588235%,70.196078%);fill-opacity:1;" d="M 51.753906 27.8125 C 52.308594 28.28125 52.933594 28.765625 53.402344 29.234375 C 53.855469 29.6875 54.28125 30.183594 54.648438 30.710938 C 55.015625 31.179688 55.65625 31.335938 56.207031 31.109375 L 78.058594 22.089844 C 78.3125 21.988281 78.527344 21.777344 78.613281 21.503906 C 78.699219 21.222656 78.667969 20.921875 78.527344 20.683594 C 77.972656 19.671875 77.433594 18.722656 76.8125 17.785156 C 76.527344 17.371094 76.015625 17.214844 75.5625 17.386719 L 57.996094 24.601562 C 57.925781 24.628906 57.839844 24.617188 57.78125 24.558594 C 57.738281 24.515625 57.726562 24.433594 57.753906 24.359375 L 64.703125 6.734375 C 64.859375 6.265625 64.703125 5.765625 64.320312 5.46875 C 63.253906 4.785156 62.164062 4.160156 61.042969 3.59375 C 60.789062 3.480469 60.492188 3.464844 60.222656 3.578125 C 59.964844 3.679688 59.753906 3.878906 59.640625 4.148438 L 51.359375 26.234375 C 51.105469 26.789062 51.273438 27.457031 51.753906 27.8125 Z M 51.753906 27.8125 "/>
<path style=" stroke:none;fill-rule:nonzero;fill:rgb(29.411765%,70.588235%,70.196078%);fill-opacity:1;" d="M 33.4375 52.171875 C 32.882812 51.703125 32.257812 51.234375 31.789062 50.765625 C 31.335938 50.296875 30.910156 49.816406 30.542969 49.277344 C 30.175781 48.808594 29.535156 48.652344 28.984375 48.890625 L 7.148438 57.898438 C 6.878906 57.996094 6.664062 58.222656 6.578125 58.496094 C 6.496094 58.765625 6.523438 59.0625 6.664062 59.304688 C 7.21875 60.328125 7.757812 61.265625 8.394531 62.214844 C 8.664062 62.613281 9.175781 62.769531 9.640625 62.597656 L 27.195312 55.398438 C 27.265625 55.355469 27.351562 55.371094 27.410156 55.425781 C 27.464844 55.484375 27.464844 55.566406 27.421875 55.640625 L 20.488281 73.265625 C 20.320312 73.722656 20.488281 74.234375 20.871094 74.515625 C 21.921875 75.199219 23.027344 75.839844 24.148438 76.390625 C 24.417969 76.503906 24.699219 76.519531 24.96875 76.421875 C 25.238281 76.320312 25.453125 76.109375 25.550781 75.851562 L 34.058594 53.835938 C 34.128906 53.210938 33.890625 52.597656 33.4375 52.171875 Z M 33.4375 52.171875 "/>
<path style=" stroke:none;fill-rule:nonzero;fill:rgb(29.411765%,70.588235%,70.196078%);fill-opacity:1;" d="M 54.71875 49.203125 C 54.25 49.746094 53.785156 50.371094 53.316406 50.851562 C 52.863281 51.308594 52.367188 51.71875 51.839844 52.101562 C 51.371094 52.472656 51.21875 53.109375 51.457031 53.664062 L 60.417969 75.597656 C 60.53125 75.867188 60.746094 76.066406 61.015625 76.164062 C 61.285156 76.25 61.582031 76.222656 61.835938 76.066406 C 62.84375 75.527344 63.78125 74.972656 64.730469 74.347656 C 65.128906 74.0625 65.285156 73.550781 65.113281 73.097656 L 57.9375 55.453125 C 57.894531 55.398438 57.910156 55.296875 57.964844 55.253906 C 58.023438 55.199219 58.09375 55.183594 58.164062 55.226562 L 75.734375 62.203125 C 76.1875 62.359375 76.699219 62.203125 76.980469 61.816406 C 77.664062 60.753906 78.285156 59.644531 78.851562 58.523438 C 78.964844 58.253906 78.980469 57.953125 78.867188 57.699219 C 78.769531 57.429688 78.570312 57.214844 78.300781 57.101562 L 56.363281 48.566406 C 55.753906 48.507812 55.144531 48.734375 54.71875 49.203125 Z M 54.71875 49.203125 "/>
<path style=" stroke:none;fill-rule:nonzero;fill:rgb(29.411765%,70.588235%,70.196078%);fill-opacity:1;" d="M 30.457031 30.796875 C 30.925781 30.242188 31.394531 29.617188 31.863281 29.148438 C 32.328125 28.691406 32.824219 28.265625 33.351562 27.898438 C 33.820312 27.515625 33.972656 26.875 33.734375 26.335938 L 24.757812 4.390625 C 24.660156 4.132812 24.445312 3.921875 24.175781 3.835938 C 23.90625 3.734375 23.59375 3.777344 23.367188 3.921875 C 22.347656 4.472656 21.410156 5.015625 20.460938 5.652344 C 20.0625 5.921875 19.910156 6.433594 20.078125 6.902344 L 27.253906 24.53125 C 27.296875 24.601562 27.28125 24.6875 27.226562 24.746094 C 27.167969 24.800781 27.082031 24.816406 27.027344 24.773438 L 9.457031 17.796875 C 9.003906 17.640625 8.507812 17.796875 8.210938 18.183594 C 7.53125 19.246094 6.90625 20.339844 6.339844 21.476562 C 6.226562 21.734375 6.210938 22.03125 6.324219 22.300781 C 6.421875 22.558594 6.621094 22.769531 6.890625 22.882812 L 28.8125 31.421875 C 29.4375 31.535156 30.0625 31.292969 30.457031 30.796875 Z M 30.457031 30.796875 "/>
<path style=" stroke:none;fill-rule:nonzero;fill:rgb(29.411765%,70.588235%,70.196078%);fill-opacity:1;" d="M 27.496094 42.230469 C 27.410156 41.503906 27.351562 40.765625 27.339844 40.027344 C 27.351562 39.375 27.410156 38.722656 27.496094 38.066406 C 27.59375 37.484375 27.265625 36.902344 26.730469 36.660156 L 4.878906 27.585938 C 4.621094 27.472656 4.324219 27.472656 4.070312 27.597656 C 3.828125 27.714844 3.628906 27.941406 3.542969 28.210938 C 3.21875 29.289062 2.964844 30.382812 2.777344 31.503906 C 2.695312 31.972656 2.949219 32.441406 3.402344 32.597656 L 20.871094 39.957031 C 20.945312 39.984375 21 40.042969 21 40.128906 C 21 40.183594 20.945312 40.253906 20.871094 40.285156 L 3.558594 47.796875 C 3.089844 47.984375 2.851562 48.496094 3.019531 48.976562 C 3.332031 50.226562 3.644531 51.390625 4.027344 52.65625 C 4.113281 52.910156 4.296875 53.140625 4.550781 53.265625 C 4.808594 53.378906 5.105469 53.378906 5.359375 53.28125 L 26.882812 43.722656 C 27.324219 43.351562 27.550781 42.796875 27.496094 42.230469 Z M 27.496094 42.230469 "/>
<path style=" stroke:none;fill-rule:nonzero;fill:rgb(29.411765%,70.588235%,70.196078%);fill-opacity:1;" d="M 350.222656 55.9375 C 349.796875 58.097656 350.820312 60.285156 352.75 61.320312 C 354.691406 62.359375 357.074219 62.003906 358.617188 60.441406 C 360.164062 58.890625 360.519531 56.503906 359.484375 54.558594 C 358.449219 52.628906 356.277344 51.589844 354.125 52.015625 C 352.136719 52.371094 350.578125 53.933594 350.222656 55.9375 Z M 350.222656 55.9375 "/>
</g>
</svg>
