<?xml version="1.0" encoding="UTF-8"?>
<svg width="165px" height="80px" viewBox="0 0 165 80" version="1.1" xmlns="http://www.w3.org/2000/svg">
    <title>81093DA9-ED07-4680-B2F1-5A1F62AD9E2D</title>
    <g id="Master:-Integrations-page" stroke="none" stroke-width="1" fill="none" fill-rule="evenodd">
        <g id="Third-party-via-Zapier" transform="translate(-414.000000, -1417.000000)" fill="#26292C">
            <g id="Integration-item-Pipedrive" transform="translate(414.000000, 1417.000000)">
                <g id="Pipedrive_full_logo_dark" transform="translate(17.000000, 25.000000)">
                    <path d="M24.80922,19.440175 C24.80922,19.6950011 24.91098,19.7976193 25.17416,19.7976193 L26.8111,19.7976193 L26.8111,23.8322023 L22.55646,23.8322023 C20.84934,23.8322023 20.0528,23.0471886 20.0528,21.357408 L20.0528,11.5420523 C20.0528,11.2735295 19.96332,11.186308 19.68786,11.186308 L18.05092,11.186308 L18.05092,7.1158125 L22.3003,7.1158125 C23.98636,7.1158125 24.80922,7.92648068 24.80922,9.59060682 L24.80922,19.440175 Z" id="path-3" />
                    <path d="M36.35215,19.8088721 C38.2359604,19.8088721 40.133625,18.3511279 40.133625,15.0873246 C40.133625,12.2258361 38.6404823,10.3048131 36.4181354,10.3048131 C34.6055354,10.3048131 32.6696531,11.5692393 32.6696531,15.1204131 C32.6696531,17.375823 33.8259615,19.8088721 36.35215,19.8088721 Z M37.3122833,6.12664918 C41.8524917,6.12664918 44.9047427,9.70221639 44.9047427,15.0246295 C44.9047427,20.2634361 41.6910115,23.920859 37.0900427,23.920859 C34.8989469,23.920859 33.4891469,22.9873574 32.758201,22.3116 C32.7634062,22.4718295 32.7686115,22.6512197 32.7686115,22.8428066 L32.7686115,29.946903 L28.0599958,29.946903 L28.0599958,11.0188721 C28.0599958,10.7436984 27.9714479,10.6566295 27.6988771,10.6566295 L26.0807104,10.6566295 L26.0807104,6.51153443 L30.0306125,6.51153443 C31.8484177,6.51153443 32.3119979,7.43112787 32.3988042,8.13997377 C33.1401604,7.31791475 34.6662958,6.12664918 37.3122833,6.12664918 Z" id="path-5" />
                    <path d="M50.0748145,12.5320239 L56.1626795,12.5320239 C55.9749783,11.0042543 54.9129831,9.92857826 53.5330506,9.92857826 C51.8149205,9.92857826 50.5719904,10.8708783 50.0748145,12.5320239 Z M53.5330506,6.12646957 C57.9366169,6.12646957 60.896,9.36216522 60.896,14.1775761 C60.896,14.6660413 60.8063614,15.6654913 60.7979181,15.7070674 L60.7725494,16.0153957 L49.9040193,16.0153957 C50.3014169,18.2672152 51.9823422,19.7031652 54.2788241,19.7031652 C56.6716916,19.7031652 58.4828337,17.993537 58.5031325,17.9779435 L58.7990554,17.6903935 L60.7962217,21.0837065 L60.611894,21.2707891 C60.5070458,21.3747196 58.0397687,23.8239913 54.0014843,23.8239913 C48.8673928,23.8239913 45.1419373,20.1015717 45.1419373,14.9760913 C45.1419373,9.76575652 48.5951229,6.12646957 53.5330506,6.12646957 Z" id="path-7" />
                    <path d="M69.6163021,19.7105115 C71.4271802,19.7105115 73.3647844,18.4478361 73.3647844,14.8949115 C73.3647844,12.5593967 72.2240917,10.2064525 69.6805458,10.2064525 C67.4373583,10.2064525 65.9303219,12.1013508 65.9303219,14.9262689 C65.9303219,17.8313115 67.3783198,19.7105115 69.6163021,19.7105115 Z M78.0074344,18.9633639 C78.0074344,19.222859 78.1081344,19.3273574 78.3685531,19.3273574 L79.9537271,19.3273574 L79.9537271,23.4358623 L75.877099,23.4358623 C74.1165708,23.4358623 73.6425802,22.5058426 73.5470854,21.7708721 C72.8161396,22.613823 71.3195333,23.8224984 68.7238958,23.8224984 C64.1819656,23.8224984 61.1296948,20.248682 61.1296948,14.9262689 C61.1296948,9.68744262 64.3156385,6.02828852 68.8818927,6.02828852 C71.2170917,6.02828852 72.5730781,6.85556066 73.2675677,7.48428197 L73.2675677,4.5130623 C73.2675677,4.23788852 73.1790198,4.1508 72.9064292,4.1508 L71.2865406,4.1508 L71.2865406,0.00399344262 L75.4916563,0.00399344262 C77.1827354,0.00399344262 78.0074344,0.829514754 78.0074344,2.52413115 L78.0074344,18.9633639 Z" id="path-9" />
                    <path d="M90.714625,6.09250787 C91.1012937,6.09250787 91.5111187,6.15876404 91.5253781,6.16234382 L91.8194016,6.2124809 L91.8194016,11.036218 L91.4166859,10.9753416 C91.4095562,10.9735416 91.0068406,10.9144652 90.452675,10.9144652 C88.8899531,10.9144652 86.9583562,11.7739146 86.2313516,14.189373 C86.0032625,15.0112449 85.8856531,15.8993528 85.8856531,16.8214787 L85.8856531,23.8243281 L81.0567016,23.8243281 L81.0567016,10.9574427 C81.0567016,10.6745191 80.9640359,10.5850045 80.6842719,10.5850045 L79.0235422,10.5850045 L79.0235422,6.32349438 L83.1753766,6.32349438 C84.8860141,6.32349438 85.7573594,7.12922697 85.7573594,8.71565393 L85.7573594,9.11495056 C86.8550062,7.25815955 88.7046219,6.09250787 90.714625,6.09250787 Z" id="path-11" />
                    <path d="M98.086,19.440175 C98.086,19.6950011 98.1829143,19.7976193 98.4335429,19.7976193 L99.9942095,19.7976193 L99.9942095,23.8322023 L95.9455238,23.8322023 C94.3163429,23.8322023 93.5560762,23.0471886 93.5560762,21.357408 L93.5560762,11.5420523 C93.5560762,11.2735295 93.4725143,11.186308 93.2085143,11.186308 L92.0388571,11.186308 L92.0388571,7.1158125 L95.6998857,7.1158125 C97.3056571,7.1158125 98.086,7.92648068 98.086,9.59060682 L98.086,19.440175 Z" id="path-13" />
                    <path d="M115.943533,7.11614091 L115.943533,11.1866364 L115.238535,11.1866364 C114.879275,11.1866364 114.760642,11.3097898 114.675912,11.535542 L110.040959,23.83255 L104.875586,23.83255 L100.240633,11.535542 C100.155903,11.3097898 100.04067,11.1866364 99.6813909,11.1866364 L99.0052159,11.1866364 L99.0052159,7.11614091 L101.611644,7.11614091 C103.062285,7.11614091 103.804548,7.60187727 104.263799,8.84525341 L107.25831,17.2821216 C107.371843,17.5951148 107.475215,17.9508591 107.561644,18.2877875 C107.644693,17.9508591 107.741284,17.6002341 107.844656,17.2872602 L110.839148,8.84697273 C111.293338,7.61725455 112.061023,7.11614091 113.493022,7.11614091 L115.943533,7.11614091 Z" id="path-15" />
                    <path d="M121.016741,12.5320239 L127.178849,12.5320239 C126.988859,11.0042543 125.91561,9.92857826 124.515454,9.92857826 C122.778068,9.92857826 121.525112,10.8708783 121.016741,12.5320239 Z M124.515454,6.12646957 C128.976137,6.12646957 131.973307,9.36216522 131.973307,14.1775761 C131.973307,14.6660413 131.879161,15.6654913 131.874029,15.7070674 L131.848351,16.0153957 L120.843863,16.0153957 C121.246107,18.2672152 122.947532,19.7031652 125.273737,19.7031652 C127.68722,19.7031652 129.530712,17.993537 129.546127,17.9779435 L129.854224,17.6903935 L131.870615,21.0837065 L131.682322,21.2707891 C131.577912,21.3747196 129.078829,23.8239913 124.98958,23.8239913 C119.792878,23.8239913 116.025424,20.1015717 116.025424,14.9760913 C116.025424,9.76575652 119.519005,6.12646957 124.515454,6.12646957 Z" id="path-17" />
                    <polygon id="path-19" points="21.041 0.00576086957 24.8944909 0.00576086957 24.8944909 4.90393478 21.041 4.90393478" />
                    <polygon id="path-21" points="94.0242727 0.00576086957 97.8793636 0.00576086957 97.8793636 4.90393478 94.0242727 4.90393478" />
                    <path d="M6.59066458,15.1204131 C6.59066458,17.375823 7.7417875,19.8088721 10.2749229,19.8088721 C12.1534885,19.8088721 14.0529146,18.3511279 14.0529146,15.0873246 C14.0529146,12.2258361 12.5597719,10.3048131 10.337425,10.3048131 C8.52654688,10.3048131 6.59066458,11.5692393 6.59066458,15.1204131 Z M11.2298312,6.12664918 C15.7717615,6.12664918 18.825774,9.70221639 18.825774,15.0246295 C18.825774,20.2634361 15.6085594,23.920859 11.0093323,23.920859 C8.81649479,23.920859 7.4119,22.9873574 6.67747083,22.3116 C6.68269583,22.4718295 6.68615937,22.6512197 6.68615937,22.8428066 L6.68615937,29.946903 L1.98101917,29.946903 L1.98101917,11.0188721 C1.98101917,10.7436984 1.89247323,10.6566295 1.61815083,10.6566295 L0,10.6566295 L0,6.51153443 L3.94815052,6.51153443 C5.76596562,6.51153443 6.23126771,7.43112787 6.31981562,8.13997377 C7.05770833,7.31791475 8.58730729,6.12664918 11.2298312,6.12664918 Z" id="path-23" />
                </g>
            </g>
        </g>
    </g>
</svg>
