<?xml version="1.0" encoding="UTF-8"?>
<svg width="165px" height="80px" viewBox="0 0 165 80" version="1.1" xmlns="http://www.w3.org/2000/svg">
  <title>91059A72-64AE-4AF4-8763-039370F5734A</title>
  <g id="Master:-Integrations-page" stroke="none" stroke-width="1" fill="none" fill-rule="evenodd">
    <g id="Third-party" transform="translate(-414.000000, -1932.000000)">
      <g id="logo-pipedrive" transform="translate(414.000000, 1932.000000)">
        <rect id="Bounds-" x="0" y="0" width="165" height="80" />
        <g id="pipe17-logo-normal" transform="translate(21.000000, 23.000000)">
          <polygon id="Path" points="18.1801386 14.8539698 18.1801386 25.8912134 28.1224018 20.6130325 28.1108208 10.3849372" />
          <path d="M50.0822806,10.7728096 C49.8803643,10.5654282 49.6488155,10.3902442 49.3954649,10.2531819 C49.081066,10.1055014 48.7455602,10.0096527 48.4015366,9.96923234 C48.0121781,9.90651681 47.6198275,9.86481249 47.2261326,9.84429453 C46.8575974,9.82441808 46.3885526,9.81589958 45.8022466,9.81589958 L43.1778291,9.81589958 L43.1778291,15.6482234 L46.3969284,15.6482234 C46.8826347,15.651515 47.3681739,15.6287675 47.8515257,15.5800756 C48.2546961,15.5380394 48.6518482,15.4494442 49.0353056,15.3160025 C49.368023,15.2103266 49.6758948,15.036373 49.939892,14.8048933 C50.1866419,14.5762231 50.3777937,14.2923871 50.4982786,13.9757606 C50.6430316,13.5918041 50.7131946,13.1829404 50.7048817,12.7718145 C50.7109418,12.3749782 50.6620692,11.9792486 50.5597012,11.5962633 C50.4728753,11.2845734 50.3084337,11.0009449 50.0822806,10.7728096 L50.0822806,10.7728096 Z" id="Path" />
          <polygon id="Path" points="12.0727483 14.856019 2.13048499 10.3849372 2.13048499 20.5909806 12.0727483 25.8912134" />
          <path d="M73.9512656,10.7728119 C73.7502096,10.5641685 73.5182049,10.3888309 73.2636986,10.2531829 C72.9491055,10.1050901 72.6131662,10.0092222 72.268683,9.96923271 C71.8789379,9.90621243 71.486142,9.86450632 71.0919931,9.8442946 C70.7230547,9.82441809 70.2534968,9.81589958 69.6693444,9.81589958 L67.039261,9.81589958 L67.039261,15.6482372 L70.2534968,15.6482372 C70.7406629,15.6514503 71.2276597,15.628703 71.7124804,15.5800893 C72.1159968,15.537452 72.5135172,15.4488713 72.8975551,15.3160156 C73.2306366,15.2103394 73.5388453,15.0363853 73.8031312,14.8049051 C74.0492363,14.5754269 74.2404404,14.2918229 74.3621287,13.9757704 C74.5060866,13.591621 74.5753762,13.1827624 74.5661629,12.7718215 C74.5730661,12.3751223 74.5250824,11.9794045 74.4236185,11.5962675 C74.3392417,11.284761 74.1764455,11.0009574 73.9512656,10.7728119 L73.9512656,10.7728119 Z" id="Path" />
          <path d="M53.5636042,9.44404009 C53.3002107,9.04199737 52.9590861,8.69600592 52.5600505,8.42616847 C52.1602835,8.14920187 51.7284607,7.92105092 51.2738868,7.74663164 C50.7535451,7.56480779 50.2165113,7.43420001 49.6705078,7.35668645 C49.0476124,7.25920016 48.4506709,7.19612078 47.8796835,7.16171387 C47.308696,7.12730693 46.6425439,7.11297071 45.884111,7.11297071 L40.0531178,7.11297071 L40.0531178,27.4560669 L43.2858296,27.4560669 L43.2858296,18.5045312 L46.6569628,18.5045312 C47.5387201,18.5119962 48.419794,18.4535307 49.2927333,18.3296293 C50.0260244,18.2265348 50.7437321,18.0339319 51.4296106,17.7561805 C52.0350477,17.5151479 52.5860304,17.1564303 53.0502923,16.7010347 C53.4994032,16.2411364 53.8402007,15.6878219 54.0480785,15.0810418 C54.2945751,14.3525682 54.4126237,13.5872255 54.3970153,12.8187863 C54.4051372,12.1696065 54.3295431,11.5220686 54.1720808,10.8919983 C54.0481892,10.3801795 53.8427698,9.891354 53.5636042,9.44404009 L53.5636042,9.44404009 Z M50.8297854,14.0631702 C50.7053372,14.3828908 50.5078973,14.6695006 50.2530304,14.9004054 C49.9803489,15.1341471 49.6623496,15.3098008 49.3186873,15.4165093 C48.922616,15.5512552 48.5123995,15.6407161 48.0959666,15.6831631 C47.5967149,15.7323308 47.0952035,15.7553005 46.5935198,15.7519769 L43.2771784,15.7519769 L43.2771784,9.85692323 L45.987927,9.85692323 C46.5877523,9.85692323 47.0779941,9.85692323 47.4586524,9.88559567 C47.8652979,9.90631413 48.270555,9.94842599 48.6727216,10.0117544 C49.0280619,10.0525697 49.3746045,10.1493551 49.6993456,10.2984788 C49.9610303,10.4368805 50.2001958,10.6137765 50.4087542,10.8231845 C50.6360595,11.05549 50.7998538,11.3417206 50.8845772,11.6546852 C50.9903126,12.0414132 51.0407929,12.44101 51.0345335,12.8417242 C51.0466297,13.2582243 50.9770877,13.6730843 50.8297854,14.0631702 L50.8297854,14.0631702 Z" id="Shape" fill="#404555" />
          <rect id="Rectangle" fill="#404555" x="56.5288684" y="7.11297071" width="3.26674365" height="20.3430962" />
          <path d="M77.1385008,9.44404009 C76.873302,9.04253039 76.5314194,8.69670043 76.1322473,8.42616847 C75.7335594,8.14923805 75.3027738,7.92108189 74.8492021,7.74663164 C74.3297833,7.56533993 73.793857,7.43474277 73.2489996,7.35668645 C72.6262181,7.25920016 72.0293857,7.19612078 71.4585027,7.16171387 C70.8876196,7.12730693 70.2215894,7.11297071 69.4632953,7.11297071 L63.630485,7.11297071 L63.630485,27.4560669 L66.8597224,27.4560669 L66.8597224,18.5045312 L70.2331224,18.5045312 C71.1137611,18.512004 71.9937159,18.4535381 72.8655277,18.3296293 C73.5986847,18.2265348 74.3162611,18.0339319 75.0020142,17.7561805 C75.6086205,17.5159672 76.1606012,17.1571725 76.6252827,16.7010347 C77.0733281,16.240378 77.4139205,15.6872956 77.6228864,15.0810418 C77.8696607,14.3545579 77.9886551,13.5912072 77.9746427,12.8245208 C77.982763,12.175341 77.9071828,11.5278031 77.7497493,10.8977328 C77.6243014,10.3841655 77.4180059,9.89354658 77.1385008,9.44404009 Z M74.4022986,14.0631702 C74.2767677,14.3823104 74.0795257,14.6686853 73.8256491,14.9004054 C73.5530176,15.1341471 73.2350763,15.3098008 72.8914768,15.4165093 C72.4953116,15.5506632 72.0852384,15.6401093 71.6689798,15.6831631 C71.1688495,15.7322518 70.6664743,15.7552213 70.1639244,15.7519769 L66.8481896,15.7519769 L66.8481896,9.85692323 L69.5613257,9.85692323 C70.1610412,9.85692323 70.6483101,9.85692323 71.0288988,9.88559567 C71.4354942,9.90600485 71.8406937,9.94811843 72.2427461,10.0117544 C72.5981075,10.0521346 72.9446549,10.1489391 73.2691823,10.2984788 C73.5317254,10.435452 73.7710562,10.6125026 73.9784612,10.8231845 C74.2076068,11.0545406 74.3725126,11.3410301 74.4570803,11.6546852 C74.5617484,12.0415654 74.6112474,12.4411493 74.604126,12.8417242 C74.6171408,13.2580362 74.5485918,13.6728903 74.4022986,14.0631702 Z" id="Shape" fill="#404555" />
          <polygon id="Path" fill="#404555" points="83.4573961 18.3455487 92.243276 18.3455487 92.243276 15.5926064 83.4431334 15.5926064 83.4431334 9.85157473 92.7709995 9.85157473 92.7709995 7.11297071 80.2482679 7.11297071 80.2482679 27.4560669 93.1732102 27.4560669 93.1732102 24.717463 83.4573961 24.717463" />
          <path d="M104.245939,7.11297071 L101.465448,7.11297071 C100.002194,7.95303696 98.4622606,8.65478829 96.8660508,9.20892608 L96.8660508,12.1163115 C98.2789877,11.6464023 99.6595907,11.0861096 100.999136,10.4389738 L100.999136,24.9128216 L97.2020269,24.9128216 L97.2020269,27.4560669 L107.944573,27.4560669 L107.944573,24.9414939 L104.245939,24.9414939 L104.245939,7.11297071 Z" id="Path" fill="#404555" />
          <polygon id="Path" fill="#404555" points="109.506928 7.11297071 109.506928 9.76554528 119.325267 9.76554528 111.930081 27.4560669 115.356212 27.4560669 123 9.54473638 123 7.11297071" />
          <path d="M30.2500188,6.82845188 L16.0528561,13.3473159 L16.0528561,13.9068998 C16.0485861,13.9587311 16.0485861,14.0108289 16.0528561,14.0626602 L16.0528561,34 L18.2412268,34 L18.2412268,28.3464719 L18.2412268,28.3464719 L30.2528868,21.8939503 L30.2528868,21.3487888 C30.2528868,21.2997531 30.2528868,21.2478328 30.2528868,21.1959127 L30.2528868,9.48791763 C30.2528868,9.44465084 30.2528868,9.40138404 30.2528868,9.35811724 L30.2500188,6.82845188 Z M18.2039413,25.8456511 L18.2039413,14.7895424 L28.0530436,10.3099868 L28.0530436,20.5555641 L18.2039413,25.8456511 Z" id="Shape" fill="#404555" />
          <path d="M0,9.73278783 L0,21.8923512 L12.0167961,28.3441879 L12.0167961,34 L14.2032333,34 L14.2032333,13.3466239 L0,6.82845188 L0,9.73278783 Z M2.18643712,10.3096172 L12.0254042,14.7886973 L12.0254042,25.8436325 L2.19504515,20.533918 L2.18643712,10.3096172 Z" id="Shape" fill="#404555" />
          <polygon id="Path" fill="#404555" points="5.07924512 3.9832636 1.27829099 5.33547063 15.1510563 11.5230126 19.0323326 9.85313527" />
          <polygon id="Path" fill="#404555" points="14.9304797 2.81089204 25.2351602 6.82845188 25.3527805 6.77805741 25.387206 6.78925617 29.1166282 5.16543408 29.1137594 5.16543408 29.1166282 5.16543408 28.0293582 4.76787764 15.0108058 0 6.81755196 3.07406321 10.549843 4.6166942" />
        </g>
      </g>
    </g>
  </g>
</svg>
