<?xml version="1.0" encoding="UTF-8"?>
<svg width="165px" height="80px" viewBox="0 0 165 80" version="1.1" xmlns="http://www.w3.org/2000/svg" >
    <title>6C0E0D40-1F8F-42FA-8AB7-BD4643665154</title>
    <g id="Master:-Integrations-page" stroke="none" stroke-width="1" fill="none" fill-rule="evenodd">
        <g id="Third-party" transform="translate(-414.000000, -2142.000000)">
            <g id="logo-prospect" transform="translate(414.000000, 2142.000000)">
                <rect id="Bounds" x="0" y="0" width="165" height="80" />
                <g id="logo" transform="translate(15.000000, 20.000000)" fill="#045980">
                    <g id="Group" transform="translate(48.000000, 31.000000)">
                        <path d="M5.17693523,2.12258065 L5.03949447,2.75483871 L3.98578199,2.75483871 L3.71090047,3.97419355 L4.85624013,3.97419355 L4.71879937,4.60645161 L3.6192733,4.60645161 L3.25276461,6.27741935 L2.51974724,6.27741935 L2.88625592,4.60645161 L1.78672986,4.60645161 L1.42022117,6.27741935 L0.687203791,6.27741935 L1.05371248,4.60645161 L0,4.60645161 L0.137440758,3.97419355 L1.19115324,3.97419355 L1.42022117,2.75483871 L0.320695103,2.75483871 L0.458135861,2.12258065 L1.55766193,2.12258065 L1.92417062,0.406451613 L2.65718799,0.406451613 L2.2906793,2.12258065 L3.39020537,2.12258065 L3.75671406,0.406451613 L4.48973144,0.406451613 L4.12322275,2.12258065 L5.17693523,2.12258065 Z M3.2985782,2.75483871 L2.19905213,2.75483871 L1.92417062,3.97419355 L3.02369668,3.97419355 L3.2985782,2.75483871 Z" id="Shape" />
                        <path d="M8.20063191,0.225806452 L8.20063191,6.81935484 L7.14691943,6.81935484 L7.14691943,1.53548387 C6.96366509,1.67096774 6.73459716,1.80645161 6.55134281,1.89677419 C6.36808847,1.98709677 6.09320695,2.07741935 5.81832543,2.16774194 L5.81832543,1.26451613 C6.00157978,1.21935484 6.18483412,1.12903226 6.32227488,1.08387097 C6.50552923,1.03870968 6.64296998,0.948387097 6.82622433,0.858064516 C7.00947867,0.767741935 7.14691943,0.677419355 7.33017378,0.587096774 C7.51342812,0.496774194 7.65086888,0.361290323 7.83412322,0.270967742 L8.20063191,0.270967742 L8.20063191,0.225806452 Z" id="Path" />
                        <path d="M12.1864139,6.59354839 L12.1864139,5.50967742 C12.2780411,5.6 12.4154818,5.69032258 12.5529226,5.73548387 C12.6903633,5.82580645 12.8278041,5.87096774 13.0110585,5.91612903 C13.1484992,5.96129032 13.3317536,6.00645161 13.4691943,6.0516129 C13.6066351,6.09677419 13.7898894,6.09677419 13.8815166,6.09677419 C14.3396524,6.09677419 14.6603476,6.00645161 14.8894155,5.87096774 C15.1184834,5.73548387 15.2101106,5.50967742 15.2101106,5.23870968 C15.2101106,5.10322581 15.164297,4.96774194 15.1184834,4.83225806 C15.0268562,4.74193548 14.9352291,4.60645161 14.7977883,4.51612903 C14.6603476,4.42580645 14.5229068,4.33548387 14.3396524,4.24516129 C14.1563981,4.15483871 13.9731438,4.06451613 13.7440758,3.97419355 C13.5150079,3.83870968 13.3317536,3.7483871 13.1026856,3.61290323 C12.9194313,3.47741935 12.7361769,3.34193548 12.5987362,3.20645161 C12.4612954,3.07096774 12.3238547,2.89032258 12.2780411,2.70967742 C12.1864139,2.52903226 12.1406003,2.30322581 12.1406003,2.07741935 C12.1406003,1.76129032 12.2322275,1.49032258 12.3696682,1.30967742 C12.507109,1.08387097 12.6903633,0.903225806 12.9194313,0.767741935 C13.1484992,0.632258065 13.4233807,0.496774194 13.6982622,0.451612903 C13.9731438,0.406451613 14.2938389,0.361290323 14.5687204,0.361290323 C15.2559242,0.361290323 15.7598736,0.451612903 16.0805687,0.587096774 L16.0805687,1.62580645 C15.71406,1.35483871 15.2101106,1.21935484 14.6603476,1.21935484 C14.4770932,1.21935484 14.3396524,1.21935484 14.1563981,1.26451613 C13.9731438,1.30967742 13.835703,1.35483871 13.7440758,1.4 C13.6066351,1.49032258 13.5150079,1.53548387 13.4233807,1.67096774 C13.3317536,1.76129032 13.28594,1.89677419 13.28594,2.07741935 C13.28594,2.21290323 13.3317536,2.3483871 13.3775671,2.43870968 C13.4233807,2.52903226 13.5150079,2.61935484 13.6524487,2.70967742 C13.7898894,2.8 13.9273302,2.89032258 14.0647709,2.98064516 C14.2022117,3.07096774 14.4312796,3.16129032 14.6603476,3.2516129 C14.8894155,3.38709677 15.1184834,3.47741935 15.3017378,3.61290323 C15.4849921,3.7483871 15.6682464,3.88387097 15.8515008,4.01935484 C15.9889415,4.15483871 16.1263823,4.33548387 16.2180095,4.56129032 C16.3096367,4.74193548 16.3554502,4.96774194 16.3554502,5.19354839 C16.3554502,5.50967742 16.3096367,5.78064516 16.1721959,6.00645161 C16.0347551,6.23225806 15.8515008,6.41290323 15.6224329,6.5483871 C15.3933649,6.68387097 15.1184834,6.77419355 14.8436019,6.86451613 C14.5687204,6.90967742 14.2480253,6.95483871 13.9273302,6.95483871 C13.835703,6.95483871 13.6982622,6.95483871 13.5150079,6.90967742 C13.3775671,6.90967742 13.1943128,6.86451613 13.0110585,6.81935484 C12.8278041,6.77419355 12.6903633,6.72903226 12.5529226,6.68387097 C12.4154818,6.68387097 12.2780411,6.63870968 12.1864139,6.59354839 Z" id="Path" />
                        <path d="M19.6540284,6.77419355 C19.4249605,6.86451613 19.1958926,6.90967742 18.8293839,6.90967742 C17.9131122,6.90967742 17.4549763,6.45806452 17.4549763,5.64516129 L17.4549763,3.02580645 L16.6761453,3.02580645 L16.6761453,2.21290323 L17.4549763,2.21290323 L17.4549763,1.12903226 L18.5086888,0.812903226 L18.5086888,2.16774194 L19.6082148,2.16774194 L19.6082148,2.98064516 L18.5086888,2.98064516 L18.5086888,5.28387097 C18.5086888,5.55483871 18.5545024,5.73548387 18.6461295,5.87096774 C18.7377567,6.00645161 18.9210111,6.0516129 19.150079,6.0516129 C19.3333333,6.0516129 19.4707741,6.00645161 19.6082148,5.91612903 L19.6082148,6.77419355 L19.6540284,6.77419355 Z" id="Path" />
                        <path d="M22.6319115,6.95483871 C21.8988942,6.95483871 21.3491311,6.72903226 20.8909953,6.32258065 C20.4328594,5.91612903 20.2496051,5.32903226 20.2496051,4.60645161 C20.2496051,3.83870968 20.478673,3.20645161 20.9368088,2.8 C21.3949447,2.3483871 21.9905213,2.16774194 22.7693523,2.16774194 C23.5023697,2.16774194 24.0521327,2.39354839 24.464455,2.8 C24.8767773,3.20645161 25.0600316,3.79354839 25.0600316,4.56129032 C25.0600316,5.28387097 24.8309637,5.87096774 24.4186414,6.32258065 C23.9605055,6.72903226 23.3649289,6.95483871 22.6319115,6.95483871 Z M22.6777251,2.93548387 C22.2654028,2.93548387 21.9447077,3.07096774 21.7156398,3.34193548 C21.4865719,3.61290323 21.3491311,4.01935484 21.3491311,4.51612903 C21.3491311,5.01290323 21.4865719,5.37419355 21.7156398,5.64516129 C21.9447077,5.91612903 22.2654028,6.0516129 22.6777251,6.0516129 C23.0900474,6.0516129 23.4107425,5.91612903 23.6398104,5.64516129 C23.8688784,5.37419355 23.9605055,4.96774194 23.9605055,4.47096774 C23.9605055,3.97419355 23.8688784,3.56774194 23.6398104,3.29677419 C23.4107425,3.02580645 23.0900474,2.93548387 22.6777251,2.93548387 Z" id="Shape" />
                        <path d="M29.5039494,6.63870968 C29.1374408,6.86451613 28.6793049,6.95483871 28.1753555,6.95483871 C27.4881517,6.95483871 26.9383886,6.72903226 26.4802528,6.32258065 C26.0221169,5.91612903 25.8388626,5.32903226 25.8388626,4.6516129 C25.8388626,3.88387097 26.0679305,3.29677419 26.5260664,2.84516129 C26.9842022,2.39354839 27.5797788,2.16774194 28.3586098,2.16774194 C28.7709321,2.16774194 29.1374408,2.25806452 29.5039494,2.39354839 L29.5039494,3.38709677 C29.1832543,3.16129032 28.8167457,3.02580645 28.450237,3.02580645 C27.9921011,3.02580645 27.6255924,3.16129032 27.3507109,3.47741935 C27.0758294,3.79354839 26.9383886,4.15483871 26.9383886,4.6516129 C26.9383886,5.1483871 27.0758294,5.50967742 27.3507109,5.78064516 C27.6255924,6.0516129 27.9921011,6.18709677 28.450237,6.18709677 C28.8167457,6.18709677 29.1832543,6.0516129 29.549763,5.78064516 L29.549763,6.63870968 L29.5039494,6.63870968 Z" id="Path" />
                        <polygon id="Path" points="34.7725118 6.81935484 33.4439179 6.81935484 31.6113744 4.60645161 31.6113744 4.60645161 31.6113744 6.81935484 30.5576619 6.81935484 30.5576619 0 31.6113744 0 31.6113744 4.33548387 31.6113744 4.33548387 33.3064771 2.21290323 34.5892575 2.21290323 32.6650869 4.42580645" />
                        <polygon id="Path" points="37.8878357 4.69677419 35.4139021 4.69677419 35.4139021 3.92903226 37.8878357 3.92903226" />
                        <path d="M44.6682464,6.81935484 L43.4770932,6.81935484 L42.8815166,5.19354839 L40.3159558,5.19354839 L39.7661927,6.81935484 L38.5750395,6.81935484 L41.0031596,0.361290323 L42.2401264,0.361290323 L44.6682464,6.81935484 Z M42.6066351,4.33548387 L41.6903633,1.76129032 C41.6445498,1.67096774 41.6445498,1.53548387 41.5987362,1.35483871 L41.5987362,1.35483871 C41.5529226,1.53548387 41.5529226,1.67096774 41.507109,1.76129032 L40.5908373,4.33548387 L42.6066351,4.33548387 Z" id="Shape" />
                        <path d="M51.5860979,2.21290323 L50.2116904,6.81935484 L49.1121643,6.81935484 L48.2417062,3.70322581 C48.1958926,3.56774194 48.1958926,3.43225806 48.1958926,3.29677419 L48.1958926,3.29677419 C48.1958926,3.38709677 48.150079,3.52258065 48.1042654,3.70322581 L47.1879937,6.81935484 L46.0884676,6.81935484 L44.71406,2.21290323 L45.8135861,2.21290323 L46.6840442,5.55483871 C46.7298578,5.64516129 46.7298578,5.78064516 46.7298578,5.96129032 L46.7756714,5.96129032 C46.7756714,5.82580645 46.821485,5.69032258 46.8672986,5.55483871 L47.8293839,2.25806452 L48.8372828,2.25806452 L49.6619273,5.6 C49.7077409,5.69032258 49.7077409,5.82580645 49.7077409,6.00645161 L49.7535545,6.00645161 C49.7535545,5.91612903 49.7993681,5.78064516 49.7993681,5.6 L50.6240126,2.25806452 L51.5860979,2.25806452 L51.5860979,2.21290323 Z" id="Path" />
                        <path d="M55.9383886,6.81935484 L54.9304897,6.81935484 L54.9304897,6.09677419 L54.9304897,6.09677419 C54.6097946,6.63870968 54.1516588,6.90967742 53.5102686,6.90967742 C53.0521327,6.90967742 52.685624,6.77419355 52.4107425,6.5483871 C52.135861,6.32258065 51.9984202,5.96129032 51.9984202,5.55483871 C51.9984202,4.69677419 52.5023697,4.2 53.5102686,4.01935484 L54.8846761,3.83870968 C54.8846761,3.16129032 54.563981,2.84516129 53.9225908,2.84516129 C53.3728278,2.84516129 52.8688784,3.02580645 52.4107425,3.43225806 L52.4107425,2.52903226 C52.9146919,2.25806452 53.464455,2.07741935 54.1058452,2.07741935 C55.2969984,2.07741935 55.892575,2.66451613 55.892575,3.79354839 L55.892575,6.81935484 L55.9383886,6.81935484 Z M54.9304897,4.56129032 L53.9684044,4.69677419 C53.6477093,4.74193548 53.4186414,4.78709677 53.2812006,4.92258065 C53.1437599,5.01290323 53.0521327,5.19354839 53.0521327,5.46451613 C53.0521327,5.64516129 53.1437599,5.82580645 53.2812006,5.96129032 C53.4186414,6.09677419 53.6018957,6.14193548 53.8309637,6.14193548 C54.1516588,6.14193548 54.4265403,6.0516129 54.6097946,5.82580645 C54.8388626,5.6 54.9304897,5.32903226 54.9304897,4.96774194 L54.9304897,4.56129032 L54.9304897,4.56129032 Z" id="Shape" />
                        <path d="M59.9699842,3.20645161 C59.8325434,3.11612903 59.6492891,3.07096774 59.4202212,3.07096774 C59.0995261,3.07096774 58.8246445,3.20645161 58.6413902,3.47741935 C58.4123223,3.7483871 58.3206951,4.15483871 58.3206951,4.60645161 L58.3206951,6.81935484 L57.2669826,6.81935484 L57.2669826,2.21290323 L58.3206951,2.21290323 L58.3206951,3.16129032 L58.3206951,3.16129032 C58.4123223,2.84516129 58.5955766,2.57419355 58.778831,2.39354839 C59.0078989,2.21290323 59.2369668,2.12258065 59.5118483,2.12258065 C59.6951027,2.12258065 59.8325434,2.16774194 59.9699842,2.21290323 L59.9699842,3.20645161 L59.9699842,3.20645161 Z" id="Path" />
                        <path d="M64.64297,4.83225806 L61.436019,4.83225806 C61.436019,5.23870968 61.5734597,5.6 61.8483412,5.82580645 C62.1232227,6.0516129 62.4439179,6.18709677 62.9020537,6.18709677 C63.4060032,6.18709677 63.864139,6.0516129 64.2764613,5.73548387 L64.2764613,6.59354839 C63.864139,6.86451613 63.2685624,7 62.5813586,7 C61.8941548,7 61.3443918,6.77419355 60.9778831,6.36774194 C60.5655608,5.96129032 60.3823065,5.37419355 60.3823065,4.60645161 C60.3823065,3.88387097 60.6113744,3.29677419 61.0236967,2.84516129 C61.436019,2.39354839 61.985782,2.16774194 62.6271722,2.16774194 C63.2685624,2.16774194 63.7725118,2.3483871 64.093207,2.75483871 C64.4597156,3.16129032 64.5971564,3.70322581 64.5971564,4.42580645 L64.5971564,4.83225806 L64.64297,4.83225806 Z M63.6350711,4.06451613 C63.6350711,3.70322581 63.5434439,3.38709677 63.3601896,3.20645161 C63.1769352,2.98064516 62.9478673,2.89032258 62.6271722,2.89032258 C62.3064771,2.89032258 62.0774092,2.98064516 61.8483412,3.20645161 C61.6192733,3.43225806 61.5276461,3.70322581 61.436019,4.06451613 L63.6350711,4.06451613 Z" id="Shape" />
                        <path d="M72.9352291,6.5483871 C72.4312796,6.81935484 71.835703,6.90967742 71.1026856,6.90967742 C70.1406003,6.90967742 69.4075829,6.59354839 68.8120063,6.00645161 C68.2622433,5.41935484 67.9415482,4.6516129 67.9415482,3.70322581 C67.9415482,2.66451613 68.2622433,1.8516129 68.9036335,1.21935484 C69.5450237,0.587096774 70.3696682,0.270967742 71.3317536,0.270967742 C71.9731438,0.270967742 72.4770932,0.361290323 72.8894155,0.541935484 L72.8894155,1.62580645 C72.4312796,1.35483871 71.9731438,1.21935484 71.4233807,1.21935484 C70.7361769,1.21935484 70.1406003,1.44516129 69.6824645,1.89677419 C69.2243286,2.3483871 69.0410742,2.93548387 69.0410742,3.70322581 C69.0410742,4.42580645 69.2243286,4.96774194 69.6366509,5.41935484 C70.0489731,5.82580645 70.5987362,6.0516129 71.2401264,6.0516129 C71.835703,6.0516129 72.385466,5.91612903 72.8436019,5.6 L72.8436019,6.5483871 L72.9352291,6.5483871 Z" id="Path" />
                        <path d="M79.2116904,6.81935484 L77.92891,6.81935484 L76.8751975,5.10322581 C76.7835703,4.92258065 76.6919431,4.78709677 76.600316,4.69677419 C76.5086888,4.60645161 76.4170616,4.47096774 76.3254344,4.42580645 C76.2338073,4.33548387 76.1421801,4.29032258 76.0047393,4.29032258 C75.8672986,4.29032258 75.7756714,4.24516129 75.6382306,4.24516129 L75.1800948,4.24516129 L75.1800948,6.86451613 L74.0805687,6.86451613 L74.0805687,0.406451613 L76.2338073,0.406451613 C76.5545024,0.406451613 76.8293839,0.451612903 77.1042654,0.496774194 C77.3791469,0.541935484 77.6082148,0.677419355 77.7914692,0.812903226 C77.9747235,0.948387097 78.1121643,1.12903226 78.2496051,1.35483871 C78.3412322,1.58064516 78.4328594,1.80645161 78.4328594,2.12258065 C78.4328594,2.3483871 78.3870458,2.57419355 78.3412322,2.75483871 C78.2954186,2.93548387 78.1579779,3.11612903 78.0663507,3.2516129 C77.92891,3.38709677 77.7914692,3.52258065 77.6082148,3.61290323 C77.4249605,3.70322581 77.2417062,3.79354839 77.0126382,3.83870968 L77.0126382,3.83870968 C77.150079,3.88387097 77.2417062,3.97419355 77.3333333,4.06451613 C77.4249605,4.15483871 77.5165877,4.24516129 77.5624013,4.29032258 C77.6540284,4.38064516 77.699842,4.47096774 77.7914692,4.56129032 C77.8830964,4.6516129 77.9747235,4.78709677 78.0663507,4.92258065 L79.2116904,6.81935484 Z M75.2259084,1.26451613 L75.2259084,3.34193548 L76.1421801,3.34193548 C76.3254344,3.34193548 76.4628752,3.29677419 76.600316,3.2516129 C76.7377567,3.20645161 76.8751975,3.11612903 76.9668246,3.02580645 C77.0584518,2.93548387 77.150079,2.8 77.1958926,2.66451613 C77.2417062,2.52903226 77.2875197,2.39354839 77.2875197,2.21290323 C77.2875197,1.89677419 77.1958926,1.67096774 77.0126382,1.49032258 C76.8293839,1.30967742 76.5086888,1.21935484 76.1421801,1.21935484 L75.2259084,1.21935484 L75.2259084,1.26451613 Z" id="Shape" />
                        <path d="M87,6.81935484 L85.9004739,6.81935484 L85.9004739,2.66451613 C85.9004739,2.30322581 85.9004739,1.89677419 85.9462875,1.4 L85.9462875,1.4 C85.9004739,1.67096774 85.8088468,1.89677419 85.7630332,1.98709677 L83.793049,6.81935484 L83.0600316,6.81935484 L81.0900474,2.03225806 C81.0442338,1.89677419 80.9984202,1.67096774 80.906793,1.4 L80.906793,1.4 C80.9526066,1.67096774 80.9526066,2.07741935 80.9526066,2.66451613 L80.9526066,6.81935484 L79.9447077,6.81935484 L79.9447077,0.406451613 L81.4565561,0.406451613 L83.1974724,4.69677419 C83.3349131,5.01290323 83.4265403,5.28387097 83.4723539,5.41935484 L83.4723539,5.41935484 C83.563981,5.05806452 83.6556082,4.83225806 83.7472354,4.6516129 L85.4881517,0.361290323 L86.9541864,0.361290323 L86.9541864,6.81935484 L87,6.81935484 Z" id="Path" />
                    </g>
                    <g id="Group">
                        <path d="M34.1395349,5.89473684 C30.372093,2.10526316 25.3488372,0 20,0 C14.6511628,0 9.62790698,2.10526316 5.86046512,5.89473684 C2.04651163,9.73099415 0,14.7836257 0,20.1169591 C0,25.4502924 2.09302326,30.5497076 5.86046512,34.3391813 C8.60465116,37.0994152 12,38.9707602 15.6744186,39.7660819 L15.6744186,36.6315789 C8.41860465,34.7134503 3.02325581,28.0233918 3.02325581,20.1169591 C3.02325581,10.7134503 10.6511628,3.04093567 20,3.04093567 C29.3488372,3.04093567 36.9767442,10.7134503 36.9767442,20.1169591 C36.9767442,28.5380117 30.9302326,35.5087719 22.9767442,36.9122807 L22.9767442,40 C27.2093023,39.3918129 31.1162791,37.4269006 34.1860465,34.3391813 C37.9069767,30.5497076 40,25.497076 40,20.1169591 C40,14.7368421 37.9069767,9.73099415 34.1395349,5.89473684" id="Path" />
                        <path d="M15.6744186,25.9649123 L15.6744186,36.6783626 L12.372093,36.6783626 L12.372093,8.28070175 L20.1395349,8.28070175 C23.1627907,8.28070175 25.4883721,9.02923977 27.1627907,10.4795322 C28.8372093,11.9766082 29.6744186,14.0350877 29.6744186,16.748538 C29.6744186,19.4619883 28.744186,21.6608187 26.9302326,23.3450292 C25.0697674,25.0760234 22.6046512,25.9181287 19.4418605,25.9181287 L15.6744186,25.9181287 L15.6744186,25.9649123 Z M15.6744186,11.2748538 L15.6744186,22.9239766 L19.1627907,22.9239766 C21.4418605,22.9239766 23.2093023,22.4093567 24.372093,21.3333333 C25.5813953,20.3040936 26.1860465,18.8070175 26.1860465,16.8888889 C26.1860465,13.1461988 24,11.2748538 19.5813953,11.2748538 L15.6744186,11.2748538 L15.6744186,11.2748538 Z" id="Shape" />
                    </g>
                    <g id="Group" transform="translate(48.000000, 7.000000)">
                        <path d="M1.9251844,9.81473684 L1.9251844,15.7831579 L0,15.7831579 L0,0 L4.49209694,0 C6.23393045,0 7.60906217,0.397894737 8.57165437,1.23789474 C9.53424658,2.07789474 10.0384615,3.22736842 10.0384615,4.73052632 C10.0384615,6.23368421 9.48840885,7.47157895 8.4341412,8.4 C7.37987355,9.37263158 5.91306639,9.81473684 4.07955743,9.81473684 L1.9251844,9.81473684 L1.9251844,9.81473684 Z M1.9251844,1.68 L1.9251844,8.17894737 L3.94204426,8.17894737 C5.27133825,8.17894737 6.27976818,7.86947368 6.96733404,7.29473684 C7.65489989,6.72 8.02160169,5.88 8.02160169,4.81894737 C8.02160169,2.74105263 6.73814542,1.68 4.17123288,1.68 L1.9251844,1.68 Z" id="Shape" />
                        <path d="M18.9768177,6.36631579 C18.6559536,6.14526316 18.1975764,6.01263158 17.5558483,6.01263158 C16.776607,6.01263158 16.0890411,6.36631579 15.5389884,7.11789474 C14.9889357,7.86947368 14.7139094,8.84210526 14.7139094,10.08 L14.7139094,15.8273684 L12.8345627,15.8273684 L12.8345627,4.50947368 L14.7139094,4.50947368 L14.7139094,6.85263158 L14.7597471,6.85263158 C15.0347734,6.05684211 15.447313,5.43789474 15.9973656,4.99578947 C16.5474183,4.55368421 17.1433087,4.33263158 17.8308746,4.33263158 C18.3350896,4.33263158 18.7017914,4.37684211 18.93098,4.46526316 L18.93098,6.36631579 L18.9768177,6.36631579 Z" id="Path" />
                        <path d="M25.898314,16.0926316 C24.1564805,16.0926316 22.7813488,15.5621053 21.7729189,14.5010526 C20.7186512,13.44 20.2144362,12.0252632 20.2144362,10.3010526 C20.2144362,8.4 20.7644889,6.94105263 21.8187566,5.83578947 C22.8730242,4.77473684 24.3398314,4.24421053 26.1733404,4.24421053 C27.9151739,4.24421053 29.2903056,4.77473684 30.2528978,5.79157895 C31.21549,6.80842105 31.719705,8.26736842 31.719705,10.1242105 C31.719705,11.9368421 31.1696523,13.3515789 30.1153846,14.4568421 C29.1069547,15.5178947 27.6859852,16.0926316 25.898314,16.0926316 Z M26.0358272,5.79157895 C24.8440464,5.79157895 23.8814542,6.18947368 23.1938883,6.98526316 C22.5063224,7.78105263 22.1396207,8.88631579 22.1396207,10.2568421 C22.1396207,11.5831579 22.5063224,12.6442105 23.1938883,13.44 C23.8814542,14.1915789 24.8440464,14.5894737 26.0358272,14.5894737 C27.227608,14.5894737 28.1902002,14.1915789 28.8319283,13.44 C29.4736565,12.6884211 29.7945205,11.5831579 29.7945205,10.2126316 C29.7945205,8.79789474 29.4736565,7.69263158 28.8319283,6.94105263 C28.1902002,6.14526316 27.2734457,5.79157895 26.0358272,5.79157895 Z" id="Shape" />
                        <path d="M34.0115911,15.3852632 L34.0115911,13.44 C35.0200211,14.1473684 36.1659642,14.5452632 37.4035827,14.5452632 C39.0537408,14.5452632 39.8788198,14.0147368 39.8788198,12.9536842 C39.8788198,12.6442105 39.7871444,12.3789474 39.6496312,12.2021053 C39.512118,12.0252632 39.3287671,11.8042105 39.0995785,11.6273684 C38.8703899,11.4505263 38.5953635,11.3178947 38.2744995,11.1852632 C37.9536354,11.0526316 37.5869336,10.92 37.2202318,10.7873684 C36.7160169,10.6105263 36.2576396,10.3894737 35.8451001,10.1684211 C35.4325606,9.94736842 35.1116965,9.72631579 34.8825079,9.50526316 C34.6074816,9.24 34.4241307,8.97473684 34.2866175,8.62105263 C34.1491043,8.31157895 34.1032666,7.91368421 34.1032666,7.47157895 C34.1032666,6.94105263 34.2407798,6.45473684 34.4699684,6.05684211 C34.699157,5.65894737 35.0658588,5.30526316 35.4783983,5.04 C35.8909378,4.77473684 36.3951528,4.55368421 36.8993678,4.42105263 C37.4035827,4.28842105 37.9994731,4.2 38.5495258,4.2 C39.5579557,4.2 40.4747102,4.37684211 41.2539515,4.68631579 L41.2539515,6.49894737 C40.3830348,5.96842105 39.4204426,5.70315789 38.2744995,5.70315789 C37.9077977,5.70315789 37.5869336,5.74736842 37.3119073,5.83578947 C37.0368809,5.92421053 36.8076923,6.01263158 36.5785037,6.14526316 C36.3951528,6.27789474 36.2118019,6.45473684 36.1201264,6.63157895 C36.028451,6.80842105 35.9367756,7.02947368 35.9367756,7.29473684 C35.9367756,7.60421053 35.9826133,7.82526316 36.1201264,8.04631579 C36.2576396,8.26736842 36.3951528,8.4 36.6243414,8.57684211 C36.85353,8.70947368 37.0827187,8.88631579 37.4035827,8.97473684 C37.7244468,9.10736842 38.0453109,9.24 38.4578504,9.37263158 C38.9620653,9.54947368 39.4204426,9.77052632 39.8329821,9.94736842 C40.2455216,10.1684211 40.6122234,10.3894737 40.8872497,10.6105263 C41.1622761,10.8757895 41.3914647,11.1410526 41.5748156,11.4947368 C41.7123288,11.8042105 41.8040042,12.2021053 41.8040042,12.6884211 C41.8040042,13.2631579 41.666491,13.7494737 41.4373024,14.1473684 C41.2081138,14.5452632 40.841412,14.8989474 40.4288725,15.1642105 C40.016333,15.4294737 39.512118,15.6505263 38.9620653,15.7831579 C38.4120126,15.9157895 37.8161222,15.96 37.2202318,15.96 C35.9367756,16.0926316 34.9283456,15.8715789 34.0115911,15.3852632 Z" id="Path" />
                        <path d="M46.6169652,14.1915789 L46.6169652,14.1915789 L46.5711275,21 L44.6917808,21 L44.6917808,4.50947368 L46.5711275,4.50947368 L46.5711275,6.49894737 L46.6169652,6.49894737 C47.5337197,4.99578947 48.9088514,4.24421053 50.6506849,4.24421053 C52.1633298,4.24421053 53.3551106,4.73052632 54.1801897,5.74736842 C55.0052687,6.76421053 55.4636459,8.13473684 55.4636459,9.81473684 C55.4636459,11.7157895 55.0052687,13.2189474 54.0426765,14.3684211 C53.0800843,15.5178947 51.796628,16.0926316 50.14647,16.0926316 C48.5879874,16.0926316 47.4420443,15.4294737 46.6169652,14.1915789 Z M46.5711275,9.63789474 L46.5711275,11.2294737 C46.5711275,12.1578947 46.8919916,12.9536842 47.5337197,13.6168421 C48.1754478,14.28 48.9546891,14.5894737 49.9172813,14.5894737 C51.0632244,14.5894737 51.9341412,14.1915789 52.5758693,13.3515789 C53.2175975,12.5115789 53.5384615,11.3621053 53.5384615,9.85894737 C53.5384615,8.62105263 53.2175975,7.60421053 52.6217071,6.89684211 C52.0258166,6.18947368 51.2007376,5.83578947 50.1923077,5.83578947 C49.0922023,5.83578947 48.2212856,6.18947368 47.5795574,6.94105263 C46.8919916,7.60421053 46.5711275,8.53263158 46.5711275,9.63789474 Z" id="Shape" />
                        <path d="M67.8856691,10.6105263 L59.6348788,10.6105263 C59.6807165,11.8484211 60.0015806,12.8210526 60.6891465,13.5284211 C61.3767123,14.2357895 62.2934668,14.5452632 63.4394099,14.5452632 C64.7687039,14.5452632 65.9604847,14.1473684 67.0605901,13.3073684 L67.0605901,14.9873684 C66.0521602,15.6947368 64.6770285,16.0484211 62.9810327,16.0484211 C61.3308746,16.0484211 60.0474183,15.5178947 59.0848261,14.5010526 C58.1222339,13.4842105 57.6638567,12.0252632 57.6638567,10.1684211 C57.6638567,8.4 58.1680717,6.98526316 59.2223393,5.88 C60.276607,4.77473684 61.5600632,4.2 63.0727081,4.2 C64.585353,4.2 65.7771338,4.68631579 66.6480506,5.61473684 C67.4731296,6.58736842 67.8856691,7.91368421 67.8856691,9.59368421 L67.8856691,10.6105263 L67.8856691,10.6105263 Z M65.9604847,9.06315789 C65.9604847,8.00210526 65.6854584,7.20631579 65.1812434,6.63157895 C64.6770285,6.05684211 63.9436249,5.74736842 63.0268704,5.74736842 C62.1559536,5.74736842 61.3767123,6.05684211 60.7808219,6.67578947 C60.1849315,7.29473684 59.772392,8.09052632 59.6348788,9.06315789 L65.9604847,9.06315789 Z" id="Shape" />
                        <path d="M78.703372,15.2968421 C77.7866175,15.8273684 76.7323498,16.0926316 75.4947313,16.0926316 C73.8445732,16.0926316 72.4694415,15.5621053 71.4610116,14.5010526 C70.4525817,13.44 69.902529,12.1136842 69.902529,10.4336842 C69.902529,8.57684211 70.4525817,7.07368421 71.552687,5.96842105 C72.6527924,4.81894737 74.1195996,4.28842105 75.9989463,4.28842105 C77.0073762,4.28842105 77.9241307,4.46526316 78.703372,4.81894737 L78.703372,6.67578947 C77.8324552,6.10105263 76.9157007,5.79157895 75.9072708,5.79157895 C74.71549,5.79157895 73.7070601,6.18947368 72.9736565,7.02947368 C72.2402529,7.86947368 71.8277134,8.93052632 71.8277134,10.3010526 C71.8277134,11.6273684 72.1944152,12.6884211 72.9278188,13.44 C73.6612223,14.1915789 74.6238145,14.5894737 75.8155954,14.5894737 C76.8240253,14.5894737 77.7866175,14.28 78.703372,13.6168421 L78.703372,15.2968421 Z" id="Path" />
                        <path d="M86.9541623,15.6947368 C86.495785,15.9157895 85.9457323,16.0484211 85.2123288,16.0484211 C83.1496312,16.0484211 82.1412013,14.9431579 82.1412013,12.7326316 L82.1412013,6.05684211 L80.1243414,6.05684211 L80.1243414,4.50947368 L82.1412013,4.50947368 L82.1412013,1.76842105 L84.0205479,1.19368421 L84.0205479,4.55368421 L86.9541623,4.55368421 L86.9541623,6.10105263 L84.0205479,6.10105263 L84.0205479,12.4673684 C84.0205479,13.2189474 84.1580611,13.7494737 84.4330875,14.1031579 C84.7081138,14.4126316 85.1206533,14.5894737 85.7623815,14.5894737 C86.2207587,14.5894737 86.6332982,14.4568421 87,14.2357895 L87,15.6947368 L86.9541623,15.6947368 Z" id="Path" />
                    </g>
                </g>
            </g>
        </g>
    </g>
</svg>
