<?xml version="1.0" encoding="UTF-8"?>
<svg width="165px" height="80px" viewBox="0 0 165 80" version="1.1" xmlns="http://www.w3.org/2000/svg" xmlns:xlink="http://www.w3.org/1999/xlink">
    <!-- Generator: sketchtool 52.3 (67297) - http://www.bohemiancoding.com/sketch -->
    <title>6CADB04E-32FA-4020-A8BB-792F5BDD5BF1</title>
    <desc>Created with sketchtool.</desc>
    <g id="Integrations:-QuickBooks" stroke="none" stroke-width="1" fill="none" fill-rule="evenodd">
        <g id="Factory-Integration" transform="translate(-382.000000, -276.000000)">
            <g id="Logo" transform="translate(382.000000, 276.000000)">
                <g id="QuickBooks_Logo">
                    <rect id="Bounds" fill="#FFFFFF" opacity="0" x="1" y="0" width="164.142857" height="80"></rect>
                    <g id="QB_logo_vector" transform="translate(36.964286, 33.178571)" fill="#000000" fill-rule="nonzero">
                        <path d="M120.4515,16.4712857 C120.4515,16.1624286 120.192178,16.0490714 119.926393,16.0490714 L119.428753,16.0490714 L119.428753,17.4882143 L119.683228,17.4882143 L119.683228,16.88775 L119.865804,16.88775 L120.197833,17.4882143 L120.507242,17.4882143 L120.125934,16.8581786 C120.315498,16.8322943 120.45567,16.6657184 120.4515,16.4712857 Z M119.683228,16.6791071 L119.683228,16.2683929 L119.915083,16.2683929 C120.048379,16.2683929 120.197833,16.3086429 120.197833,16.4655357 C120.197833,16.6396786 120.032222,16.6791071 119.888424,16.6791071 L119.683228,16.6791071 Z M119.920738,15.4987143 C119.232218,15.5032451 118.677001,16.0731709 118.679077,16.7732686 C118.681152,17.4733663 119.239739,18.0398779 119.928273,18.0401875 C120.616807,18.0404972 121.175887,17.4744884 121.178571,16.7743929 C121.178575,16.4348454 121.045533,16.1092882 120.808873,15.869732 C120.572214,15.6301759 120.251441,15.4963634 119.917506,15.4978929 L119.920738,15.4987143 Z M119.920738,17.8545714 C119.334474,17.8545714 118.859214,17.3713268 118.859214,16.7752143 C118.859214,16.1791018 119.334474,15.6958571 119.920738,15.6958571 C120.507002,15.6958571 120.982262,16.1791018 120.982262,16.7752143 C120.979595,17.3713491 120.503798,17.8533042 119.917506,17.85375 L119.920738,17.8545714 Z" id="_7"></path>
                        <path d="M38.8239986,15.7139286 C36.9796607,15.7139286 36.0498171,14.0390357 36.0498171,12.4191786 C36.0498171,10.7993214 37.0588307,9.19507143 38.7351343,9.19507143 C39.5589454,9.19102405 40.3461184,9.54095533 40.902615,10.1586071 L42.8543979,8.18142857 C41.1443441,6.56368872 38.6602246,6.11597808 36.5075133,7.03753521 C34.3548019,7.95909235 32.9336738,10.0786057 32.8765543,12.4528571 C32.9846591,14.8122782 34.4060199,16.9026626 36.538738,17.8388023 C38.671456,18.7749421 41.142433,18.3930688 42.9052929,16.8548929 L41.0068286,14.7857143 C40.4335724,15.3839784 39.645453,15.7191138 38.8239986,15.7139286 Z M27.9066171,18.0311786 L30.9352736,18.0311786 L30.9352736,6.87864286 L27.9066171,6.87864286 L27.9066171,18.0311786 Z M22.399455,12.9925357 C22.4449182,13.6801855 22.2149321,14.3573001 21.7618089,14.8698644 C21.3086856,15.3824286 20.6709487,15.6868655 19.9936564,15.7139286 C18.7867179,15.7139286 18.1420479,14.8391071 18.1420479,13.0377143 L18.1420479,6.877 L15.1133914,6.877 L15.1133914,13.8 C15.1133914,16.1 16.2443914,18.3441429 19.2657771,18.3441429 C20.5791301,18.2125708 21.7633108,17.4835427 22.4867036,16.3612143 L22.5319436,16.3612143 L22.5319436,18.0303571 L25.4281114,18.0303571 L25.4281114,6.87864286 L22.399455,6.87864286 L22.399455,12.9925357 Z M9.64985357,8.29642857 L9.58280143,8.29642857 C8.72581509,7.2382772 7.46136971,6.60770962 6.11386286,6.5665 C4.61460715,6.56686369 3.18107265,7.19228361 2.14775908,8.29682482 C1.11444551,9.40136602 0.571743153,10.8884075 0.646285714,12.4109643 C0.646285714,15.8502857 2.84204143,18.3466071 5.96844857,18.3466071 C7.31736359,18.3108812 8.59237087,17.7122791 9.49393714,16.6914286 L9.53917714,16.6914286 L9.53917714,23.52325 L12.5678336,23.52325 L12.5678336,6.87864286 L9.64985357,6.87864286 L9.64985357,8.29642857 Z M6.70521429,15.7139286 C5.8801961,15.6846386 5.1020779,15.3166052 4.54854788,14.6938712 C3.99501786,14.0711372 3.71334306,13.2468791 3.76784571,12.4093214 C3.7107904,11.5755476 3.99292366,10.7545249 4.54824577,10.138316 C5.10356788,9.52210704 5.88336354,9.16476846 6.70521429,9.14989286 C8.40226981,9.25619808 9.70143019,10.7274949 9.62319429,12.4545 C9.66553364,13.281262 9.38097354,14.0909109 8.83288804,14.7031308 C8.28480253,15.3153508 7.51870579,15.6793017 6.70521429,15.7139286 Z M75.6962143,6.56485714 C74.1301427,6.4821454 72.6006112,7.06438112 71.4729835,8.1724839 C70.3453558,9.28058669 69.7208958,10.8150462 69.74877,12.4093214 C69.7867363,15.7214683 72.4381647,18.3861995 75.6958104,18.3861995 C78.953456,18.3861995 81.6048844,15.7214683 81.6428507,12.4093214 C81.6707107,10.8151965 81.0463597,9.28087378 79.9189125,8.17279781 C78.7914653,7.06472183 77.2621496,6.48238119 75.6962143,6.56485714 Z M75.6962143,15.7139286 C73.7210036,15.7139286 72.8210507,14.00125 72.8210507,12.4093214 C72.8210507,10.8403929 73.7210036,9.14989286 75.6962143,9.14989286 C77.671425,9.14989286 78.57057,10.8403929 78.57057,12.4093214 C78.5697621,14.00125 77.6706171,15.7139286 75.6962143,15.7139286 Z M113.560479,11.1673214 C112.002122,10.7886429 111.452779,10.5849286 111.452779,9.94339286 C111.452779,9.05871429 112.555504,8.86403571 113.05476,8.86403571 C113.970118,8.88990201 114.836202,9.29140211 115.455711,9.97707143 L117.241884,8.23482143 C116.157308,7.09092093 114.637876,6.48192891 113.07738,6.56567857 C110.885664,6.56567857 108.584079,7.68610714 108.584079,10.1906429 C108.584079,12.3411429 110.241801,12.98925 111.863171,13.3851786 C113.572596,13.7893214 114.182529,14.0858571 114.182529,14.7857143 C114.182529,15.81825 113.030524,15.9866429 112.633866,15.9866429 C111.576437,15.9418723 110.581726,15.464306 109.875842,14.6625 L108.037159,16.5575357 C109.226264,17.7601015 110.847424,18.4157195 112.523998,18.3720714 C115.484794,18.3720714 117.241884,16.9370357 117.241884,14.5688571 C117.240268,12.3017143 115.089752,11.5394286 113.559671,11.1673214 L113.560479,11.1673214 Z M107.835195,6.87864286 L103.929206,6.87864286 L100.019177,11.5065714 L99.9513171,11.5065714 L99.9513171,0.733535714 L96.9226607,0.733535714 L96.9226607,18.0311786 L99.9513171,18.0311786 L99.9513171,12.5276071 L100.019177,12.5276071 L104.076236,18.0311786 L108.062203,18.0311786 L103.347549,11.9361786 L107.835195,6.87864286 Z M62.9239929,6.56485714 C61.6434631,6.59249832 60.4283839,7.14565487 59.5552286,8.09846429 L59.4986786,8.09846429 L59.4986786,0.733535714 L56.4692143,0.733535714 L56.4692143,18.0311786 L59.3653821,18.0311786 L59.3653821,16.4540357 L59.4106221,16.4540357 C60.1692992,17.6380387 61.4671648,18.3495339 62.8569407,18.3433214 C65.9833479,18.3433214 68.3503693,15.847 68.3503693,12.4076786 C68.3536007,9.02257143 66.0116229,6.56485714 62.923185,6.56485714 L62.9239929,6.56485714 Z M62.3286021,15.7139286 C61.5149678,15.6795149 60.7486639,15.3156565 60.2004052,14.7034126 C59.6521465,14.0911687 59.3674769,13.2813985 59.4098143,12.4545 C59.3315919,10.7271941 60.6312252,9.25576901 62.3286021,9.14989286 C63.1502629,9.16472811 63.9298469,9.52214468 64.4847911,10.1384427 C65.0397352,10.7547408 65.3212995,11.5757916 65.2635471,12.4093214 C65.3187369,13.2467735 65.0375179,14.0711766 64.4841944,14.6940209 C63.9308709,15.3168651 63.1527629,15.6848851 62.3277943,15.7139286 L62.3286021,15.7139286 Z M55.3301357,6.87864286 L51.4241464,6.87864286 L47.5141179,11.5065714 L47.4462579,11.5065714 L47.4462579,0.733535714 L44.4176014,0.733535714 L44.4176014,18.0311786 L47.4462579,18.0311786 L47.4462579,12.5276071 L47.5141179,12.5276071 L51.5711764,18.0311786 L55.5571436,18.0311786 L50.8424893,11.9361786 L55.3301357,6.87864286 Z M89.0048529,6.56485714 C87.4387813,6.4821454 85.9092497,7.06438112 84.7816221,8.1724839 C83.6539944,9.28058669 83.0295344,10.8150462 83.0574086,12.4093214 C83.0953749,15.7214683 85.7468033,18.3861995 89.0044489,18.3861995 C92.2620946,18.3861995 94.913523,15.7214683 94.9514893,12.4093214 C94.9793635,10.8150462 94.3549034,9.28058669 93.2272758,8.1724839 C92.0996481,7.06438112 90.5701166,6.4821454 89.004045,6.56485714 L89.0048529,6.56485714 Z M89.0048529,15.7139286 C87.0296421,15.7139286 86.1296893,14.00125 86.1296893,12.4093214 C86.1296893,10.8403929 87.0296421,9.14989286 89.0048529,9.14989286 C90.9800636,9.14989286 91.8792086,10.8403929 91.8792086,12.4093214 C91.8784007,14.00125 90.9784479,15.7139286 89.004045,15.7139286 L89.0048529,15.7139286 Z" id="quickbooks-3"></path>
                    </g>
                    <g id="Icon-4" transform="translate(9.000000, 28.000000)" fill-rule="nonzero">
                        <circle id="Circle-4" fill="#2CA01C" cx="12.778125" cy="12.778125" r="12.778125"></circle>
                        <path d="M3.54813058,12.778125 C3.54813054,15.5225595 5.77269727,17.7474884 8.5171317,17.7479353 L9.22675781,17.7479353 L9.22675781,15.9014509 L8.5171317,15.9014509 C6.791943,15.9014509 5.39340123,14.5029091 5.39340123,12.7777204 C5.39340123,11.0525317 6.791943,9.65398996 8.5171317,9.65398996 L10.2228237,9.65398996 L10.2228237,19.3087891 C10.2228237,20.3281273 11.0491606,21.1544643 12.0684989,21.1544643 L12.0684989,7.80831473 L8.51632254,7.80831473 C5.77220413,7.80920829 3.54813043,10.0340064 3.54813058,12.778125 Z M17.0391183,7.80912388 L16.3294922,7.80912388 L16.3294922,9.65479911 L17.0391183,9.65479911 C18.764307,9.65479911 20.1628488,11.0533409 20.1628488,12.7785296 C20.1628488,14.5037183 18.764307,15.90226 17.0391183,15.90226 L15.3334263,15.90226 L15.3334263,6.24746094 C15.3329796,5.22843867 14.5067735,4.40259477 13.4877511,4.40259487 L13.4877511,17.7479353 L17.0399275,17.7479353 C19.7842309,17.7479352 22.0089284,15.5232376 22.0089284,12.7789342 C22.0089284,10.0346307 19.7842309,7.80993312 17.0399275,7.80993304 L17.0391183,7.80912388 Z" id="qb-3" fill="#FFFFFF"></path>
                    </g>
                    <path d="M50.9584971,29.8947069 C50.9584971,29.4216713 50.5762953,29.0382002 50.1048255,29.0382002 C49.6333557,29.0382002 49.251154,29.4216713 49.251154,29.8947069 C49.251154,30.1218666 49.3410941,30.3397224 49.5011886,30.5003486 C49.6612831,30.6609747 49.8784178,30.7512136 50.1048255,30.7512136 C50.5762953,30.7512136 50.9584971,30.3677425 50.9584971,29.8947069 Z M45.0130507,31.3254997 C44.2706419,31.3140791 43.5881076,31.7328171 43.2599167,32.4010554 L43.2362036,32.4010554 L43.2362036,31.4895814 L41.895187,31.4895814 L41.895187,37.1561442 L43.3065253,37.1561442 L43.3065253,34.0385912 C43.2652253,33.6569352 43.3834916,33.2751816 43.6331529,32.9842644 C43.8828142,32.6933472 44.241521,32.5193092 44.6238288,32.5036065 C45.5298327,32.5036065 45.6868298,33.3420642 45.6868298,34.0147993 L45.6868298,37.1553237 L47.0989858,37.1553237 L47.0989858,33.6152603 C47.1640855,33.0248062 46.9723774,32.4348489 46.5729196,31.9963583 C46.1734617,31.5578677 45.6050171,31.3133946 45.0130507,31.3254997 Z M39.0357143,37.157785 L40.4478702,37.157785 L40.4478702,31.4895814 L39.0357143,31.4895814 L39.0357143,37.157785 Z M65.5005495,30.2205855 C65.6329393,29.9005573 65.5601048,29.532024 65.3160209,29.2868947 C65.071937,29.0417653 64.7046935,28.9683358 64.3855979,29.1008585 C64.0665023,29.2333813 63.8584233,29.5457465 63.8584232,29.8922457 C63.8577701,30.1201161 63.9476466,30.3388544 64.1081659,30.5000607 C64.2686852,30.6612671 64.4866134,30.7516511 64.7137301,30.7512136 C65.0566292,30.7490842 65.3681597,30.5406137 65.5005495,30.2205855 Z M62.4217364,31.4871202 L62.4217364,32.7423454 L64.0047902,32.7423454 L64.0047902,37.1569646 L65.4169462,37.1569646 L65.4169462,32.7423454 L67,32.7423454 L67,31.4895814 L62.4217364,31.4871202 Z M60.0209895,37.1569646 L61.4331455,37.1569646 L61.4331455,31.4895814 L60.0209895,31.4895814 L60.0209895,37.1569646 Z M47.8128318,32.7423454 L49.3999741,32.7423454 L49.3999741,37.1569646 L50.8121301,37.1569646 L50.8121301,32.7423454 L52.3951839,32.7423454 L52.3951839,31.4895814 L47.8161026,31.4895814 L47.8128318,32.7423454 Z M57.1680584,34.6071344 C57.2093583,34.9887903 57.091092,35.370544 56.8414307,35.6614611 C56.5917694,35.9523783 56.2330627,36.1264163 55.8507548,36.142119 C54.9447509,36.142119 54.7877538,35.3044818 54.7877538,34.6309262 L54.7877538,31.4895814 L53.3755979,31.4895814 L53.3755979,35.0312857 C53.3103046,35.6212199 53.5014928,36.2107799 53.9002762,36.6492177 C54.2990597,37.0876555 54.8667759,37.3324638 55.4582621,37.3210463 C56.2004863,37.3326191 56.8829724,36.9142301 57.2113961,36.2463109 L57.2351092,36.2463109 L57.2351092,37.1553237 L58.5769436,37.1553237 L58.5769436,31.4895814 L57.1680584,31.4895814 L57.1680584,34.6071344 Z" id="intuit-7" fill="#000000" fill-rule="nonzero"></path>
                </g>
            </g>
        </g>
    </g>
</svg>