<?xml version="1.0" encoding="UTF-8"?>
<svg width="165px" height="80px" viewBox="0 0 165 80" version="1.1" xmlns="http://www.w3.org/2000/svg">
  <title>9912B6A8-D539-43B1-930D-68A76796919F</title>
  <g id="LAB-A:-Zapier-integration-discoverability" stroke="none" stroke-width="1" fill="none" fill-rule="evenodd">
    <g id="Third-party-via-Zapier" transform="translate(-414.000000, -1207.000000)">
      <g id="logo-salesforce" transform="translate(414.000000, 1207.000000)">
        <path d="M77.1046875,18.889375 C79.5920625,16.2982187 83.0573438,14.6891875 86.8879688,14.6891875 C91.98,14.6891875 96.4240313,17.52925 98.7899063,21.7454687 C100.906737,20.7999044 103.199552,20.3125302 105.517969,20.3153125 C114.703031,20.3153125 122.148281,27.826375 122.148281,37.0932812 C122.148281,46.3601875 114.703031,53.87125 105.517969,53.87125 C104.394938,53.87125 103.29975,53.7590312 102.240844,53.5455625 C100.157625,57.2605937 96.18525,59.7715937 91.6281563,59.7715937 C89.7204375,59.7715937 87.9156563,59.3328437 86.31,58.5473125 C84.19725,63.517 79.2756563,67 73.5406875,67 C67.568625,67 62.4774375,63.22 60.5241563,57.9204062 C59.6538525,58.1040556 58.7667818,58.1965236 57.8773125,58.1963125 C50.7653438,58.1971562 44.9999641,52.3719062 44.9999641,45.1856875 C44.9891424,40.5512817 47.4408409,36.2599259 51.4386563,33.9157187 C50.6236311,32.0377349 50.2042881,30.0119635 50.2067813,27.96475 C50.2067813,19.699375 56.9154375,12.9999898 65.1909375,12.9999898 C69.8640724,12.9945478 74.2712877,15.1731854 77.1046875,18.889375" id="Path" fill="#00A1E0" />
        <path d="M56.174625,41.0040625 L56.4868125,40.1375313 C56.5365937,39.9890313 56.6488125,40.0379688 56.694375,40.0658125 C56.7812812,40.1172813 56.8437187,40.1636875 56.9559375,40.2295 C57.875625,40.8108438 58.7278125,40.81675 58.9935937,40.81675 C59.6820937,40.81675 60.1090312,40.45225 60.1090312,39.9603438 L60.1090312,39.9350313 C60.1090312,39.4000938 59.4509062,39.1975938 58.6906875,38.9647188 L58.5219375,38.9107188 C57.4782187,38.6137188 56.3619375,38.18425 56.3619375,36.8629375 L56.3619375,36.8359375 C56.3619375,35.582125 57.3735937,34.7071563 58.8214687,34.7071563 L58.9800937,34.7054688 C59.8305937,34.7054688 60.6524062,34.9526875 61.2480937,35.3138125 C61.3020937,35.3475625 61.3544062,35.41 61.3240312,35.4926875 L61.0034062,36.3592188 C60.946875,36.506875 60.7924687,36.409 60.7924687,36.409 C60.170987,36.0851559 59.4832852,35.9087555 58.7826562,35.8934688 C58.1684062,35.8934688 57.7735312,36.2191563 57.7735312,36.6612813 L57.7735312,36.689125 C57.7735312,37.2046563 58.4502187,37.424875 59.2349062,37.6805313 L59.3699062,37.7227188 C60.41025,38.0517813 61.520625,38.5074063 61.520625,39.760375 L61.520625,39.7865313 C61.520625,41.14075 60.5368125,41.9819688 58.9547812,41.9819688 C58.1776875,41.9819688 57.4343437,41.8621563 56.6479687,41.4445 C56.4994687,41.3584375 56.3526562,41.2841875 56.2075312,41.1787188 C56.1923437,41.1567813 56.1256875,41.130625 56.1737812,41.0040625 L56.174625,41.0040625 Z M79.3414687,41.0040625 L79.6545,40.1375313 C79.7000625,39.9957813 79.8325312,40.0480938 79.8612187,40.0658125 C79.9472812,40.1189688 80.0114062,40.1636875 80.1227812,40.2295 C81.0441562,40.8108438 81.8946562,40.81675 82.1629687,40.81675 C82.8489375,40.81675 83.2767187,40.45225 83.2767187,39.9603438 L83.2767187,39.9350313 C83.2767187,39.4000938 82.6194375,39.1975938 81.8592187,38.9647188 L81.6904687,38.9107188 C80.6450625,38.6137188 79.5287812,38.18425 79.5287812,36.8629375 L79.5287812,36.8359375 C79.5287812,35.582125 80.5412812,34.7071563 81.9891562,34.7071563 L82.1469375,34.7054688 C82.9974375,34.7054688 83.8200937,34.9526875 84.416625,35.3138125 C84.4689375,35.3475625 84.5220937,35.41 84.4925625,35.4926875 C84.4630312,35.5694688 84.1997812,36.2782188 84.1719375,36.3592188 C84.1137187,36.506875 83.961,36.409 83.961,36.409 C83.3392639,36.0850305 82.651259,35.9086264 81.9503437,35.8934688 C81.3360937,35.8934688 80.9412187,36.2191563 80.9412187,36.6612813 L80.9412187,36.689125 C80.9412187,37.2046563 81.6170625,37.424875 82.4025937,37.6805313 L82.5375937,37.7227188 C83.5779375,38.0517813 84.6874687,38.5074063 84.6874687,39.760375 L84.6874687,39.7865313 C84.6874687,41.14075 83.7045,41.9819688 82.1224687,41.9819688 C81.3445312,41.9819688 80.6011875,41.8621563 79.8156562,41.4445 C79.6671562,41.3584375 79.5203437,41.2841875 79.374375,41.1787188 C79.3591875,41.1567813 79.2925312,41.130625 79.3414687,41.0040625 L79.3414687,41.0040625 Z M96.4780312,36.9295938 C96.6079687,37.3649688 96.6720937,37.843375 96.6720937,38.3487813 C96.6720937,38.8550313 96.6079687,39.33175 96.4780312,39.767125 C96.3592119,40.1869399 96.1552979,40.5778228 95.8789687,40.9154688 C95.6020987,41.2433912 95.2548667,41.5046804 94.8630937,41.6799063 C94.4580937,41.8655313 93.9822187,41.9583438 93.4472812,41.9583438 C92.9123437,41.9583438 92.4347812,41.8655313 92.0314687,41.6799063 C91.6396958,41.5046804 91.2924638,41.2433912 91.0155937,40.9154688 C90.7395262,40.5778404 90.5353797,40.1873492 90.4156875,39.7679688 C90.2830277,39.306713 90.2176658,38.8287186 90.221625,38.3487813 C90.221625,37.8425313 90.2865937,37.3649688 90.4156875,36.9295938 C90.545625,36.4908438 90.7472812,36.1044063 91.01475,35.7820938 C91.2922895,35.4528315 91.6395785,35.1894106 92.0314687,35.0109063 C92.435625,34.8219063 92.9106562,34.7265625 93.4472812,34.7265625 C93.9839062,34.7265625 94.4589375,34.8219063 94.8630937,35.0109063 C95.2664062,35.1990625 95.6089687,35.4580938 95.8789687,35.7820938 C96.1472812,36.1044063 96.3497812,36.4908438 96.4780312,36.9295938 L96.4780312,36.9295938 Z M95.1584062,38.3487813 C95.1584062,37.5835 95.0166562,36.9819063 94.7348437,36.5600313 C94.4564062,36.1415313 94.0345312,35.9390313 93.4472812,35.9390313 C92.8600312,35.9390313 92.4415312,36.1415313 92.1664687,36.5600313 C91.8905625,36.9819063 91.7496562,37.5835 91.7496562,38.3487813 C91.7496562,39.1132188 91.8905625,39.7190313 92.1681562,40.1442813 C92.4415312,40.5678438 92.8600312,40.772875 93.4472812,40.772875 C94.0345312,40.772875 94.4564062,40.567 94.7348437,40.1442813 C95.0149687,39.7190313 95.1584062,39.1132188 95.1584062,38.3487813 L95.1584062,38.3487813 Z M107.326969,40.5678438 L107.650969,41.4639063 C107.693156,41.5735938 107.597812,41.6216875 107.597812,41.6216875 C107.097469,41.81575 106.403062,41.954125 105.727219,41.954125 C104.581406,41.954125 103.703906,41.6242188 103.118344,40.9728438 C102.536156,40.3231563 102.239156,39.43975 102.239156,38.3437188 C102.239156,37.836625 102.312562,37.3565313 102.456,36.922 C102.599437,36.48325 102.814594,36.0968125 103.098094,35.7745 C103.39247,35.4431468 103.75556,35.1799709 104.162062,35.0033125 C104.583937,34.8151563 105.080062,34.7206563 105.633562,34.7206563 C106.007344,34.7206563 106.339781,34.7434375 106.624969,34.785625 C106.929562,34.832875 107.335406,34.9425625 107.506687,35.0092188 C107.537906,35.0210313 107.624812,35.0632188 107.589375,35.1653125 C107.4645,35.5171563 107.379281,35.7466563 107.263687,36.0672813 C107.213062,36.2039688 107.110125,36.1584063 107.110125,36.1584063 C106.675594,36.0217188 106.258781,35.9592813 105.714562,35.9592813 C105.060656,35.9592813 104.569594,36.1769688 104.248969,36.6030625 C103.924969,37.0325313 103.743562,37.5953125 103.741031,38.3437188 C103.7385,39.1646875 103.944375,39.7730313 104.308875,40.1493438 C104.672531,40.5248125 105.180469,40.7146563 105.820031,40.7146563 C106.079062,40.7146563 106.32375,40.6977813 106.543969,40.6631875 C106.761656,40.6285938 106.965844,40.5610938 107.158219,40.486 C107.158219,40.486 107.28225,40.4395938 107.326969,40.5678438 L107.326969,40.5678438 Z M114.085406,36.6806875 C114.373125,37.688125 114.222937,38.5580313 114.217875,38.606125 C114.206906,38.720875 114.088781,38.7225625 114.088781,38.7225625 L109.61775,38.7191875 C109.645594,39.3984063 109.808437,39.8793438 110.1375,40.205875 C110.460656,40.5256563 110.973656,40.7306875 111.668062,40.7315313 C112.7295,40.7340625 113.182594,40.5205938 113.504062,40.401625 C113.504062,40.401625 113.626406,40.35775 113.672812,40.47925 L113.963906,41.2985313 C114.022969,41.4360625 113.975719,41.4841563 113.925937,41.512 C113.645812,41.6664063 112.966594,41.9549688 111.673969,41.958396 C111.047062,41.960875 110.501156,41.8714375 110.051437,41.6967813 C109.624095,41.5384921 109.239156,41.2835027 108.926719,40.95175 C108.628089,40.6262517 108.406354,40.2378555 108.277875,39.8152188 C108.139465,39.3521444 108.071486,38.8708873 108.076219,38.3875938 C108.076219,37.8813438 108.141187,37.4004063 108.271969,36.9608125 C108.40275,36.5178438 108.606094,36.1271875 108.876937,35.7989688 C109.157645,35.4639724 109.509616,35.1958866 109.907156,35.0142813 C110.317219,34.8210625 110.825156,34.7265625 111.383719,34.7265625 C111.862125,34.7265625 112.299187,34.8295 112.662844,34.9864375 C112.942969,35.10625 113.224781,35.3230938 113.513344,35.6335938 C113.695594,35.8293438 113.973187,36.2579688 114.085406,36.6806875 L114.085406,36.6806875 Z M109.638844,37.6147188 L112.828219,37.6147188 C112.795312,37.2046563 112.715156,36.8367813 112.531219,36.5600313 C112.251094,36.1415313 111.864656,35.9111875 111.27825,35.9111875 C110.691,35.9111875 110.274187,36.1415313 109.998281,36.5600313 C109.817719,36.8367813 109.701281,37.1894688 109.638,37.6147188 L109.638844,37.6147188 Z M78.2724375,36.6806875 C78.5593125,37.688125 78.4116562,38.5580313 78.4065937,38.606125 C78.3947812,38.720875 78.2766562,38.7225625 78.2766562,38.7225625 L73.8047812,38.7191875 C73.8334687,39.3984063 73.9954687,39.8793438 74.325375,40.205875 C74.6485312,40.5256563 75.1606875,40.7306875 75.8550937,40.7315313 C76.9165312,40.7340625 77.3713125,40.5205938 77.6919375,40.401625 C77.6919375,40.401625 77.8142812,40.35775 77.8598437,40.47925 L78.1517812,41.2985313 C78.2108437,41.4360625 78.1635937,41.4841563 78.1146562,41.512 C77.8328437,41.6664063 77.1527812,41.9549688 75.8618437,41.958396 C75.2340937,41.960875 74.6881875,41.8714375 74.2393125,41.6967813 C73.8118335,41.5382793 73.4266657,41.2833295 73.11375,40.95175 C72.8159374,40.6259349 72.5948151,40.2376014 72.4665937,39.8152188 C72.3271967,39.3523233 72.2586396,38.8710009 72.26325,38.3875938 C72.26325,37.8813438 72.3290625,37.4004063 72.459,36.9608125 C72.5805785,36.5366633 72.7866428,36.1414677 73.0648125,35.7989688 C73.3454547,35.4642579 73.6970829,35.1962134 74.0941875,35.0142813 C74.5059375,34.8210625 75.013875,34.7265534 75.57075,34.7265534 C76.0108842,34.7255234 76.4466391,34.8139375 76.8515625,34.9864375 C77.1316875,35.10625 77.4135,35.3230938 77.7012187,35.6335938 C77.8834687,35.8293438 78.1610625,36.2579688 78.2724375,36.6806875 L78.2724375,36.6806875 Z M73.8250312,37.6147188 L77.0160937,37.6147188 C76.9823437,37.2046563 76.9021875,36.8367813 76.7190937,36.5600313 C76.4406562,36.1415313 76.0525312,35.9111875 75.466125,35.9111875 C74.878875,35.9111875 74.4612187,36.1415313 74.187,36.5600313 C74.00475,36.8367813 73.8891562,37.1894688 73.8241875,37.6147188 L73.8250312,37.6147188 Z M65.9393437,37.40125 C65.9393437,37.40125 66.2920312,37.4324688 66.6767812,37.4881563 L66.6767812,37.2991563 C66.6767812,36.702625 66.55275,36.4216563 66.3089062,36.2335 C66.0591562,36.0428125 65.6862187,35.9440938 65.2035937,35.9440938 C65.2035937,35.9440938 64.1151562,35.9305938 63.2545312,36.3980313 C63.214875,36.4216563 63.1819687,36.4351563 63.1819687,36.4351563 C63.1819687,36.4351563 63.0739687,36.473125 63.0351562,36.3625938 L62.71875,35.5120938 C62.6698125,35.38975 62.7584062,35.3340625 62.7584062,35.3340625 C63.160875,35.0201875 64.13625,34.8303438 64.13625,34.8303438 C64.5322107,34.7607713 64.9332122,34.7238035 65.3352187,34.7198125 C66.2279062,34.7198125 66.9189375,34.927375 67.3889062,35.3382813 C67.8597187,35.750875 68.0993437,36.41575 68.0993437,37.3118125 L68.101875,41.4023125 C68.101875,41.4023125 68.1111562,41.5204375 67.9989375,41.5474375 C67.9989375,41.5474375 67.8344062,41.593 67.68675,41.6275938 C67.5374062,41.6621875 66.9990937,41.771875 66.5595,41.846125 C66.1105979,41.9213507 65.656224,41.9591875 65.2010625,41.9591875 C64.7665312,41.9591875 64.3682812,41.9186875 64.0172812,41.8385313 C63.6901711,41.7700171 63.3804202,41.6356673 63.106875,41.4436563 C62.8575834,41.2626291 62.6574629,41.0221944 62.5246875,40.7441875 C62.3871562,40.4632188 62.3179687,40.1198125 62.3179687,39.72325 C62.3179687,39.3342813 62.3998125,38.9875 62.5575937,38.6921875 C62.7162187,38.3985625 62.9339062,38.1496563 63.2072812,37.95475 C63.4896986,37.7559114 63.8054743,37.6093115 64.139625,37.5219063 C64.4880937,37.4290938 64.8585,37.381 65.2415625,37.381 C65.5225312,37.381 65.7570937,37.3869063 65.9393437,37.40125 L65.9393437,37.40125 Z M64.159875,40.543375 C64.1573437,40.5425313 64.5606562,40.8597813 65.4710625,40.8040938 C66.110625,40.7652813 66.677625,40.6437813 66.677625,40.6437813 L66.677625,38.6103438 C66.677625,38.6103438 66.1055625,38.5166875 65.4634687,38.5074063 C64.5530625,38.4964375 64.1649375,38.8314063 64.1674687,38.8305625 C63.8991562,39.02125 63.768375,39.3039063 63.768375,39.6954063 C63.768375,39.946 63.8130937,40.14175 63.903375,40.2784375 C63.9599062,40.3687188 63.984375,40.4024688 64.159875,40.543375 L64.159875,40.543375 Z M102.006281,35.0969688 C101.964094,35.2193125 101.74725,35.831875 101.668781,36.0352188 C101.640094,36.1128438 101.592844,36.166 101.505937,36.1567188 C101.505937,36.1567188 101.249437,36.0976563 101.014875,36.0976563 C100.853719,36.0976563 100.623375,36.1179063 100.415812,36.1820313 C100.207632,36.2460119 100.018213,36.3598368 99.864,36.513625 C99.7003125,36.6714063 99.5678437,36.8933125 99.4716562,37.17175 C99.3737812,37.451875 99.3231562,37.897375 99.3231562,38.3445625 L99.3231562,41.6756875 C99.3233809,41.7116377 99.309257,41.7461926 99.2839152,41.7716928 C99.2585734,41.797193 99.2241071,41.8115418 99.1881562,41.8115418 L98.0145,41.8115418 C97.9782474,41.8119816 97.943301,41.7980107 97.9173501,41.7726927 C97.8913991,41.7473747 97.8765698,41.7127839 97.876125,41.6765313 L97.876125,35.0066875 C97.876125,34.9315938 97.9309687,34.8716875 98.0060625,34.8716875 L99.1510312,34.8716875 C99.2269687,34.8716875 99.2809687,34.9315938 99.2809687,35.0066875 L99.2809687,35.55175 C99.45225,35.32225 99.759375,35.11975 100.036969,34.994875 C100.315406,34.8683125 100.62675,34.7755 101.189531,34.80925 C101.482312,34.8269688 101.862844,34.907125 101.939625,34.9366563 C101.969949,34.948799 101.994107,34.9726407 102.006648,35.0028025 C102.019189,35.0329644 102.019057,35.0669055 102.006281,35.0969688 L102.006281,35.0969688 Z M90.9784687,32.0063125 C91.0096875,32.0189688 91.0949062,32.0603125 91.0611562,32.1615625 L90.71775,33.1006563 C90.6890625,33.1715313 90.6705,33.2137188 90.5245312,33.1698438 C90.331477,33.1091234 90.1303765,33.0778348 89.928,33.0770313 C89.7508125,33.0770313 89.5905,33.0998125 89.44875,33.1470625 C89.3069153,33.1924758 89.1783156,33.2718369 89.074125,33.37825 C88.9354657,33.5122628 88.8282651,33.6753692 88.76025,33.8558125 C88.5957187,34.3283125 88.5324375,34.8320313 88.524,34.8640938 L89.9533125,34.8640938 C90.0739687,34.8640938 90.1119375,34.9197813 90.100125,35.008375 L89.9330625,35.9381875 C89.9060625,36.0731875 89.7837187,36.068125 89.7837187,36.068125 L88.3105312,36.068125 L87.3039375,41.7685 C87.2173928,42.2797343 87.085818,42.7823159 86.91075,43.270375 C86.7529687,43.6829688 86.590125,43.9841875 86.3285625,44.2719063 C86.1053193,44.5293855 85.8214181,44.7271594 85.5025312,44.8473438 C85.192875,44.96125 84.8165625,45.0194688 84.4056562,45.0194688 C84.2099062,45.0194688 83.9989687,45.01525 83.7500625,44.9561875 C83.611374,44.9245041 83.4747202,44.8844941 83.3408437,44.836375 C83.286,44.8169688 83.2412812,44.7469375 83.2733437,44.6575 C83.3037187,44.5689063 83.5686562,43.844125 83.6040937,43.7487813 C83.6496562,43.6340313 83.7660937,43.6779063 83.7660937,43.6779063 C83.8454062,43.7116563 83.9010937,43.7335938 84.0065625,43.7546875 C84.1137187,43.7757813 84.2571562,43.7943438 84.366,43.7943438 C84.5609062,43.7943438 84.7380937,43.7707188 84.8925,43.7184063 C85.078125,43.6585 85.1878125,43.5496563 85.300875,43.4045313 C85.419,43.2518125 85.5151875,43.0450938 85.6139062,42.7675 C85.712625,42.4865313 85.8029062,42.1152813 85.8805312,41.6655625 L86.8829062,36.0689688 L85.8957187,36.0689688 C85.7775937,36.0689688 85.7370937,36.0132813 85.7505937,35.9238438 L85.9159687,34.9940313 C85.942125,34.8590313 86.0678437,34.8640938 86.0678437,34.8640938 L87.0811875,34.8640938 L87.1360312,34.5620313 C87.2879062,33.6642813 87.589125,32.9816875 88.034625,32.5336563 C88.4826562,32.08225 89.1196875,31.8544375 89.928,31.8544375 C90.1591875,31.8544375 90.363375,31.869625 90.5363437,31.9008438 C90.7059375,31.9329063 90.8350312,31.9624375 90.9784687,32.0063125 L90.9784687,32.0063125 Z M71.0018437,41.6756875 C71.0018437,41.751625 70.9495312,41.8115313 70.8735937,41.8115313 L69.688125,41.8115313 C69.6121875,41.8115313 69.5607187,41.7507813 69.5607187,41.6765313 L69.5607187,32.1311875 C69.5607187,32.0577813 69.6130312,31.9970313 69.6872812,31.9970313 L70.8735937,31.9970313 C70.9495312,31.9970313 71.0018437,32.0577813 71.0018437,32.1320313 L71.0018437,41.6756875 L71.0018437,41.6756875 Z" id="Shape" fill="#FFFFFF" />
      </g>
    </g>
  </g>
</svg>
