<?xml version="1.0" encoding="UTF-8"?>
<svg width="165px" height="80px" viewBox="0 0 165 80" version="1.1" xmlns="http://www.w3.org/2000/svg">
  <title>87806336-9486-4CFE-A842-1DBF20CFC01B</title>
  <g id="LAB-A:-Zapier-integration-discoverability" stroke="none" stroke-width="1" fill="none" fill-rule="evenodd">
    <g id="Third-party-via-Zapier" transform="translate(-414.000000, -682.000000)" >
      <g id="Integration-item-Amazon" transform="translate(414.000000, 682.000000)">
        <g id="amazon-seller-central_logo" transform="translate(34.000000, 21.000000)">
          <g id="amazon-logo_rgb" transform="translate(1.939394, 0.000000)">
            <path d="M13.6839834,18.2771208 C20.5483485,22.3533722 29.0373747,24.8084903 37.8052092,24.8084903 C43.7195607,24.8084903 50.2210733,23.5559029 56.2036927,20.9661294 C57.1058041,20.5756289 57.8622008,21.5726639 56.9793077,22.2386224 C51.6429387,26.2574989 43.9065802,28.3947133 37.2444373,28.3947133 C27.9077993,28.3947133 19.4996619,24.872598 13.1372666,19.0095288 C12.6378784,18.549066 13.0833407,17.9205769 13.6839834,18.2771208 Z M61.4775305,17.8772529 C62.0632575,18.6166864 61.3232106,23.7379803 58.4608355,26.1816821 C58.0205363,26.5575461 57.60175,26.3570267 57.7968011,25.8608511 C58.4413303,24.2189341 59.8832744,20.5437215 59.2000218,19.6511907 C58.5173429,18.7595381 54.6886042,19.2287828 52.9678519,19.4389622 C52.4469506,19.5027771 52.3660618,19.0379234 52.8356186,18.7015778 C55.8907501,16.5119649 60.8955324,17.1439668 61.4775305,17.8772529 Z" id="Combined-Shape" fill="#EC912D" />
            <path d="M53.0891851,3.2337773 L53.0891851,1.1062229 C53.091193,0.782171896 53.329557,0.56672335 53.617831,0.567601537 L62.96164,0.56672335 C63.2602403,0.56672335 63.5003253,0.788611935 63.5003253,1.10358834 L63.5003253,2.92816822 C63.4974569,3.23436275 63.244751,3.63364511 62.7969939,4.26769614 L57.956571,11.3198305 C59.7530491,11.2770922 61.6539371,11.5519646 63.2860559,12.488112 C63.6543583,12.6991696 63.7530313,13.0115115 63.782002,13.3182915 L63.782002,15.5886976 C63.782002,15.9010395 63.4461126,16.263438 63.0935864,16.0746278 C60.2180166,14.537215 56.4013251,14.3694814 53.2211314,16.0939479 C52.8961418,16.2701707 52.5562366,15.9133341 52.5562366,15.600114 L52.5562366,13.4424085 C52.5562366,13.0966956 52.5628339,12.506554 52.9041734,11.9802271 L58.5116061,3.77005683 L53.6293046,3.7697641 C53.3307043,3.7697641 53.091193,3.55255918 53.0891851,3.2337773" id="Fill-5" fill="#002F36" />
            <path d="M19.0057235,16.5219177 L16.1631402,16.5219177 C15.8926502,16.5040612 15.6766598,16.2968091 15.6545731,16.0315966 L15.6568679,1.14281403 C15.6568679,0.844523174 15.902116,0.606827223 16.2055926,0.606827223 L18.8528378,0.605949037 C19.1296383,0.620292757 19.3519391,0.834277659 19.3691496,1.1062229 L19.3691496,3.04994349 L19.4227887,3.04994349 C20.1126386,1.17003783 21.4128837,0.292729003 23.1637544,0.292729003 C24.9415879,0.292729003 26.0562477,1.17003783 26.8522283,3.04994349 C27.5423651,1.17003783 29.1079371,0.292729003 30.7796399,0.292729003 C31.9737543,0.292729003 33.2737127,0.793881057 34.0696933,1.92205863 C34.9718048,3.17552422 34.786793,4.99220042 34.786793,6.59020805 L34.7839246,15.9862236 C34.7839246,16.2833435 34.5386766,16.5219177 34.2354868,16.5219177 L31.3963456,16.5219177 C31.1109399,16.5034758 30.8866312,16.273098 30.8866312,15.9873945 L30.8857706,8.09395694 C30.8857706,7.46810232 30.938836,5.90112398 30.8057423,5.30600591 C30.5937677,4.30311635 29.9566964,4.02063286 29.1346132,4.02063286 C28.4444765,4.02063286 27.7279505,4.49075564 27.4356606,5.24277644 C27.1442314,5.99508998 27.1706206,7.24767739 27.1706206,8.09395694 L27.1706206,15.9862236 C27.1706206,16.2833435 26.9253725,16.5219177 26.6224696,16.5219177 L23.7833284,16.5219177 C23.4976359,16.5034758 23.2727535,16.273098 23.2727535,15.9873945 L23.2698851,8.09395694 C23.2698851,6.43359803 23.5352119,3.99018904 21.5190145,3.99018904 C19.4752803,3.99018904 19.5553086,6.3706613 19.5553086,8.09395694 L19.5541613,15.9862236 C19.5541613,16.2833435 19.3086264,16.5219177 19.0057235,16.5219177" id="Fill-6" fill="#002F36" />
            <path d="M71.544176,0.292729003 C75.7633038,0.292729003 78.0448282,3.99018904 78.0448282,8.68966046 C78.0448282,13.2319364 75.524653,16.8360159 71.544176,16.8360159 C67.4047898,16.8360159 65.1487941,13.1379704 65.1487941,8.53275772 C65.1487941,3.89563757 67.4308921,0.292729003 71.544176,0.292729003 Z M71.5699916,3.33213424 C69.4737657,3.33213424 69.3415044,6.24537328 69.3415044,8.06292766 L69.3416041,8.35797507 C69.344732,10.2681511 69.4294527,13.7649959 71.544176,13.7649959 C73.7471063,13.7649959 73.8526633,10.6316246 73.8526633,8.72127519 C73.8526633,7.46810232 73.799598,5.96406071 73.4275667,4.77323913 C73.1091744,3.73902756 72.472103,3.33213424 71.5699916,3.33213424 Z" id="Fill-7" fill="#002F36" />
            <path d="M83.5165856,16.5219177 L80.6840419,16.5219177 C80.3994967,16.5034758 80.1743274,16.273098 80.1743274,15.9873945 L80.1697379,1.09275737 C80.1935456,0.820226667 80.429328,0.606827223 80.7155942,0.606827223 L83.3522264,0.605949037 C83.6006298,0.619414571 83.8054334,0.791831953 83.8573514,1.02279514 L83.8573514,3.30051951 L83.9109905,3.30051951 C84.7072579,1.26341838 85.8210573,0.292729003 87.7847631,0.292729003 C89.0583321,0.292729003 90.3057987,0.762266324 91.1017794,2.04734665 C91.8446947,3.23787551 91.8446947,5.24277644 91.8446947,6.68417405 L91.8446947,16.0535512 C91.8131423,16.3170073 91.5808019,16.5219177 91.2999858,16.5219177 L88.4505183,16.5219177 C88.1871994,16.5049393 87.9749379,16.3073473 87.9445329,16.0535512 L87.9445329,7.96954711 C87.9445329,6.34021748 88.1304051,3.95857431 86.1666993,3.95857431 C85.4765625,3.95857431 84.839778,4.42869708 84.5213857,5.14881044 C84.123252,6.05773399 84.0698998,6.96577936 84.0698998,7.96954711 L84.0698998,15.9862236 C84.0650235,16.2833435 83.8194886,16.5219177 83.5165856,16.5219177" id="Fill-8" fill="#002F36" />
            <path d="M44.0981892,0.148706333 C45.481331,0.148706333 47.2892828,0.525155832 48.3795611,1.59303123 C49.7629899,2.9117754 49.6293225,4.67049125 49.6293225,6.58640257 L49.6293225,11.1052602 C49.6293225,12.4652791 50.1832103,13.0612754 50.7023905,13.7933907 C50.8839601,14.0580177 50.9244045,14.3715304 50.6929248,14.5647315 C50.1126477,15.0614927 49.0811715,15.9756854 48.5132285,16.4914738 L48.5063443,16.4850338 C48.3184643,16.6571584 48.0471138,16.6685749 47.8348522,16.5523614 C46.891149,15.7517476 46.7219135,15.3817382 46.2053148,14.6191792 C44.6451928,16.2414832 43.5402855,16.7282916 41.5186381,16.7282916 C39.1258198,16.7282916 37.2639422,15.2204445 37.2639422,12.2065067 C37.2639422,9.85150187 38.5139904,8.25027422 40.2955528,7.46546777 C41.837604,6.77433459 43.9920584,6.64875385 45.6411009,6.45994364 L45.6411009,6.08320141 C45.6411009,5.39206824 45.6941662,4.57652524 45.2948851,3.9796508 C44.9489563,3.4457131 44.2846351,3.22587361 43.6994817,3.22587361 C42.615227,3.22587361 41.6517318,3.79259696 41.4145152,4.96761118 C41.3651788,5.22931091 41.178446,5.48808335 40.9208638,5.50154888 L38.1657667,5.19681799 C37.9328528,5.14295585 37.6746969,4.95297473 37.7412438,4.58999077 C38.3751599,1.17911243 41.3935759,0.148706333 44.0981892,0.148706333 Z M45.6411009,8.7839192 C43.5844589,8.7839192 41.4127942,9.23296549 41.4127942,11.703891 C41.4127942,12.9599912 42.0507261,13.8080271 43.1410044,13.8080271 C43.9384193,13.8080271 44.6566664,13.3051186 45.1087261,12.4892829 C45.6672033,11.4840516 45.6411009,10.542635 45.6411009,9.41182291 Z" id="Fill-9" fill="#002F36" />
            <path d="M6.83396009,0.148706333 C8.21681513,0.148706333 10.0250537,0.525155832 11.1153321,1.59303123 C12.4377886,2.85443869 12.3740397,4.51839114 12.3659964,6.3374158 L12.3653803,11.1052602 C12.3653803,12.4652791 12.9184076,13.0612754 13.4378746,13.7933907 C13.6188706,14.0580177 13.6604624,14.3715304 13.4289825,14.5647315 C12.8481318,15.0614927 11.8160819,15.9756854 11.2487127,16.4914738 L11.2421153,16.4850338 C11.0545221,16.6571584 10.7825979,16.6685749 10.5706232,16.5523614 C9.62605946,15.7517476 9.45682393,15.3817382 8.94137267,14.6191792 C7.38039006,16.2414832 6.27548285,16.7282916 4.25469591,16.7282916 C1.86130396,16.7282916 0,15.2204445 0,12.2065067 C0,9.85150187 1.24947451,8.25027422 3.03132383,7.46546777 C4.57337501,6.77433459 6.72782934,6.64875385 8.37601127,6.45994364 L8.37601127,6.08320141 C8.37601127,5.39206824 8.42965033,4.57652524 8.0309429,3.9796508 C7.68472716,3.4457131 7.01983233,3.22587361 6.43525266,3.22587361 C5.35099792,3.22587361 4.38664225,3.79259696 4.15057303,4.96761118 C4.10123657,5.22931091 3.91421698,5.48808335 3.65663476,5.50154888 L0.901537736,5.19681799 C0.668623755,5.14295585 0.409894185,4.95297473 0.477014716,4.58999077 C1.11007033,1.17911243 4.12848636,0.148706333 6.83396009,0.148706333 Z M8.37601127,8.7839192 C6.32022987,8.7839192 4.14799148,9.23296549 4.14799148,11.703891 C4.14799148,12.9599912 4.78678388,13.8080271 5.87648858,13.8080271 C6.67447711,13.8080271 7.39272417,13.3051186 7.84449698,12.4892829 C8.40268738,11.4840516 8.37601127,10.542635 8.37601127,9.41182291 Z" id="Fill-11" fill="#002F36" />
          </g>
          <path d="M3.5078125,43.7926136 C4.58072917,43.7926136 5.4140625,43.5764678 6.0078125,43.1441761 C6.6015625,42.7118845 6.8984375,42.0973011 6.8984375,41.3004261 C6.8984375,40.7327178 6.72005208,40.2613636 6.36328125,39.8863636 C6.00651042,39.5113636 5.3203125,39.1389678 4.3046875,38.7691761 C3.56510417,38.4931345 3.06510417,38.282197 2.8046875,38.1363636 C2.54427083,37.9905303 2.35546875,37.8368845 2.23828125,37.6754261 C2.12109375,37.5139678 2.0625,37.3186553 2.0625,37.0894886 C2.0625,36.750947 2.21875,36.485322 2.53125,36.2926136 C2.84375,36.0999053 3.30729167,36.0035511 3.921875,36.0035511 C4.61979167,36.0035511 5.3984375,36.1806345 6.2578125,36.5348011 L6.2578125,36.5348011 L6.71875,35.4801136 C5.83854167,35.1051136 4.9375,34.9176136 4.015625,34.9176136 C3.02604167,34.9176136 2.24739583,35.1194366 1.6796875,35.5230824 C1.11197917,35.9267282 0.828125,36.4775095 0.828125,37.1754261 C0.828125,37.5660511 0.91015625,37.9019886 1.07421875,38.1832386 C1.23828125,38.4644886 1.48828125,38.7157907 1.82421875,38.9371449 C2.16015625,39.1584991 2.7265625,39.4176136 3.5234375,39.7144886 C4.36197917,40.0374053 4.92578125,40.3173532 5.21484375,40.5543324 C5.50390625,40.7913116 5.6484375,41.0764678 5.6484375,41.4098011 C5.6484375,41.8525095 5.46614583,42.1819366 5.1015625,42.3980824 C4.73697917,42.6142282 4.21614583,42.7223011 3.5390625,42.7223011 C3.1015625,42.7223011 2.64713542,42.6624053 2.17578125,42.5426136 C1.70442708,42.422822 1.26302083,42.2587595 0.8515625,42.0504261 L0.8515625,42.0504261 L0.8515625,43.2535511 C1.48697917,43.6129261 2.37239583,43.7926136 3.5078125,43.7926136 Z M12.625,43.7926136 C13.203125,43.7926136 13.6966146,43.7496449 14.1054688,43.6637074 C14.5143229,43.5777699 14.9479167,43.4358428 15.40625,43.2379261 L15.40625,43.2379261 L15.40625,42.0816761 C14.5052083,42.4670928 13.59375,42.6598011 12.671875,42.6598011 C11.796875,42.6598011 11.1184896,42.3993845 10.6367188,41.8785511 C10.1549479,41.3577178 9.90104167,40.594697 9.875,39.5894886 L9.875,39.5894886 L15.7734375,39.5894886 L15.7734375,38.7691761 C15.7734375,37.6129261 15.4609375,36.6819366 14.8359375,35.9762074 C14.2109375,35.2704782 13.3619792,34.9176136 12.2890625,34.9176136 C11.1432292,34.9176136 10.2304688,35.3238636 9.55078125,36.1363636 C8.87109375,36.9488636 8.53125,38.0452178 8.53125,39.4254261 C8.53125,40.7952178 8.89713542,41.8655303 9.62890625,42.6363636 C10.3606771,43.407197 11.359375,43.7926136 12.625,43.7926136 Z M14.3828125,38.5348011 L9.90625,38.5348011 C9.97916667,37.7431345 10.2200521,37.1233428 10.6289062,36.6754261 C11.0377604,36.2275095 11.5859375,36.0035511 12.2734375,36.0035511 C12.9505208,36.0035511 13.4713542,36.2209991 13.8359375,36.6558949 C14.2005208,37.0907907 14.3828125,37.7170928 14.3828125,38.5348011 L14.3828125,38.5348011 Z M19.28125,43.6363636 L19.28125,31.4801136 L17.984375,31.4801136 L17.984375,43.6363636 L19.28125,43.6363636 Z M23.328125,43.6363636 L23.328125,31.4801136 L22.03125,31.4801136 L22.03125,43.6363636 L23.328125,43.6363636 Z M29.6953125,43.7926136 C30.2734375,43.7926136 30.7669271,43.7496449 31.1757812,43.6637074 C31.5846354,43.5777699 32.0182292,43.4358428 32.4765625,43.2379261 L32.4765625,43.2379261 L32.4765625,42.0816761 C31.5755208,42.4670928 30.6640625,42.6598011 29.7421875,42.6598011 C28.8671875,42.6598011 28.1888021,42.3993845 27.7070312,41.8785511 C27.2252604,41.3577178 26.9713542,40.594697 26.9453125,39.5894886 L26.9453125,39.5894886 L32.84375,39.5894886 L32.84375,38.7691761 C32.84375,37.6129261 32.53125,36.6819366 31.90625,35.9762074 C31.28125,35.2704782 30.4322917,34.9176136 29.359375,34.9176136 C28.2135417,34.9176136 27.3007812,35.3238636 26.6210938,36.1363636 C25.9414062,36.9488636 25.6015625,38.0452178 25.6015625,39.4254261 C25.6015625,40.7952178 25.9674479,41.8655303 26.6992188,42.6363636 C27.4309896,43.407197 28.4296875,43.7926136 29.6953125,43.7926136 Z M31.453125,38.5348011 L26.9765625,38.5348011 C27.0494792,37.7431345 27.2903646,37.1233428 27.6992188,36.6754261 C28.1080729,36.2275095 28.65625,36.0035511 29.34375,36.0035511 C30.0208333,36.0035511 30.5416667,36.2209991 30.90625,36.6558949 C31.2708333,37.0907907 31.453125,37.7170928 31.453125,38.5348011 L31.453125,38.5348011 Z M36.3515625,43.6363636 L36.3515625,39.0426136 C36.3515625,38.204072 36.5976562,37.5035511 37.0898438,36.9410511 C37.5820312,36.3785511 38.1744792,36.0973011 38.8671875,36.0973011 C39.1380208,36.0973011 39.4505208,36.1363636 39.8046875,36.2144886 L39.8046875,36.2144886 L39.984375,35.0113636 C39.6822917,34.9488636 39.3411458,34.9176136 38.9609375,34.9176136 C38.4244792,34.9176136 37.9322917,35.0686553 37.484375,35.3707386 C37.0364583,35.672822 36.6536458,36.1025095 36.3359375,36.6598011 L36.3359375,36.6598011 L36.2734375,36.6598011 L36.125,35.0738636 L35.0546875,35.0738636 L35.0546875,43.6363636 L36.3515625,43.6363636 Z M49.1640625,43.7926136 C50.0338542,43.7926136 50.7552083,43.6441761 51.328125,43.3473011 L51.328125,43.3473011 L51.328125,42.1988636 C50.578125,42.5061553 49.8463542,42.6598011 49.1328125,42.6598011 C48.2994792,42.6598011 47.6705729,42.3785511 47.2460938,41.8160511 C46.8216146,41.2535511 46.609375,40.4462595 46.609375,39.3941761 C46.609375,37.1754261 47.4791667,36.0660511 49.21875,36.0660511 C49.4791667,36.0660511 49.7786458,36.1038116 50.1171875,36.1793324 C50.4557292,36.2548532 50.7682292,36.3499053 51.0546875,36.4644886 L51.0546875,36.4644886 L51.453125,35.3629261 C51.21875,35.2431345 50.8958333,35.1389678 50.484375,35.0504261 C50.0729167,34.9618845 49.6614583,34.9176136 49.25,34.9176136 C47.9739583,34.9176136 46.9908854,35.3082386 46.3007812,36.0894886 C45.6106771,36.8707386 45.265625,37.9775095 45.265625,39.4098011 C45.265625,40.8056345 45.6054688,41.8850616 46.2851562,42.6480824 C46.9648438,43.4111032 47.9244792,43.7926136 49.1640625,43.7926136 Z M56.9765625,43.7926136 C57.5546875,43.7926136 58.0481771,43.7496449 58.4570312,43.6637074 C58.8658854,43.5777699 59.2994792,43.4358428 59.7578125,43.2379261 L59.7578125,43.2379261 L59.7578125,42.0816761 C58.8567708,42.4670928 57.9453125,42.6598011 57.0234375,42.6598011 C56.1484375,42.6598011 55.4700521,42.3993845 54.9882812,41.8785511 C54.5065104,41.3577178 54.2526042,40.594697 54.2265625,39.5894886 L54.2265625,39.5894886 L60.125,39.5894886 L60.125,38.7691761 C60.125,37.6129261 59.8125,36.6819366 59.1875,35.9762074 C58.5625,35.2704782 57.7135417,34.9176136 56.640625,34.9176136 C55.4947917,34.9176136 54.5820312,35.3238636 53.9023438,36.1363636 C53.2226562,36.9488636 52.8828125,38.0452178 52.8828125,39.4254261 C52.8828125,40.7952178 53.2486979,41.8655303 53.9804688,42.6363636 C54.7122396,43.407197 55.7109375,43.7926136 56.9765625,43.7926136 Z M58.734375,38.5348011 L54.2578125,38.5348011 C54.3307292,37.7431345 54.5716146,37.1233428 54.9804688,36.6754261 C55.3893229,36.2275095 55.9375,36.0035511 56.625,36.0035511 C57.3020833,36.0035511 57.8229167,36.2209991 58.1875,36.6558949 C58.5520833,37.0907907 58.734375,37.7170928 58.734375,38.5348011 L58.734375,38.5348011 Z M63.6328125,43.6363636 L63.6328125,39.1441761 C63.6328125,38.0295928 63.8411458,37.2301136 64.2578125,36.7457386 C64.6744792,36.2613636 65.3307292,36.0191761 66.2265625,36.0191761 C66.9036458,36.0191761 67.4010417,36.1910511 67.71875,36.5348011 C68.0364583,36.8785511 68.1953125,37.3993845 68.1953125,38.0973011 L68.1953125,38.0973011 L68.1953125,43.6363636 L69.4921875,43.6363636 L69.4921875,38.0504261 C69.4921875,36.9566761 69.2317708,36.1611032 68.7109375,35.6637074 C68.1901042,35.1663116 67.4140625,34.9176136 66.3828125,34.9176136 C65.7942708,34.9176136 65.2604167,35.0334991 64.78125,35.2652699 C64.3020833,35.4970407 63.9296875,35.8238636 63.6640625,36.2457386 L63.6640625,36.2457386 L63.6015625,36.2457386 L63.390625,35.0738636 L62.3359375,35.0738636 L62.3359375,43.6363636 L63.6328125,43.6363636 Z M74.734375,43.7926136 C74.953125,43.7926136 75.1992188,43.7704782 75.4726562,43.7262074 C75.7460938,43.6819366 75.953125,43.625947 76.09375,43.5582386 L76.09375,43.5582386 L76.09375,42.5660511 C75.96875,42.6025095 75.7994792,42.6376657 75.5859375,42.6715199 C75.3723958,42.7053741 75.1510417,42.7223011 74.921875,42.7223011 C74.4947917,42.7223011 74.1588542,42.5842803 73.9140625,42.3082386 C73.6692708,42.032197 73.546875,41.6363636 73.546875,41.1207386 L73.546875,41.1207386 L73.546875,36.0816761 L76.03125,36.0816761 L76.03125,35.0738636 L73.546875,35.0738636 L73.546875,33.0894886 L72.796875,33.0894886 L72.25,34.9176136 L71.0234375,35.4566761 L71.0234375,36.0816761 L72.25,36.0816761 L72.25,41.1754261 C72.25,42.9202178 73.078125,43.7926136 74.734375,43.7926136 Z M79.1015625,43.6363636 L79.1015625,39.0426136 C79.1015625,38.204072 79.3476562,37.5035511 79.8398438,36.9410511 C80.3320312,36.3785511 80.9244792,36.0973011 81.6171875,36.0973011 C81.8880208,36.0973011 82.2005208,36.1363636 82.5546875,36.2144886 L82.5546875,36.2144886 L82.734375,35.0113636 C82.4322917,34.9488636 82.0911458,34.9176136 81.7109375,34.9176136 C81.1744792,34.9176136 80.6822917,35.0686553 80.234375,35.3707386 C79.7864583,35.672822 79.4036458,36.1025095 79.0859375,36.6598011 L79.0859375,36.6598011 L79.0234375,36.6598011 L78.875,35.0738636 L77.8046875,35.0738636 L77.8046875,43.6363636 L79.1015625,43.6363636 Z M86.4140625,43.7926136 C87.0494792,43.7926136 87.5794271,43.6975616 88.0039062,43.5074574 C88.4283854,43.3173532 88.8541667,42.954072 89.28125,42.4176136 L89.28125,42.4176136 L89.34375,42.4176136 L89.6015625,43.6363636 L90.5625,43.6363636 L90.5625,37.7926136 C90.5625,36.7926136 90.3164062,36.0660511 89.8242188,35.6129261 C89.3320312,35.1598011 88.5755208,34.9332386 87.5546875,34.9332386 C87.0494792,34.9332386 86.5455729,34.9983428 86.0429688,35.1285511 C85.5403646,35.2587595 85.078125,35.438447 84.65625,35.6676136 L84.65625,35.6676136 L85.0546875,36.6598011 C85.9557292,36.2223011 86.7630208,36.0035511 87.4765625,36.0035511 C88.1119792,36.0035511 88.5742188,36.1637074 88.8632812,36.4840199 C89.1523438,36.8043324 89.296875,37.3004261 89.296875,37.9723011 L89.296875,37.9723011 L89.296875,38.5035511 L87.84375,38.5504261 C85.078125,38.6337595 83.6953125,39.5400095 83.6953125,41.2691761 C83.6953125,42.0764678 83.9361979,42.6988636 84.4179688,43.1363636 C84.8997396,43.5738636 85.5651042,43.7926136 86.4140625,43.7926136 Z M86.671875,42.7223011 C86.1614583,42.7223011 85.7643229,42.5999053 85.4804688,42.3551136 C85.1966146,42.110322 85.0546875,41.7535511 85.0546875,41.2848011 C85.0546875,40.6858428 85.2825521,40.2444366 85.7382812,39.9605824 C86.1940104,39.6767282 86.9375,39.516572 87.96875,39.4801136 L87.96875,39.4801136 L89.265625,39.4254261 L89.265625,40.1988636 C89.265625,40.9957386 89.0351562,41.6155303 88.5742188,42.0582386 C88.1132812,42.500947 87.4791667,42.7223011 86.671875,42.7223011 Z M94.53125,43.6363636 L94.53125,31.4801136 L93.234375,31.4801136 L93.234375,43.6363636 L94.53125,43.6363636 Z" id="sellercentral" fill="#002F36" />
        </g>
      </g>
    </g>
  </g>
</svg>
