<?xml version="1.0" encoding="UTF-8"?>
<svg width="165px" height="80px" viewBox="0 0 165 80" version="1.1" xmlns="http://www.w3.org/2000/svg" xmlns:xlink="http://www.w3.org/1999/xlink">
    <!-- Generator: sketchtool 55 (78076) - https://sketchapp.com -->
    <title>F1A55E9B-4634-4F2D-8D26-D1A76412161D</title>
    <desc>Created with sketchtool.</desc>
    <g id="XERO-integr" stroke="none" stroke-width="1" fill="none" fill-rule="evenodd">
        <g id="Factory-Integration" transform="translate(-382.000000, -383.000000)" fill-rule="nonzero">
            <g id="XERO-logo" transform="translate(382.000000, 383.000000)">
                <path d="M82.9992624,14 C68.6385347,14 57,25.641155 57,40 C57,54.3575337 68.6385347,66 82.9992624,66 C97.3557281,66 109,54.3575337 109,40 C109,25.641155 97.3557281,14 82.9992624,14" id="Path" fill="#13B5EA"></path>
                <path d="M83.5058839,34.7258456 C82.5734126,34.1479997 81.4851998,33.8426954 80.3587522,33.8426954 C79.1159516,33.8426954 77.9326457,34.2072619 76.9367242,34.8970474 C75.3801334,35.9759715 74.4509581,37.738257 74.4509581,39.611679 C74.4509581,40.0819216 74.5106179,40.5487916 74.6281243,40.9991195 C75.2263695,43.28031 77.2383188,45.0056569 79.6347601,45.2923315 C79.8664772,45.3193127 80.0985237,45.3331244 80.3243077,45.3331244 C80.804387,45.3331244 81.2714467,45.2735411 81.751526,45.1518048 C82.3756458,45.0054964 82.9702651,44.759133 83.5193981,44.419781 C84.0382068,44.0921529 84.5159788,43.6506581 85.0184717,43.0349102 L85.0514329,43.0016655 C85.2187108,42.7981829 85.2964992,42.5365622 85.2646916,42.2840959 C85.2361803,42.058129 85.1252658,41.8629975 84.9525494,41.7349978 C84.7887324,41.6119767 84.5936024,41.5442026 84.4032517,41.5442026 C84.2176802,41.5442026 83.9450915,41.6097282 83.698542,41.922902 L83.6792596,41.9479559 C83.5978456,42.0537926 83.5136298,42.1631627 83.4167241,42.2717295 C83.0846402,42.6353324 82.70295,42.9348551 82.2830248,43.1617858 C81.6818132,43.4741566 81.0323135,43.6349191 80.3539728,43.6397372 C78.2230336,43.6169317 76.9181011,42.2346305 76.408192,40.9507782 C76.3280964,40.7196721 76.2709086,40.508641 76.2341569,40.3130279 C76.2334978,40.2931133 76.2320145,40.2723955 76.2306961,40.2519991 L84.48104,40.2505536 C85.0540698,40.2386691 85.5341491,40.0347046 85.8326124,39.6764016 C86.1027292,39.3519856 86.2042496,38.9276752 86.1180561,38.4803986 C85.7668549,36.8596036 84.8635543,35.5612972 83.5058839,34.7258456 L83.5058839,34.7258456 Z M76.2954648,38.5835052 C76.7659854,36.7854054 78.4239319,35.5303009 80.3289223,35.5303009 C82.243801,35.5303009 83.8940016,36.7821934 84.3665,38.5835052 L76.2954648,38.5835052 Z M97.7835061,38.10989 C96.9532144,38.10989 96.2776754,38.7665914 96.2776754,39.5736164 C96.2776754,40.3809626 96.9532144,41.0376639 97.7835061,41.0376639 C98.6121497,41.0376639 99.2863704,40.3809626 99.2863704,39.5736164 C99.2863704,38.7665914 98.6121497,38.10989 97.7835061,38.10989 L97.7835061,38.10989 Z M92.3828195,34.7592509 C92.3828195,34.3005717 91.9981627,33.9274933 91.5264885,33.9274933 L91.2853776,33.9241207 C90.5534751,33.9241207 89.8614555,34.1427 89.2785372,34.5572136 C89.1669636,34.2215555 88.8404834,33.9856312 88.4723071,33.9856312 C87.9978312,33.9856312 87.6238868,34.3481099 87.6209203,34.8111253 L87.623722,44.393924 C87.6268533,44.8505156 88.0080492,45.2218272 88.4737904,45.2218272 C88.9423334,45.2218272 89.323694,44.8503548 89.323694,44.3936029 L89.323694,38.5001528 C89.323694,36.5907558 89.4924551,35.792564 91.1901199,35.5879571 C91.3308641,35.5715757 91.481991,35.5706121 91.5203907,35.5706121 C92.020082,35.5529458 92.3828195,35.2118272 92.3828195,34.7592509 L92.3828195,34.7592509 Z M69.9939496,39.5736164 L74.3967369,35.2693228 C74.5577523,35.1153055 74.6465826,34.9082895 74.6465826,34.6864982 C74.6465826,34.228622 74.2625851,33.8560254 73.790746,33.8560254 C73.5623251,33.8560254 73.3469239,33.9441958 73.1844255,34.1039948 L68.7813085,38.3866072 L64.3607221,34.0959648 C64.199542,33.9413051 63.9859537,33.8560254 63.7590161,33.8560254 C63.2894843,33.8560254 62.9076292,34.228622 62.9076292,34.6864982 C62.9076292,34.9087714 62.9987668,35.1196418 63.1642319,35.2800831 L67.5701505,39.5702436 L63.1708241,43.8657041 C63.0010741,44.023576 62.9076292,44.2355705 62.9076292,44.4623404 C62.9076292,44.9200561 63.2894843,45.2926528 63.7590161,45.2926528 C63.9824927,45.2926528 64.1960811,45.2078548 64.3610517,45.0530346 L68.7770235,40.7532378 L73.1738778,45.0329593 C73.3424741,45.2017521 73.5615011,45.2947405 73.790746,45.2947405 C74.2625851,45.2947405 74.6465826,44.921341 74.6465826,44.4623404 C74.6465826,44.2431188 74.5579171,44.0354605 74.3970666,43.8771069 L69.9939496,39.5736164 Z M97.7835061,33.8272776 C94.5312282,33.8272776 91.8852707,36.4050999 91.8852707,39.5736164 C91.8852707,42.7413297 94.5312282,45.3185097 97.7835061,45.3185097 C101.034136,45.3185097 103.678775,42.7413297 103.678775,39.5736164 C103.678775,36.4050999 101.034136,33.8272776 97.7835061,33.8272776 Z M97.7835061,43.5997473 C95.5034176,43.5997473 93.6485282,41.7936174 93.6485282,39.5736164 C93.6485282,37.3510456 95.5034176,35.5428279 97.7835061,35.5428279 C100.061122,35.5428279 101.914034,37.3510456 101.914034,39.5736164 C101.914034,41.7936174 100.061122,43.5997473 97.7835061,43.5997473 Z" id="Shape" fill="#FFFFFF"></path>
            </g>
        </g>
    </g>
</svg>