<?xml version="1.0" encoding="UTF-8"?>
<svg width="165px" height="80px" viewBox="0 0 165 80" version="1.1" xmlns="http://www.w3.org/2000/svg">
  <title>11FD5532-07FF-427A-85B7-55FF0F57A164</title>
  <g id="Master:-Integrations-page" stroke="none" stroke-width="1" fill="none" fill-rule="evenodd">
    <g id="Third-party-via-Zapier" transform="translate(-414.000000, -1627.000000)">
      <g id="Integration-item-Shift4shop" transform="translate(414.000000, 1627.000000)">
        <g id="Shift4shop_logo" transform="translate(8.574845, 31.000000)">
          <path d="M9.06236562,2.26358011 C5.32633331,2.26358011 3.45831715,2.26358011 3.45831715,2.26358011 C2.46067735,2.26358011 -5.8659401e-14,3.24644244 -5.8659401e-14,6.11676911 C-5.8659401e-14,8.98709578 2.10035483,9.53932016 2.72241485,9.76329771 C3.34447488,9.98727527 5.81796199,10.611556 6.77193007,10.9104461 C7.72589814,11.2093362 8.2708037,11.9602399 8.2708037,13.2539173 C8.2708037,14.5475947 7.45915755,15.5466908 6.4898362,15.5466908 C5.84362196,15.5466908 3.90135691,15.5466908 0.663041055,15.5466908 L0.663041055,17.1529175 C4.73563373,17.1529175 6.77193007,17.1529175 6.77193007,17.1529175 C7.91832504,17.1529175 10.026696,15.9266279 10.026696,13.2539173 C10.026696,10.5812067 8.36370076,9.60208417 7.51463244,9.29618019 C7.51463244,9.29618019 4.00360105,8.27886903 3.36300795,8.06647907 C2.72241485,7.85408911 1.9157073,7.40211668 1.9157073,6.11676911 C1.9157073,4.83142155 2.72241485,3.9437581 3.73667197,3.9437581 C3.73667197,3.9437581 5.51190319,3.9437581 9.06236562,3.9437581 L9.06236562,2.26358011 Z" id="Path-2" fill="#2A2D32" />
          <path d="M18.0397652,17.0271271 L16.2338578,17.0271271 L16.2338578,2.32188096 L18.0397652,2.32188096 L18.0397652,9.02953708 L23.5864809,9.02953708 L23.5864809,2.32188096 L25.3923883,2.32188096 L25.3923883,17.0271271 L23.5864809,17.0271271 L23.5864809,10.7064511 L18.0397652,10.7064511 L18.0397652,17.0271271 Z" id="Combined-Shape" fill="#2A2D32" />
          <rect id="Rectangle-Copy-4" fill="#2A2D32" x="32.3580312" y="2.32188096" width="1.80590742" height="14.7052461" />
          <path d="M42.6775021,17.0271271 L40.8715947,17.0271271 L40.8715947,2.32188096 L48.0952244,2.32188096 L48.0952244,3.99879499 L42.6775021,3.99879499 L42.6775021,9.02953708 L47.1922707,9.02953708 L47.1922707,10.7064511 L42.6775021,10.7064511 L42.6775021,17.0271271 Z" id="Combined-Shape" fill="#2A2D32" />
          <path d="M64.7353713,2.32188096 L64.7353713,3.99879499 L60.4779003,3.99788096 L60.4785895,17.0271271 L58.6726821,17.0271271 L58.6719003,3.99788096 L54.4159003,3.99879499 L54.4159003,2.32188096 L64.7353713,2.32188096 Z" id="Combined-Shape" fill="#2A2D32" />
          <path d="M78.1506835,0 C83.4937645,0 87.8251875,4.33142299 87.8251875,9.67450402 C87.8251875,15.017585 83.4937645,19.349008 78.1506835,19.349008 C72.8076025,19.349008 68.4761795,15.017585 68.4761795,9.67450402 C68.4761795,4.33142299 72.8076025,0 78.1506835,0 Z M78.1506835,1.41892726 C73.5912544,1.41892726 69.8951067,5.11507487 69.8951067,9.67450402 C69.8951067,14.2339332 73.5912544,17.9300808 78.1506835,17.9300808 C82.7101127,17.9300808 86.4062603,14.2339332 86.4062603,9.67450402 C86.4062603,5.11507487 82.7101127,1.41892726 78.1506835,1.41892726 Z" id="Combined-Shape" fill="#1E76F7" />
          <path d="M80.3829549,4.15334045 L80.3829549,15.1190474 L79.0545777,15.1190474 L79.0545777,12.0496827 L73.9303203,12.0496827 L73.9303203,11.0609296 L79.3084541,4.15334045 L80.3829549,4.15334045 Z M79.053928,6.65078784 L75.6281092,10.859238 L79.053928,10.859238 L79.053928,6.65078784 Z" id="Combined-Shape" fill="#2A2D32" />
          <path d="M101.163644,2.16038537 C97.4276115,2.16038537 95.5595954,2.16038537 95.5595954,2.16038537 C94.5619556,2.16038537 92.1012782,3.1432477 92.1012782,6.01357437 C92.1012782,8.88390104 94.2016331,9.43612541 94.8236931,9.66010297 C95.4457531,9.88408052 97.9192402,10.5083613 98.8732083,10.8072514 C99.8271764,11.1061415 100.372082,11.8570451 100.372082,13.1507226 C100.372082,14.4444 99.5604358,15.4434961 98.5911144,15.4434961 C97.9449002,15.4434961 96.0655453,15.4434961 92.9530498,15.4434961 L92.9530498,17.0497227 C96.9741587,17.0497227 98.9847131,17.0497227 98.9847131,17.0497227 C99.8371408,17.0497227 102.025007,15.8234331 102.025007,13.1507226 C102.025007,10.478012 100.464979,9.49888943 99.6159107,9.19298544 C99.6159107,9.19298544 96.0505981,8.14344286 95.4642862,7.96328433 C94.8779743,7.7831258 94.0169855,7.29892193 94.0169855,6.01357437 C94.0169855,4.72822681 94.7636319,3.84056335 95.6580982,3.84056335 C96.2544091,3.84056335 98.089591,3.84056335 101.163644,3.84056335 L101.163644,2.16038537 Z" id="Path-2-Copy" fill="#1E76F7" />
          <path d="M110.270037,17.0271271 L108.464129,17.0271271 L108.464129,2.32188096 L110.270037,2.32188096 L110.270037,9.02953708 L115.816752,9.02953708 L115.816752,2.32188096 L117.62266,2.32188096 L117.62266,17.0271271 L115.816752,17.0271271 L115.816752,10.7064511 L110.270037,10.7064511 L110.270037,17.0271271 Z" id="Combined-Shape-Copy" fill="#1E76F7" />
          <path d="M132.198913,6.19168257 C132.198913,5.69964645 131.72945,4.81960807 131.32735,4.4137748 C130.92525,4.00794153 130.232272,3.74080822 128.974078,3.74080822 C127.715884,3.74080822 126.961331,4.02970761 126.549076,4.37248128 C126.136821,4.71525496 125.62025,5.70167057 125.62025,6.19168257 L125.62025,13.0283321 L125.629137,13.1497048 C125.699105,13.6662918 126.168533,14.5311269 126.549076,14.8475334 C126.961331,15.190307 127.715884,15.4792064 128.974078,15.4792064 C130.232272,15.4792064 130.92525,15.2120731 131.32735,14.8062398 C131.72945,14.4004066 132.198913,13.5203682 132.198913,13.0283321 L132.198913,13.0283321 L132.198913,6.19168257 Z M133.868097,13.287622 C133.801696,14.3933417 133.315257,15.2672249 132.709427,15.9276508 C132.056994,16.6388787 130.990367,17.1465269 128.974078,17.1465269 C126.957788,17.1465269 126.0807,16.5608391 125.407355,15.9835972 C124.776041,15.4423881 123.943336,14.0626097 123.943336,13.0283321 L123.943336,13.0283321 L123.943336,6.19168257 C123.943336,5.15740496 124.776041,3.77762656 125.407355,3.23641745 C126.0807,2.65917553 126.957788,2.07348776 128.974078,2.07348776 C130.990367,2.07348776 132.056994,2.58113599 132.709427,3.29236389 C133.36186,4.00359178 133.875827,4.96237958 133.875827,6.19168257 L133.875827,13.0283321 Z" id="Combined-Shape-Copy-3" fill="#1E76F7" />
          <path d="M142.131403,11.0934313 L142.131403,17.0271271 L140.325496,17.0271271 L140.325496,2.32188096 L146.408758,2.32188096 L146.408758,2.32188096 C147.300963,2.32188096 150,3.66337027 150,6.70765612 C150,9.75194196 147.228853,11.0934313 146.408758,11.0934313 L142.131403,11.0934313 Z M148.35752,6.70765612 C148.35752,4.87026567 146.775165,3.99879499 145.909463,3.99879499 L142.131403,3.99879499 L142.131403,9.41651724 L145.909463,9.41651724 C146.646172,9.41651724 148.35752,8.54504656 148.35752,6.70765612 Z" id="Combined-Shape-Copy-2" fill="#1E76F7" />
        </g>
      </g>
    </g>
  </g>
</svg>
