<svg width="157" height="81" viewBox="0 0 157 81" fill="none" xmlns="http://www.w3.org/2000/svg">
<path d="M35.1419 37.101L31.9198 40.4581L28.7007 43.8183L27.3159 45.2625C26.405 46.2127 25.2443 46.86 23.9806 47.1223C22.7169 47.3846 21.407 47.2502 20.2166 46.7361C19.0262 46.2219 18.0087 45.3512 17.2929 44.234C16.577 43.1168 16.1949 41.8033 16.1949 40.4596C16.1949 39.116 16.577 37.8025 17.2929 36.6853C18.0087 35.5681 19.0262 34.6973 20.2166 34.1832C21.407 33.6691 22.7169 33.5347 23.9806 33.797C25.2443 34.0593 26.405 34.7065 27.3159 35.6568L28.7007 37.101L31.9198 33.7344L30.538 32.2902C28.9901 30.6754 27.0177 29.5756 24.8703 29.1299C22.723 28.6842 20.4971 28.9126 18.4743 29.7862C16.4514 30.6598 14.7224 32.1395 13.5059 34.0379C12.2894 35.9364 11.6401 38.1684 11.6401 40.4517C11.6401 42.735 12.2894 44.9671 13.5059 46.8655C14.7224 48.764 16.4514 50.2436 18.4743 51.1172C20.4971 51.9909 22.723 52.2192 24.8703 51.7735C27.0177 51.3278 28.9901 50.228 30.538 48.6132L31.9198 47.1722L35.1419 43.8183L38.3671 40.4581L35.1419 37.101Z" fill="#46EBC8"/>
<path d="M48.9566 32.2966C46.8807 30.1325 44.0657 28.9167 41.1305 28.9167C38.1954 28.9167 35.3803 30.1325 33.3045 32.2966L31.9197 33.7344L28.7006 37.101L25.4785 40.4581L28.7006 43.8183L31.9197 40.4581L35.1418 37.101L36.5266 35.6568C37.4376 34.7065 38.5983 34.0593 39.8619 33.797C41.1256 33.5347 42.4355 33.6691 43.6259 34.1832C44.8163 34.6973 45.8338 35.5681 46.5497 36.6853C47.2655 37.8025 47.6476 39.116 47.6476 40.4597C47.6476 41.8033 47.2655 43.1168 46.5497 44.234C45.8338 45.3513 44.8163 46.222 43.6259 46.7361C42.4355 47.2502 41.1256 47.3846 39.8619 47.1223C38.5983 46.86 37.4376 46.2128 36.5266 45.2625L35.1418 43.8183L31.9197 47.1785L33.3045 48.6196C35.3801 50.7841 38.1952 52.0001 41.1305 52.0001C44.0659 52.0001 46.881 50.7841 48.9566 48.6196C51.0321 46.455 52.1982 43.5192 52.1982 40.4581C52.1982 37.3969 51.0321 34.4612 48.9566 32.2966Z" fill="#FF00A3"/>
<path d="M67.0716 37.8515C66.9471 37.1168 66.3701 35.9703 64.7484 35.9703C63.5337 35.9703 62.7471 36.7811 62.7471 37.6615C62.7471 38.3963 63.1996 38.979 64.135 39.1659L65.9206 39.5237C68.2438 39.9925 69.489 41.5728 69.489 43.4509C69.489 45.5 67.8491 47.568 64.876 47.568C61.4868 47.568 59.9896 45.2941 59.7922 43.3939L62.1003 42.7605C62.2065 44.0748 63.0903 45.2593 64.8942 45.2593C66.2274 45.2593 66.9653 44.5625 66.9653 43.6251C66.9653 42.8523 66.4065 42.2506 65.4165 42.0415L63.6308 41.652C61.5961 41.2213 60.2903 39.8499 60.2903 37.8515C60.2903 35.4826 62.328 33.6774 64.7423 33.6774C67.843 33.6774 69.0304 35.6314 69.3189 37.1358L67.0716 37.8515Z" fill="black"/>
<path d="M73.7223 47.2736H71.3262V33.6553H73.7223V38.8017C74.2993 38.0891 75.2711 37.7883 76.1184 37.7883C78.3717 37.7883 79.4164 39.4225 79.4164 41.4525V47.2799H77.0203V41.8959C77.0203 40.8603 76.5344 40.0527 75.3804 40.0527C74.3722 40.0527 73.7769 40.8413 73.7223 41.8579V47.2736Z" fill="black"/>
<path d="M83.0394 33.4399C83.3311 33.44 83.6163 33.53 83.8591 33.6986C84.1019 33.8673 84.2915 34.107 84.4039 34.3878C84.5164 34.6685 84.5467 34.9776 84.4911 35.2763C84.4355 35.5749 84.2964 35.8498 84.0914 36.0662C83.8864 36.2826 83.6246 36.431 83.3389 36.4927C83.0532 36.5543 82.7565 36.5265 82.4859 36.4126C82.2154 36.2988 81.9832 36.1041 81.8185 35.8529C81.6538 35.6018 81.564 35.3055 81.5604 35.0013C81.558 34.7972 81.5945 34.5946 81.6677 34.4052C81.741 34.2159 81.8495 34.0436 81.9871 33.8984C82.1247 33.7531 82.2885 33.6378 82.4692 33.5591C82.6498 33.4804 82.8436 33.4399 83.0394 33.4399ZM81.8489 47.2736V38.0258H84.245V47.2736H81.8489Z" fill="black"/>
<path d="M86.8052 51.4382V38.0258H89.1284V39.1533C89.5262 38.4407 90.5162 37.8199 91.8616 37.8199C94.4581 37.8199 95.9522 39.888 95.9522 42.6307C95.9522 45.4304 94.2759 47.4984 91.7705 47.4984C90.5557 47.4984 89.6446 46.9917 89.2134 46.371V51.4382H86.8052ZM91.3817 40.0685C90.167 40.0685 89.1648 41.0187 89.1648 42.6624C89.1648 44.3061 90.1548 45.2752 91.3817 45.2752C92.6086 45.2752 93.5804 44.3251 93.5804 42.6624C93.5804 40.9997 92.6056 40.0685 91.3817 40.0685Z" fill="black"/>
<path d="M97.832 51.4382V38.0258H100.155V39.1533C100.553 38.4407 101.543 37.8199 102.888 37.8199C105.482 37.8199 106.979 39.888 106.979 42.6307C106.979 45.4304 105.303 47.4984 102.797 47.4984C101.583 47.4984 100.672 46.9917 100.237 46.371V51.4382H97.832ZM102.409 40.0685C101.194 40.0685 100.192 41.0187 100.192 42.6624C100.192 44.3061 101.185 45.2752 102.409 45.2752C103.632 45.2752 104.607 44.3251 104.607 42.6624C104.607 40.9997 103.635 40.0685 102.409 40.0685Z" fill="black"/>
<path d="M122.419 42.2538V47.2736H119.931V33.9467H124.708C127.229 33.9467 128.905 35.6949 128.905 38.1018C128.905 40.5088 127.229 42.2538 124.708 42.2538H122.419ZM124.402 40.0179C125.644 40.0179 126.4 39.2673 126.4 38.1177C126.4 36.968 125.644 36.1984 124.402 36.1984H122.437V40.0179H124.402Z" fill="black"/>
<path d="M135.851 40.5055C135.614 40.4573 135.373 40.4329 135.131 40.4327C133.916 40.4327 132.841 41.0661 132.841 43.0455V47.2735H130.445V38.0257H132.771V39.397C133.312 38.1777 134.536 37.9497 135.292 37.9497C135.479 37.9522 135.665 37.9649 135.851 37.9877V40.5055Z" fill="black"/>
<path d="M146.097 42.6497C146.097 45.5 144.096 47.5554 141.448 47.5554C138.799 47.5554 136.798 45.4873 136.798 42.6497C136.798 39.812 138.796 37.7439 141.448 37.7439C144.099 37.7439 146.097 39.793 146.097 42.6497ZM143.701 42.6497C143.701 40.9014 142.617 40.0178 141.448 40.0178C140.278 40.0178 139.191 40.9014 139.191 42.6497C139.191 44.3979 140.272 45.2815 141.445 45.2815C142.617 45.2815 143.701 44.3979 143.701 42.6497Z" fill="black"/>
<path d="M114.398 37.9497V43.3812C114.347 44.3978 113.751 45.1864 112.74 45.1864C111.589 45.1864 111.1 44.3788 111.1 43.3432V37.9592H108.704V43.7865C108.704 45.8166 109.749 47.4508 112.002 47.4508C112.849 47.4508 113.824 47.1341 114.398 46.4374V46.8586C114.398 48.6068 113.317 49.4904 112.148 49.4904H109.967V51.7548H112.163C113.315 51.7841 114.434 51.3537 115.292 50.5514C116.15 49.7491 116.682 48.6356 116.779 47.4381L116.813 37.937L114.398 37.9497Z" fill="black"/>
<path d="M30.538 32.2966C29.5105 31.2238 28.2899 30.3731 26.9465 29.7932C25.603 29.2133 24.163 28.9157 22.709 28.9174C22.4842 28.9174 22.2565 28.9174 22.0317 28.9427V33.6933C22.9982 33.5863 23.9753 33.7059 24.8917 34.0435C25.808 34.381 26.6405 34.9279 27.328 35.6442L28.7129 37.0883L31.9198 33.7344L30.538 32.2966Z" fill="url(#paint0_linear_218_64084)"/>
<path d="M33.3045 48.6196C34.3308 49.6935 35.5506 50.5451 36.8937 51.1256C38.2368 51.7061 39.6767 52.0039 41.1305 52.002C41.3583 52.002 41.583 52.002 41.8108 51.9767V47.2261C40.8451 47.3346 39.8683 47.2144 38.9534 46.8744C38.0385 46.5344 37.2089 45.9834 36.5266 45.2625L35.1418 43.8184L31.9197 47.1786L33.3045 48.6196Z" fill="url(#paint1_linear_218_64084)"/>
<defs>
<linearGradient id="paint0_linear_218_64084" x1="22.6968" y1="29.2657" x2="30.1803" y2="36.4416" gradientUnits="userSpaceOnUse">
<stop offset="0.41" stop-color="#4696A0" stop-opacity="0"/>
<stop offset="0.49" stop-color="#4696A0" stop-opacity="0.04"/>
<stop offset="0.59" stop-color="#4696A0" stop-opacity="0.15"/>
<stop offset="0.71" stop-color="#4696A0" stop-opacity="0.33"/>
<stop offset="0.84" stop-color="#4696A0" stop-opacity="0.58"/>
<stop offset="0.98" stop-color="#4696A0" stop-opacity="0.9"/>
<stop offset="1" stop-color="#4696A0" stop-opacity="0.95"/>
</linearGradient>
<linearGradient id="paint1_linear_218_64084" x1="41.1457" y1="51.6505" x2="33.6622" y2="44.4746" gradientUnits="userSpaceOnUse">
<stop offset="0.41" stop-color="#BE1E2D" stop-opacity="0"/>
<stop offset="0.48" stop-color="#BE1E2D" stop-opacity="0.03"/>
<stop offset="0.57" stop-color="#BE1E2D" stop-opacity="0.12"/>
<stop offset="0.68" stop-color="#BE1E2D" stop-opacity="0.28"/>
<stop offset="0.79" stop-color="#BE1E2D" stop-opacity="0.49"/>
<stop offset="0.92" stop-color="#BE1E2D" stop-opacity="0.76"/>
<stop offset="1" stop-color="#BE1E2D" stop-opacity="0.95"/>
</linearGradient>
</defs>
</svg>
