<?xml version="1.0" encoding="UTF-8"?>
<svg width="165px" height="80px" viewBox="0 0 165 80" version="1.1" xmlns="http://www.w3.org/2000/svg">
  <title>9669E244-731D-4DC6-8492-284972FBBE07</title>
  <g id="Master:-Integrations-page" stroke="none" stroke-width="1" fill="none" fill-rule="evenodd">
    <g id="Third-party" transform="translate(-414.000000, -2352.000000)" fill="#32A9E3">
      <g id="Integration-item-SYNCHUB-Copy" transform="translate(414.000000, 2352.000000)">
        <g id="shiptheory-logo-01" transform="translate(15.000000, 28.000000)">
          <g id="Group" transform="translate(31.000000, 3.000000)">
            <g>
              <path d="M12.9747082,14.7346466 C12.6459144,15.3719583 12.1906615,15.9073001 11.6089494,16.3151796 C11.0272374,16.7485516 10.3696498,17.0544612 9.58560311,17.2584009 C8.80155642,17.4623407 7.9922179,17.5643105 7.13229572,17.5643105 C5.89299611,17.5643105 4.80544747,17.3858633 3.94552529,17.0289687 C3.06031128,16.6720742 2.35214008,16.2387022 1.82101167,15.7033604 C1.26459144,15.1680185 0.885214008,14.6326767 0.607003891,14.0463499 C0.354085603,13.4600232 0.227626459,12.9756663 0.227626459,12.5422943 C0.227626459,12.032445 0.354085603,11.6755504 0.607003891,11.4461182 C0.885214008,11.2421784 1.1381323,11.1402086 1.41634241,11.1402086 C1.64396887,11.1402086 1.87159533,11.216686 2.07392996,11.3696408 C2.27626459,11.5225956 2.37743191,11.7520278 2.42801556,12.0834299 C2.50389105,12.6187717 2.70622568,13.1031286 2.9844358,13.5110081 C3.26264591,13.9188876 3.61673152,14.2757822 4.04669261,14.5307068 C4.4766537,14.811124 4.93190661,15.0150637 5.46303502,15.1425261 C5.99416342,15.2699884 6.52529183,15.3464658 7.05642023,15.3464658 C7.48638132,15.3464658 7.94163424,15.2954809 8.42217899,15.193511 C8.90272374,15.0915411 9.33268482,14.9130939 9.71206226,14.7091541 C10.0914397,14.5052144 10.4202335,14.1993048 10.6478599,13.8424102 C10.9007782,13.4855156 11.0019455,13.0776362 11.0019455,12.5677868 C11.0019455,12.032445 10.8501946,11.5735805 10.5719844,11.2421784 C10.2937743,10.8852839 9.88910506,10.5793743 9.43385214,10.3499421 C8.95330739,10.1205098 8.42217899,9.9165701 7.8151751,9.73812283 C7.20817121,9.58516802 6.57587549,9.40672074 5.94357977,9.22827346 C5.31128405,9.04982619 4.70428016,8.87137891 4.07198444,8.6419467 C3.46498054,8.43800695 2.93385214,8.13209733 2.45330739,7.80069525 C1.97276265,7.4438007 1.61867704,7.03592121 1.3151751,6.52607184 C1.03696498,6.01622248 0.885214008,5.40440324 0.885214008,4.6396292 C0.885214008,3.92584009 1.03696498,3.31402086 1.34046693,2.75318656 C1.64396887,2.19235226 2.04863813,1.73348783 2.57976654,1.35110081 C3.11089494,0.968713789 3.74319066,0.662804171 4.4766537,0.484356895 C5.21011673,0.280417149 6.01945525,0.203939745 6.87937743,0.203939745 C7.71400778,0.203939745 8.49805447,0.331402086 9.20622568,0.509849363 C9.91439689,0.713789108 10.5214008,1.01969873 11.0525292,1.35110081 C11.5836576,1.70799537 11.963035,2.11587486 12.2412451,2.52375435 C12.5194553,2.9571263 12.6712062,3.39049826 12.6712062,3.84936269 C12.6712062,4.20625724 12.5447471,4.51216686 12.3171206,4.74159907 C12.0642023,4.94553882 11.7859922,5.07300116 11.5077821,5.07300116 C11.3054475,5.07300116 11.1031128,5.02201622 10.9007782,4.89455388 C10.6984436,4.76709154 10.5719844,4.58864426 10.4708171,4.30822711 C10.2937743,3.87485516 10.0914397,3.54345307 9.78793774,3.28852839 C9.50972763,3.00811124 9.20622568,2.82966396 8.87743191,2.67670915 C8.54863813,2.52375435 8.19455253,2.42178447 7.84046693,2.396292 C7.48638132,2.34530707 7.13229572,2.3198146 6.77821012,2.3198146 C6.27237354,2.3198146 5.79182879,2.37079954 5.38715953,2.47276941 C4.95719844,2.60023175 4.57782101,2.72769409 4.27431907,2.90614137 C3.97081712,3.11008111 3.71789883,3.33951333 3.54085603,3.59443801 C3.36381323,3.87485516 3.26264591,4.20625724 3.26264591,4.53765933 C3.26264591,5.02201622 3.38910506,5.40440324 3.692607,5.71031286 C3.97081712,6.01622248 4.37548638,6.29663963 4.85603113,6.50057937 C5.33657588,6.70451912 5.86770428,6.90845886 6.5,7.06141367 C7.10700389,7.21436848 7.73929961,7.36732329 8.37159533,7.54577057 C9.00389105,7.72421784 9.63618677,7.90266512 10.2431907,8.1575898 C10.8501946,8.38702202 11.4066148,8.69293163 11.8871595,9.07531866 C12.3677043,9.43221321 12.7470817,9.89107764 13.0505837,10.4264195 C13.3287938,10.9617613 13.4805447,11.6245655 13.4805447,12.414832 C13.4552529,13.3325608 13.2782101,14.0718424 12.9747082,14.7346466 Z" id="Path" />
              <path d="M7.13229572,17.7937428 C5.84241245,17.7937428 4.72957198,17.6152955 3.86964981,17.2329085 C2.93385214,16.8505214 2.20038911,16.391657 1.6692607,15.8818076 C1.11284047,15.3719583 0.708171206,14.811124 0.404669261,14.1738123 C0.126459144,13.5365006 0,13.0266512 0,12.5932793 C0,12.032445 0.151750973,11.599073 0.455252918,11.3441483 C1.03696498,10.8852839 1.71984436,10.8852839 2.20038911,11.2676709 C2.42801556,11.4461182 2.57976654,11.7265353 2.65564202,12.1089224 C2.73151751,12.5932793 2.90856031,13.0521437 3.18677043,13.4600232 C3.46498054,13.8679027 3.79377432,14.1738123 4.17315175,14.428737 C4.60311284,14.7091541 5.05836576,14.8876014 5.53891051,15.0150637 C6.07003891,15.1425261 6.57587549,15.2190035 7.08171206,15.2190035 C7.46108949,15.2190035 7.89105058,15.1680185 8.39688716,15.0660487 C8.80155642,14.9895713 9.20622568,14.8366165 9.61089494,14.6071842 C9.99027237,14.4032445 10.2684825,14.1228273 10.4708171,13.8169177 C10.6984436,13.5110081 10.7996109,13.1286211 10.7996109,12.6442642 C10.7996109,12.1599073 10.6731518,11.7775203 10.4202335,11.4461182 C10.1420233,11.1147161 9.78793774,10.834299 9.35797665,10.6048667 C8.82684825,10.3499421 8.32101167,10.1460023 7.78988327,10.01854 C7.20817121,9.86558517 6.62645914,9.71263036 6.01945525,9.53418308 L5.94357977,9.50869061 C5.33657588,9.33024334 4.70428016,9.15179606 4.07198444,8.92236385 C3.46498054,8.7184241 2.90856031,8.41251448 2.40272374,8.03012746 C1.92217899,7.67323291 1.51750973,7.23986095 1.21400778,6.67902665 C0.910505837,6.14368482 0.733463035,5.45538818 0.733463035,4.69061414 C0.733463035,3.95133256 0.885214008,3.28852839 1.21400778,2.67670915 C1.54280156,2.06488992 1.97276265,1.58053302 2.52918288,1.198146 C3.08560311,0.790266512 3.74319066,0.484356895 4.50194553,0.305909618 C5.23540856,0.101969873 6.07003891,0 6.95525292,0 C7.76459144,0 8.54863813,0.101969873 9.33268482,0.305909618 C10.040856,0.509849363 10.6984436,0.81575898 11.229572,1.198146 C11.7354086,1.52954809 12.1400778,1.96292005 12.4688716,2.44727694 C12.7723735,2.93163384 12.9241245,3.39049826 12.9241245,3.90034762 C12.9241245,4.33371958 12.7723735,4.69061414 12.4941634,4.94553882 C11.963035,5.40440324 11.3560311,5.45538818 10.8249027,5.1239861 C10.5972763,4.99652375 10.4455253,4.76709154 10.2937743,4.43568946 C10.1167315,4.0023175 9.91439689,3.69640788 9.68677043,3.49246813 C9.45914397,3.26303592 9.18093385,3.05909618 8.82684825,2.90614137 C8.5233463,2.75318656 8.19455253,2.67670915 7.86575875,2.62572422 L7.78988327,2.62572422 C6.95525292,2.54924681 6.19649805,2.54924681 5.46303502,2.70220162 C4.98249027,2.82966396 4.67898833,2.9571263 4.42607004,3.11008111 C4.14785992,3.28852839 3.92023346,3.49246813 3.76848249,3.74739282 C3.61673152,3.97682503 3.54085603,4.28273465 3.54085603,4.58864426 C3.54085603,5.02201622 3.66731518,5.35341831 3.89494163,5.60834299 C4.17315175,5.91425261 4.52723735,6.14368482 4.98249027,6.34762457 C5.48832685,6.57705678 6.01945525,6.75550406 6.57587549,6.90845886 L7.18287938,7.06141367 C7.58754864,7.16338355 8.01750973,7.26535342 8.44747082,7.39281576 C9.20622568,7.5967555 9.81322957,7.80069525 10.344358,8.00463499 C10.9766537,8.25955968 11.5330739,8.56546929 12.0389105,8.94785632 C12.5447471,9.33024334 12.9494163,9.81460023 13.2529183,10.3754345 C13.5564202,10.9617613 13.7081712,11.6500579 13.7081712,12.4658169 C13.6828794,13.3580533 13.5058366,14.1483198 13.1770428,14.811124 L13.1770428,14.811124 C12.848249,15.4484357 12.3677043,16.00927 11.7354086,16.4681344 C11.1536965,16.9015064 10.4708171,17.2329085 9.63618677,17.4623407 C8.87743191,17.6917729 8.04280156,17.7937428 7.13229572,17.7937428 Z M1.39105058,11.3951333 C1.16342412,11.3951333 0.935797665,11.4716107 0.708171206,11.6500579 C0.505836576,11.8285052 0.404669261,12.1344148 0.404669261,12.5677868 C0.404669261,12.9501738 0.531128405,13.3835458 0.784046693,13.9698725 C1.06225681,14.5561993 1.44163424,15.0660487 1.94747082,15.5504056 C2.45330739,16.0347625 3.13618677,16.4681344 4.02140078,16.825029 C4.8307393,17.1819235 5.89299611,17.3603708 7.13229572,17.3603708 C7.9922179,17.3603708 8.80155642,17.2584009 9.53501946,17.0544612 C10.2937743,16.8505214 10.92607,16.5446118 11.4824903,16.1367323 C12.0389105,15.7288528 12.4688716,15.2190035 12.7723735,14.6326767 L12.7723735,14.6326767 C13.0758755,14.0208575 13.2529183,13.3070684 13.2782101,12.4913094 C13.2782101,11.7775203 13.1264591,11.1402086 12.8735409,10.6303592 C12.5953307,10.1205098 12.2412451,9.71263036 11.7859922,9.35573581 C11.3307393,8.99884125 10.7996109,8.69293163 10.2178988,8.46349942 C9.71206226,8.25955968 9.10505837,8.0811124 8.37159533,7.87717265 C7.94163424,7.74971031 7.53696498,7.64774044 7.10700389,7.54577057 L6.5,7.39281576 C5.91828794,7.23986095 5.3618677,7.06141367 4.8307393,6.83198146 C4.32490272,6.60254925 3.92023346,6.3221321 3.61673152,5.99073001 C3.28793774,5.63383546 3.13618677,5.2004635 3.13618677,4.66512167 C3.13618677,4.28273465 3.23735409,3.90034762 3.43968872,3.59443801 C3.61673152,3.31402086 3.89494163,3.03360371 4.24902724,2.82966396 C4.52723735,2.65121669 4.90661479,2.49826188 5.41245136,2.37079954 C6.19649805,2.19235226 7.0311284,2.19235226 7.89105058,2.26882966 L7.96692607,2.26882966 C8.3463035,2.3198146 8.72568093,2.42178447 9.07976654,2.57473928 C9.45914397,2.75318656 9.78793774,2.98261877 10.040856,3.23754345 C10.3190661,3.49246813 10.5466926,3.84936269 10.7743191,4.33371958 C10.8754864,4.58864426 10.9766537,4.7161066 11.1284047,4.81807648 C11.5077821,5.04750869 11.8871595,4.99652375 12.266537,4.69061414 C12.4688716,4.51216686 12.5447471,4.28273465 12.5447471,3.97682503 C12.5447471,3.56894554 12.4182879,3.18655852 12.1653696,2.77867903 C11.8618677,2.34530707 11.4824903,1.96292005 11.0272374,1.65701043 C10.5214008,1.30011587 9.91439689,1.04519119 9.23151751,0.841251448 C8.49805447,0.637311703 7.73929961,0.535341831 6.98054475,0.535341831 C6.12062257,0.535341831 5.33657588,0.637311703 4.62840467,0.81575898 C3.92023346,0.994206257 3.31322957,1.27462341 2.807393,1.65701043 C2.30155642,1.98841251 1.92217899,2.42178447 1.61867704,2.98261877 C1.3151751,3.5179606 1.18871595,4.10428737 1.18871595,4.76709154 C1.18871595,5.45538818 1.3151751,6.06720742 1.59338521,6.52607184 C1.87159533,7.01042874 2.22568093,7.41830823 2.65564202,7.72421784 C3.13618677,8.0811124 3.66731518,8.33603708 4.22373541,8.53997683 C4.85603113,8.76940904 5.46303502,8.94785632 6.07003891,9.12630359 L6.1459144,9.15179606 C6.75291829,9.33024334 7.35992218,9.48319815 7.91634241,9.63615295 C8.47276265,9.78910776 9.00389105,9.99304751 9.56031128,10.2479722 C10.040856,10.4774044 10.4455253,10.8088065 10.7743191,11.1911935 C11.077821,11.599073 11.2548638,12.0834299 11.2548638,12.6697567 C11.2548638,13.230591 11.1284047,13.6894554 10.8501946,14.0718424 C10.6225681,14.4542294 10.2684825,14.760139 9.8385214,15.0150637 C9.38326848,15.2699884 8.95330739,15.4229432 8.49805447,15.5249131 C7.96692607,15.626883 7.51167315,15.6778679 7.08171206,15.6778679 C6.55058366,15.6778679 5.99416342,15.6013905 5.43774319,15.4484357 C4.90661479,15.3209733 4.42607004,15.0915411 3.94552529,14.811124 C3.5155642,14.5307068 3.1614786,14.1738123 2.83268482,13.7149479 C2.50389105,13.230591 2.32684825,12.7462341 2.22568093,12.1853998 C2.17509728,11.9049826 2.07392996,11.7265353 1.94747082,11.599073 C1.77042802,11.4716107 1.59338521,11.3951333 1.39105058,11.3951333 Z" id="Shape" />
            </g>
            <g transform="translate(14.795720, 0.305910)">
              <path d="M2.40272374,15.8818076 C2.40272374,16.1877173 2.27626459,16.4681344 2.09922179,16.6720742 C1.89688716,16.8760139 1.61867704,17.0034762 1.3151751,17.0034762 C1.01167315,17.0034762 0.733463035,16.8760139 0.531128405,16.6720742 C0.328793774,16.4681344 0.20233463,16.1877173 0.20233463,15.8818076 L0.20233463,1.32560834 C0.20233463,1.01969873 0.328793774,0.739281576 0.531128405,0.535341831 C0.733463035,0.331402086 1.01167315,0.203939745 1.3151751,0.203939745 C1.61867704,0.203939745 1.89688716,0.331402086 2.09922179,0.535341831 C2.30155642,0.739281576 2.40272374,0.994206257 2.40272374,1.32560834 L2.40272374,6.3221321 C2.83268482,5.78679027 3.3385214,5.40440324 3.86964981,5.09849363 C4.40077821,4.81807648 5.03307393,4.66512167 5.74124514,4.66512167 C6.39883268,4.66512167 6.98054475,4.76709154 7.53696498,4.94553882 C8.09338521,5.14947856 8.54863813,5.42989571 8.95330739,5.78679027 C9.35797665,6.14368482 9.63618677,6.57705678 9.86381323,7.11239861 C10.0661479,7.64774044 10.192607,8.20857474 10.192607,8.84588644 L10.192607,15.8308227 C10.192607,16.1367323 10.0661479,16.4171495 9.86381323,16.6210892 C9.6614786,16.825029 9.38326848,16.9524913 9.07976654,16.9524913 C8.77626459,16.9524913 8.49805447,16.825029 8.29571984,16.6210892 C8.09338521,16.4171495 7.9922179,16.1367323 7.9922179,15.8308227 L7.9922179,8.84588644 C7.9922179,8.51448436 7.91634241,8.20857474 7.78988327,7.92815759 C7.66342412,7.64774044 7.48638132,7.39281576 7.25875486,7.16338355 C7.0311284,6.9594438 6.77821012,6.78099652 6.47470817,6.65353418 C6.19649805,6.52607184 5.86770428,6.47508691 5.56420233,6.47508691 C5.13424125,6.47508691 4.72957198,6.55156431 4.35019455,6.73001159 C3.97081712,6.8829664 3.64202335,7.11239861 3.3385214,7.39281576 C3.03501946,7.67323291 2.807393,8.00463499 2.65564202,8.36152955 C2.50389105,8.7184241 2.40272374,9.12630359 2.40272374,9.53418308 L2.40272374,15.8818076 L2.40272374,15.8818076 Z" id="Path" />
              <path d="M1.3151751,17.207416 C0.961089494,17.207416 0.63229572,17.0799537 0.379377432,16.825029 C0.126459144,16.5701043 0,16.2387022 0,15.8818076 L0,1.32560834 C0,0.968713789 0.126459144,0.637311703 0.379377432,0.382387022 C0.885214008,-0.127462341 1.74513619,-0.127462341 2.27626459,0.382387022 C2.52918288,0.637311703 2.65564202,0.943221321 2.65564202,1.32560834 L2.65564202,5.7612978 C3.00972763,5.42989571 3.38910506,5.1239861 3.79377432,4.89455388 C4.32490272,4.58864426 5.0077821,4.43568946 5.79182879,4.43568946 C6.47470817,4.43568946 7.08171206,4.53765933 7.66342412,4.74159907 C8.19455253,4.92004635 8.70038911,5.22595597 9.15564202,5.60834299 C9.56031128,5.99073001 9.88910506,6.42410197 10.1420233,7.01042874 C10.3696498,7.57126304 10.4961089,8.18308227 10.4961089,8.84588644 L10.4961089,15.8308227 C10.4961089,16.1877173 10.3696498,16.5191194 10.1167315,16.774044 C9.61089494,17.2838934 8.75097276,17.2838934 8.21984436,16.774044 C7.96692607,16.5191194 7.84046693,16.2132097 7.84046693,15.8308227 L7.84046693,8.84588644 C7.84046693,8.56546929 7.78988327,8.28505214 7.66342412,8.00463499 C7.53696498,7.74971031 7.38521401,7.5202781 7.18287938,7.34183082 C6.95525292,7.11239861 6.72762646,6.98493627 6.47470817,6.8829664 C6.19649805,6.78099652 5.91828794,6.73001159 5.64007782,6.73001159 C5.23540856,6.73001159 4.85603113,6.80648899 4.52723735,6.9594438 C4.19844358,7.08690614 3.89494163,7.29084589 3.59143969,7.57126304 C3.31322957,7.82618772 3.11089494,8.13209733 2.95914397,8.46349942 C2.807393,8.82039397 2.73151751,9.202781 2.73151751,9.55967555 L2.73151751,16.0857474 L2.70622568,16.0857474 C2.65564202,16.3661645 2.55447471,16.5955968 2.35214008,16.7995365 C1.99805447,17.0799537 1.6692607,17.207416 1.3151751,17.207416 Z M1.3151751,0.40787949 C1.06225681,0.40787949 0.859922179,0.484356895 0.682879377,0.662804171 C0.505836576,0.841251448 0.429961089,1.04519119 0.429961089,1.30011587 L0.429961089,15.8818076 C0.429961089,16.1367323 0.505836576,16.3406721 0.682879377,16.5191194 C1.03696498,16.8760139 1.59338521,16.8760139 1.94747082,16.5191194 C2.09922179,16.3406721 2.20038911,16.1112399 2.20038911,15.8818076 L2.22568093,9.55967555 C2.22568093,9.15179606 2.32684825,8.7184241 2.50389105,8.28505214 C2.68093385,7.87717265 2.90856031,7.54577057 3.23735409,7.23986095 C3.56614786,6.90845886 3.92023346,6.67902665 4.29961089,6.52607184 C4.98249027,6.22016222 5.86770428,6.16917729 6.60116732,6.44959444 C6.90466926,6.57705678 7.18287938,6.73001159 7.46108949,6.98493627 C7.71400778,7.21436848 7.89105058,7.46929316 8.04280156,7.80069525 C8.19455253,8.1575898 8.24513619,8.48899189 8.24513619,8.82039397 L8.24513619,15.8053302 C8.24513619,16.0602549 8.32101167,16.2896871 8.49805447,16.4426419 C8.85214008,16.7995365 9.40856031,16.7995365 9.76264591,16.4426419 C9.93968872,16.2641947 10.0155642,16.0602549 10.0155642,15.8053302 L10.0155642,8.84588644 C10.0155642,8.25955968 9.91439689,7.69872538 9.71206226,7.18887601 C9.4844358,6.67902665 9.20622568,6.29663963 8.85214008,5.93974508 C8.44747082,5.58285052 7.9922179,5.32792584 7.51167315,5.14947856 C7.00583658,4.97103129 6.42412451,4.86906141 5.79182879,4.86906141 C5.08365759,4.86906141 4.4766537,4.99652375 4.02140078,5.2769409 C3.5155642,5.55735805 3.03501946,5.96523754 2.63035019,6.44959444 L2.25097276,6.90845886 L2.25097276,1.32560834 C2.25097276,1.04519119 2.17509728,0.866743917 1.99805447,0.68829664 C1.77042802,0.509849363 1.56809339,0.40787949 1.3151751,0.40787949 Z" id="Shape" />
            </g>
            <g transform="translate(26.275491, 0.305910)" id="Shape">
              <path d="M0.609723018,0.586326767 C0.862641306,0.356894554 1.14085142,0.229432213 1.52022885,0.229432213 C1.87431446,0.229432213 2.15252457,0.356894554 2.40544286,0.586326767 C2.65836115,0.841251448 2.75952847,1.1216686 2.75952847,1.47856315 C2.75952847,1.83545771 2.63306932,2.11587486 2.40544286,2.37079954 C2.15252457,2.62572422 1.87431446,2.72769409 1.52022885,2.72769409 C1.16614325,2.72769409 0.862641306,2.60023175 0.609723018,2.37079954 C0.35680473,2.11587486 0.255637415,1.83545771 0.255637415,1.47856315 C0.205053758,1.1216686 0.35680473,0.81575898 0.609723018,0.586326767 Z M2.58248566,15.8818076 C2.58248566,16.1877173 2.48131835,16.4681344 2.27898372,16.6720742 C2.07664909,16.8760139 1.79843897,17.0034762 1.49493703,17.0034762 C1.19143508,17.0034762 0.913224964,16.8760139 0.710890333,16.6720742 C0.508555703,16.4681344 0.382096559,16.1877173 0.382096559,15.8818076 L0.382096559,5.81228273 C0.382096559,5.50637312 0.508555703,5.22595597 0.710890333,5.02201622 C0.913224964,4.81807648 1.19143508,4.69061414 1.49493703,4.69061414 C1.79843897,4.69061414 2.07664909,4.81807648 2.27898372,5.02201622 C2.48131835,5.22595597 2.58248566,5.50637312 2.58248566,5.81228273 L2.58248566,15.8818076 Z" />
              <path d="M1.49493703,17.207416 C1.14085142,17.207416 0.812057649,17.0799537 0.559139361,16.825029 C0.306221073,16.5701043 0.179761929,16.2387022 0.179761929,15.8818076 L0.179761929,5.81228273 C0.179761929,5.45538818 0.306221073,5.1239861 0.559139361,4.86906141 C1.06497594,4.35921205 1.92489812,4.35921205 2.43073469,4.86906141 C2.68365298,5.1239861 2.81011212,5.42989571 2.81011212,5.81228273 L2.81011212,15.8818076 C2.81011212,16.2641947 2.68365298,16.5955968 2.43073469,16.825029 C2.1778164,17.0799537 1.84902263,17.207416 1.49493703,17.207416 Z M1.49493703,4.92004635 C1.24201874,4.92004635 1.03968411,4.99652375 0.862641306,5.17497103 C0.685598505,5.35341831 0.609723018,5.55735805 0.609723018,5.81228273 L0.609723018,15.8818076 C0.609723018,16.1367323 0.710890333,16.3406721 0.862641306,16.5191194 C1.21672691,16.8760139 1.77314714,16.8760139 2.12723275,16.5191194 C2.27898372,16.3661645 2.38015103,16.1367323 2.38015103,15.8818076 L2.38015103,5.81228273 C2.38015103,5.55735805 2.30427555,5.32792584 2.12723275,5.17497103 C1.95018994,4.99652375 1.72256349,4.92004635 1.49493703,4.92004635 Z M1.49493703,2.9571263 C1.09026777,2.9571263 0.710890333,2.80417149 0.432680217,2.52375435 C0.1544701,2.2433372 0.00271912721,1.88644264 0.00271912721,1.47856315 C-0.0225727016,1.09617613 0.129178271,0.713789108 0.432680217,0.433371958 C0.736182162,0.152954809 1.09026777,0 1.49493703,0 C1.89960629,0 2.25369189,0.152954809 2.53190201,0.433371958 C2.81011212,0.713789108 2.9618631,1.07068366 2.9618631,1.47856315 C2.9618631,1.88644264 2.81011212,2.2433372 2.53190201,2.52375435 C2.25369189,2.80417149 1.92489812,2.9571263 1.49493703,2.9571263 Z M1.49493703,0.433371958 C1.21672691,0.433371958 0.963808621,0.535341831 0.736182162,0.739281576 L0.736182162,0.739281576 C0.533847532,0.943221321 0.432680217,1.17265353 0.432680217,1.45307068 C0.432680217,1.7589803 0.533847532,1.98841251 0.736182162,2.19235226 C0.938516793,2.396292 1.19143508,2.49826188 1.49493703,2.49826188 C1.79843897,2.49826188 2.02606543,2.396292 2.22840006,2.19235226 C2.43073469,1.98841251 2.53190201,1.7589803 2.53190201,1.45307068 C2.53190201,1.14716107 2.43073469,0.917728853 2.22840006,0.713789108 C2.02606543,0.535341831 1.79843897,0.433371958 1.49493703,0.433371958 Z" />
            </g>
            <g transform="translate(30.451362, 4.767092)" id="Shape">
              <path d="M2.42801556,1.55504056 C2.70622568,1.32560834 2.95914397,1.1216686 3.21206226,0.943221321 C3.46498054,0.764774044 3.71789883,0.637311703 3.97081712,0.535341831 C4.24902724,0.40787949 4.52723735,0.356894554 4.85603113,0.305909618 C5.1848249,0.254924681 5.53891051,0.254924681 5.9688716,0.254924681 C6.65175097,0.254924681 7.30933852,0.40787949 7.94163424,0.68829664 C8.54863813,0.968713789 9.10505837,1.40208575 9.53501946,1.93742758 C9.99027237,2.47276941 10.3696498,3.13557358 10.6225681,3.90034762 C10.9007782,4.66512167 11.0272374,5.48088065 11.0272374,6.3986095 C11.0272374,7.31633835 10.9007782,8.13209733 10.6731518,8.87137891 C10.4455253,9.63615295 10.0914397,10.2734647 9.6614786,10.8088065 C9.23151751,11.3441483 8.67509728,11.7775203 8.06809339,12.0579374 C7.46108949,12.3383546 6.75291829,12.4913094 5.99416342,12.4913094 C5.48832685,12.4913094 5.05836576,12.4403244 4.67898833,12.3383546 C4.32490272,12.2108922 3.99610895,12.1089224 3.692607,11.9559676 C3.41439689,11.8030127 3.1614786,11.6245655 2.9844358,11.4206257 C2.78210117,11.216686 2.60505837,11.0637312 2.42801556,10.8852839 L2.42801556,15.8563152 C2.42801556,16.1622248 2.32684825,16.4426419 2.12451362,16.6465817 C1.92217899,16.8505214 1.64396887,16.9779838 1.34046693,16.9779838 C1.03696498,16.9779838 0.758754864,16.8505214 0.556420233,16.6465817 C0.354085603,16.4426419 0.227626459,16.1622248 0.227626459,15.8563152 L0.227626459,1.32560834 C0.227626459,1.01969873 0.354085603,0.739281576 0.556420233,0.535341831 C0.758754864,0.331402086 1.03696498,0.203939745 1.34046693,0.203939745 C1.64396887,0.203939745 1.92217899,0.331402086 2.12451362,0.535341831 C2.32684825,0.739281576 2.42801556,1.01969873 2.42801556,1.32560834 L2.42801556,1.55504056 L2.42801556,1.55504056 Z M7.0311284,10.3499421 C7.46108949,10.1205098 7.78988327,9.78910776 8.09338521,9.40672074 C8.37159533,8.99884125 8.59922179,8.56546929 8.75097276,8.03012746 C8.90272374,7.49478563 8.97859922,6.9594438 8.97859922,6.42410197 C8.97859922,5.86326767 8.90272374,5.32792584 8.75097276,4.79258401 C8.59922179,4.25724218 8.39688716,3.79837775 8.09338521,3.41599073 C7.8151751,3.00811124 7.46108949,2.70220162 7.0311284,2.44727694 C6.60116732,2.21784473 6.1459144,2.09038239 5.64007782,2.09038239 C5.10894942,2.09038239 4.62840467,2.21784473 4.22373541,2.44727694 C3.79377432,2.67670915 3.46498054,3.00811124 3.18677043,3.41599073 C2.90856031,3.82387022 2.68093385,4.28273465 2.52918288,4.79258401 C2.37743191,5.32792584 2.30155642,5.86326767 2.30155642,6.42410197 C2.30155642,6.98493627 2.37743191,7.5202781 2.52918288,8.03012746 C2.68093385,8.56546929 2.88326848,9.02433372 3.18677043,9.40672074 C3.46498054,9.81460023 3.81906615,10.1205098 4.22373541,10.3499421 C4.6536965,10.5793743 5.10894942,10.7068366 5.64007782,10.7068366 C6.1459144,10.7068366 6.60116732,10.6048667 7.0311284,10.3499421 Z" />
              <path d="M1.3151751,17.2329085 C0.961089494,17.2329085 0.63229572,17.1054461 0.379377432,16.8505214 C0.126459144,16.5955968 0,16.2641947 0,15.9073001 L0,1.32560834 C0,0.968713789 0.126459144,0.637311703 0.379377432,0.382387022 C0.885214008,-0.127462341 1.74513619,-0.127462341 2.25097276,0.382387022 C2.45330739,0.586326767 2.57976654,0.81575898 2.60505837,1.1216686 C2.78210117,0.994206257 2.93385214,0.866743917 3.08560311,0.764774044 C3.36381323,0.560834299 3.61673152,0.433371958 3.89494163,0.331402086 C4.17315175,0.203939745 4.50194553,0.152954809 4.80544747,0.101969873 C5.15953307,0.0509849363 5.53891051,0.0509849363 5.9688716,0.0509849363 C6.6770428,0.0509849363 7.35992218,0.203939745 8.01750973,0.509849363 C8.64980545,0.81575898 9.23151751,1.24913094 9.68677043,1.83545771 C10.1673152,2.396292 10.5466926,3.05909618 10.8249027,3.84936269 C11.1031128,4.61413673 11.229572,5.48088065 11.229572,6.42410197 C11.229572,7.36732329 11.1031128,8.23406721 10.8501946,8.97334878 C10.6225681,9.71263036 10.2684825,10.400927 9.78793774,10.9872538 C9.33268482,11.5480881 8.75097276,12.0069525 8.11867704,12.3128621 C7.46108949,12.6187717 6.72762646,12.7717265 5.94357977,12.7717265 C5.46303502,12.7717265 4.98249027,12.7207416 4.55252918,12.6187717 C4.19844358,12.5168019 3.84435798,12.3893395 3.5155642,12.2108922 C3.18677043,12.032445 2.93385214,11.8539977 2.75680934,11.6500579 C2.68093385,11.599073 2.63035019,11.5225956 2.57976654,11.4716107 L2.57976654,15.9327926 C2.57976654,16.3151796 2.45330739,16.6210892 2.20038911,16.8760139 C1.99805447,17.0799537 1.6692607,17.2329085 1.3151751,17.2329085 Z M1.3151751,0.433371958 C1.06225681,0.433371958 0.859922179,0.509849363 0.682879377,0.68829664 C0.505836576,0.866743917 0.429961089,1.07068366 0.429961089,1.32560834 L0.429961089,15.8818076 C0.429961089,16.1367323 0.505836576,16.3406721 0.682879377,16.5191194 C1.03696498,16.8760139 1.59338521,16.8760139 1.94747082,16.5191194 C2.09922179,16.3661645 2.20038911,16.1367323 2.20038911,15.8818076 L2.20038911,10.3754345 L2.57976654,10.7578216 C2.75680934,10.9362688 2.93385214,11.1147161 3.13618677,11.2931634 C3.31322957,11.4716107 3.5155642,11.6245655 3.81906615,11.7775203 C4.09727626,11.9304751 4.42607004,12.032445 4.75486381,12.1344148 C5.13424125,12.2363847 5.56420233,12.2873696 6.01945525,12.2873696 C6.72762646,12.2873696 7.41050584,12.1344148 7.9922179,11.8539977 C8.57392996,11.5735805 9.07976654,11.165701 9.50972763,10.6558517 C9.93968872,10.1205098 10.2684825,9.48319815 10.4961089,8.79490151 C10.7237354,8.10660487 10.8501946,7.29084589 10.8501946,6.37311703 C10.8501946,5.48088065 10.7237354,4.66512167 10.4708171,3.95133256 C10.2178988,3.21205098 9.86381323,2.57473928 9.40856031,2.06488992 C8.97859922,1.52954809 8.47276265,1.14716107 7.89105058,0.866743917 C7.28404669,0.586326767 6.6770428,0.433371958 6.01945525,0.433371958 C5.61478599,0.433371958 5.26070039,0.458864426 4.93190661,0.484356895 C4.6536965,0.535341831 4.35019455,0.586326767 4.09727626,0.68829664 C3.84435798,0.790266512 3.61673152,0.892236385 3.36381323,1.07068366 C3.18677043,1.198146 2.9844358,1.35110081 2.78210117,1.50405562 L2.52918288,1.70799537 L2.22568093,1.70799537 L2.22568093,1.27462341 C2.22568093,1.01969873 2.14980545,0.790266512 1.97276265,0.637311703 C1.77042802,0.509849363 1.54280156,0.433371958 1.3151751,0.433371958 Z M5.64007782,10.9362688 C5.08365759,10.9362688 4.60311284,10.8088065 4.12256809,10.5538818 C3.66731518,10.2989571 3.31322957,9.96755504 3.00972763,9.53418308 C2.73151751,9.15179606 2.50389105,8.66743917 2.32684825,8.10660487 C2.17509728,7.57126304 2.09922179,7.01042874 2.09922179,6.42410197 C2.09922179,5.8377752 2.17509728,5.2769409 2.32684825,4.74159907 C2.50389105,4.18076477 2.73151751,3.69640788 3.00972763,3.28852839 C3.28793774,2.85515643 3.66731518,2.49826188 4.12256809,2.2433372 C4.52723735,1.98841251 5.05836576,1.86095017 5.64007782,1.86095017 C6.17120623,1.86095017 6.65175097,1.98841251 7.15758755,2.2433372 C7.61284047,2.52375435 7.9922179,2.85515643 8.29571984,3.28852839 C8.57392996,3.67091541 8.80155642,4.15527231 8.97859922,4.74159907 C9.13035019,5.2769409 9.20622568,5.8377752 9.20622568,6.42410197 C9.20622568,6.98493627 9.13035019,7.54577057 8.97859922,8.10660487 C8.82684825,8.6419467 8.59922179,9.12630359 8.29571984,9.55967555 C7.96692607,9.99304751 7.58754864,10.3499421 7.15758755,10.5793743 C6.70233463,10.8088065 6.19649805,10.9362688 5.64007782,10.9362688 Z M5.64007782,2.29432213 C5.13424125,2.29432213 4.67898833,2.396292 4.32490272,2.62572422 C3.92023346,2.82966396 3.61673152,3.13557358 3.36381323,3.5179606 C3.11089494,3.90034762 2.88326848,4.33371958 2.73151751,4.84356895 C2.57976654,5.32792584 2.50389105,5.86326767 2.50389105,6.3986095 C2.50389105,6.93395133 2.57976654,7.4438007 2.73151751,7.95365006 C2.88326848,8.48899189 3.08560311,8.89687138 3.3385214,9.25376593 C3.61673152,9.63615295 3.92023346,9.9165701 4.29961089,10.1460023 C4.70428016,10.3754345 5.13424125,10.4774044 5.61478599,10.4774044 C6.09533074,10.4774044 6.52529183,10.3754345 6.90466926,10.1460023 L6.90466926,10.1460023 C7.28404669,9.94206257 7.58754864,9.66164542 7.89105058,9.25376593 C8.1692607,8.87137891 8.37159533,8.43800695 8.49805447,7.95365006 C8.64980545,7.4438007 8.72568093,6.93395133 8.72568093,6.3986095 C8.72568093,5.86326767 8.64980545,5.32792584 8.49805447,4.84356895 C8.3463035,4.30822711 8.14396887,3.90034762 7.89105058,3.54345307 C7.61284047,3.16106605 7.30933852,2.8806489 6.90466926,2.62572422 C6.5,2.396292 6.09533074,2.29432213 5.64007782,2.29432213 Z" />
            </g>
            <g transform="translate(41.857977, 1.280997)">
              <path d="M4.17315175,3.99594438 L5.33657588,3.99594438 C5.61478599,3.99594438 5.84241245,4.09791425 6.01945525,4.27636153 C6.22178988,4.48030127 6.29766537,4.70973349 6.29766537,4.96465817 C6.29766537,5.24507532 6.19649805,5.5 6.01945525,5.65295481 C5.81712062,5.83140209 5.58949416,5.93337196 5.33657588,5.93337196 L4.17315175,5.93337196 L4.17315175,14.9067207 C4.17315175,15.2126304 4.04669261,15.4930475 3.84435798,15.6969873 C3.64202335,15.900927 3.36381323,16.0283893 3.06031128,16.0283893 C2.75680934,16.0283893 2.47859922,15.900927 2.27626459,15.6969873 C2.07392996,15.4930475 1.97276265,15.2126304 1.97276265,14.9067207 L1.97276265,5.93337196 L1.18871595,5.93337196 C0.910505837,5.93337196 0.682879377,5.83140209 0.505836576,5.65295481 C0.303501946,5.44901506 0.227626459,5.21958285 0.227626459,4.96465817 C0.227626459,4.68424102 0.328793774,4.45480881 0.505836576,4.27636153 C0.708171206,4.07242178 0.935797665,3.99594438 1.18871595,3.99594438 L1.97276265,3.99594438 L1.97276265,1.34472769 C1.97276265,1.03881808 2.09922179,0.758400927 2.27626459,0.554461182 C2.47859922,0.350521437 2.75680934,0.223059096 3.06031128,0.223059096 C3.36381323,0.223059096 3.64202335,0.350521437 3.84435798,0.554461182 C4.04669261,0.758400927 4.17315175,1.03881808 4.17315175,1.34472769 L4.17315175,3.99594438 L4.17315175,3.99594438 Z" id="Path" />
              <path d="M3.06031128,16.2323291 C2.70622568,16.2323291 2.37743191,16.1048667 2.12451362,15.8499421 C1.87159533,15.5950174 1.74513619,15.2891078 1.74513619,14.9067207 L1.74513619,6.16280417 L1.18871595,6.16280417 C0.885214008,6.16280417 0.581712062,6.0608343 0.354085603,5.83140209 C0.101167315,5.5764774 0,5.29606025 0,4.96465817 C0,4.63325608 0.126459144,4.35283893 0.354085603,4.12340672 C0.581712062,3.89397451 0.859922179,3.76651217 1.18871595,3.76651217 L1.77042802,3.76651217 L1.77042802,1.34472769 C1.77042802,0.98783314 1.89688716,0.656431054 2.12451362,0.401506373 C2.65564202,-0.133835458 3.49027237,-0.133835458 4.02140078,0.401506373 C4.27431907,0.656431054 4.40077821,0.98783314 4.40077821,1.34472769 L4.40077821,3.76651217 L5.33657588,3.76651217 C5.66536965,3.76651217 5.94357977,3.89397451 6.17120623,4.12340672 C6.39883268,4.35283893 6.52529183,4.63325608 6.52529183,4.96465817 C6.52529183,5.32155272 6.39883268,5.60196987 6.17120623,5.83140209 C5.94357977,6.0608343 5.64007782,6.16280417 5.33657588,6.16280417 L4.40077821,6.16280417 L4.40077821,14.9067207 C4.40077821,15.2636153 4.27431907,15.5950174 4.02140078,15.8499421 C3.74319066,16.1048667 3.41439689,16.2323291 3.06031128,16.2323291 Z M1.18871595,4.19988413 C0.986381323,4.19988413 0.809338521,4.27636153 0.657587549,4.42931634 C0.505836576,4.58227115 0.429961089,4.76071842 0.429961089,4.96465817 C0.429961089,5.16859791 0.505836576,5.34704519 0.657587549,5.5 C0.809338521,5.62746234 0.986381323,5.70393975 1.18871595,5.70393975 L2.20038911,5.70393975 L2.20038911,14.8812283 C2.20038911,15.136153 2.27626459,15.3655852 2.45330739,15.51854 C2.807393,15.8754345 3.36381323,15.8754345 3.71789883,15.51854 C3.89494163,15.3400927 3.97081712,15.136153 3.97081712,14.8812283 L3.97081712,5.72943221 L5.33657588,5.72943221 C5.53891051,5.72943221 5.71595331,5.65295481 5.89299611,5.52549247 C6.04474708,5.39803013 6.12062257,5.21958285 6.12062257,4.99015064 C6.12062257,4.78621089 6.04474708,4.60776362 5.89299611,4.45480881 C5.74124514,4.301854 5.56420233,4.22537659 5.3618677,4.22537659 L3.97081712,4.22537659 L3.97081712,1.34472769 C3.97081712,1.08980301 3.86964981,0.885863268 3.71789883,0.707415991 C3.36381323,0.350521437 2.807393,0.350521437 2.45330739,0.707415991 C2.30155642,0.885863268 2.20038911,1.11529548 2.20038911,1.34472769 L2.20038911,4.19988413 L1.18871595,4.19988413 Z" id="Shape" />
            </g>
            <g transform="translate(49.369650, 0.305910)">
              <path d="M2.40272374,15.8818076 C2.40272374,16.1877173 2.30155642,16.4681344 2.09922179,16.6720742 C1.89688716,16.8760139 1.61867704,17.0034762 1.3151751,17.0034762 C1.01167315,17.0034762 0.733463035,16.8760139 0.531128405,16.6720742 C0.328793774,16.4681344 0.20233463,16.1877173 0.20233463,15.8818076 L0.20233463,1.32560834 C0.20233463,1.01969873 0.328793774,0.739281576 0.531128405,0.535341831 C0.733463035,0.331402086 1.01167315,0.203939745 1.3151751,0.203939745 C1.61867704,0.203939745 1.89688716,0.331402086 2.09922179,0.535341831 C2.30155642,0.739281576 2.40272374,0.994206257 2.40272374,1.32560834 L2.40272374,6.3221321 C2.83268482,5.78679027 3.3385214,5.40440324 3.86964981,5.09849363 C4.40077821,4.79258401 5.03307393,4.66512167 5.74124514,4.66512167 C6.39883268,4.66512167 6.98054475,4.76709154 7.53696498,4.94553882 C8.09338521,5.14947856 8.54863813,5.42989571 8.95330739,5.78679027 C9.33268482,6.14368482 9.63618677,6.57705678 9.86381323,7.11239861 C10.0661479,7.64774044 10.192607,8.20857474 10.192607,8.84588644 L10.192607,15.8308227 C10.192607,16.1367323 10.0661479,16.4171495 9.86381323,16.6210892 C9.6614786,16.825029 9.38326848,16.9524913 9.07976654,16.9524913 C8.77626459,16.9524913 8.49805447,16.825029 8.29571984,16.6210892 C8.09338521,16.4171495 7.9922179,16.1367323 7.9922179,15.8308227 L7.9922179,8.84588644 C7.9922179,8.51448436 7.91634241,8.20857474 7.78988327,7.92815759 C7.66342412,7.64774044 7.48638132,7.39281576 7.25875486,7.16338355 C7.0311284,6.9594438 6.77821012,6.78099652 6.47470817,6.65353418 C6.19649805,6.52607184 5.86770428,6.47508691 5.56420233,6.47508691 C5.13424125,6.47508691 4.72957198,6.55156431 4.35019455,6.73001159 C3.97081712,6.8829664 3.64202335,7.11239861 3.3385214,7.39281576 C3.03501946,7.67323291 2.807393,8.00463499 2.65564202,8.36152955 C2.50389105,8.7184241 2.40272374,9.12630359 2.40272374,9.53418308 L2.40272374,15.8818076 L2.40272374,15.8818076 Z" id="Path" />
              <path d="M1.3151751,17.207416 C0.961089494,17.207416 0.63229572,17.0799537 0.379377432,16.825029 C0.126459144,16.5701043 0,16.2387022 0,15.8818076 L0,1.32560834 C0,0.968713789 0.126459144,0.637311703 0.379377432,0.382387022 C0.885214008,-0.127462341 1.74513619,-0.127462341 2.27626459,0.382387022 C2.52918288,0.637311703 2.65564202,0.943221321 2.65564202,1.32560834 L2.65564202,5.7612978 C3.00972763,5.42989571 3.38910506,5.1239861 3.79377432,4.89455388 C4.32490272,4.58864426 5.0077821,4.43568946 5.79182879,4.43568946 C6.47470817,4.43568946 7.08171206,4.53765933 7.66342412,4.74159907 C8.19455253,4.92004635 8.70038911,5.22595597 9.15564202,5.60834299 C9.58560311,6.01622248 9.88910506,6.47508691 10.1420233,7.01042874 C10.3696498,7.57126304 10.4961089,8.18308227 10.4961089,8.84588644 L10.4961089,15.8308227 C10.4961089,16.1877173 10.3696498,16.5191194 10.1167315,16.774044 C9.61089494,17.2838934 8.75097276,17.2838934 8.21984436,16.774044 C7.96692607,16.5191194 7.84046693,16.2132097 7.84046693,15.8308227 L7.84046693,8.84588644 C7.84046693,8.56546929 7.78988327,8.31054461 7.66342412,8.00463499 C7.53696498,7.74971031 7.38521401,7.5202781 7.18287938,7.34183082 C6.95525292,7.11239861 6.72762646,6.98493627 6.47470817,6.8829664 C6.19649805,6.78099652 5.91828794,6.73001159 5.64007782,6.73001159 C5.23540856,6.73001159 4.85603113,6.80648899 4.52723735,6.9594438 C4.19844358,7.08690614 3.89494163,7.29084589 3.59143969,7.57126304 C3.31322957,7.82618772 3.11089494,8.13209733 2.95914397,8.46349942 C2.807393,8.82039397 2.73151751,9.202781 2.73151751,9.55967555 L2.73151751,16.0857474 L2.70622568,16.0857474 C2.65564202,16.3661645 2.55447471,16.6210892 2.35214008,16.825029 C1.99805447,17.0799537 1.6692607,17.207416 1.3151751,17.207416 Z M1.3151751,0.40787949 C1.06225681,0.40787949 0.859922179,0.484356895 0.682879377,0.662804171 C0.505836576,0.841251448 0.429961089,1.04519119 0.429961089,1.30011587 L0.429961089,15.8818076 C0.429961089,16.1367323 0.505836576,16.3406721 0.682879377,16.5191194 C1.03696498,16.8760139 1.59338521,16.8760139 1.94747082,16.5191194 C2.09922179,16.3661645 2.20038911,16.1367323 2.20038911,15.8818076 L2.22568093,9.55967555 C2.22568093,9.15179606 2.32684825,8.7184241 2.50389105,8.28505214 C2.68093385,7.87717265 2.90856031,7.54577057 3.23735409,7.23986095 C3.56614786,6.90845886 3.92023346,6.67902665 4.29961089,6.52607184 C4.98249027,6.22016222 5.86770428,6.16917729 6.60116732,6.44959444 C6.90466926,6.57705678 7.18287938,6.73001159 7.46108949,6.98493627 C7.71400778,7.21436848 7.89105058,7.46929316 8.04280156,7.80069525 C8.19455253,8.1575898 8.24513619,8.48899189 8.24513619,8.82039397 L8.24513619,15.8053302 C8.24513619,16.0602549 8.32101167,16.2896871 8.49805447,16.4426419 C8.85214008,16.7995365 9.40856031,16.7995365 9.76264591,16.4426419 C9.93968872,16.2641947 10.0155642,16.0602549 10.0155642,15.8053302 L10.0155642,8.84588644 C10.0155642,8.25955968 9.91439689,7.69872538 9.71206226,7.18887601 C9.50972763,6.73001159 9.20622568,6.3221321 8.85214008,5.93974508 C8.44747082,5.58285052 7.9922179,5.32792584 7.51167315,5.14947856 C7.00583658,4.97103129 6.42412451,4.86906141 5.79182879,4.86906141 C5.08365759,4.86906141 4.4766537,4.99652375 4.02140078,5.2769409 C3.5155642,5.55735805 3.03501946,5.96523754 2.63035019,6.44959444 L2.25097276,6.90845886 L2.25097276,1.32560834 C2.25097276,1.04519119 2.17509728,0.866743917 1.99805447,0.68829664 C1.77042802,0.509849363 1.56809339,0.40787949 1.3151751,0.40787949 Z" id="Shape" />
            </g>
            <g transform="translate(60.573930, 4.614137)" id="Shape">
              <path d="M2.68093385,7.21436848 C2.68093385,7.23986095 2.70622568,7.34183082 2.73151751,7.57126304 C2.75680934,7.77520278 2.807393,8.00463499 2.88326848,8.31054461 C2.95914397,8.59096176 3.08560311,8.89687138 3.23735409,9.22827346 C3.38910506,9.53418308 3.59143969,9.8400927 3.84435798,10.1205098 C4.09727626,10.400927 4.42607004,10.6048667 4.78015564,10.8088065 C5.13424125,10.9872538 5.61478599,11.0892236 6.1459144,11.0892236 C6.57587549,11.0892236 6.95525292,11.0382387 7.25875486,10.9617613 C7.56225681,10.8852839 7.84046693,10.783314 8.09338521,10.6303592 C8.32101167,10.5028969 8.54863813,10.2989571 8.75097276,10.0950174 C8.95330739,9.89107764 9.13035019,9.61066049 9.35797665,9.33024334 C9.4844358,9.15179606 9.58560311,9.04982619 9.73735409,8.97334878 C9.86381323,8.89687138 10.0155642,8.87137891 10.1673152,8.87137891 C10.4202335,8.87137891 10.6478599,8.97334878 10.8501946,9.15179606 C11.0525292,9.35573581 11.1536965,9.58516802 11.1536965,9.8400927 C11.1536965,10.01854 11.0525292,10.2734647 10.8754864,10.6048667 C10.6731518,10.9617613 10.3949416,11.2931634 9.99027237,11.6245655 C9.58560311,11.98146 9.07976654,12.2618772 8.42217899,12.5168019 C7.78988327,12.7717265 7.0311284,12.8991889 6.09533074,12.8991889 C5.15953307,12.8991889 4.32490272,12.7207416 3.59143969,12.3893395 C2.85797665,12.032445 2.25097276,11.599073 1.74513619,11.0127462 C1.23929961,10.4264195 0.859922179,9.7636153 0.607003891,8.99884125 C0.328793774,8.23406721 0.227626459,7.41830823 0.227626459,6.60254925 C0.227626459,5.73580533 0.354085603,4.92004635 0.63229572,4.12977984 C0.910505837,3.36500579 1.28988327,2.70220162 1.79571984,2.11587486 C2.30155642,1.55504056 2.88326848,1.09617613 3.59143969,0.764774044 C4.29961089,0.433371958 5.08365759,0.254924681 5.94357977,0.254924681 C6.75291829,0.254924681 7.51167315,0.382387022 8.19455253,0.611819235 C8.87743191,0.841251448 9.50972763,1.22363847 9.99027237,1.65701043 C10.5214008,2.11587486 10.9007782,2.67670915 11.2042802,3.33951333 C11.4824903,4.0023175 11.6342412,4.76709154 11.6342412,5.63383546 C11.6342412,6.16917729 11.5077821,6.55156431 11.2548638,6.80648899 C11.0019455,7.08690614 10.6984436,7.21436848 10.3696498,7.21436848 L2.68093385,7.21436848 L2.68093385,7.21436848 Z M4.6536965,2.29432213 C4.29961089,2.44727694 3.97081712,2.65121669 3.74319066,2.8806489 C3.49027237,3.11008111 3.31322957,3.36500579 3.1614786,3.64542294 C3.03501946,3.92584009 2.90856031,4.18076477 2.83268482,4.43568946 C2.75680934,4.66512167 2.70622568,4.86906141 2.70622568,5.04750869 C2.68093385,5.22595597 2.68093385,5.32792584 2.68093385,5.35341831 L9.53501946,5.35341831 C9.53501946,4.92004635 9.45914397,4.51216686 9.33268482,4.10428737 C9.20622568,3.72190035 8.97859922,3.33951333 8.67509728,3.05909618 C8.39688716,2.75318656 8.01750973,2.52375435 7.56225681,2.3198146 C7.13229572,2.11587486 6.57587549,2.03939745 5.99416342,2.03939745 C5.46303502,2.06488992 5.03307393,2.14136732 4.6536965,2.29432213 Z" />
              <path d="M6.09533074,13.0776362 C5.15953307,13.0776362 4.27431907,12.8991889 3.5155642,12.5422943 C2.73151751,12.1599073 2.09922179,11.7010429 1.59338521,11.1147161 C1.06225681,10.4774044 0.657587549,9.81460023 0.404669261,9.02433372 C0.151750973,8.25955968 0,7.4438007 0,6.55156431 C0,5.65932793 0.126459144,4.81807648 0.404669261,4.02780997 C0.682879377,3.23754345 1.06225681,2.54924681 1.59338521,1.93742758 C2.12451362,1.32560834 2.75680934,0.841251448 3.46498054,0.535341831 C4.22373541,0.178447277 5.03307393,0 5.91828794,0 C6.75291829,0 7.53696498,0.127462341 8.24513619,0.382387022 C8.92801556,0.611819235 9.58560311,0.994206257 10.1167315,1.47856315 C10.6478599,1.96292005 11.077821,2.54924681 11.381323,3.23754345 C11.6848249,3.92584009 11.8365759,4.74159907 11.8365759,5.60834299 C11.8365759,6.19466976 11.6848249,6.65353418 11.381323,6.93395133 C11.1031128,7.23986095 10.7490272,7.39281576 10.344358,7.39281576 L2.85797665,7.39281576 C2.85797665,7.41830823 2.85797665,7.46929316 2.85797665,7.49478563 C2.88326848,7.69872538 2.93385214,7.92815759 3.00972763,8.18308227 C3.08560311,8.43800695 3.18677043,8.7184241 3.3385214,9.04982619 C3.49027237,9.38122827 3.692607,9.66164542 3.89494163,9.89107764 C4.09727626,10.1205098 4.37548638,10.2989571 4.78015564,10.5283893 C5.10894942,10.6813441 5.56420233,10.783314 6.04474708,10.783314 C6.47470817,10.783314 6.80350195,10.7578216 7.10700389,10.6813441 C7.43579767,10.6048667 7.66342412,10.5028969 7.86575875,10.3754345 C8.06809339,10.2479722 8.29571984,10.0695249 8.47276265,9.86558517 C8.62451362,9.68713789 8.80155642,9.45770568 8.97859922,9.202781 L9.05447471,9.10081112 C9.18093385,8.89687138 9.33268482,8.76940904 9.50972763,8.66743917 C9.68677043,8.56546929 9.91439689,8.53997683 10.040856,8.53997683 C10.344358,8.53997683 10.6225681,8.6419467 10.8754864,8.87137891 C11.1284047,9.10081112 11.2548638,9.40672074 11.2548638,9.73812283 C11.2548638,9.94206257 11.1789883,10.1969873 10.9513619,10.6048667 C10.7490272,10.9872538 10.4455253,11.3186559 10.0155642,11.7010429 C9.61089494,12.0579374 9.07976654,12.363847 8.39688716,12.6187717 C7.84046693,12.9501738 7.0311284,13.0776362 6.09533074,13.0776362 Z M5.9688716,0.458864426 C5.15953307,0.458864426 4.40077821,0.611819235 3.692607,0.943221321 C3.03501946,1.24913094 2.45330739,1.6825029 1.94747082,2.2433372 C1.46692607,2.80417149 1.08754864,3.4414832 0.83463035,4.18076477 C0.581712062,4.94553882 0.455252918,5.71031286 0.455252918,6.57705678 C0.455252918,7.41830823 0.581712062,8.18308227 0.83463035,8.89687138 C1.06225681,9.63615295 1.41634241,10.2479722 1.92217899,10.834299 C2.37743191,11.3696408 2.95914397,11.8030127 3.692607,12.1599073 C4.40077821,12.4913094 5.21011673,12.6442642 6.09533074,12.6442642 C6.95525292,12.6442642 7.71400778,12.5168019 8.3463035,12.2618772 C8.97859922,12.0069525 9.45914397,11.7265353 9.8385214,11.4206257 C10.2431907,11.0892236 10.4961089,10.783314 10.6731518,10.4519119 C10.7237354,10.3499421 10.92607,9.96755504 10.92607,9.78910776 C10.92607,9.55967555 10.8501946,9.40672074 10.6984436,9.25376593 C10.3949416,8.99884125 10.0155642,8.99884125 9.81322957,9.10081112 C9.68677043,9.15179606 9.61089494,9.25376593 9.50972763,9.40672074 L9.43385214,9.50869061 C9.25680934,9.7636153 9.07976654,9.99304751 8.90272374,10.1969873 C8.70038911,10.4264195 8.44747082,10.6303592 8.19455253,10.783314 C7.94163424,10.9362688 7.68871595,11.0382387 7.30933852,11.1402086 C6.98054475,11.216686 6.60116732,11.2676709 6.1459144,11.2676709 C5.58949416,11.2676709 5.08365759,11.165701 4.67898833,10.9872538 C4.22373541,10.7578216 3.92023346,10.5283893 3.66731518,10.2479722 C3.43968872,9.99304751 3.21206226,9.68713789 3.03501946,9.30475087 C2.85797665,8.92236385 2.75680934,8.6419467 2.68093385,8.36152955 C2.60505837,8.05561993 2.52918288,7.82618772 2.52918288,7.5967555 C2.52918288,7.46929316 2.50389105,7.36732329 2.50389105,7.31633835 C2.50389105,7.26535342 2.50389105,7.23986095 2.50389105,7.23986095 L2.50389105,6.98493627 L10.4455253,6.98493627 C10.7237354,6.98493627 10.9766537,6.85747393 11.1789883,6.65353418 C11.4066148,6.42410197 11.5077821,6.09269988 11.5077821,5.60834299 C11.5077821,4.79258401 11.3560311,4.05330243 11.077821,3.41599073 C10.7996109,2.77867903 10.4202335,2.2433372 9.91439689,1.80996524 C9.40856031,1.37659328 8.82684825,1.01969873 8.19455253,0.81575898 C7.48638132,0.560834299 6.77821012,0.458864426 5.9688716,0.458864426 Z M9.73735409,5.60834299 L2.45330739,5.60834299 L2.45330739,5.37891078 C2.45330739,5.32792584 2.45330739,5.22595597 2.47859922,5.04750869 C2.50389105,4.81807648 2.55447471,4.58864426 2.63035019,4.38470452 C2.70622568,4.12977984 2.83268482,3.84936269 2.95914397,3.56894554 C3.11089494,3.26303592 3.31322957,2.98261877 3.59143969,2.72769409 C3.86964981,2.47276941 4.19844358,2.26882966 4.57782101,2.11587486 C4.95719844,1.96292005 5.43774319,1.86095017 5.9688716,1.86095017 C6.65175097,1.86095017 7.18287938,1.96292005 7.6381323,2.14136732 C8.14396887,2.34530707 8.5233463,2.60023175 8.82684825,2.93163384 C9.13035019,3.23754345 9.38326848,3.64542294 9.53501946,4.05330243 C9.68677043,4.51216686 9.76264591,4.94553882 9.76264591,5.37891078 L9.76264591,5.60834299 L9.73735409,5.60834299 Z M2.90856031,5.14947856 L9.307393,5.14947856 C9.28210117,4.81807648 9.23151751,4.51216686 9.10505837,4.18076477 C8.97859922,3.82387022 8.77626459,3.49246813 8.49805447,3.21205098 C8.24513619,2.93163384 7.91634241,2.70220162 7.46108949,2.52375435 C7.08171206,2.34530707 6.57587549,2.26882966 5.9688716,2.26882966 C5.48832685,2.26882966 5.08365759,2.34530707 4.75486381,2.47276941 C4.42607004,2.62572422 4.12256809,2.80417149 3.89494163,3.00811124 C3.66731518,3.23754345 3.49027237,3.46697567 3.36381323,3.72190035 C3.23735409,4.0023175 3.11089494,4.25724218 3.06031128,4.48667439 C3.00972763,4.66512167 2.95914397,4.86906141 2.93385214,5.07300116 C2.90856031,5.1239861 2.90856031,5.14947856 2.90856031,5.14947856 Z" />
            </g>
            <g transform="translate(72.865759, 4.639629)" id="Shape">
              <path d="M3.71789883,12.3893395 C3.00972763,12.1089224 2.40272374,11.7010429 1.87159533,11.165701 C1.34046693,10.6303592 0.961089494,9.99304751 0.63229572,9.17728853 C0.354085603,8.41251448 0.20233463,7.5202781 0.20233463,6.50057937 C0.20233463,5.48088065 0.354085603,4.61413673 0.63229572,3.82387022 C0.910505837,3.03360371 1.34046693,2.396292 1.87159533,1.83545771 C2.40272374,1.30011587 3.00972763,0.892236385 3.71789883,0.586326767 C4.42607004,0.305909618 5.21011673,0.152954809 6.01945525,0.152954809 C6.8540856,0.152954809 7.61284047,0.280417149 8.32101167,0.586326767 C9.02918288,0.866743917 9.63618677,1.27462341 10.1673152,1.83545771 C10.6984436,2.37079954 11.077821,3.03360371 11.4066148,3.82387022 C11.6848249,4.58864426 11.8365759,5.48088065 11.8365759,6.50057937 C11.8365759,7.5202781 11.6848249,8.38702202 11.4066148,9.17728853 C11.1284047,9.94206257 10.6984436,10.6048667 10.1673152,11.165701 C9.63618677,11.7010429 9.02918288,12.0834299 8.32101167,12.3893395 C7.61284047,12.6697567 6.82879377,12.8227115 6.01945525,12.8227115 C5.21011673,12.8227115 4.45136187,12.6697567 3.71789883,12.3893395 Z M9.38326848,4.51216686 C9.18093385,3.95133256 8.95330739,3.49246813 8.62451362,3.11008111 C8.32101167,2.75318656 7.94163424,2.47276941 7.48638132,2.29432213 C7.05642023,2.11587486 6.57587549,2.01390498 6.04474708,2.01390498 C5.51361868,2.01390498 5.03307393,2.11587486 4.60311284,2.29432213 C4.17315175,2.47276941 3.76848249,2.72769409 3.46498054,3.11008111 C3.1614786,3.46697567 2.88326848,3.95133256 2.70622568,4.51216686 C2.50389105,5.07300116 2.42801556,5.7612978 2.42801556,6.52607184 C2.42801556,7.29084589 2.52918288,7.97914253 2.70622568,8.53997683 C2.88326848,9.10081112 3.13618677,9.55967555 3.46498054,9.9165701 C3.76848249,10.2734647 4.14785992,10.5538818 4.60311284,10.7323291 C5.03307393,10.9107764 5.51361868,11.0127462 6.04474708,11.0127462 C6.57587549,11.0127462 7.05642023,10.9107764 7.48638132,10.7323291 C7.91634241,10.5538818 8.32101167,10.2989571 8.62451362,9.9165701 C8.92801556,9.55967555 9.18093385,9.10081112 9.38326848,8.53997683 C9.56031128,7.97914253 9.6614786,7.29084589 9.6614786,6.52607184 C9.63618677,5.73580533 9.56031128,5.07300116 9.38326848,4.51216686 Z" />
              <path d="M6.04474708,13.0266512 C5.1848249,13.0266512 4.37548638,12.8736964 3.66731518,12.5932793 L3.66731518,12.5932793 C2.93385214,12.2873696 2.27626459,11.8539977 1.74513619,11.3186559 C1.21400778,10.783314 0.784046693,10.1205098 0.455252918,9.2792584 C0.151750973,8.46349942 0,7.54577057 0,6.52607184 C0,5.50637312 0.151750973,4.58864426 0.455252918,3.77288528 C0.733463035,2.98261877 1.16342412,2.29432213 1.74513619,1.73348783 C2.27626459,1.17265353 2.90856031,0.764774044 3.66731518,0.433371958 C4.37548638,0.127462341 5.1848249,0 6.04474708,0 C6.90466926,0 7.71400778,0.152954809 8.42217899,0.433371958 C9.18093385,0.739281576 9.81322957,1.17265353 10.344358,1.73348783 C10.8754864,2.29432213 11.3054475,2.9571263 11.6089494,3.77288528 C11.9124514,4.58864426 12.0642023,5.50637312 12.0642023,6.52607184 C12.0642023,7.54577057 11.9124514,8.46349942 11.6089494,9.2792584 C11.3307393,10.0695249 10.9007782,10.7578216 10.3190661,11.3186559 C9.78793774,11.8539977 9.13035019,12.2873696 8.39688716,12.5932793 C7.71400778,12.8736964 6.90466926,13.0266512 6.04474708,13.0266512 Z M3.81906615,12.1853998 C4.50194553,12.4658169 5.21011673,12.5932793 6.04474708,12.5932793 C6.8540856,12.5932793 7.58754864,12.4658169 8.27042802,12.1853998 C8.95330739,11.9049826 9.53501946,11.5225956 10.040856,11.0127462 C10.5466926,10.4774044 10.9513619,9.8400927 11.229572,9.12630359 C11.5077821,8.36152955 11.6595331,7.49478563 11.6595331,6.52607184 C11.6595331,5.55735805 11.5077821,4.69061414 11.229572,3.92584009 C10.92607,3.16106605 10.5466926,2.54924681 10.040856,2.01390498 C9.56031128,1.50405562 8.97859922,1.1216686 8.27042802,0.81575898 C7.58754864,0.535341831 6.87937743,0.40787949 6.04474708,0.40787949 C5.23540856,0.40787949 4.50194553,0.535341831 3.81906615,0.81575898 C3.11089494,1.09617613 2.52918288,1.47856315 2.04863813,2.01390498 C1.54280156,2.54924681 1.1381323,3.18655852 0.859922179,3.92584009 C0.581712062,4.69061414 0.429961089,5.55735805 0.429961089,6.52607184 C0.429961089,7.49478563 0.581712062,8.36152955 0.859922179,9.12630359 C1.16342412,9.9165701 1.54280156,10.5283893 2.04863813,11.0127462 C2.52918288,11.5225956 3.13618677,11.9049826 3.81906615,12.1853998 L3.81906615,12.1853998 Z M6.04474708,11.216686 C5.51361868,11.216686 5.0077821,11.1147161 4.52723735,10.9362688 C4.04669261,10.7578216 3.64202335,10.4519119 3.31322957,10.0695249 C2.95914397,9.68713789 2.70622568,9.17728853 2.52918288,8.61645423 C2.35214008,8.00463499 2.25097276,7.31633835 2.25097276,6.52607184 C2.25097276,5.68482039 2.35214008,4.99652375 2.52918288,4.43568946 C2.70622568,3.90034762 2.95914397,3.39049826 3.31322957,2.98261877 C3.64202335,2.60023175 4.04669261,2.29432213 4.52723735,2.11587486 C5.48832685,1.73348783 6.60116732,1.73348783 7.56225681,2.11587486 C8.04280156,2.3198146 8.44747082,2.60023175 8.77626459,2.98261877 C9.10505837,3.33951333 9.35797665,3.79837775 9.56031128,4.43568946 L9.56031128,4.43568946 C9.73735409,5.04750869 9.8385214,5.73580533 9.8385214,6.52607184 C9.8385214,7.31633835 9.73735409,8.00463499 9.56031128,8.61645423 C9.35797665,9.202781 9.10505837,9.66164542 8.77626459,10.0695249 C8.44747082,10.4519119 8.04280156,10.7578216 7.56225681,10.9362688 C7.08171206,11.1147161 6.57587549,11.216686 6.04474708,11.216686 Z M6.04474708,2.2433372 C5.56420233,2.2433372 5.10894942,2.3198146 4.67898833,2.49826188 C4.27431907,2.65121669 3.92023346,2.90614137 3.64202335,3.23754345 C3.31322957,3.61993048 3.08560311,4.05330243 2.93385214,4.5631518 C2.75680934,5.07300116 2.68093385,5.71031286 2.68093385,6.50057937 C2.68093385,7.23986095 2.75680934,7.90266512 2.93385214,8.43800695 C3.08560311,8.94785632 3.3385214,9.38122827 3.64202335,9.73812283 C3.92023346,10.0695249 4.27431907,10.3244496 4.70428016,10.5028969 C5.56420233,10.834299 6.57587549,10.834299 7.43579767,10.5028969 C7.84046693,10.3499421 8.19455253,10.0950174 8.47276265,9.7636153 C8.77626459,9.40672074 9.00389105,8.97334878 9.18093385,8.46349942 C9.35797665,7.90266512 9.43385214,7.26535342 9.43385214,6.52607184 C9.43385214,5.78679027 9.35797665,5.14947856 9.18093385,4.58864426 C8.97859922,4.0023175 8.75097276,3.59443801 8.47276265,3.26303592 C8.19455253,2.93163384 7.84046693,2.67670915 7.41050584,2.49826188 C6.98054475,2.3198146 6.52529183,2.2433372 6.04474708,2.2433372 Z" />
            </g>
            <g transform="translate(85.789883, 4.792584)">
              <path d="M2.40272374,11.3951333 C2.40272374,11.7010429 2.30155642,11.98146 2.09922179,12.1853998 C1.89688716,12.3893395 1.61867704,12.5168019 1.3151751,12.5168019 C1.01167315,12.5168019 0.733463035,12.3893395 0.531128405,12.1853998 C0.328793774,11.98146 0.20233463,11.7010429 0.20233463,11.3951333 L0.20233463,1.32560834 C0.20233463,1.01969873 0.328793774,0.739281576 0.531128405,0.535341831 C0.733463035,0.331402086 1.01167315,0.203939745 1.3151751,0.203939745 C1.61867704,0.203939745 1.89688716,0.331402086 2.09922179,0.535341831 C2.30155642,0.739281576 2.40272374,1.01969873 2.40272374,1.32560834 L2.40272374,1.73348783 C2.45330739,1.6825029 2.55447471,1.55504056 2.73151751,1.40208575 C2.88326848,1.22363847 3.08560311,1.04519119 3.31322957,0.866743917 C3.54085603,0.68829664 3.81906615,0.535341831 4.09727626,0.40787949 C4.37548638,0.280417149 4.70428016,0.203939745 5.0077821,0.203939745 C5.31128405,0.203939745 5.58949416,0.331402086 5.79182879,0.535341831 C5.99416342,0.739281576 6.12062257,1.01969873 6.12062257,1.32560834 C6.12062257,1.60602549 5.99416342,1.88644264 5.79182879,2.09038239 C5.58949416,2.29432213 5.31128405,2.42178447 5.0077821,2.42178447 C4.4766537,2.42178447 4.04669261,2.54924681 3.692607,2.77867903 C3.3385214,3.03360371 3.08560311,3.31402086 2.90856031,3.67091541 C2.70622568,4.02780997 2.57976654,4.35921205 2.52918288,4.74159907 C2.45330739,5.09849363 2.40272374,5.42989571 2.40272374,5.65932793 L2.40272374,11.3951333 L2.40272374,11.3951333 Z" id="Path" />
              <path d="M1.3151751,12.7207416 C0.961089494,12.7207416 0.63229572,12.5932793 0.379377432,12.3383546 C0.126459144,12.0834299 0,11.7520278 0,11.3951333 L0,1.32560834 C0,0.968713789 0.126459144,0.637311703 0.379377432,0.382387022 C0.885214008,-0.127462341 1.74513619,-0.127462341 2.25097276,0.382387022 C2.47859922,0.611819235 2.60505837,0.892236385 2.63035019,1.198146 C2.78210117,1.04519119 2.95914397,0.866743917 3.18677043,0.68829664 C3.41439689,0.509849363 3.692607,0.356894554 4.02140078,0.203939745 C4.32490272,0.0509849363 4.6536965,0 5.03307393,0 C5.38715953,0 5.71595331,0.127462341 5.9688716,0.382387022 C6.22178988,0.637311703 6.34824903,0.968713789 6.34824903,1.32560834 C6.34824903,1.6825029 6.22178988,2.01390498 5.9688716,2.2433372 C5.71595331,2.49826188 5.38715953,2.62572422 5.03307393,2.62572422 C4.52723735,2.62572422 4.14785992,2.72769409 3.84435798,2.9571263 C3.54085603,3.18655852 3.31322957,3.4414832 3.11089494,3.77288528 C2.90856031,4.12977984 2.807393,4.43568946 2.75680934,4.76709154 C2.68093385,5.1239861 2.65564202,5.42989571 2.65564202,5.63383546 L2.65564202,11.5480881 L2.63035019,11.5480881 C2.57976654,11.8285052 2.47859922,12.0834299 2.27626459,12.2873696 C1.99805447,12.5932793 1.6692607,12.7207416 1.3151751,12.7207416 Z M1.3151751,0.433371958 C1.06225681,0.433371958 0.859922179,0.509849363 0.682879377,0.68829664 C0.505836576,0.866743917 0.429961089,1.07068366 0.429961089,1.32560834 L0.429961089,11.3951333 C0.429961089,11.6500579 0.505836576,11.8539977 0.682879377,12.032445 C1.03696498,12.3893395 1.59338521,12.3893395 1.94747082,12.032445 C2.09922179,11.8794902 2.20038911,11.6500579 2.20038911,11.3951333 L2.22568093,5.71031286 C2.22568093,5.45538818 2.27626459,5.1239861 2.35214008,4.74159907 C2.40272374,4.38470452 2.52918288,4.0023175 2.75680934,3.61993048 C2.95914397,3.23754345 3.23735409,2.93163384 3.61673152,2.65121669 C3.99610895,2.37079954 4.4766537,2.2433372 5.05836576,2.2433372 C5.31128405,2.2433372 5.51361868,2.16685979 5.69066148,1.98841251 C5.86770428,1.80996524 5.94357977,1.60602549 5.94357977,1.37659328 C5.94357977,1.1216686 5.86770428,0.917728853 5.69066148,0.739281576 C5.51361868,0.560834299 5.31128405,0.484356895 5.05836576,0.484356895 C4.75486381,0.484356895 4.4766537,0.535341831 4.22373541,0.662804171 C3.94552529,0.790266512 3.692607,0.943221321 3.46498054,1.09617613 C3.23735409,1.24913094 3.06031128,1.42757822 2.90856031,1.58053302 C2.75680934,1.70799537 2.68093385,1.78447277 2.63035019,1.86095017 L2.20038911,2.29432213 L2.20038911,1.35110081 C2.20038911,1.09617613 2.12451362,0.866743917 1.94747082,0.713789108 C1.77042802,0.509849363 1.56809339,0.433371958 1.3151751,0.433371958 Z" id="Shape" />
            </g>
            <g transform="translate(92.239300, 4.782373)">
              <path d="M5.15953307,12.3485657 L0.303501946,1.84566888 C0.227626459,1.6672216 0.20233463,1.51426679 0.20233463,1.38680445 C0.20233463,1.25934211 0.227626459,1.15737224 0.252918288,1.0299099 C0.303501946,0.902447557 0.354085603,0.774985217 0.455252918,0.673015344 C0.531128405,0.545553003 0.657587549,0.469075599 0.784046693,0.392598195 C0.910505837,0.31612079 1.08754864,0.265135854 1.28988327,0.265135854 C1.51750973,0.265135854 1.74513619,0.31612079 1.97276265,0.469075599 C2.17509728,0.59653794 2.32684825,0.800477685 2.42801556,1.0299099 L6.09533074,9.87579634 L9.307393,1.1063873 C9.40856031,0.851462621 9.56031128,0.647522876 9.76264591,0.494568067 C9.96498054,0.341613258 10.192607,0.239643386 10.4455253,0.239643386 C10.6984436,0.239643386 10.9513619,0.341613258 11.1789883,0.520060535 C11.4066148,0.72400028 11.5330739,1.00441743 11.5330739,1.43778939 C11.5330739,1.51426679 11.5330739,1.56525173 11.5077821,1.64172913 C11.4824903,1.71820654 11.4571984,1.76919147 11.4571984,1.84566888 L6.62645914,14.4644406 C6.5,14.7448578 6.37354086,15.0507674 6.24708171,15.356677 C6.09533074,15.6625866 5.89299611,15.9430038 5.66536965,16.172436 C5.43774319,16.4018682 5.13424125,16.6058079 4.78015564,16.7842552 C4.42607004,16.93721 3.97081712,17.0136874 3.46498054,17.0136874 L2.45330739,17.0136874 C2.17509728,17.0136874 1.92217899,16.9117175 1.74513619,16.7332703 C1.54280156,16.5293305 1.46692607,16.2998983 1.46692607,16.0194812 C1.46692607,15.739064 1.56809339,15.4841393 1.74513619,15.3056921 C1.94747082,15.1017523 2.17509728,15.0252749 2.45330739,15.0252749 L3.11089494,15.0252749 C3.23735409,15.0252749 3.38910506,15.0252749 3.5155642,14.9997824 C3.66731518,14.97429 3.79377432,14.9487975 3.94552529,14.8723201 C4.07198444,14.8213352 4.22373541,14.6938728 4.35019455,14.5664105 C4.4766537,14.4134557 4.57782101,14.2095159 4.70428016,13.9290988 L5.15953307,12.3485657 Z" id="Path" />
              <path d="M3.46498054,17.2176272 L2.45330739,17.2176272 C2.12451362,17.2176272 1.82101167,17.0901648 1.59338521,16.8607326 C1.36575875,16.6313004 1.23929961,16.3253908 1.23929961,15.9939887 C1.23929961,15.6625866 1.36575875,15.356677 1.59338521,15.1272448 C1.82101167,14.8978126 2.12451362,14.7703502 2.45330739,14.7703502 L3.11089494,14.7703502 C3.23735409,14.7703502 3.36381323,14.7703502 3.49027237,14.7448578 C3.61673152,14.7193653 3.74319066,14.6938728 3.86964981,14.6428879 C3.99610895,14.5919029 4.12256809,14.4644406 4.19844358,14.3879632 C4.29961089,14.2605009 4.40077821,14.0565611 4.50194553,13.8271289 L4.95719844,12.3740582 L0.126459144,1.94763875 C0.0505836576,1.76919147 0,1.5907442 0,1.38680445 C0,1.25934211 0.0252918288,1.1063873 0.0758754864,0.953432494 C0.126459144,0.774985217 0.20233463,0.647522876 0.303501946,0.494568067 C0.379377432,0.367105727 0.505836576,0.265135854 0.682879377,0.163165981 C1.06225681,-0.0407737636 1.64396887,-0.0152812955 2.07392996,0.239643386 C2.35214008,0.418090663 2.50389105,0.673015344 2.60505837,0.876955089 L6.07003891,9.26397711 L9.07976654,1.00441743 C9.20622568,0.698507812 9.38326848,0.469075599 9.61089494,0.290628322 C10.1673152,-0.117251168 10.7996109,-0.0917586999 11.3054475,0.341613258 C11.6089494,0.59653794 11.7607004,0.953432494 11.7607004,1.41229692 C11.7607004,1.48877432 11.7607004,1.56525173 11.7354086,1.6672216 L11.6848249,1.87116135 L6.82879377,14.4899331 C6.75291829,14.6938728 6.65175097,14.8978126 6.57587549,15.1017523 L6.44941634,15.3821695 C6.27237354,15.7135715 6.07003891,16.0194812 5.81712062,16.2744058 C5.53891051,16.554823 5.21011673,16.7587627 4.85603113,16.9117175 C4.4766537,17.1156573 3.99610895,17.2176272 3.46498054,17.2176272 Z M2.42801556,15.2037222 C2.20038911,15.2037222 2.0233463,15.2801996 1.87159533,15.4331544 C1.71984436,15.5861092 1.64396887,15.7645565 1.64396887,15.9939887 C1.64396887,16.2234209 1.71984436,16.4018682 1.87159533,16.554823 C2.0233463,16.7077778 2.20038911,16.7842552 2.42801556,16.7842552 L3.43968872,16.7842552 C3.92023346,16.7842552 4.35019455,16.7077778 4.67898833,16.5803155 C4.98249027,16.4528531 5.26070039,16.2744058 5.48832685,16.0194812 C5.69066148,15.8155414 5.89299611,15.5606167 6.01945525,15.2547071 L6.1459144,14.97429 C6.24708171,14.7703502 6.3229572,14.5664105 6.39883268,14.3879632 L11.2801556,1.61623667 C11.2801556,1.56525173 11.2801556,1.53975926 11.2801556,1.46328186 C11.2801556,1.13187977 11.1789883,0.876955089 11.0019455,0.72400028 C10.6478599,0.418090663 10.2431907,0.392598195 9.8385214,0.698507812 C9.6614786,0.825970153 9.53501946,1.00441743 9.45914397,1.20835717 L6.07003891,10.513108 L2.17509728,1.1063873 C2.07392996,0.876955089 1.94747082,0.749492749 1.79571984,0.647522876 C1.4922179,0.469075599 1.08754864,0.443583131 0.859922179,0.571045472 C0.733463035,0.647522876 0.657587549,0.72400028 0.607003891,0.800477685 C0.531128405,0.902447557 0.480544747,1.00441743 0.455252918,1.1063873 C0.429961089,1.23384964 0.404669261,1.31032705 0.404669261,1.41229692 C0.404669261,1.53975926 0.429961089,1.6672216 0.480544747,1.79468394 L5.38715953,12.3740582 L4.85603113,14.0055762 C4.72957198,14.3114858 4.62840467,14.540918 4.4766537,14.7193653 C4.35019455,14.8468276 4.17315175,14.9997824 3.99610895,15.0762598 C3.84435798,15.1527372 3.692607,15.1782297 3.5155642,15.2037222 C3.36381323,15.2292146 3.23735409,15.2292146 3.08560311,15.2292146 L2.42801556,15.2292146 L2.42801556,15.2037222 Z" id="Shape" />
            </g>
          </g>
          <g id="Group">
            <path d="M11.0111314,9.00310881 C9.31695188,9.00310881 7.95149372,10.346114 7.95149372,12.0124352 C7.95149372,13.6787565 9.31695188,15.0217617 11.0111314,15.0217617 C12.705311,15.0217617 14.0707692,13.6787565 14.0707692,12.0124352 C14.0707692,10.346114 12.705311,9.00310881 11.0111314,9.00310881 Z M11.0111314,13.5046632 C10.1766848,13.5046632 9.49395571,12.8331606 9.49395571,12.0124352 C9.49395571,11.1917098 10.1766848,10.5202073 11.0111314,10.5202073 C11.8455781,10.5202073 12.5283072,11.1917098 12.5283072,12.0124352 C12.5283072,12.8331606 11.8455781,13.5046632 11.0111314,13.5046632 Z" id="Shape" />
            <path d="M17.0292619,8.80414508 C16.9281168,8.72953368 16.8775443,8.63005181 16.852258,8.50569948 C16.0683839,3.58134715 13.767334,0 11.0111314,0 C8.25492886,0 5.92859274,3.58134715 5.17000487,8.50569948 C5.14471861,8.63005181 5.09414608,8.72953368 4.99300103,8.80414508 C1.04834413,11.9129534 -0.949270591,15.6932642 0.441473832,18.0062176 C1.37706553,19.573057 3.60225661,20.1699482 6.38374546,19.8466321 L6.38374546,19.8466321 C7.496341,22.3834197 9.1652343,24 10.9858452,24 C12.7558835,24 14.3489181,22.5326425 15.4615136,20.1699482 C15.5626587,19.9958549 15.7396625,19.8715026 15.9419526,19.8963731 C18.5717239,20.1202073 20.6704836,19.5233161 21.5555028,18.0062176 C22.9462472,15.6683938 20.9739188,11.9129534 17.0292619,8.80414508 Z M1.75635947,17.2601036 C0.947199077,15.892228 1.9333633,13.7036269 4.08269559,11.5647668 C4.38613074,11.2663212 4.91714225,11.465285 4.91714225,11.8880829 C4.91714225,11.9129534 4.91714225,11.9626943 4.91714225,11.9875648 C4.91714225,14.1512953 5.22057739,16.1658031 5.72630264,17.9316062 C5.82744769,18.2300518 5.59987133,18.5284974 5.27114992,18.5284974 C3.57697035,18.6031088 2.31265724,18.1803109 1.75635947,17.2601036 Z M11.0111314,1.51709845 C11.9467232,1.51709845 12.8064561,2.1388601 13.5144714,3.23316062 C13.666189,3.45699482 13.5903302,3.75544041 13.3627538,3.90466321 C12.6800248,4.30259067 11.8708644,4.52642487 11.0364177,4.52642487 C10.1766848,4.52642487 9.39281066,4.30259067 8.71008158,3.90466321 C8.48250522,3.75544041 8.40664644,3.45699482 8.55836401,3.23316062 C9.24109309,2.1388601 10.0755397,1.51709845 11.0111314,1.51709845 Z M11.0111314,22.507772 C10.0755397,22.507772 9.21580683,21.8860104 8.50779149,20.7917098 C8.35607391,20.5678756 8.4319327,20.2694301 8.65950906,20.1202073 C9.34223814,19.7222798 10.1513985,19.4984456 10.9858452,19.4984456 C11.8455781,19.4984456 12.6294522,19.7222798 13.3121813,20.1202073 C13.5397577,20.2694301 13.6156165,20.5678756 13.4638989,20.7917098 C12.8064561,21.8860104 11.9467232,22.507772 11.0111314,22.507772 Z M14.6270669,18.4787565 C14.5259219,18.7523316 14.1972005,18.8766839 13.9443379,18.7523316 C13.084605,18.2797927 12.0731545,18.0062176 11.0111314,18.0062176 C9.94910843,18.0062176 8.96294421,18.2797927 8.07792503,18.7523316 C7.82506241,18.9015544 7.496341,18.7772021 7.39519595,18.4787565 C6.78832565,16.6880829 6.43431798,14.4497409 6.43431798,12.0124352 C6.43431798,9.57512953 6.78832565,7.33678756 7.39519595,5.54611399 C7.496341,5.27253886 7.82506241,5.14818653 8.07792503,5.27253886 C8.93765794,5.74507772 9.94910843,6.01865285 11.0111314,6.01865285 C12.0731545,6.01865285 13.0593187,5.74507772 13.9443379,5.27253886 C14.1972005,5.12331606 14.5259219,5.24766839 14.6270669,5.54611399 C15.2339372,7.33678756 15.5879449,9.57512953 15.5879449,12.0124352 C15.5879449,14.4497409 15.2339372,16.7129534 14.6270669,18.4787565 Z M20.2659034,17.2601036 C19.7348919,18.1803109 18.4452925,18.6031088 16.7763992,18.5533679 C16.4729641,18.5533679 16.2453877,18.2549223 16.3212465,17.9564767 C16.8269718,16.215544 17.1304069,14.1761658 17.1304069,12.0124352 C17.1304069,11.9875648 17.1304069,11.9378238 17.1304069,11.9129534 C17.1304069,11.4901554 17.6614184,11.2663212 17.9648536,11.5896373 C20.0888996,13.7036269 21.0750638,15.892228 20.2659034,17.2601036 Z" id="Shape" />
          </g>
        </g>
      </g>
    </g>
  </g>
</svg>
