<?xml version="1.0" encoding="UTF-8"?>
<svg width="165px" height="80px" viewBox="0 0 165 80" version="1.1" xmlns="http://www.w3.org/2000/svg" xmlns:xlink="http://www.w3.org/1999/xlink">
    <!-- Generator: sketchtool 52.3 (67297) - http://www.bohemiancoding.com/sketch -->
    <title>7C352C3A-2F11-4325-A5A0-D4661CE38E99</title>
    <desc>Created with sketchtool.</desc>
    <g id="Integrations:-QuickBooks" stroke="none" stroke-width="1" fill="none" fill-rule="evenodd">
        <g id="Factory-Integration" transform="translate(-382.000000, -181.000000)">
            <g id="Logo-shopify" transform="translate(382.000000, 181.000000)">
                <g id="shopify">
                    <rect id="Bounds" x="0" y="0" width="165" height="80"></rect>
                    <g id="s_bag" transform="translate(17.000000, 22.000000)" fill-rule="nonzero">
                        <path d="M26.8662857,6.99428571 C26.8457143,6.80914286 26.6811429,6.72685714 26.5577143,6.70628571 C26.4342857,6.68571429 23.7394286,6.50057143 23.7394286,6.50057143 C23.7394286,6.50057143 21.8674286,4.64914286 21.6822857,4.44342857 C21.4765714,4.23771429 21.0857143,4.29942857 20.9211429,4.34057143 C20.9005714,4.34057143 20.5097143,4.464 19.872,4.66971429 C19.2754286,2.88 18.1645714,1.23428571 16.2308571,1.23428571 L16.0662857,1.23428571 C15.5108571,0.514285714 14.832,0.185142857 14.256,0.185142857 C9.75085714,0.205714286 7.61142857,5.82171429 6.93257143,8.68114286 C5.184,9.216 3.94971429,9.60685714 3.78514286,9.648 C2.81828571,9.95657143 2.77714286,9.97714286 2.65371429,10.9028571 C2.55085714,11.6228571 0,31.3714286 0,31.3714286 L19.8925714,35.0948571 L30.672,32.7702857 C30.672,32.7497143 26.8868571,7.17942857 26.8662857,6.99428571 Z M18.7817143,5.01942857 C18.288,5.184 17.712,5.34857143 17.0948571,5.53371429 L17.0948571,5.16342857 C17.0948571,4.05257143 16.9302857,3.14742857 16.6834286,2.448 C17.6914286,2.592 18.3702857,3.72342857 18.7817143,5.01942857 Z M15.4697143,2.67428571 C15.7371429,3.37371429 15.9222857,4.36114286 15.9222857,5.69828571 L15.9222857,5.88342857 C14.832,6.21257143 13.6388571,6.58285714 12.4457143,6.95314286 C13.1245714,4.40228571 14.3794286,3.14742857 15.4697143,2.67428571 Z M14.1325714,1.41942857 C14.3177143,1.41942857 14.5234286,1.48114286 14.7085714,1.60457143 C13.2685714,2.28342857 11.7257143,3.99085714 11.0674286,7.40571429 C10.1211429,7.69371429 9.17485714,7.98171429 8.31085714,8.24914286 C9.09257143,5.65714286 10.9028571,1.41942857 14.1325714,1.41942857 Z" id="Shape" fill="#95BF47"></path>
                        <path d="M26.5577143,6.70628571 C26.4342857,6.68571429 23.7394286,6.50057143 23.7394286,6.50057143 C23.7394286,6.50057143 21.8674286,4.64914286 21.6822857,4.44342857 C21.6,4.36114286 21.4971429,4.32 21.3942857,4.32 L19.8925714,35.0948571 L30.672,32.7702857 C30.672,32.7702857 26.8868571,7.17942857 26.8662857,7.01485714 C26.8457143,6.82971429 26.6811429,6.72685714 26.5577143,6.70628571 Z" id="Shape" fill="#5E8E3E"></path>
                        <path d="M16.2308571,12.672 L14.8937143,16.6217143 C14.8937143,16.6217143 13.7211429,16.0045714 12.3017143,16.0045714 C10.2034286,16.0045714 10.1005714,17.3211429 10.1005714,17.6502857 C10.1005714,19.4605714 14.8114286,20.1394286 14.8114286,24.3771429 C14.8114286,27.7097143 12.6925714,29.8491429 9.85371429,29.8491429 C6.43885714,29.8491429 4.69028571,27.7302857 4.69028571,27.7302857 L5.59542857,24.7062857 C5.59542857,24.7062857 7.38514286,26.2491429 8.90742857,26.2491429 C9.89485714,26.2491429 10.3062857,25.4674286 10.3062857,24.8914286 C10.3062857,22.5257143 6.43885714,22.4228571 6.43885714,18.5554286 C6.43885714,15.3051429 8.784,12.1371429 13.4948571,12.1371429 C15.3462857,12.1577143 16.2308571,12.672 16.2308571,12.672 Z" id="Shape" fill="#FFFFFF"></path>
                    </g>
                    <path d="M60.2411429,42.0777143 C59.1714286,41.5017143 58.616,41.008 58.616,40.3291429 C58.616,39.4651429 59.3771429,38.9097143 60.5908571,38.9097143 C61.9897143,38.9097143 63.224,39.4857143 63.224,39.4857143 L64.2114286,36.4822857 C64.2114286,36.4822857 63.3062857,35.7828571 60.6525714,35.7828571 C56.9497143,35.7828571 54.3782857,37.9017143 54.3782857,40.8845714 C54.3782857,42.5714286 55.5714286,43.8674286 57.176,44.7931429 C58.472,45.5337143 58.9245714,46.048 58.9245714,46.8297143 C58.9245714,47.632 58.2868571,48.2697143 57.0731429,48.2697143 C55.2834286,48.2697143 53.5965714,47.344 53.5965714,47.344 L52.5474286,50.3474286 C52.5474286,50.3474286 54.1108571,51.3965714 56.7234286,51.3965714 C60.5291429,51.3965714 63.2651429,49.5245714 63.2651429,46.1508571 C63.2857143,44.32 61.9074286,43.0445714 60.2411429,42.0777143 Z M75.4228571,35.7622857 C73.5508571,35.7622857 72.0697143,36.6468571 70.9382857,38.0045714 L70.8765714,37.984 L72.5017143,29.4674286 L68.264,29.4674286 L64.1497143,51.1291429 L68.3874286,51.1291429 L69.8068571,43.7234286 C70.3622857,40.9257143 71.8022857,39.1977143 73.16,39.1977143 C74.1062857,39.1977143 74.4765714,39.8354286 74.4765714,40.7611429 C74.4765714,41.3371429 74.4148571,42.0571429 74.2914286,42.6331429 L72.6868571,51.1085714 L76.9245714,51.1085714 L78.5908571,42.3451429 C78.776,41.4194286 78.8994286,40.3085714 78.8994286,39.5885714 C78.8788571,37.2022857 77.624,35.7622857 75.4228571,35.7622857 Z M88.4651429,35.7622857 C83.3634286,35.7622857 79.9897143,40.3702857 79.9897143,45.4925714 C79.9897143,48.784 82.0262857,51.4171429 85.832,51.4171429 C90.8308571,51.4171429 94.2251429,46.9325714 94.2251429,41.6868571 C94.2251429,38.6422857 92.4354286,35.7622857 88.4651429,35.7622857 Z M86.3874286,48.1668571 C84.9474286,48.1668571 84.3302857,46.9325714 84.3302857,45.4102857 C84.3302857,42.9828571 85.5851429,39.0125714 87.8891429,39.0125714 C89.3908571,39.0125714 89.8845714,40.3085714 89.8845714,41.5634286 C89.8845714,44.176 88.6297143,48.1668571 86.3874286,48.1668571 Z M105.066286,35.7622857 C102.206857,35.7622857 100.581714,38.272 100.581714,38.272 L100.52,38.272 L100.766857,36.0091429 L97.0228571,36.0091429 C96.8377143,37.552 96.5085714,39.8765714 96.1588571,41.6251429 L93.2171429,57.136 L97.4342857,57.136 L98.6068571,50.8617143 L98.6891429,50.8617143 C98.6891429,50.8617143 99.5531429,51.4171429 101.178286,51.4171429 C106.156571,51.4171429 109.406857,46.3154286 109.406857,41.152 C109.427429,38.3131429 108.152,35.7622857 105.066286,35.7622857 Z M101.013714,48.2285714 C99.9028571,48.2285714 99.2651429,47.6114286 99.2651429,47.6114286 L99.9645714,43.6411429 C100.458286,41.008 101.836571,39.2388571 103.317714,39.2388571 C104.613714,39.2388571 105.004571,40.432 105.004571,41.5634286 C105.004571,44.32 103.379429,48.2285714 101.013714,48.2285714 Z M115.475429,29.6731429 C114.117714,29.6731429 113.048,30.7428571 113.048,32.1211429 C113.048,33.376 113.850286,34.24 115.043429,34.24 L115.105143,34.24 C116.421714,34.24 117.553143,33.3554286 117.594286,31.792 C117.594286,30.5577143 116.771429,29.6731429 115.475429,29.6731429 Z M109.550857,51.1085714 L113.788571,51.1085714 L116.668571,36.0914286 L112.410286,36.0914286 L109.550857,51.1085714 Z M127.448,36.0708571 L124.506286,36.0708571 L124.650286,35.3714286 C124.897143,33.9314286 125.761143,32.6354286 127.16,32.6354286 C127.921143,32.6354286 128.517714,32.8411429 128.517714,32.8411429 L129.340571,29.5291429 C129.340571,29.5291429 128.6,29.1588571 127.036571,29.1588571 C125.534857,29.1588571 124.033143,29.5908571 122.881143,30.5782857 C121.441143,31.8125714 120.762286,33.5817143 120.433143,35.3714286 L120.309714,36.0708571 L118.334857,36.0708571 L117.717714,39.2594286 L119.692571,39.2594286 L117.450286,51.1085714 L121.708571,51.1085714 L123.950857,39.2594286 L126.872,39.2594286 L127.448,36.0708571 Z M137.651429,36.0914286 C137.651429,36.0914286 134.997714,42.7771429 133.804571,46.4182857 L133.742857,46.4182857 C133.660571,45.2457143 132.693714,36.0914286 132.693714,36.0914286 L128.229714,36.0914286 L130.780571,49.8742857 C130.842286,50.1828571 130.801143,50.368 130.698286,50.5737143 C130.204571,51.52 129.381714,52.4457143 128.394286,53.1245714 C127.592,53.7005714 126.707429,54.0708571 126.008,54.3177143 L127.180571,57.9177143 C128.044571,57.7325714 129.813714,57.0331429 131.336,55.6137143 C133.269714,53.8034286 135.059429,51.0057143 136.890286,47.2 L142.074286,36.0914286 L137.651429,36.0914286 Z" id="Shape" fill="#000000" fill-rule="nonzero"></path>
                </g>
            </g>
        </g>
    </g>
</svg>