<?xml version="1.0" encoding="UTF-8"?>
<svg width="165px" height="80px" viewBox="0 0 165 80" version="1.1" xmlns="http://www.w3.org/2000/svg" xmlns:xlink="http://www.w3.org/1999/xlink">
    <title>A2AA6792-E12D-449D-B912-02232C16C3EE</title>
    <g id="Master:-Integrations-page" stroke="none" stroke-width="1" fill="none" fill-rule="evenodd">
        <g id="Third-party" transform="translate(-414.000000, -1836.000000)" fill-rule="nonzero">
            <g id="squarespace-logo" transform="translate(414.000000, 1836.000000)">
                <rect id="clear-space" fill="#FFFFFF" opacity="0" x="0" y="0" width="165" height="80"></rect>
                <g id="Group-31" transform="translate(39.000000, 13.000000)" fill="#000000">
                    <path d="M32.6578038,17.2151605 L45.5006823,4.49754213 C46.3731747,3.63354411 47.5345267,3.15784969 48.7720739,3.15784969 C50.0084838,3.15784969 51.1696083,3.63309365 52.0414184,4.49641596 L53.0421917,5.48767125 L55.0435109,3.50561114 L54.0427376,2.51435586 C52.6373334,1.12285957 50.7654324,0.355937452 48.7711641,0.355937452 C46.7775781,0.356162687 44.9054497,1.12331004 43.4993631,2.51548203 L30.6564846,15.2333256 L32.6578038,17.2151605 Z" id="Fill-1"></path>
                    <path d="M49.8010736,8.69673917 L47.7997544,6.7149043 L34.9568758,19.4325227 C33.1534367,21.2186291 30.2191239,21.2190796 28.4163672,19.4336488 C26.6129282,17.6473172 26.6129282,14.741572 28.4163672,12.9554656 L39.4976573,1.9820601 L37.4963381,0 L26.4148205,10.9734055 C23.5078015,13.8523478 23.5078015,18.5367667 26.4148205,21.415709 C27.8206796,22.8072052 29.6925806,23.5741274 31.6857117,23.5741274 C33.6797525,23.5741274 35.5523359,22.80698 36.9584224,21.4145828 L49.8010736,8.69673917 Z" id="Fill-3"></path>
                    <path d="M62.5850657,10.9734956 C61.1794341,9.58177406 59.3075331,8.81507717 57.3132648,8.81507717 C55.3194514,8.81507717 53.4470955,9.58222452 52.0414639,10.9746217 L39.1988127,23.6922401 L41.2001319,25.6743002 L54.0427831,12.9564566 C55.846677,11.1703502 58.7807624,11.1705754 60.5835191,12.9555557 C61.455784,13.8191032 61.9361552,14.9693738 61.9361552,16.1944221 C61.9361552,17.4196956 61.455784,18.5701914 60.5835191,19.4337389 L49.5020015,30.4071444 L51.5033207,32.3889793 L62.5850657,21.4155738 C65.4920848,18.5368567 65.4920848,13.8522126 62.5850657,10.9734956" id="Fill-5"></path>
                    <path d="M56.342219,15.1739765 L43.4993404,27.8915948 C41.6954465,29.677476 38.7615885,29.6779265 36.9583769,27.892721 L35.9578311,26.9014657 L33.9562844,28.8835258 L34.9570577,29.8743306 C36.3624619,31.2662774 38.2343629,32.0331995 40.2288587,32.0331995 C42.2224446,32.0329743 44.0945731,31.2658269 45.5006596,29.8736549 L58.3435382,17.1560366 L56.342219,15.1739765 Z" id="Fill-7"></path>
                    <path d="M1.37720056,49.0039585 C1.45999181,49.4064518 1.65377792,49.7215543 1.95855889,49.9485903 C2.26333985,50.1760768 2.66410408,50.2895947 3.16085157,50.2895947 C3.65009325,50.2895947 4.02811263,50.1778786 4.2953646,49.9542212 C4.56238912,49.7307889 4.69612883,49.436408 4.69612883,49.0710783 C4.69612883,48.8922424 4.66041942,48.7413355 4.58900059,48.6183577 C4.51735432,48.4953799 4.41773188,48.3910965 4.28967839,48.3052823 C4.16162489,48.2199186 4.0035482,48.1469427 3.81567575,48.0874809 C3.62734841,48.0277939 3.41650366,47.9645031 3.18336897,47.8973833 L2.57380703,47.7298092 C2.21261884,47.6329585 1.88895965,47.5156115 1.60305691,47.377543 C1.31692672,47.2396998 1.0724196,47.0775312 0.869308102,46.8912626 C0.666196606,46.704994 0.511759087,46.4907964 0.406450439,46.2484445 C0.300914343,46.0063178 0.248373743,45.7247752 0.248373743,45.4044923 C0.248373743,45.0691187 0.316153391,44.7598723 0.451485239,44.4765278 C0.587044534,44.1936338 0.779011054,43.9510566 1.02715735,43.7499226 C1.27575854,43.5487885 1.57644544,43.3904489 1.93035527,43.2746786 C2.28403767,43.159584 2.68275486,43.1016988 3.12696174,43.1016988 C3.96238002,43.1016988 4.62448255,43.297202 5.11372424,43.6884337 C5.60296593,44.0798905 5.88886867,44.6033346 5.97188737,45.2592163 L4.6172042,45.3709324 C4.53418551,45.0355588 4.36883046,44.7747377 4.12045672,44.5884691 C3.87208297,44.4022005 3.52590638,44.3089536 3.08192694,44.3089536 C2.66774326,44.3089536 2.34408406,44.4040024 2.11094937,44.5941 C1.87758723,44.7841976 1.76090615,45.0283513 1.76090615,45.3263361 C1.76090615,45.4977392 1.79479598,45.6409881 1.86257563,45.7565332 C1.93035527,45.8723035 2.02815812,45.9727579 2.15621162,46.0583469 C2.28403767,46.1441611 2.44006732,46.2205154 2.62452804,46.28741 C2.80898876,46.3545297 3.01778647,46.4257037 3.25114861,46.500031 L3.82704817,46.6788668 C4.18800892,46.790583 4.51371514,46.9079299 4.80325706,47.0309077 C5.09302643,47.1538856 5.33958058,47.3011887 5.54269208,47.4725918 C5.74603102,47.643995 5.90206068,47.848958 6.01123596,48.0874809 C6.12041123,48.3260038 6.17499886,48.6203848 6.17499886,48.9706238 C6.17499886,49.3433863 6.09971341,49.6843907 5.94914252,49.9934119 C5.79857162,50.3028836 5.58795433,50.5655065 5.31706319,50.781506 C5.04617204,50.9977308 4.72433244,51.1655302 4.35177182,51.2844538 C3.97921121,51.4036026 3.56730201,51.4635149 3.11581677,51.4635149 C2.28039849,51.4635149 1.58417868,51.2698136 1.02715735,50.8821857 C0.470363463,50.4945578 0.127826047,49.9096248 0,49.1269363 L1.37720056,49.0039585 Z" id="Fill-9"></path>
                    <path d="M11.9322431,44.3312293 C11.5257927,44.3312293 11.1627849,44.4057818 10.8427649,44.5544363 C10.5229723,44.703316 10.2520812,44.9096304 10.0300914,45.1736048 C9.80810171,45.4378044 9.6386526,45.7504294 9.52197152,46.1108039 C9.40529045,46.4718542 9.34706364,46.864212 9.34706364,47.2881026 C9.34706364,47.7122184 9.40733749,48.1063781 9.52765774,48.4710321 C9.64797798,48.8354609 9.81924669,49.1514643 10.0414639,49.4194929 C10.2632261,49.687071 10.5343447,49.8972144 10.8541373,50.0499231 C11.1739299,50.2021814 11.5371651,50.2783105 11.9436155,50.2783105 C12.3498385,50.2783105 12.7130737,50.2060104 13.0328663,50.0609596 C13.3526589,49.9159088 13.6237775,49.7131982 13.8457672,49.4526023 C14.0675295,49.1924569 14.2387982,48.8780301 14.3593459,48.5099976 C14.4796661,48.1417398 14.53994,47.7381203 14.53994,47.2993643 C14.53994,46.8678157 14.4796661,46.4698271 14.3593459,46.1053983 C14.2387982,45.7411948 14.0675295,45.4285698 13.8457672,45.1681992 C13.6237775,44.9080538 13.3508393,44.703316 13.0271801,44.5544363 C12.7035209,44.4057818 12.3386935,44.3312293 11.9322431,44.3312293 M11.9436155,43.1239745 C12.5531775,43.1239745 13.1099713,43.226456 13.6142246,43.431419 C14.1184779,43.6363821 14.5474458,43.9231051 14.9011281,44.2920385 C15.2548105,44.6611972 15.5293409,45.1026561 15.725174,45.6168655 C15.9210071,46.131075 16.01881,46.6937098 16.01881,47.3047699 C16.01881,47.9385787 15.9153209,48.510448 15.7083428,49.0208285 C15.5011372,49.5314342 15.2061366,49.9728931 14.8222035,50.3454303 L15.9059955,51.6087684 L15.9059955,52 L14.528795,52 L13.7723013,51.0835224 C13.508916,51.2026713 13.226425,51.295693 12.9257381,51.3628127 C12.6245963,51.4299325 12.3009371,51.4634924 11.9547605,51.4634924 C11.330187,51.4634924 10.7674794,51.3607856 10.2670928,51.1560478 C9.76670609,50.9510848 9.34137743,50.6641365 8.99156166,50.2952031 C8.64151845,49.9262696 8.3706273,49.4868379 8.17888823,48.9760069 C7.98692171,48.4656265 7.89093845,47.9086225 7.89093845,47.3047699 C7.89093845,46.6937098 7.98692171,46.1331021 8.17888823,45.6222711 C8.3706273,45.1121159 8.64333803,44.6722337 8.99724787,44.3033002 C9.35070282,43.9343668 9.77785107,43.6456167 10.2784652,43.4368246 C10.7788518,43.2284831 11.3340536,43.1239745 11.9436155,43.1239745" id="Fill-11"></path>
                    <path d="M21.4033344,50.3342361 C21.9828731,50.3342361 22.4343584,50.1574274 22.7580176,49.8033594 C23.0814493,49.4492914 23.2433926,48.9071529 23.2433926,48.1767187 L23.2433926,43.2805798 L24.6658554,43.2805798 L24.6658554,48.2102786 C24.6658554,48.7916078 24.59057,49.2889247 24.4399991,49.7026797 C24.2894282,50.1162095 24.0749443,50.4554121 23.7965473,50.7200622 C23.5181504,50.9847122 23.175613,51.1784136 22.76939,51.3013914 C22.3629395,51.4243692 21.9075877,51.4856329 21.4033344,51.4856329 C20.8915753,51.4856329 20.4344039,51.4243692 20.03182,51.3013914 C19.6290088,51.1784136 19.2885184,50.9847122 19.0101215,50.7200622 C18.7317245,50.4554121 18.5172406,50.1162095 18.3666697,49.7026797 C18.2160988,49.2889247 18.1410408,48.7916078 18.1410408,48.2102786 L18.1410408,43.2805798 L19.5632762,43.2805798 L19.5632762,48.1767187 C19.5632762,48.9071529 19.724992,49.4492914 20.0486512,49.8033594 C20.3723104,50.1574274 20.8237957,50.3342361 21.4033344,50.3342361" id="Fill-13"></path>
                    <path d="M28.6957877,47.8078303 L31.3710367,47.8078303 L30.9309239,46.5334557 C30.7576082,46.0343369 30.6186371,45.6280146 30.5133285,45.3151644 C30.4077924,45.002089 30.3136287,44.7264025 30.2308375,44.4878796 L29.8810217,44.4878796 C29.8357595,44.6144612 29.7907247,44.741268 29.7456899,44.8678495 C29.7004276,44.9946563 29.6497066,45.1363286 29.5932994,45.292641 C29.5366647,45.4491787 29.4745713,45.6280146 29.4067916,45.8293739 C29.3392394,46.0302827 29.2562207,46.2652019 29.1586453,46.5334557 L28.6957877,47.8078303 Z M26.1331256,50.9156104 L29.011941,43.2803996 L31.1454078,43.2803996 L33.990106,50.9156104 L33.990106,51.306842 L32.590388,51.306842 L31.7774871,49.0150851 L28.2668198,49.0150851 L27.4541464,51.306842 L26.1331256,51.306842 L26.1331256,50.9156104 Z" id="Fill-15"></path>
                    <path d="M37.1847791,46.9471657 L38.4152754,46.9471657 C38.9572852,46.9471657 39.384206,46.8491889 39.6964927,46.6536857 C40.0087795,46.4579572 40.1652641,46.1385753 40.1652641,45.6950893 C40.1652641,45.2446211 40.0069599,44.93087 39.6908065,44.7536108 C39.3748806,44.5765768 38.9497794,44.4878345 38.4152754,44.4878345 L37.1847791,44.4878345 L37.1847791,46.9471657 Z M41.9373152,51.306797 L40.5712596,51.306797 L38.099122,48.1544205 L37.1847791,48.1544205 L37.1847791,51.306797 L35.7850612,51.306797 L35.7850612,43.2805798 L38.4152754,43.2805798 C38.8290042,43.2805798 39.2224901,43.3085088 39.5948233,43.3643668 C39.9673839,43.4202249 40.3042351,43.5488336 40.6053769,43.7499676 C41.2447346,44.1671012 41.564982,44.7968557 41.564982,45.6385556 C41.564982,46.0038853 41.5103944,46.3223663 41.4009917,46.5944491 C41.2918164,46.8663067 41.1469317,47.0971716 40.9665651,47.2872692 C40.7857435,47.4773668 40.5769458,47.6318774 40.340172,47.750801 C40.1029432,47.8701751 39.856389,47.959593 39.6005095,48.0190548 L41.9373152,50.9153401 L41.9373152,51.306797 Z" id="Fill-17"></path>
                    <polygon id="Fill-19" points="43.7208297 43.2805122 48.9701133 43.2805122 48.9701133 44.5100651 45.1094027 44.5100651 45.1094027 46.6117246 48.6992221 46.6117246 48.6992221 47.8189794 45.1094027 47.8189794 45.1094027 50.0771765 49.0492653 50.0771765 49.0492653 51.3069547 43.7208297 51.3069547"></polygon>
                    <path d="M52.2101624,49.0039585 C52.2927262,49.4064518 52.4867398,49.7215543 52.7915207,49.9485903 C53.0963017,50.1760768 53.4970659,50.2895947 53.9938134,50.2895947 C54.4828276,50.2895947 54.860847,50.1778786 55.1283264,49.9542212 C55.395351,49.7307889 55.5290907,49.436408 55.5290907,49.0710783 C55.5290907,48.8922424 55.4933812,48.7413355 55.421735,48.6183577 C55.3503162,48.4953799 55.2504663,48.3910965 55.1226402,48.3052823 C54.9945867,48.2199186 54.83651,48.1469427 54.6486376,48.0874809 C54.4603102,48.0277939 54.2494655,47.9645031 54.0161034,47.8973833 L53.4067689,47.7298092 C53.0455807,47.6329585 52.721694,47.5156115 52.4357913,47.377543 C52.1496611,47.2396998 51.905154,47.0775312 51.7022699,46.8912626 C51.498931,46.704994 51.3444935,46.4907964 51.2391848,46.2484445 C51.1338762,46.0063178 51.0811081,45.7247752 51.0811081,45.4044923 C51.0811081,45.0691187 51.1488878,44.7598723 51.2844471,44.4765278 C51.4197789,44.1936338 51.6117454,43.9510566 51.8601192,43.7499226 C52.1084929,43.5487885 52.4094073,43.3904489 52.7633171,43.2746786 C53.1167721,43.159584 53.5157167,43.1016988 53.9596961,43.1016988 C54.7951144,43.1016988 55.4572169,43.297202 55.9466861,43.6884337 C56.4357003,44.0798905 56.7218305,44.6033346 56.8046218,45.2592163 L55.4499386,45.3709324 C55.3671473,45.0355588 55.2015648,44.7747377 54.9534186,44.5884691 C54.7050448,44.4022005 54.3586408,44.3089536 53.9146613,44.3089536 C53.5007051,44.3089536 53.1770459,44.4040024 52.9439112,44.5941 C52.7105491,44.7841976 52.593868,45.0283513 52.593868,45.3263361 C52.593868,45.4977392 52.6277578,45.6409881 52.6955375,45.7565332 C52.7633171,45.8723035 52.8608925,45.9727579 52.988946,46.0583469 C53.1167721,46.1441611 53.2730292,46.2205154 53.4574899,46.28741 C53.6419506,46.3545297 53.8507483,46.4257037 54.083883,46.500031 L54.6597826,46.6788668 C55.0209708,46.790583 55.3464495,46.9079299 55.6362189,47.0309077 C55.9257608,47.1538856 56.1725424,47.3011887 56.3754265,47.4725918 C56.5787654,47.643995 56.7350225,47.848958 56.8441978,48.0874809 C56.9531456,48.3260038 57.0079607,48.6203848 57.0079607,48.9706238 C57.0079607,49.3433863 56.9326752,49.6843907 56.7821044,49.9934119 C56.631306,50.3028836 56.4209162,50.5655065 56.1497976,50.781506 C55.8789064,50.9977308 55.5572943,51.1655302 55.1847337,51.2844538 C54.8119456,51.4036026 54.4000364,51.4635149 53.9485512,51.4635149 C53.1133603,51.4635149 52.4169131,51.2698136 51.8601192,50.8821857 C51.3030978,50.4945578 50.9607879,49.9096248 50.8327344,49.1269363 L52.2101624,49.0039585 Z" id="Fill-21"></path>
                    <path d="M60.4733885,47.0142404 L61.8280717,47.0142404 C62.0764454,47.0142404 62.3041214,46.9939694 62.5110995,46.953202 C62.7178502,46.9126598 62.8986717,46.8444139 63.0528818,46.748239 C63.2073193,46.6522892 63.3276395,46.5230048 63.4142974,46.3603858 C63.5007278,46.197992 63.543943,45.9984346 63.543943,45.7619388 C63.543943,45.5182355 63.5007278,45.3134977 63.4142974,45.1472749 C63.3276395,44.9810522 63.2089114,44.8499659 63.058568,44.753791 C62.9079971,44.657616 62.7292226,44.5893701 62.5224719,44.5488279 C62.3152663,44.5082858 62.091457,44.4877895 61.8508165,44.4877895 L60.4733885,44.4877895 L60.4733885,47.0142404 Z M59.0622981,43.2805347 L62.0200382,43.2805347 C62.5693263,43.2805347 63.0303644,43.3438255 63.402925,43.4706323 C63.7754856,43.5972139 64.0763999,43.7722208 64.3061229,43.9961035 C64.535391,44.2195357 64.7012009,44.4821586 64.802643,44.7841976 C64.904085,45.085786 64.9550334,45.411925 64.9550334,45.762164 C64.9550334,46.1797481 64.8854342,46.5428254 64.7462357,46.8520719 C64.6070373,47.1613183 64.4057453,47.4165085 64.14236,47.6178678 C63.8787472,47.8190019 63.5589546,47.9699087 63.1827549,48.0705884 C62.8063276,48.171268 62.3812264,48.2214952 61.9072238,48.2214952 L60.4733885,48.2214952 L60.4733885,51.3069772 L59.0622981,51.3069772 L59.0622981,43.2805347 Z" id="Fill-23"></path>
                    <path d="M67.8901196,47.8078303 L70.5655961,47.8078303 L70.1252559,46.5334557 C69.9519401,46.0343369 69.8127417,45.6280146 69.707433,45.3151644 C69.6021244,45.002089 69.5079607,44.7264025 69.4253969,44.4878796 L69.0753537,44.4878796 C69.0303189,44.6144612 68.9850566,44.741268 68.9397944,44.8678495 C68.8947596,44.9946563 68.8438111,45.1363286 68.7874039,45.292641 C68.7309967,45.4491787 68.6691307,45.6280146 68.601351,45.8293739 C68.5335714,46.0302827 68.4507801,46.2652019 68.3529773,46.5334557 L67.8901196,47.8078303 Z M65.3274576,50.9156104 L68.206273,43.2803996 L70.3397398,43.2803996 L73.184438,50.9156104 L73.184438,51.306842 L71.78472,51.306842 L70.9720466,49.0150851 L67.4611518,49.0150851 L66.6482509,51.306842 L65.3274576,51.306842 L65.3274576,50.9156104 Z" id="Fill-25"></path>
                    <path d="M81.7638175,49.1829971 C81.6359914,49.4960725 81.4683619,49.7906787 81.2616112,50.0670409 C81.0544057,50.3434032 80.8042123,50.5855298 80.5108038,50.7922947 C80.2173953,50.9990596 79.8766774,51.1625796 79.4891052,51.2828546 C79.101533,51.4031296 78.6707456,51.4634924 78.1965155,51.4634924 C77.5944594,51.4634924 77.0469909,51.3589837 76.55411,51.1501917 C76.0612291,50.9418502 75.6404494,50.6528748 75.2919984,50.2841666 C74.9435473,49.9150079 74.6744757,49.4755762 74.4847837,48.9649705 C74.2950917,48.45459 74.2004731,47.9011898 74.2004731,47.3047699 C74.2004731,46.7088005 74.2950917,46.1554003 74.4847837,45.6447946 C74.6744757,45.1344141 74.9451394,44.69273 75.2974571,44.3199676 C75.6497748,43.9476556 76.0726016,43.6548513 76.5654824,43.4426807 C77.0583633,43.2300597 77.609471,43.1239745 78.2192603,43.1239745 C79.1069918,43.1239745 79.8505209,43.3291627 80.4487104,43.7388636 C81.0471273,44.1485644 81.470409,44.69273 81.7187827,45.3709099 L80.2851749,45.6502002 C80.0893418,45.2404993 79.8164036,44.9179641 79.4665878,44.6832702 C79.1165446,44.4485762 78.693263,44.3312293 78.1965155,44.3312293 C77.7977983,44.3312293 77.4420689,44.4073584 77.1297821,44.5596167 C76.8174953,44.7118749 76.55411,44.9215679 76.3396261,45.1889207 C76.1251422,45.4560484 75.9613792,45.7716014 75.8485648,46.1355797 C75.7357504,46.4993327 75.6793431,46.8889877 75.6793431,47.3047699 C75.6793431,47.7279848 75.7375699,48.1196669 75.854251,48.4798162 C75.9707046,48.8401908 76.1401538,49.1516895 76.3621435,49.4154387 C76.5841332,49.6789626 76.8532047,49.8848265 77.1693581,50.0332558 C77.4852841,50.1819103 77.8466997,50.2562376 78.2529227,50.2562376 C78.7799208,50.2562376 79.2143475,50.1294308 79.5568849,49.8760424 C79.8994223,49.622654 80.1646272,49.3134076 80.3527271,48.9480779 L81.7638175,49.1829971 Z" id="Fill-27"></path>
                    <polygon id="Fill-29" points="83.6715644 43.2805122 88.9208479 43.2805122 88.9208479 44.5100651 85.0601374 44.5100651 85.0601374 46.6117246 88.6499568 46.6117246 88.6499568 47.8189794 85.0601374 47.8189794 85.0601374 50.0771765 89 50.0771765 89 51.3069547 83.6715644 51.3069547"></polygon>
                </g>
            </g>
        </g>
    </g>
</svg>