<svg width="157" height="81" viewBox="0 0 157 81" fill="none" xmlns="http://www.w3.org/2000/svg">
<path d="M27.3986 21.19C26.7597 21.368 26.3181 21.5856 25.1718 22.2976C24.9088 22.4657 24.5705 22.6734 24.4108 22.7723C24.0444 22.9898 19.8916 25.5115 19.5252 25.7389C18.9802 26.0751 18.1065 26.6091 17.0824 27.2223C16.5186 27.5684 15.9267 27.9244 15.767 28.0134C15.6167 28.1123 15.2127 28.3496 14.8744 28.5573C13.4651 29.3978 12.9014 30.0802 12.5162 31.3954C12.347 31.9887 12.3376 32.4337 12.3376 39.7812C12.3376 48.1274 12.3376 48.0087 12.8356 49.0273C13.296 49.9766 13.8879 50.4414 17.0354 52.3203C17.336 52.4983 18.8769 53.4377 20.3238 54.3178C23.9504 56.5428 26.4496 58.036 26.7597 58.1745C27.4737 58.4909 28.2254 58.5997 28.8361 58.481C29.5689 58.3228 29.9259 58.1646 31.2695 57.3438C31.8896 56.968 32.5849 56.5527 32.8103 56.4143C33.0452 56.2758 33.4492 56.0385 33.7029 55.8704C33.966 55.7122 34.3136 55.5045 34.4639 55.4056C34.6237 55.3166 35.4693 54.8024 36.343 54.2684C38.0812 53.2103 38.8328 52.7554 41.1347 51.361C42.8353 50.3326 43.2957 49.9173 43.756 48.9877C44.2822 47.9098 44.301 47.6725 44.2634 39.3361L44.2352 31.8206L44.0191 31.1778C43.7373 30.3669 43.2675 29.6846 42.6474 29.2099C42.3843 29.0023 41.0032 28.1222 39.5845 27.2618C36.6813 25.5115 34.2478 24.0282 32.0211 22.6734C31.1943 22.169 30.3769 21.6746 30.2078 21.5658C29.9071 21.3878 28.5166 20.9923 28.216 21.0022C28.1408 21.0022 27.7744 21.0912 27.3986 21.19ZM28.8736 26.9454C29.0522 27.0542 29.3716 27.2519 29.5783 27.3706C29.785 27.4992 31.0346 28.2507 32.35 29.0517C33.6653 29.8527 35.582 31.0097 36.5967 31.6327C37.6114 32.2458 38.5604 32.8293 38.7013 32.9183C39.1335 33.2248 39.2086 33.5808 39.2086 35.341C39.2086 37.1112 39.1147 37.4968 38.6355 37.7539C38.2315 37.9814 38.0154 37.9319 37.6302 37.566L37.2826 37.2298L37.2544 35.7465L37.2168 34.273L34.8116 32.8095C33.4774 31.9986 31.4668 30.7724 30.3299 30.0802C29.1367 29.3583 28.2254 28.8539 28.169 28.9034C28.122 28.9528 27.8026 29.1506 27.4643 29.3484C27.1261 29.556 26.7315 29.7934 26.5718 29.8923C26.4214 29.9912 26.0362 30.2186 25.7262 30.4065C25.4161 30.5944 24.4484 31.1877 23.5652 31.7217C22.6914 32.2557 21.8458 32.7699 21.6861 32.8589C21.5358 32.9578 20.9439 33.3138 20.3708 33.6698L19.3373 34.3027L19.3091 35.8355L19.2903 37.3584L20.3896 38.011C24.6363 40.5327 28.7703 43.1038 29.0052 43.3609C29.2213 43.618 29.2589 43.7268 29.2119 44.0136C29.1461 44.4586 28.8361 44.8047 28.4415 44.8838C28.1126 44.9432 28.0656 44.9234 24.4108 42.6984C23.9504 42.4116 22.8512 41.749 21.968 41.215C21.0942 40.681 20.2486 40.1767 20.0889 40.0778C19.9386 39.9888 19.4876 39.7119 19.1024 39.4746C18.7172 39.2373 18.285 38.9802 18.144 38.901C18.0031 38.8219 17.787 38.6538 17.6743 38.5253C17.4676 38.2879 17.4582 38.2286 17.43 35.875L17.4018 33.4622L17.6649 33.1655C17.8058 33.0073 18.7547 32.3744 19.7601 31.7712C20.7654 31.158 22.4378 30.1494 23.4713 29.5165C24.5048 28.8935 25.9611 28.0035 26.7127 27.5585C27.4643 27.1036 28.1784 26.7278 28.3099 26.7278C28.4415 26.7278 28.6951 26.8267 28.8736 26.9454ZM29.4937 35.2422C30.6682 35.9542 35.5726 38.9307 37.3765 40.0185C38.6073 40.7602 38.908 40.9876 39.0395 41.2645C39.1899 41.5611 39.2086 41.9073 39.2086 43.7367C39.2086 45.5662 39.1899 45.9123 39.0395 46.2089C38.8986 46.5056 38.2691 46.9209 33.8063 49.6404C31.0158 51.3314 28.6012 52.7554 28.4321 52.785C28.1126 52.8543 28.0281 52.8246 26.9946 52.1917C26.6563 51.9939 26.2617 51.7467 26.102 51.6478C25.9517 51.5588 25.604 51.3413 25.341 51.183C25.0873 51.0149 24.6833 50.7776 24.4484 50.6392C24.2229 50.5007 23.3397 49.9667 22.4847 49.4525C21.6298 48.9284 20.258 48.0977 19.4312 47.5934C18.6044 47.0989 17.8152 46.555 17.6743 46.3968L17.4112 46.11V44.2312V42.3622L17.74 42.0061C18.191 41.5414 18.5386 41.5414 18.9708 41.9963L19.2903 42.3325V43.7664C19.2903 45.3585 19.2339 45.2299 20.0889 45.7343C20.3989 45.9222 21.3761 46.5155 22.2499 47.0495C23.133 47.5835 23.9786 48.0977 24.1289 48.1867C27.4361 50.204 28.2066 50.6589 28.3005 50.6589C28.3663 50.6589 28.7985 50.4216 29.2777 50.1249C29.7568 49.8283 30.2924 49.5019 30.4709 49.3932C30.9406 49.1163 31.9554 48.4933 32.3594 48.246C32.5473 48.1373 33.7217 47.4253 34.9713 46.6638L37.2356 45.2992V43.7466V42.2039L35.1968 40.9579C34.0693 40.2756 31.9084 38.9604 30.3957 38.0407C27.6053 36.3497 27.3704 36.1618 27.3704 35.6377C27.3704 35.0938 27.9153 34.5895 28.4133 34.6785C28.5448 34.7082 29.024 34.9554 29.4937 35.2422Z" fill="#214F9F"/>
<path d="M94.5761 30.1098L94.0781 30.2087V39.0988V47.9889H94.7828H95.4874V45.0717C95.4874 43.4697 95.525 42.1544 95.5626 42.1544C95.7317 42.1544 96.8968 43.084 97.6954 43.8553C98.8604 44.9827 99.7718 46.0507 100.476 47.0989L101.078 47.9889H101.905H102.731L102.262 47.267C100.993 45.2892 98.7101 42.7577 97.1786 41.6303L96.9625 41.4721L99.5839 38.7527L102.205 36.0332L101.369 36.0233H100.533L98.2215 38.4461C96.9531 39.7811 95.8163 40.9381 95.7035 41.0172L95.4874 41.1754V35.5882V29.9911L95.2807 30.001C95.1586 30.0109 94.8392 30.0603 94.5761 30.1098Z" fill="#67696B"/>
<path d="M122.969 31.2668C122.208 31.603 122.18 32.8984 122.922 33.3039C123.674 33.7093 124.425 33.2149 124.425 32.315C124.425 31.4547 123.721 30.9503 122.969 31.2668Z" fill="#67696B"/>
<path d="M54.3634 31.7712C53.997 31.87 53.5178 32.048 53.3017 32.1667C52.7098 32.4832 52.0239 33.205 51.7515 33.7885C51.2723 34.8169 51.2723 36.5178 51.7608 37.5265C52.287 38.6143 53.2829 39.3065 55.9794 40.4734C57.9994 41.3337 58.6289 41.8183 59.0423 42.7874C59.6342 44.2114 59.1645 45.8826 57.9806 46.5155C57.0975 46.9902 55.1244 47.1484 53.7903 46.8517C53.0856 46.7034 51.9675 46.288 51.6387 46.0606C51.4414 45.9222 51.432 45.932 51.2535 46.4364C51.1501 46.7133 51.0374 47.0297 50.9998 47.1187C50.8589 47.4945 52.8319 48.1373 54.5137 48.2856C57.9618 48.5724 60.2449 47.3857 60.7147 45.042C60.9402 43.9246 60.7805 42.6588 60.3013 41.8084C59.7282 40.7799 58.845 40.1569 56.4022 39.0889C54.2319 38.1396 53.5084 37.6353 53.095 36.7848C52.6252 35.8058 52.8225 34.54 53.5742 33.7489C54.2319 33.0567 54.7204 32.9084 56.3552 32.9084C57.5391 32.9183 57.7458 32.9479 58.4222 33.1952C58.8356 33.3435 59.3054 33.5512 59.4651 33.6599L59.7564 33.8478L60.0101 33.2446C60.1886 32.7996 60.2355 32.6018 60.1604 32.5128C60.0195 32.3348 58.8544 31.8997 58.0464 31.7217C57.0975 31.514 55.209 31.5338 54.3634 31.7712Z" fill="#67696B"/>
<path d="M102.863 32.5128V33.1556H105.334H107.795V40.5722V47.9889H108.547H109.299V40.592L109.289 33.205L111.741 33.1753L114.184 33.1556V32.5128V31.87H108.528H102.863V32.5128Z" fill="#67696B"/>
<path d="M63.8059 32.2953L63.261 32.3942V38.6341C63.261 45.4673 63.2798 45.7541 63.8059 46.7429C64.3696 47.7912 65.281 48.2263 66.9252 48.2164C67.7332 48.2164 68.0527 48.1669 68.6634 47.9494C69.7251 47.5835 69.6875 47.6329 69.4996 46.9308L69.3492 46.3375L68.7667 46.5847C68.0715 46.8913 66.6903 47.0001 66.0326 46.8023C65.4783 46.6342 65.0085 46.0903 64.7924 45.3486C64.6421 44.8443 64.6233 44.3399 64.6233 41.0173V37.2595L66.9064 37.2298L69.1801 37.2101V36.6167V36.0234L66.9064 36.0036L64.6233 35.9739V34.0654C64.6233 32.4337 64.6045 32.1667 64.4824 32.1766C64.4072 32.1865 64.0972 32.2359 63.8059 32.2953Z" fill="#67696B"/>
<path d="M74.6388 35.8849C72.8725 36.3794 71.5289 37.9319 70.9934 40.0778C70.7773 40.9678 70.7773 43.0544 70.9934 43.9345C71.7074 46.7429 73.7744 48.424 76.3206 48.2559C78.6319 48.0977 80.3512 46.5451 80.9901 44.0334C81.1123 43.5587 81.1592 43.0148 81.1592 41.9567C81.1592 40.7305 81.1217 40.414 80.9432 39.7811C80.3231 37.7144 79.0641 36.3596 77.2883 35.875C76.6119 35.6872 75.3059 35.697 74.6388 35.8849ZM77.4856 37.3386C78.4721 37.8133 79.252 38.9307 79.562 40.2954C79.7405 41.0964 79.7405 42.9159 79.562 43.7169C79.3741 44.5476 79.0265 45.2398 78.5003 45.8331C76.8186 47.7219 73.8778 47.1681 72.7973 44.7651C72.0926 43.1928 72.1114 40.6909 72.8443 39.1186C73.2389 38.2681 74.0751 37.477 74.8455 37.21C75.6535 36.9331 76.7528 36.9826 77.4856 37.3386Z" fill="#67696B"/>
<path d="M87.3414 35.8651C86.5052 36.0827 85.7912 36.5178 85.1429 37.2001C84.4382 37.9418 84.0342 38.6933 83.7242 39.8503C83.4423 40.8887 83.4235 43.0444 83.6866 44.0828C84.2221 46.1792 85.4341 47.5439 87.2193 48.0482C88.4125 48.3844 90.3574 48.2361 91.6445 47.712L91.8982 47.6032L91.7479 46.9703L91.607 46.3374L91.0338 46.5847C90.254 46.9209 88.5628 47.0099 87.7266 46.7528C85.8663 46.1891 84.9644 44.6366 84.9644 42.0061C84.9644 40.1964 85.359 38.9603 86.2328 38.0407C86.9656 37.2693 87.5387 37.0716 89.0044 37.0716C89.9722 37.0716 90.2822 37.1012 90.7426 37.2792C91.0526 37.3979 91.3157 37.477 91.3345 37.4671C91.4378 37.3484 91.6445 36.2903 91.5788 36.2211C91.2218 35.8453 88.328 35.5981 87.3414 35.8651Z" fill="#67696B"/>
<path d="M116.768 35.8651C116.355 35.9442 115.697 36.1123 115.312 36.2409L114.607 36.4782L114.579 42.2336L114.56 47.9889H115.218H115.876L115.894 42.728L115.923 37.4572L116.167 37.3386C116.646 37.0913 118.159 36.9727 119.098 37.1012C119.568 37.1606 120.047 37.2199 120.141 37.2397C120.282 37.2594 120.348 37.1606 120.442 36.765C120.517 36.4881 120.573 36.2211 120.573 36.1519C120.573 35.8354 118.027 35.6377 116.768 35.8651Z" fill="#67696B"/>
<path d="M130.157 35.8354C129.771 35.8849 129.048 36.0233 128.559 36.1519L127.667 36.3793L127.639 42.1841L127.62 47.9889H128.325H129.029L129.048 42.6687L129.076 37.3583L129.593 37.2397C130.288 37.0913 132.43 37.0814 132.9 37.2298C133.107 37.2891 133.454 37.5166 133.68 37.7242C134.526 38.5054 134.666 39.4943 134.666 44.6959V47.9889H135.324H135.982V43.9443C135.982 40.0877 135.944 39.4449 135.681 38.3077C135.644 38.1198 136.301 37.6451 136.968 37.388C137.664 37.1309 139.261 37.0221 139.872 37.21C140.398 37.3583 140.914 37.8132 141.159 38.3176C141.563 39.1581 141.619 39.791 141.619 44.0037V47.9889H142.333H143.047L143 43.6081C142.972 39.9294 142.934 39.1383 142.803 38.6043C142.38 36.8936 141.478 36.0629 139.749 35.8058C138.378 35.608 136.705 35.9739 135.587 36.7254L135.146 37.032L134.732 36.676C133.746 35.8256 132.355 35.5684 130.157 35.8354Z" fill="#67696B"/>
<path d="M122.734 42.0061V47.9889H123.439H124.143V42.0061V36.0233H123.439H122.734V42.0061Z" fill="#67696B"/>
</svg>
