<?xml version="1.0" encoding="UTF-8"?>
<svg width="165px" height="80px" viewBox="0 0 165 80" version="1.1" xmlns="http://www.w3.org/2000/svg" xmlns:xlink="http://www.w3.org/1999/xlink">
    <title>9D54C699-D9A0-4BCC-A7E9-B6C25144A848</title>
    <g id="Master:-Integrations-page" stroke="none" stroke-width="1" fill="none" fill-rule="evenodd">
        <g id="Third-party" transform="translate(-414.000000, -2049.000000)" fill="#3D3D3D" fill-rule="nonzero">
            <g id="logo-synchub" transform="translate(414.000000, 2049.000000)">
                <path d="M32.9527021,49 C34.978445,49 36.5595612,48.5449102 37.6960508,47.6347305 C38.8325404,46.7245509 39.4007852,45.4790419 39.4007852,43.8982036 C39.4007852,42.756487 39.0977213,41.7924152 38.4915935,41.005988 C37.8854657,40.2195609 36.7649269,39.4351297 35.1299769,38.6526946 C33.8937952,38.0618762 33.1102156,37.6526946 32.7792379,37.4251497 C32.4482602,37.1976048 32.2070054,36.9620758 32.0554734,36.7185629 C31.9039415,36.4750499 31.8281755,36.1896208 31.8281755,35.8622754 C31.8281755,35.3353293 32.0155966,34.9081836 32.3904388,34.5808383 C32.765281,34.253493 33.3036182,34.0898204 34.0054503,34.0898204 C34.5956274,34.0898204 35.1957737,34.1656687 35.8058891,34.3173653 C36.4160046,34.4690619 37.1876212,34.7365269 38.120739,35.1197605 L38.120739,35.1197605 L39.3170439,32.2335329 C38.4158276,31.8423154 37.5524942,31.5389222 36.7270439,31.3233533 C35.9015935,31.1077844 35.0342725,31 34.1250808,31 C32.274796,31 30.8252733,31.4431138 29.7765127,32.3293413 C28.7277521,33.2155689 28.2033718,34.4331337 28.2033718,35.9820359 C28.2033718,36.8043912 28.3628791,37.5229541 28.6818938,38.1377246 C29.0009084,38.752495 29.4275905,39.2914172 29.96194,39.754491 C30.4962895,40.2175649 31.2978137,40.7005988 32.3665127,41.2035928 C33.50699,41.746507 34.2626559,42.1417166 34.6335104,42.3892216 C35.0043649,42.6367265 35.2854965,42.8942116 35.4769053,43.1616766 C35.6683141,43.4291417 35.7640185,43.7345309 35.7640185,44.0778443 C35.7640185,44.6926148 35.5466898,45.1556886 35.1120323,45.4670659 C34.6773749,45.7784431 34.0533025,45.9341317 33.2398152,45.9341317 C32.5619092,45.9341317 31.8142186,45.8263473 30.9967436,45.6107784 C30.1792687,45.3952096 29.1803541,45.0239521 28,44.497006 L28,44.497006 L28,47.9461078 C29.4355658,48.6487026 31.0864665,49 32.9527021,49 Z M49.4189838,48.760479 L49.4189838,41.9461078 L55.2210624,31.251497 L51.2254042,31.251497 L47.5766744,38.4610778 L43.9518707,31.251497 L39.9322864,31.251497 L45.7343649,42.0658683 L45.7343649,48.760479 L49.4189838,48.760479 Z M60.2985219,48.760479 L60.2985219,40.5209581 C60.2985219,39.5229541 60.222756,37.8542914 60.071224,35.5149701 L60.071224,35.5149701 L60.1788915,35.5149701 L67.7873903,48.760479 L72.5008314,48.760479 L72.5008314,31.251497 L69.1631409,31.251497 L69.1636947,39.7021143 C69.1699716,40.6618491 69.2296023,42.2162342 69.3425866,44.3652695 L69.3425866,44.3652695 L69.2588453,44.3652695 L61.6623095,31.251497 L56.9847575,31.251497 L56.9847575,48.760479 L60.2985219,48.760479 Z M83.5478522,49 C85.3183834,49 86.9214319,48.7005988 88.3569977,48.1017964 L88.3569977,48.1017964 L88.3569977,44.988024 C86.6103926,45.6027944 85.1229869,45.9101796 83.8947806,45.9101796 C80.9678214,45.9101796 79.5043418,43.9580838 79.5043418,40.0538922 C79.5043418,38.1776447 79.8871594,36.7145709 80.6527945,35.6646707 C81.4184296,34.6147705 82.4990916,34.0898204 83.8947806,34.0898204 C84.5328099,34.0898204 85.1828022,34.2055888 85.8447575,34.4371257 C86.5067129,34.6686627 87.1646805,34.9401198 87.8186605,35.251497 L87.8186605,35.251497 L89.0149654,32.2335329 C87.3002617,31.4111776 85.5935335,31 83.8947806,31 C82.2279292,31 80.7744188,31.3652695 79.5342494,32.0958084 C78.2940801,32.8263473 77.3430177,33.8762475 76.6810624,35.245509 C76.019107,36.6147705 75.6881293,38.2095808 75.6881293,40.0299401 C75.6881293,42.9201597 76.3620477,45.1377246 77.7098845,46.6826347 C79.0577213,48.2275449 81.0037105,49 83.5478522,49 Z M93.8770901,48.760479 L93.8770901,40.5209581 L103.088637,40.5209581 L103.088637,48.760479 L105.122356,48.760479 L105.122356,31.251497 L103.088637,31.251497 L103.088637,38.7005988 L93.8770901,38.7005988 L93.8770901,31.251497 L91.8433718,31.251497 L91.8433718,48.760479 L93.8770901,48.760479 Z M115.918152,49 C118.023649,49 119.678537,48.4291417 120.882818,47.2874251 C122.087098,46.1457086 122.689238,44.5768463 122.689238,42.5808383 L122.689238,42.5808383 L122.689238,31.251497 L120.65552,31.251497 L120.65552,42.6526946 C120.65552,44.1217565 120.256751,45.249501 119.459215,46.0359281 C118.661678,46.8223553 117.525189,47.2155689 116.049746,47.2155689 C114.502525,47.2155689 113.330146,46.8243513 112.53261,46.0419162 C111.735073,45.259481 111.336305,44.1377246 111.336305,42.6766467 L111.336305,42.6766467 L111.336305,31.251497 L109.302587,31.251497 L109.302587,42.5329341 C109.302587,44.5449102 109.878807,46.1257485 111.031247,47.2754491 C112.183687,48.4251497 113.812656,49 115.918152,49 Z M132.982587,48.760479 C134.880724,48.760479 136.35816,48.3213573 137.414896,47.4431138 C138.471632,46.5648703 139,45.3433134 139,43.7784431 C139,41.4391218 137.672102,40.0419162 135.016305,39.5868263 L135.016305,39.5868263 L135.016305,39.4670659 C136.124881,39.2674651 136.968276,38.8303393 137.54649,38.1556886 C138.124704,37.4810379 138.413811,36.6247505 138.413811,35.5868263 C138.413811,34.0858283 137.895412,32.988024 136.858614,32.2934132 C135.821817,31.5988024 134.143002,31.251497 131.822171,31.251497 L131.822171,31.251497 L126.881432,31.251497 L126.881432,48.760479 L132.982587,48.760479 Z M132.264804,38.748503 L128.91515,38.748503 L128.91515,33.011976 L131.905912,33.011976 C133.437182,33.011976 134.553734,33.2295409 135.255566,33.6646707 C135.957398,34.0998004 136.308314,34.8083832 136.308314,35.7904192 C136.308314,36.8602794 135.993287,37.6207585 135.363233,38.0718563 C134.733179,38.5229541 133.70037,38.748503 132.264804,38.748503 L132.264804,38.748503 Z M132.56388,47.0239521 L128.91515,47.0239521 L128.91515,40.4730539 L132.396397,40.4730539 C133.887791,40.4730539 134.99836,40.7285429 135.728106,41.239521 C136.457852,41.750499 136.822725,42.5489022 136.822725,43.6347305 C136.822725,44.8003992 136.465828,45.6566866 135.752032,46.2035928 C135.038237,46.750499 133.97552,47.0239521 132.56388,47.0239521 L132.56388,47.0239521 Z" id="SYNCHUB"></path>
            </g>
        </g>
    </g>
</svg>