<?xml version="1.0" encoding="UTF-8"?>
<svg width="165px" height="80px" viewBox="0 0 165 80" version="1.1" xmlns="http://www.w3.org/2000/svg" xmlns:xlink="http://www.w3.org/1999/xlink">
    <title>46BD99FB-AC37-49D6-99F2-102B8B3B3E7B</title>
    <g id="Master:-Integrations-page" stroke="none" stroke-width="1" fill="none" fill-rule="evenodd">
        <g id="Third-party" transform="translate(-414.000000, -2668.000000)">
            <g id="Walmart_logo" transform="translate(414.000000, 2668.000000)">
                <rect id="Bounds-border" x="0" y="0" width="165" height="80"></rect>
                <g id="Walmart-Marketplace-Logo" transform="translate(15.000000, 19.000000)" fill-rule="nonzero">
                    <path d="M120.79659,0 C120.861396,0.0579994857 120.926202,0.0579994857 120.991009,0.0579994857 C121.509458,0.115998971 121.963101,0.231997943 122.351938,0.521995371 C122.546357,0.637994342 122.675969,0.753993314 122.805581,0.927991771 C122.935194,1.10199023 123,1.33398817 123,1.56598611 C123,1.85598354 122.935194,2.14598097 122.935194,2.4359784 C122.935194,2.66797634 122.870388,2.89997428 122.870388,3.13197223 C122.805581,3.59596811 122.805581,4.00196451 122.740775,4.4659604 C122.675969,4.8719568 122.675969,5.33595268 122.611163,5.74194908 C122.546357,6.20594497 122.546357,6.61194137 122.481551,7.07593725 C122.416744,7.48193365 122.416744,7.94592954 122.351938,8.35192594 C122.351938,8.58392388 122.287132,8.75792234 122.287132,8.98992028 C122.222326,9.33791719 122.222326,9.68591411 122.15752,10.033911 C122.15752,10.2079095 122.027907,10.3819079 121.898295,10.4979069 C121.63907,10.7299048 121.315039,10.9039033 120.926202,10.9619028 C120.472559,11.0199023 120.083722,11.0199023 119.694885,10.9039033 C119.43566,10.8459038 119.241242,10.7299048 119.046823,10.5559064 C118.917211,10.4399074 118.787599,10.265909 118.787599,10.0919105 C118.787599,9.80191308 118.722793,9.45391616 118.722793,9.16391874 C118.657986,8.75792234 118.657986,8.29392645 118.59318,7.88793005 C118.59318,7.65593211 118.528374,7.48193365 118.528374,7.24993571 C118.463568,6.78593982 118.463568,6.37994342 118.398762,5.91594754 C118.333956,5.50995114 118.333956,5.10395474 118.269149,4.63995885 C118.269149,4.40796091 118.204343,4.23396245 118.204343,4.00196451 C118.139537,3.53796863 118.139537,3.13197223 118.074731,2.66797634 C118.074731,2.37797891 118.009925,2.08798148 118.009925,1.73998457 C117.945118,1.27598868 118.204343,0.869992285 118.59318,0.579994857 C118.982017,0.289997428 119.500467,0.115998971 120.018916,0.0579994857 C120.083722,0.0579994857 120.148528,0.0579994857 120.213335,0 C120.407753,0 120.602172,0 120.79659,0 Z" id="Path" fill="#FCBA31"></path>
                    <path d="M71.1708185,41.9377639 C71.1708185,41.9377639 71.113879,41.8755278 71.113879,41.8755278 C71.0569395,41.8132917 71,41.6888194 71,41.6265833 C71,41.5643472 71,41.5021111 71,41.439875 C71,38.4525415 71,35.5274442 71,32.5401107 C71,32.4778746 71,32.4156385 71,32.3534024 C71,32.166694 71.113879,32.0422218 71.2846975,32.0422218 C71.569395,32.0422218 71.797153,32.1044579 72.024911,32.3534024 C72.0818505,32.4778746 72.13879,32.5401107 72.1957295,32.7268191 C72.1957295,32.7890552 72.1957295,32.7890552 72.252669,32.8512913 C72.3096085,32.8512913 72.366548,32.7890552 72.4234875,32.7268191 C72.8220641,32.3534024 73.2206406,32.1044579 73.7330961,32.0422218 C74.8718861,31.8555135 75.7829181,32.2911663 76.4092527,33.2869441 C76.7508897,33.784833 76.9217082,34.344958 76.9786477,34.905083 C77.0355872,35.5274442 76.9786477,36.0875692 76.8078292,36.6476942 C76.4661922,37.7057082 75.7829181,38.4525415 74.7010676,38.701486 C74.3594306,38.7637221 73.9608541,38.8259582 73.6192171,38.7637221 C73.2775801,38.701486 72.9928826,38.6392499 72.6512456,38.5147776 C72.594306,38.5770138 72.6512456,38.6392499 72.6512456,38.7637221 C72.6512456,39.6350277 72.6512456,40.5685694 72.6512456,41.439875 C72.6512456,41.5021111 72.6512456,41.5643472 72.6512456,41.6265833 C72.6512456,41.7510555 72.594306,41.8132917 72.5373665,41.9377639 C72.5373665,41.9377639 72.480427,42 72.480427,42 C72.024911,41.9377639 71.569395,41.9377639 71.1708185,41.9377639 Z M72.594306,35.5896803 C72.594306,35.9008609 72.594306,36.2742775 72.594306,36.5854581 C72.594306,36.7099303 72.6512456,36.7721665 72.7651246,36.8344026 C73.1067616,37.0211109 73.5053381,37.1455831 73.9039146,37.083347 C74.4163701,37.083347 74.8149466,36.8344026 75.0996441,36.3365137 C75.4412811,35.5896803 75.4412811,34.905083 75.0427046,34.2204858 C74.8718861,33.9093052 74.5871886,33.7225969 74.2455516,33.5981247 C74.0177936,33.5358885 73.8469751,33.5358885 73.6192171,33.5981247 C73.2206406,33.6603608 72.8790036,33.9093052 72.6512456,34.2827219 C72.594306,34.4071941 72.5373665,34.5316664 72.5373665,34.6561386 C72.594306,34.9673192 72.594306,35.2784997 72.594306,35.5896803 Z" id="Shape" fill="#016797"></path>
                    <path d="M137.953291,25.2377943 C137.953291,25.2377943 137.906581,25.2377943 137.953291,25.2377943 C137.813163,25.618712 137.579616,25.8091709 137.29936,25.952015 C136.878976,26.0948591 136.365173,25.9044003 136.178336,25.5710973 C135.804661,24.9997208 136.038208,24.2378854 136.692138,24.0474265 C137.159232,23.9045824 137.626325,24.0950412 137.859872,24.4759589 C137.906581,24.5235736 137.953291,24.6188031 137.953291,24.7140325 C137.953291,24.7616472 137.953291,24.7616472 138,24.7616472 C137.953291,24.9044913 137.953291,25.0473355 137.953291,25.2377943 Z M136.972394,24.1426559 C136.878976,24.1426559 136.785557,24.1426559 136.692138,24.1902706 C136.131626,24.3807295 135.991498,25.1901796 136.411882,25.5710973 C136.832266,25.952015 137.486197,25.8091709 137.673035,25.1901796 C137.719744,25.0949502 137.719744,24.952106 137.673035,24.8092619 C137.719744,24.4759589 137.392779,24.1426559 136.972394,24.1426559 Z" id="Shape" fill="#FCBA31"></path>
                    <path d="M0,7.05775076 C0.0574926803,7 0.114985361,7.05775076 0.172478041,7.05775076 C1.43731701,7.05775076 2.70215598,7.05775076 3.96699494,7.05775076 C4.13947298,7.05775076 4.13947298,7.05775076 4.19696566,7.23100304 C4.36944371,8.21276596 4.59941443,9.25227964 4.77189247,10.2340426 C5.00186319,11.331307 5.17434123,12.3708207 5.40431195,13.4680851 C5.63428267,14.7386018 5.86425339,16.0091185 6.1517168,17.2796353 C6.32419484,18.2613982 6.49667288,19.3009119 6.66915092,20.2826748 C6.7266436,20.6869301 6.78413628,21.0911854 6.84162896,21.4954407 C6.84162896,21.5531915 6.84162896,21.6109422 6.89912164,21.668693 C6.89912164,21.6109422 6.95661432,21.5531915 6.95661432,21.43769 C7.12909236,20.3981763 7.35906308,19.3586626 7.5890338,18.3191489 C7.81900452,17.2218845 8.10646793,16.0668693 8.33643865,14.9696049 C8.73888741,13.2370821 9.14133617,11.4468085 9.54378493,9.71428571 C9.71626298,8.90577508 9.9462337,8.09726444 10.1187117,7.2887538 C10.1187117,7.23100304 10.1187117,7.23100304 10.1187117,7.17325228 C10.1187117,7.11550152 10.1762044,7.11550152 10.2336971,7.11550152 C10.2911898,7.11550152 10.2911898,7.11550152 10.3486825,7.11550152 C11.6135214,7.11550152 12.8783604,7.11550152 14.0857067,7.11550152 C14.1431994,7.11550152 14.200692,7.11550152 14.2581847,7.11550152 C14.2581847,7.17325228 14.3156774,7.23100304 14.3156774,7.2887538 C14.5456481,8.443769 14.8331115,9.65653495 15.0630822,10.8115502 C15.293053,12.0243161 15.5805164,13.2370821 15.8104871,14.3920973 C16.0404578,15.4893617 16.2704285,16.5866261 16.5003993,17.6838906 C16.6728773,18.4924012 16.7878627,19.3009119 16.9603407,20.1094225 C17.0178334,20.5714286 17.0753261,21.0334347 17.1903114,21.43769 C17.1903114,21.4954407 17.1903114,21.4954407 17.1903114,21.5531915 C17.2478041,21.5531915 17.2478041,21.4954407 17.2478041,21.4954407 C17.3052968,21.0334347 17.4202821,20.5714286 17.4777748,20.0516717 C17.5927602,19.2431611 17.7652382,18.4924012 17.9377163,17.6838906 C18.1101943,16.8753799 18.2826723,16.0668693 18.3976577,15.2583587 C18.5701357,14.3920973 18.7426138,13.5258359 18.9150918,12.6018237 C19.1450625,11.4468085 19.3750333,10.2917933 19.605004,9.19452888 C19.7199894,8.50151976 19.8924674,7.8662614 20.0074528,7.17325228 C20.0074528,7.11550152 20.0074528,7.11550152 20.0074528,7.05775076 C20.0074528,7 20.0649454,7 20.0649454,7 C20.1224381,7 20.1224381,7 20.1799308,7 C21.3872771,7 22.6521161,7 23.8594623,7 C23.916955,7 23.916955,7 23.9744477,7 C24.0319404,7.05775076 23.9744477,7.11550152 23.9744477,7.17325228 C23.6294916,8.50151976 23.2845355,9.88753799 22.9395795,11.2158055 C22.1921746,14.1610942 21.3872771,17.106383 20.6398722,20.0516717 C20.1799308,21.899696 19.6624967,23.7477204 19.2025552,25.5379939 C19.2025552,25.5957447 19.1450625,25.6534954 19.1450625,25.7112462 C19.1450625,25.768997 19.0875699,25.8267477 19.0300772,25.8267477 C18.8001065,25.8844985 18.5701357,25.9422492 18.340165,25.9422492 C17.9952089,26 17.7077455,26 17.3627895,26 C17.0178334,26 16.6728773,25.9422492 16.3279212,25.8267477 C15.7529944,25.6534954 15.293053,25.3069909 14.9480969,24.787234 C14.6606335,24.325228 14.4881554,23.8632219 14.3731701,23.343465 C14.200692,22.5349544 14.028214,21.7841945 13.855736,20.9756839 C13.5682726,19.7629179 13.3383018,18.550152 13.0508384,17.337386 C12.763375,16.0668693 12.5334043,14.7963526 12.3034336,13.4680851 C12.1884482,12.8905775 12.1309555,12.2553191 12.0734629,11.6778116 C12.0734629,11.6200608 12.0734629,11.6200608 12.0734629,11.56231 C12.0734629,11.56231 12.0734629,11.56231 12.0734629,11.56231 C12.0734629,11.56231 12.0734629,11.56231 12.0734629,11.56231 C12.0734629,11.6200608 12.0734629,11.6200608 12.0159702,11.6778116 C11.9009848,12.3708207 11.7859995,13.1215805 11.6135214,13.8145897 C11.3835507,14.7963526 11.15358,15.8358663 10.9236093,16.8176292 C10.5211605,18.550152 10.0612191,20.3404255 9.6587703,22.0729483 C9.37130689,23.2857143 9.08384349,24.4407295 8.79638009,25.6534954 C8.79638009,25.7112462 8.79638009,25.7112462 8.79638009,25.768997 C8.79638009,25.8267477 8.73888741,25.8267477 8.68139473,25.8267477 C8.56640937,25.8267477 8.45142401,25.8844985 8.33643865,25.8844985 C7.87649721,25.9422492 7.35906308,26 6.89912164,26 C6.61165824,26 6.32419484,25.9422492 6.03673143,25.8844985 C5.46180463,25.7112462 5.00186319,25.4224924 4.65690711,24.9027356 C4.42693639,24.6139818 4.25445834,24.2674772 4.13947298,23.9209726 C3.96699494,23.5167173 3.90950226,23.0547112 3.7945169,22.6504559 C3.33457546,20.7446809 2.87463402,18.8966565 2.41469257,16.9908815 C1.89725845,14.7963526 1.37982433,12.6018237 0.804897525,10.4650456 C0.574926803,9.42553191 0.287463402,8.38601824 0.0574926803,7.2887538 C0,7.23100304 0,7.17325228 0,7.05775076 Z" id="Path" fill="#016797"></path>
                    <path d="M45.0035855,18.7504591 C45.0035855,16.4138302 45.0035855,14.0772012 45.0035855,11.7405723 C45.0035855,11.381091 44.9462182,11.4410045 45.2904217,11.4410045 C46.3230323,11.4410045 47.3556428,11.4410045 48.3882534,11.4410045 C48.4456206,11.4410045 48.5029879,11.4410045 48.5603551,11.4410045 C48.6177224,11.4410045 48.6177224,11.4410045 48.6177224,11.5009181 C48.6177224,11.5608317 48.6177224,11.6207452 48.6177224,11.6806588 C48.6177224,12.2198808 48.6177224,12.6991893 48.6177224,13.2384114 C48.6177224,13.2983249 48.6177224,13.3582385 48.6177224,13.3582385 C48.6177224,13.3582385 48.6750896,13.3582385 48.6750896,13.3582385 C48.7324569,13.2983249 48.7324569,13.2983249 48.7898241,13.2384114 C48.9045586,12.9987571 49.0766604,12.8190165 49.2487622,12.5793622 C49.8798019,11.8004859 50.7403107,11.3211774 51.715554,11.1414367 C52.1171248,11.0815232 52.5186956,11.0216096 52.9776336,11.0216096 C53.8381424,11.0815232 54.6412839,11.3211774 55.329691,11.8603995 C55.9033635,12.2797944 56.3049343,12.8190165 56.5917705,13.4780656 C56.706505,13.7177199 56.706505,13.6578063 56.8212395,13.4780656 C57.2228103,12.9388436 57.6817483,12.3996215 58.1980536,11.9802266 C58.9438279,11.4410045 59.7469694,11.0815232 60.6648455,11.0216096 C61.4106198,10.961696 62.0990268,11.0216096 62.7874338,11.2612639 C63.7053099,11.5608317 64.4510842,12.2198808 64.9673894,13.0586707 C65.3689602,13.6578063 65.5984292,14.3168555 65.770531,15.0358182 C65.9426327,15.754781 66,16.4737437 66,17.1927065 C66,20.0685574 66,22.8844948 66,25.7603458 C66,26 66,26 65.770531,26 C64.6231859,26 63.5332081,26 62.3858631,26 C62.1563941,26 62.1563941,26 62.1563941,25.7603458 C62.1563941,23.1840626 62.1563941,20.6077795 62.1563941,18.0314963 C62.1563941,17.5521878 62.1563941,17.0728793 62.0416596,16.6534844 C61.9842923,16.294003 61.8695578,15.9345217 61.7548233,15.5750403 C61.6400888,15.335386 61.5253543,15.1556454 61.4106198,14.9759047 C61.009049,14.4965962 60.550111,14.3168555 59.9764384,14.2569419 C58.5996244,14.1970284 57.7391156,15.2155589 57.5096466,16.294003 C57.4522793,16.5935708 57.3949121,16.9530522 57.3949121,17.25262 C57.3949121,19.9487303 57.3949121,22.584927 57.3949121,25.2810373 C57.3949121,25.4607779 57.3949121,25.6405186 57.3949121,25.8801729 C57.3949121,26 57.3949121,26 57.2801776,26 C57.2228103,26 57.1654431,26 57.1654431,26 C56.0754653,26 54.9281202,26 53.8381424,26 C53.7807751,26 53.7234079,26 53.6660406,26 C53.6086734,26 53.6086734,25.9400864 53.6086734,25.9400864 C53.6086734,25.8801729 53.6086734,25.8202593 53.6086734,25.7004322 C53.6086734,23.0043219 53.6086734,20.3681252 53.6086734,17.6720149 C53.6086734,17.1927065 53.5513061,16.713398 53.4939389,16.2340895 C53.4365716,15.9345217 53.3218371,15.5750403 53.1497354,15.2754725 C52.7481646,14.6164233 52.1744921,14.2569419 51.4287178,14.2569419 C50.8550452,14.2569419 50.33874,14.4366826 49.8798019,14.8560775 C49.2487622,15.4552132 48.9045586,16.1741759 48.8471914,17.0728793 C48.8471914,17.1927065 48.8471914,17.3724471 48.8471914,17.4922743 C48.8471914,20.1883845 48.8471914,22.9444084 48.8471914,25.6405186 C48.8471914,25.7004322 48.8471914,25.7603458 48.8471914,25.8801729 C48.8471914,25.9400864 48.7898241,25.9400864 48.7324569,25.9400864 C48.6750896,25.9400864 48.6177224,25.9400864 48.6177224,25.9400864 C47.4703773,25.9400864 46.3803995,25.9400864 45.2330545,25.9400864 C45.0035855,25.9400864 45.0035855,25.9400864 45.0035855,25.7004322 C45.0035855,23.4836304 45.0035855,21.1470015 45.0035855,18.7504591 Z" id="Path" fill="#016797"></path>
                    <path d="M80.8194158,19.976378 C80.8194158,21.0393701 80.8194158,22.1614173 80.8194158,23.2244094 C80.8194158,23.9330709 80.8796105,24.7007874 81,25.4094488 C81,25.4094488 81,25.4685039 81,25.4685039 C81,25.6456693 81,25.6456693 80.8796105,25.7047244 C80.3980527,25.8228346 79.9164948,25.8818898 79.3747423,25.8818898 C79.1339633,25.8818898 78.8931844,25.8228346 78.6524055,25.7637795 C77.9300687,25.5275591 77.3883161,25.0551181 77.1475372,24.3464567 C77.0271477,24.1102362 77.0873425,24.0511811 76.8465635,24.2874016 C76.1844215,25.0551181 75.3416953,25.5275591 74.3785796,25.7637795 C73.5960481,26 72.8135166,26.0590551 72.030985,25.9409449 C71.0678693,25.8228346 70.2251431,25.5275591 69.5028063,24.9370079 C68.7202748,24.2283465 68.1785222,23.4015748 68.0581328,22.3385827 C67.9377433,21.4527559 67.9979381,20.6259843 68.2989117,19.7992126 C68.5998854,18.9724409 69.2018327,18.3228346 69.9241695,17.7913386 C70.5261168,17.3188976 71.2484535,17.023622 71.9707903,16.7874016 C72.6931271,16.5511811 73.4756586,16.3740157 74.2581901,16.3149606 C75.0407216,16.1968504 75.7630584,16.1968504 76.5455899,16.1968504 C76.5455899,16.1968504 76.6057846,16.1968504 76.6057846,16.1968504 C76.7261741,16.1968504 76.7261741,16.1968504 76.7261741,16.0787402 C76.7261741,15.9015748 76.7261741,15.6653543 76.6659794,15.488189 C76.5455899,14.7795276 76.1242268,14.3070866 75.40189,14.011811 C75.1009163,13.8937008 74.7999427,13.8346457 74.4387743,13.7755906 C73.6562428,13.7165354 72.933906,13.7755906 72.2115692,13.9527559 C71.4290377,14.1299213 70.6465062,14.4251969 69.9843642,14.7795276 C69.9843642,14.7795276 69.9241695,14.7795276 69.9241695,14.8385827 C69.8639747,14.8385827 69.8639747,14.8385827 69.8639747,14.8385827 C69.8639747,14.7795276 69.80378,14.7204724 69.80378,14.7204724 C69.5630011,13.9527559 69.3824169,13.2440945 69.1416379,12.476378 C69.1416379,12.4173228 69.1416379,12.4173228 69.1416379,12.3582677 C69.1416379,12.2992126 69.1416379,12.2401575 69.2018327,12.2401575 C69.2620274,12.1811024 69.3222221,12.1811024 69.4426116,12.1220472 C70.2251431,11.7086614 71.0678693,11.4724409 71.9105956,11.2952756 C72.933906,11.0590551 73.9572164,11 75.0407216,11 C75.8232531,11 76.5455899,11.1181102 77.2679267,11.3543307 C78.8931844,11.8858268 79.9766896,12.9488189 80.5184422,14.5433071 C80.6990263,15.1338583 80.8194158,15.7834646 80.8796105,16.4330709 C80.9398053,16.9645669 80.8796105,17.496063 80.8796105,18.0275591 C80.8194158,18.6181102 80.8194158,19.2677165 80.8194158,19.976378 C80.8194158,19.976378 80.8194158,19.976378 80.8194158,19.976378 Z M76.7863688,19.7992126 C76.7863688,19.7992126 76.7863688,19.7992126 76.7863688,19.7992126 C76.7863688,19.503937 76.7863688,19.2677165 76.7863688,18.9724409 C76.7863688,18.9133858 76.7863688,18.9133858 76.7863688,18.8543307 C76.7863688,18.6181102 76.7863688,18.6181102 76.5455899,18.6181102 C76.4853952,18.6181102 76.4252004,18.6181102 76.4252004,18.6181102 C76.1242268,18.6181102 75.7630584,18.6181102 75.4620847,18.6771654 C74.9805269,18.7362205 74.4387743,18.7952756 73.9572164,18.9724409 C73.5960481,19.0905512 73.2348797,19.2086614 72.933906,19.4448819 C72.5727376,19.7401575 72.271764,20.0944882 72.1513745,20.5669291 C72.0911798,20.8622047 72.030985,21.1574803 72.0911798,21.4527559 C72.2115692,22.4566929 72.8737113,22.8700787 73.5358533,22.988189 C74.4387743,23.1653543 75.2213058,22.9291339 75.9436426,22.3976378 C76.5455899,21.9251969 76.8465635,21.2755906 76.8465635,20.507874 C76.7863688,20.3307087 76.7863688,20.0354331 76.7863688,19.7992126 Z" id="Shape" fill="#016797"></path>
                    <path d="M24.6359911,14.8723304 C24.6359911,14.8138844 24.5802706,14.7554384 24.5802706,14.7554384 C24.3573887,13.9956403 24.1345068,13.2358422 23.9673454,12.4760442 C23.9673454,12.4175982 23.9673454,12.4175982 23.9116249,12.3591521 C23.9116249,12.3007061 23.9116249,12.3007061 23.9673454,12.2422601 C24.0230659,12.1838141 24.1345068,12.1838141 24.1902273,12.1253681 C24.858873,11.7746921 25.5832392,11.5409081 26.3076054,11.3071241 C27.310574,11.07334 28.3692631,10.956448 29.3722317,11.014894 C30.0408775,11.014894 30.7095232,11.131786 31.3781689,11.3655701 C32.9383423,11.8915841 33.9970314,13.0020582 34.4427952,14.6385463 C34.6099567,15.1061144 34.6656771,15.6321284 34.7213976,16.1581425 C34.7771181,16.5088185 34.7771181,16.8594945 34.7771181,17.2101706 C34.7771181,19.0219967 34.7771181,20.8338229 34.7771181,22.6456491 C34.7771181,23.3470011 34.8328386,23.9899072 34.888559,24.6328132 C34.888559,24.9250433 34.9442795,25.2172733 35,25.5679493 C35,25.6263953 35,25.6848413 34.9442795,25.6848413 C34.7213976,25.7432873 34.4427952,25.8017333 34.2199133,25.8601793 C33.82987,25.9186253 33.3841061,25.9186253 32.9940628,25.8017333 C32.2696966,25.5679493 31.7682123,25.1003813 31.4338894,24.3990292 C31.4338894,24.3405832 31.3781689,24.2821372 31.3781689,24.2236912 C31.3224485,24.1652452 31.3224485,24.1652452 31.266728,24.2236912 C31.0995665,24.3990292 30.9324051,24.5743672 30.7652437,24.7497052 C30.0965979,25.3341653 29.3722317,25.6848413 28.5364246,25.8601793 C27.9792198,25.9770713 27.3662945,26.0355174 26.7533693,25.9770713 C25.5275188,25.8601793 24.5245502,25.3341653 23.8001839,24.2821372 C23.3544201,23.6392311 23.0758177,22.9378791 23.0200972,22.178081 C22.9643768,21.4182829 23.0200972,20.7169309 23.2429792,19.9571328 C23.577302,19.0219967 24.1345068,18.3206447 24.858873,17.7946306 C25.4717983,17.3855086 26.0847235,17.0348326 26.8090897,16.8010485 C27.4777355,16.5672645 28.0906607,16.4503725 28.7593065,16.3919265 C29.4836727,16.2750345 30.1523184,16.2750345 30.8766846,16.2750345 C30.8766846,16.2750345 30.9324051,16.2750345 30.9324051,16.2750345 C31.0438461,16.2750345 31.0438461,16.2750345 31.0438461,16.1581425 C31.0438461,16.0412505 31.0438461,15.9243585 31.0438461,15.8074665 C31.0438461,15.5736824 30.9881256,15.3398984 30.8766846,15.1061144 C30.7095232,14.6969924 30.3752003,14.4047623 29.985157,14.1709783 C29.6508341,13.9956403 29.2607908,13.9371943 28.9264679,13.8787483 C27.4777355,13.7618563 26.140444,14.1125323 24.858873,14.8723304 C24.7474321,14.8138844 24.6917116,14.8138844 24.6359911,14.8723304 Z M31.0995665,19.7817948 C31.0995665,19.7817948 31.0995665,19.7817948 31.0995665,19.7817948 C31.0995665,19.4895648 31.0995665,19.2557808 31.0995665,18.9635507 C31.0995665,18.9051047 31.0995665,18.8466587 31.0995665,18.7882127 C31.0995665,18.7297667 31.0995665,18.7297667 31.0438461,18.7297667 C30.9881256,18.7297667 30.9324051,18.7297667 30.8766846,18.7297667 C30.4866413,18.7297667 30.1523184,18.7297667 29.7622751,18.7882127 C29.3165113,18.8466587 28.8707474,18.9051047 28.4249836,19.0804427 C28.0349403,19.1973348 27.7006174,19.3726728 27.3662945,19.6649028 C27.0319717,19.9571328 26.8090897,20.3078088 26.6976488,20.7753769 C26.6419283,21.0676069 26.6419283,21.4182829 26.6976488,21.710513 C26.8090897,22.353419 27.1991331,22.8209871 27.8120583,23.0547711 C28.2021017,23.1716631 28.6478655,23.1716631 29.0379089,23.1132171 C29.985157,22.9378791 31.0995665,22.061189 31.0438461,20.6000389 C31.0995665,20.2493628 31.0995665,20.0155788 31.0995665,19.7817948 Z" id="Shape" fill="#016797"></path>
                    <path d="M99.8853047,22.5567404 C99.9426523,22.6141281 99.8853047,22.6715157 99.8853047,22.7289034 C99.8853047,23.5897183 99.9426523,24.4505332 99.9426523,25.3113481 C99.9426523,25.3687357 99.9426523,25.3687357 99.9426523,25.4261234 C99.9426523,25.5408987 99.9426523,25.5408987 99.827957,25.5982864 C99.5412186,25.7130617 99.2544803,25.7704494 99.0250896,25.827837 C98.5089606,25.9426123 97.9928315,26 97.4767025,26 C96.7885305,26 96.1003584,25.9426123 95.4695341,25.7130617 C94.437276,25.3113481 93.7491039,24.6226962 93.4050179,23.5897183 C93.2329749,23.1880047 93.1756272,22.7289034 93.1182796,22.2698021 C93.0609319,21.7533132 93.0035842,21.1794366 93.0035842,20.6629477 C93.0035842,16.1867102 93.0035842,11.7104728 93.0035842,7.291623 C93.0035842,6.94729705 92.9462366,7.00468471 93.2903226,7.00468471 C94.3799283,7.00468471 95.4121864,7.00468471 96.5017921,7.00468471 C96.7885305,7.00468471 96.7311828,6.94729705 96.7311828,7.23423534 C96.7311828,8.49676385 96.7311828,9.81668002 96.7311828,11.0792085 C96.7311828,11.4235345 96.6738351,11.3661468 97.0179211,11.3661468 C97.9354839,11.3661468 98.8530466,11.3661468 99.7132616,11.3661468 C99.7706093,11.3661468 99.827957,11.3661468 99.8853047,11.3661468 C99.9426523,11.3661468 100,11.3661468 100,11.4809221 C100,11.5383098 100,11.5956975 100,11.5956975 C100,12.6286753 100,13.6616532 100,14.6946311 C100,14.7520187 100,14.8094064 100,14.8094064 C100,14.9241817 100,14.9241817 99.8853047,14.9241817 C99.827957,14.9241817 99.7706093,14.9241817 99.7132616,14.9241817 C98.7956989,14.9241817 97.8781362,14.9241817 97.0179211,14.9241817 C96.9605735,14.9241817 96.9032258,14.9241817 96.8458781,14.9241817 C96.7885305,14.9241817 96.7311828,14.9241817 96.7311828,15.038957 C96.7311828,15.0963447 96.7311828,15.1537324 96.7311828,15.21112 C96.7311828,16.8753621 96.7311828,18.4822166 96.7311828,20.1464587 C96.7311828,20.4907847 96.7311828,20.8924983 96.7885305,21.2368243 C96.7885305,21.4089872 96.8458781,21.5811502 96.9032258,21.7533132 C97.1326165,22.3845775 97.5340502,22.7289034 98.2795699,22.7862911 C98.7383513,22.7862911 99.1971326,22.7862911 99.655914,22.6715157 C99.7132616,22.5567404 99.7706093,22.5567404 99.8853047,22.5567404 C99.827957,22.5567404 99.8853047,22.5567404 99.8853047,22.5567404 Z" id="Path" fill="#016797"></path>
                    <path d="M42,16.4726014 C42,19.5704672 42,22.6098827 42,25.7077485 C42,25.7661988 42,25.8830994 42,25.9415497 C42,26 42,26 41.9394513,26 C41.8789026,26 41.8183538,26 41.8183538,26 C40.6073794,26 39.4569536,26 38.2459792,26 C38.0037843,26 38.0037843,26 38.0037843,25.8246491 C38.0037843,25.7661988 38.0037843,25.7661988 38.0037843,25.7077485 C38.0037843,19.5704672 38.0037843,13.4331859 38.0037843,7.29590463 C38.0037843,6.94520285 37.9432356,7.00365314 38.3065279,7.00365314 C39.4569536,7.00365314 40.5468307,7.00365314 41.6972564,7.00365314 C41.7578051,7.00365314 41.8183538,7.00365314 41.9394513,7.00365314 C42,7.00365314 42,7.00365314 42,7.06210344 C42,7.12055374 42,7.23745434 42,7.29590463 C42,10.3353201 42,13.3747356 42,16.4726014 Z" id="Path" fill="#016797"></path>
                    <path d="M90.8345759,14.8769882 C90.6691518,14.8769882 90.558869,14.8168798 90.3934449,14.8168798 C89.8971726,14.7567715 89.4009003,14.7567715 88.9597693,14.8769882 C87.8018005,15.1775299 87.1401041,15.9589383 86.8643972,17.2212135 C86.7541145,17.6419719 86.7541145,18.0627304 86.7541145,18.4834888 C86.7541145,20.8878225 86.7541145,23.2320479 86.7541145,25.6363816 C86.7541145,26.05714 86.8092559,25.9970317 86.4232663,25.9970317 C85.3755803,25.9970317 84.2727528,25.9970317 83.2250668,25.9970317 C82.94936,25.9970317 83.0045013,25.9970317 83.0045013,25.7565983 C83.0045013,21.0080392 83.0045013,16.3195884 83.0045013,11.5710293 C83.0045013,11.2704875 83.0045013,11.3305959 83.2802082,11.2704875 C84.2176115,11.2704875 85.2101561,11.2704875 86.1475594,11.2704875 C86.3681249,11.2704875 86.3681249,11.2704875 86.3681249,11.5109209 C86.3681249,12.2923294 86.3681249,13.0136295 86.3681249,13.795038 C86.3681249,13.8551463 86.3681249,13.9152547 86.3681249,14.0354713 C86.3681249,14.0354713 86.3681249,14.0955797 86.4232663,14.0955797 C86.4232663,14.0955797 86.4784077,14.0955797 86.4784077,14.0955797 C86.533549,14.0354713 86.533549,13.975363 86.533549,13.9152547 C86.6989731,13.3742796 86.97468,12.9535212 87.3055282,12.5327628 C87.9120833,11.8114626 88.6289211,11.3305959 89.511183,11.0901625 C89.952314,10.9699458 90.3934449,10.9699458 90.8345759,11.0901625 C90.8897173,11.0901625 90.8897173,11.0901625 90.9448586,11.0901625 C91,11.0901625 91,11.1502709 91,11.1502709 C91,11.2103792 91,11.2704875 91,11.3305959 C91,12.4726544 91,13.5546046 91,14.6966631 C90.8345759,14.6966631 90.8897173,14.8168798 90.8345759,14.8769882 Z" id="Path" fill="#016797"></path>
                    <path d="M32.625,33.4171779 C32.5625,33.4171779 32.5625,33.4785276 32.5625,33.4785276 C32.5,33.9693252 32.4375,34.398773 32.375,34.8895706 C32.3125,35.5030675 32.1875,36.0552147 32.125,36.6687117 C32.0625,37.2822086 31.9375,37.8957055 31.8125,38.4478528 C31.8125,38.5092025 31.8125,38.5092025 31.8125,38.5705521 C31.75,38.7546012 31.6875,38.8159509 31.5,38.8159509 C31.375,38.8159509 31.3125,38.8159509 31.1875,38.8159509 C30.9375,38.8159509 30.625,38.8159509 30.375,38.8159509 C30.3125,38.8159509 30.25,38.8159509 30.1875,38.8159509 C30.0625,38.8159509 30,38.6932515 30,38.5705521 C30,38.5092025 30,38.3865031 30,38.3251534 C30.25,36.9141104 30.5,35.5644172 30.75,34.1533742 C31,32.803681 31.25,31.4539877 31.5,30.1042945 C31.5625,29.797546 31.625,29.5521472 31.6875,29.2453988 C31.75,29.0613497 31.75,29 31.9375,29 C32.3125,29 32.3125,29 32.5,29.3067485 C33.4375,31.3312883 34.4375,33.3558282 35.375,35.4417178 C35.4375,35.5030675 35.4375,35.6257669 35.5,35.6871166 C35.5625,35.6257669 35.625,35.5644172 35.625,35.4417178 C36.3125,34.0306748 37,32.5582822 37.6875,31.1472393 C38,30.5337423 38.25,29.9202454 38.5625,29.3680982 C38.5625,29.3067485 38.625,29.2453988 38.625,29.1840491 C38.6875,29.0613497 38.75,29.0613497 38.875,29.0613497 C38.9375,29.0613497 39.0625,29.0613497 39.125,29.0613497 C39.25,29.0613497 39.3125,29.1226994 39.375,29.2453988 C39.4375,29.4294479 39.4375,29.5521472 39.4375,29.7361963 C39.6875,31.2699387 40,32.803681 40.25,34.3374233 C40.5,35.6871166 40.75,37.0368098 41,38.3865031 C41,38.4478528 41,38.5092025 41,38.6319018 C41,38.7546012 40.9375,38.8159509 40.8125,38.8159509 C40.75,38.8159509 40.6875,38.8159509 40.6875,38.8159509 C40.3125,38.8159509 39.9375,38.8159509 39.5625,38.8159509 C39.5625,38.8159509 39.5,38.8159509 39.5,38.8159509 C39.3125,38.8159509 39.25,38.6932515 39.1875,38.5705521 C39.125,38.3865031 39.125,38.202454 39.0625,37.9570552 C38.9375,37.2822086 38.8125,36.5460123 38.75,35.8711656 C38.625,35.196319 38.5625,34.5214724 38.4375,33.8466258 C38.4375,33.7239264 38.375,33.601227 38.375,33.4785276 C38.375,33.4785276 38.375,33.4171779 38.3125,33.4785276 C38.3125,33.4785276 38.25,33.4785276 38.25,33.4785276 C38.1875,33.5398773 38.1875,33.6625767 38.125,33.7239264 C37.375,35.3803681 36.625,37.0368098 35.875,38.6932515 C35.8125,38.9386503 35.8125,39 35.4375,39 C35.25,39 35.125,38.9386503 35.0625,38.7546012 C34.9375,38.3865031 34.75,38.0797546 34.5625,37.7116564 C33.9375,36.3619632 33.3125,34.9509202 32.6875,33.601227 C32.75,33.5398773 32.6875,33.4785276 32.625,33.4171779 Z" id="Path" fill="#016797"></path>
                    <path d="M124.015428,19.8969263 C124.078259,19.1718086 124.392412,18.6279703 125.020718,18.204985 C125.146379,18.1445585 125.33487,18.0841321 125.460532,18.0237056 C125.649023,17.9632791 125.837515,18.0237056 126.026007,18.1445585 C126.465821,18.325838 126.905635,18.5675439 127.345449,18.7488233 C129.418858,19.6552204 131.492267,20.6220439 133.565677,21.528441 C133.754168,21.5888675 133.94266,21.7097204 134.131152,21.7701469 C134.633797,21.9514263 134.822288,22.3139852 134.947949,22.7973969 C135.073611,23.2808087 134.947949,23.703794 134.822288,24.1267793 C134.570966,24.7914705 134.131152,25.3353088 133.502846,25.6978676 C133.251524,25.8791471 132.937371,25.9395735 132.623218,26 C132.309065,26 132.057743,25.9395735 131.80642,25.8187206 C131.492267,25.5770147 131.178115,25.3957353 130.863962,25.1540294 C128.727722,23.703794 126.591482,22.2535587 124.455242,20.8637498 C124.078259,20.6220439 123.952598,20.3199116 124.015428,19.8969263 Z" id="Path" fill="#FCBA31"></path>
                    <path d="M105,23.5542481 C105,23.235237 105.0625,23.0225629 105.1875,22.7567203 C105.3125,22.5440462 105.5,22.3845407 105.75,22.2782036 C106.875,21.8528555 108,21.3743388 109.1875,20.9489907 C110,20.6299795 110.8125,20.3109684 111.625,19.9919573 C112.375,19.6729462 113.1875,19.4071036 113.9375,19.0880925 C114.1875,18.9817554 114.4375,18.9817554 114.75,19.034924 C115.0625,19.141261 115.3125,19.3007666 115.5,19.5134406 C115.8125,19.8856203 116,20.2577999 116,20.7363166 C116,21.0553277 115.8125,21.2680018 115.5625,21.4275073 C114.6875,21.9591925 113.75,22.4908777 112.875,23.0225629 C111.3125,23.9264277 109.8125,24.8302926 108.25,25.7873259 C107.875,26 107.5,26.0531685 107.0625,25.9468315 C106.625,25.8404944 106.1875,25.6278204 105.875,25.3088092 C105.4375,24.8834611 105.125,24.3517759 105,23.7669222 C105,23.6605851 105,23.6074166 105,23.5542481 Z" id="Path" fill="#FCBA31"></path>
                    <path d="M105,9.88721805 C105,9.34586466 105.12494,8.86466165 105.374819,8.44360902 C105.624699,7.96240602 105.999519,7.54135338 106.499278,7.30075188 C106.811628,7.12030075 107.123977,7 107.498797,7 C107.748676,7 107.998556,7.06015038 108.185966,7.2406015 C108.748195,7.66165414 109.372894,8.02255639 109.935123,8.44360902 C111.184522,9.28571429 112.37145,10.0676692 113.620848,10.9097744 C114.245548,11.3308271 114.932717,11.8120301 115.557416,12.2330827 C115.807295,12.4135338 115.932235,12.6541353 115.994705,12.9548872 C116.057175,13.7368421 115.557416,14.518797 114.995186,14.8195489 C114.807777,14.9398496 114.620367,15 114.370487,15 C114.245548,15 114.120608,15 113.995668,14.9398496 C113.246029,14.5789474 112.49639,14.2781955 111.809221,13.9774436 C109.872653,13.1353383 107.936086,12.2330827 105.999519,11.3909774 C105.999519,11.3909774 105.937049,11.3909774 105.937049,11.3308271 C105.499759,11.1503759 105.31235,10.8496241 105.18741,10.4285714 C105.06247,10.1278195 105,10.0075188 105,9.88721805 Z" id="Path" fill="#FCBA31"></path>
                    <path d="M125,12.2669677 C125,12.2138998 125,12.1077639 125.062361,12.001628 C125.124722,11.7893562 125.249444,11.6301523 125.436527,11.5240164 C126.184859,11.0994728 126.933191,10.6218613 127.681523,10.1973177 C129.36527,9.18902668 130.986656,8.2338036 132.670403,7.22551256 C132.670403,7.22551256 132.670403,7.22551256 132.732764,7.22551256 C133.10693,6.96017282 133.543457,6.96017282 134.042345,7.06630872 C134.35415,7.17244461 134.665955,7.33164846 134.915399,7.49085231 C135.539008,7.96846385 135.850813,8.55221129 135.975535,9.24209463 C136.037896,9.50743437 135.975535,9.82584207 135.850813,10.0911818 C135.726091,10.3565216 135.539008,10.5687934 135.227204,10.6749293 C134.104706,11.0994728 132.982208,11.5770844 131.922071,12.001628 C131.049017,12.3731036 130.175963,12.6915113 129.240548,13.062987 C128.492216,13.3283267 127.806245,13.6467344 127.057913,13.9120741 C126.808469,14.01821 126.559025,14.01821 126.371942,13.9651421 C126.060137,13.9120741 125.873054,13.7528703 125.685971,13.5936664 C125.187083,13.1691229 125,12.7976472 125,12.2669677 Z" id="Path" fill="#FCBA31"></path>
                    <path d="M121.001596,33 C120.583015,33 120.216756,32.9418415 119.90282,32.7673662 C119.641206,32.6510493 119.431915,32.4765739 119.274947,32.24394 C119.065656,32.0113062 118.961011,31.7205139 119.013334,31.3715632 C119.013334,31.0807709 119.065656,30.7318201 119.065656,30.4410278 C119.065656,30.2665525 119.117979,30.0339186 119.117979,29.8594433 C119.170302,29.3941756 119.170302,28.9870664 119.222624,28.5217987 C119.274947,28.1146895 119.274947,27.6494218 119.32727,27.2423126 C119.32727,27.0096788 119.379593,26.777045 119.379593,26.5444111 C119.431915,26.0791435 119.431915,25.6138758 119.484238,25.1486081 C119.484238,24.9159743 119.536561,24.6833405 119.536561,24.4507066 C119.588883,23.985439 119.641206,23.4620128 119.641206,22.9967452 C119.641206,22.7059529 119.798174,22.5314775 119.955142,22.3570021 C120.059788,22.2406852 120.216756,22.1825268 120.373724,22.1243683 C120.792306,21.9498929 121.26321,21.9498929 121.681791,22.1825268 C121.83876,22.2406852 121.995728,22.3570021 122.100373,22.4733191 C122.205019,22.6477944 122.309664,22.8222698 122.309664,22.9967452 C122.309664,23.3456959 122.361987,23.6364882 122.414309,23.985439 C122.466632,24.3925482 122.466632,24.8578158 122.518955,25.264925 C122.518955,25.4394004 122.571277,25.6720343 122.571277,25.8465096 C122.6236,26.3117773 122.6236,26.7188865 122.675923,27.1841542 C122.728246,27.5912634 122.728246,27.9983726 122.780568,28.4636403 C122.780568,28.6962741 122.832891,28.8707495 122.832891,29.1033833 C122.885214,29.568651 122.885214,29.9757602 122.937536,30.4410278 C122.937536,30.7318201 122.989859,31.0807709 122.989859,31.3715632 C123.042182,31.7205139 122.885214,32.0694647 122.675923,32.3020985 C122.414309,32.5928908 122.100373,32.7673662 121.734114,32.8836831 C121.472501,32.9418415 121.210887,33 121.001596,33 Z" id="Path" fill="#FCBA31"></path>
                    <path d="M56.2727273,35.8101266 C56.3333333,35.9240506 56.4545455,35.9810127 56.5151515,36.0949367 C57.2424242,36.8924051 57.969697,37.6329114 58.7575758,38.4303797 C58.8181818,38.4873418 58.8787879,38.5443038 58.9393939,38.6012658 C59.0606061,38.7721519 59,38.943038 58.7575758,39 C58.6969697,39 58.6969697,39 58.6363636,39 C58.2727273,39 57.8484848,39 57.4848485,39 C57.3030303,39 57.1818182,38.943038 57.0606061,38.8291139 C56.3333333,38.0316456 55.6666667,37.2341772 54.9393939,36.4367089 C54.8787879,36.3797468 54.8181818,36.3227848 54.7575758,36.2658228 C54.6969697,36.3227848 54.6969697,36.3797468 54.6969697,36.4367089 C54.6969697,37.1202532 54.6969697,37.8607595 54.6969697,38.5443038 C54.6969697,38.6012658 54.6969697,38.6582278 54.6969697,38.7151899 C54.6969697,38.8860759 54.5757576,39 54.3939394,39 C54.2121212,39 54.030303,39 53.8484848,39 C53.6666667,39 53.4848485,39 53.3636364,39 C53.1212121,39 53.0606061,38.8860759 53,38.7151899 C53,38.6582278 53,38.6012658 53,38.5443038 C53,35.8670886 53,33.1898734 53,30.5126582 C53,30.4556962 53,30.3987342 53,30.2848101 C53,30.1139241 53.1212121,30 53.3030303,30 C53.4848485,30 53.6666667,30 53.8484848,30 C54.030303,30 54.2121212,30 54.3333333,30 C54.5757576,30 54.6363636,30.1139241 54.6969697,30.3417722 C54.6969697,30.3987342 54.6969697,30.4556962 54.6969697,30.5126582 C54.6969697,31.9936709 54.6969697,33.4746835 54.6969697,35.0126582 C54.6969697,35.0696203 54.6969697,35.1265823 54.6969697,35.2405063 C54.6969697,35.2405063 54.6969697,35.2405063 54.6969697,35.2974684 C54.6969697,35.2974684 54.6969697,35.2974684 54.7575758,35.2974684 C54.8181818,35.2405063 54.8787879,35.1835443 54.9393939,35.1265823 C55.5454545,34.556962 56.1515152,33.9873418 56.6969697,33.4177215 C56.7575758,33.3607595 56.8181818,33.3037975 56.8787879,33.2468354 C57,33.1329114 57.1818182,33.0759494 57.3636364,33.0759494 C57.7272727,33.0759494 58.0909091,33.0759494 58.4545455,33.0759494 C58.5151515,33.0759494 58.5151515,33.0759494 58.5757576,33.0759494 C58.8181818,33.1329114 58.8787879,33.3037975 58.7575758,33.4746835 C58.6969697,33.5316456 58.6363636,33.5886076 58.5757576,33.6455696 C57.8484848,34.3291139 57.1212121,34.9556962 56.3939394,35.6392405 C56.3333333,35.6392405 56.2727273,35.6962025 56.2727273,35.8101266 Z" id="Path" fill="#016797"></path>
                    <path d="M60.7416227,36.2558423 C60.7416227,36.5317611 60.8015998,36.7524962 60.9815313,36.9732312 C61.281417,37.3595176 61.701257,37.5802527 62.2410513,37.5802527 C62.7208685,37.5802527 63.1407085,37.4698851 63.5605485,37.1939663 C63.6205257,37.1387825 63.6805028,37.0835988 63.7404799,37.0835988 C63.8604342,37.028415 63.9204114,37.0835988 63.9803885,37.1387825 C63.9803885,37.1387825 63.9803885,37.1387825 64.0403657,37.1939663 C64.2202971,37.4147014 64.4002285,37.6354364 64.58016,37.8561715 C64.58016,37.8561715 64.6401371,37.9113553 64.6401371,37.9113553 C64.7001143,37.966539 64.6401371,38.0769066 64.58016,38.1320903 C64.5201828,38.1872741 64.5201828,38.1872741 64.4602057,38.2424579 C63.4405942,38.9598468 62.3610056,39.1805819 61.1614627,38.8494793 C60.1418512,38.5735605 59.4821026,37.9113553 59.1822169,36.9732312 C58.822354,35.9799234 59.0022855,34.9866156 59.6620341,34.1588591 C60.3217827,33.3311026 61.2214398,33 62.3010285,33 C62.8408228,33 63.3206399,33.1655513 63.7404799,33.3862864 C64.4002285,33.7725727 64.8200686,34.3795942 64.9400229,35.0969831 C65,35.372902 65,35.6488208 65,35.8695559 C65,35.9247397 65,35.9799234 65,35.9799234 C64.9400229,36.1454747 64.8800457,36.2558423 64.6401371,36.2558423 C64.58016,36.2558423 64.5201828,36.2558423 64.4602057,36.2558423 C63.2606628,36.2558423 62.121097,36.2558423 60.9215541,36.2558423 C60.9215541,36.2558423 60.8015998,36.2006585 60.7416227,36.2558423 Z M63.3206399,35.2073507 C63.3206399,34.8210643 63.0207542,34.4347779 62.6009142,34.3244104 C62.1810742,34.2140429 61.8212113,34.2140429 61.4613484,34.3795942 C61.1614627,34.4899617 60.9815313,34.7106968 60.861577,35.0417994 C60.861577,35.0969831 60.861577,35.1521669 60.8015998,35.2073507 C60.8015998,35.2073507 60.8015998,35.2625344 60.861577,35.2625344 C60.9215541,35.2625344 60.9215541,35.2625344 60.9815313,35.2625344 C61.701257,35.2625344 62.4809599,35.2625344 63.2006856,35.2625344 C63.2006856,35.2073507 63.2606628,35.2073507 63.3206399,35.2073507 Z" id="Shape" fill="#016797"></path>
                    <path d="M97.7883651,36.332872 C97.190626,36.332872 96.6526608,36.332872 96.0549216,36.332872 C95.9951477,36.332872 95.9353738,36.332872 95.8755999,36.332872 C95.756052,36.332872 95.756052,36.332872 95.756052,36.4437939 C95.756052,36.4992549 95.756052,36.6101769 95.8158259,36.6656379 C95.9951477,37.1647867 96.3537912,37.4975526 96.9515303,37.6084745 C97.5492695,37.7193965 98.0274608,37.6084745 98.5056521,37.2757087 C98.565426,37.2202477 98.6252,37.2202477 98.6849739,37.1647867 C98.8642956,37.1093257 98.9240695,37.1093257 99.0436174,37.2202477 C99.0436174,37.2202477 99.1033913,37.2757087 99.1033913,37.2757087 C99.2229391,37.4420916 99.4022608,37.6084745 99.5218087,37.7748575 C99.7011304,37.9412404 99.7011304,38.1076234 99.4620348,38.2740063 C99.0436174,38.5513112 98.6252,38.7731552 98.1470086,38.8840771 C97.6090434,38.9949991 97.0113042,39.0504601 96.4135651,38.9395381 C95.6365042,38.7731552 95.098539,38.3849283 94.6203476,37.8303185 C93.7835128,36.7765598 93.7835128,35.2236523 94.6801216,34.1144327 C95.3376346,33.337979 96.1744694,32.9497521 97.2503999,33.0052131 C97.6090434,33.0052131 97.9676869,33.0606741 98.3263304,33.227057 C99.2229391,33.6152839 99.7609043,34.2253547 99.9402261,35.1127304 C100,35.3900353 100,35.6673402 100,35.9446451 C100,36.0001061 100,36.0555671 100,36.111028 C99.9402261,36.22195 99.8804522,36.332872 99.7011304,36.332872 C99.6413565,36.332872 99.5815826,36.332872 99.5218087,36.332872 C99.0436174,36.332872 98.4458782,36.332872 97.7883651,36.332872 Z M95.8755999,35.2791133 C96.7124347,35.2791133 97.4894956,35.2791133 98.2665565,35.2791133 C98.3263304,35.2791133 98.3263304,35.2791133 98.3861043,35.2791133 C98.3263304,34.8908865 98.1470086,34.6135815 97.7883651,34.4471986 C97.2503999,34.2253547 96.7722086,34.2808157 96.2940173,34.5581206 C96.0549216,34.7245035 95.9353738,34.9463474 95.8755999,35.2791133 Z" id="Shape" fill="#016797"></path>
                    <path d="M87,36.8563638 C87,37.4040322 87,37.9517006 87,38.499369 C87,38.5541358 87,38.6089026 87,38.6636695 C87,38.82797 86.8860399,38.8827368 86.7150997,38.9375037 C86.3732194,38.9375037 86.031339,38.82797 85.8603989,38.499369 C85.8603989,38.4446021 85.8034188,38.4446021 85.8034188,38.3898353 C85.8034188,38.3350684 85.7464387,38.3350684 85.7464387,38.3898353 C85.6894587,38.4446021 85.6324786,38.4446021 85.5754986,38.499369 C84.8917379,38.9375037 84.1509972,39.1018042 83.3532764,38.9375037 C82.6125356,38.7732031 82.1566952,38.2803016 82.042735,37.5683327 C81.985755,37.2944985 81.985755,37.0206643 82.042735,36.801597 C82.0997151,36.3634623 82.3846154,35.9800944 82.7834758,35.7062602 C83.0683761,35.4871929 83.4102564,35.3776592 83.8091168,35.3228924 C84.3219373,35.2133587 84.8347578,35.2681255 85.3475783,35.3776592 C85.4045584,35.3776592 85.4615385,35.3776592 85.4615385,35.3776592 C85.5185185,35.3776592 85.5185185,35.3776592 85.5185185,35.3228924 C85.5185185,34.8299908 85.2336182,34.5013898 84.7207977,34.3918561 C84.5498575,34.3370893 84.3789174,34.3370893 84.2079772,34.3370893 C83.8091168,34.3918561 83.4672365,34.3918561 83.1253561,34.5013898 C83.1253561,34.5013898 83.0683761,34.5013898 83.0683761,34.5013898 C82.8404558,34.5561566 82.7264957,34.5013898 82.6695157,34.2823224 C82.6125356,34.1180219 82.6125356,34.0084882 82.5555556,33.8441877 C82.5555556,33.7894209 82.4985755,33.6798872 82.4985755,33.6251204 C82.4415954,33.406053 82.4985755,33.3512862 82.7264957,33.2965194 C83.011396,33.1869857 83.2962963,33.1322188 83.5811966,33.077452 C84.037037,33.0226852 84.4358974,32.9679183 84.8917379,33.0226852 C85.1766382,33.0226852 85.4615385,33.1322188 85.6894587,33.2417525 C86.2592593,33.4608199 86.6011396,33.8989546 86.8290598,34.446623 C86.9430199,34.8299908 87,35.2133587 87,35.5967265 C87,35.9800944 87,36.4182291 87,36.8563638 Z M85.4615385,36.8563638 C85.4615385,36.7468301 85.4615385,36.6372965 85.4615385,36.5277628 C85.4615385,36.4182291 85.4615385,36.4182291 85.3475783,36.3634623 C85.1196581,36.3086954 84.9487179,36.2539286 84.7207977,36.2539286 C84.4928775,36.2539286 84.2649573,36.2539286 84.037037,36.3634623 C83.8091168,36.472996 83.6381766,36.6372965 83.5811966,36.8563638 C83.5242165,37.0206643 83.5242165,37.1849648 83.5811966,37.2944985 C83.6381766,37.5683327 83.8660969,37.7326332 84.0940171,37.7874001 C84.6068376,37.9517006 85.1766382,37.6230996 85.3475783,37.3492654 C85.4045584,37.2944985 85.4045584,37.1849648 85.4045584,37.130198 C85.4045584,37.0206643 85.4615385,36.9111307 85.4615385,36.8563638 Z" id="Shape" fill="#016797"></path>
                    <path d="M47,36.8501257 C47,37.4050987 47,37.9600718 47,38.4595476 C47,38.5150449 47,38.5705422 47,38.6260395 C47,38.7925314 46.8865631,38.903526 46.7731261,38.903526 C46.4328153,38.903526 46.1492229,38.7925314 45.922349,38.5150449 C45.8656305,38.4595476 45.8656305,38.348553 45.8089121,38.348553 C45.7521936,38.348553 45.6954751,38.4040503 45.6387566,38.4595476 C44.958135,38.9590233 44.2207948,39.1255153 43.3700177,38.903526 C42.6326776,38.7370341 42.2356483,38.2375584 42.0654929,37.5715907 C42.0087744,37.2941041 41.9520559,36.9611203 42.0654929,36.6836338 C42.1222113,36.2951526 42.3490852,35.9621688 42.6893961,35.7401795 C43.0297069,35.462693 43.3700177,35.3516984 43.767047,35.2962011 C44.2775133,35.1852065 44.7879796,35.2407038 45.2984458,35.3516984 C45.3551643,35.3516984 45.4118828,35.3516984 45.4118828,35.4071957 C45.4686012,35.4071957 45.4686012,35.4071957 45.4686012,35.3516984 C45.4686012,34.8522226 45.1850089,34.5192388 44.6745426,34.4082442 C44.5043872,34.3527469 44.3342318,34.3527469 44.1640764,34.3527469 C43.767047,34.4082442 43.4267362,34.4637415 43.0864254,34.5192388 C43.0297069,34.5192388 42.9729884,34.5192388 42.9729884,34.5747361 C42.802833,34.5747361 42.7461145,34.5192388 42.6893961,34.4082442 C42.6893961,34.3527469 42.6326776,34.2972496 42.6326776,34.1862549 C42.5759591,34.019763 42.5759591,33.8532711 42.5192406,33.6867792 C42.5192406,33.6312819 42.5192406,33.5757846 42.5192406,33.5202873 C42.5192406,33.4092926 42.5759591,33.298298 42.6893961,33.298298 C42.802833,33.2428007 42.9729884,33.1873034 43.0864254,33.1873034 C43.6536101,33.0208115 44.2775133,32.9653142 44.844698,33.0208115 C45.1282904,33.0208115 45.4118828,33.1318061 45.6387566,33.1873034 C46.2626599,33.4647899 46.6596892,33.9087684 46.8298446,34.5747361 C46.8865631,34.8522226 46.9432815,35.1297092 46.9432815,35.4071957 C47,35.9066715 47,36.3506499 47,36.8501257 Z M45.4686012,36.7946284 C45.4686012,36.6836338 45.4686012,36.5726391 45.4686012,36.4616445 C45.4686012,36.4061472 45.4118828,36.3506499 45.3551643,36.2951526 C45.1282904,36.2396553 44.9014165,36.184158 44.6178241,36.184158 C44.3909502,36.184158 44.2207948,36.184158 43.9939209,36.2951526 C43.7103286,36.4061472 43.4834547,36.6281364 43.4834547,36.9611203 C43.4834547,37.0166176 43.4834547,37.0721149 43.4834547,37.1276122 C43.5401731,37.4605961 43.7103286,37.6825853 44.0506394,37.7935799 C44.5611057,37.9045745 45.1282904,37.6825853 45.4118828,37.3496014 C45.4686012,37.2941041 45.4686012,37.2386068 45.4686012,37.1276122 C45.4686012,37.0166176 45.4686012,36.905623 45.4686012,36.7946284 Z" id="Shape" fill="#016797"></path>
                    <path d="M66.7567568,35.6975134 C66.7567568,35.2974517 66.7567568,34.89739 66.7567568,34.5544801 C66.7567568,34.4973284 66.7567568,34.4401767 66.7567568,34.3830251 C66.7567568,34.3258734 66.7027027,34.3258734 66.7027027,34.3258734 C66.6486486,34.3258734 66.5945946,34.3258734 66.5405405,34.3258734 C66.4324324,34.3258734 66.3783784,34.3258734 66.2702703,34.3258734 C66.1081081,34.3258734 66,34.2115701 66,34.0401151 C66,33.7543568 66,33.4114468 66,33.1256884 C66,32.9542334 66.1081081,32.8970818 66.2162162,32.8970818 C66.2702703,32.8970818 66.3243243,32.8970818 66.3243243,32.8970818 C66.4324324,32.8970818 66.5405405,32.8970818 66.6486486,32.8970818 C66.7567568,32.8970818 66.7567568,32.8970818 66.7567568,32.7827784 C66.7567568,32.7256268 66.7567568,32.6684751 66.7567568,32.6113235 C66.7567568,32.2112618 66.7567568,31.8112001 66.7567568,31.4682902 C66.7567568,31.4111385 66.7567568,31.4111385 66.7567568,31.3539868 C66.7567568,31.1253802 66.8648649,30.9539252 67.0810811,31.0110768 C67.3513514,31.0110768 67.6216216,31.0110768 67.9459459,31.0110768 C68,31.0110768 68,31.0110768 68.0540541,31.0110768 C68.1621622,31.0110768 68.2702703,31.1253802 68.2702703,31.2396835 C68.2702703,31.2968352 68.2702703,31.3539868 68.2702703,31.4111385 C68.2702703,31.8112001 68.2702703,32.2112618 68.2702703,32.6113235 C68.2702703,32.6684751 68.2702703,32.7256268 68.2702703,32.7827784 C68.2702703,32.8970818 68.2702703,32.8970818 68.3783784,32.8970818 C68.4324324,32.8970818 68.4864865,32.8970818 68.4864865,32.8970818 C68.7567568,32.8970818 69.0810811,32.8970818 69.3513514,32.8970818 C69.4054054,32.8970818 69.4054054,32.8970818 69.4594595,32.8970818 C69.7297297,32.8970818 69.8378378,33.0113851 69.8378378,33.2971434 C69.8378378,33.5257501 69.8378378,33.7543568 69.8378378,33.9829634 C69.8378378,34.0401151 69.8378378,34.0972667 69.8378378,34.0972667 C69.8378378,34.2687217 69.7297297,34.3258734 69.5675676,34.3830251 C69.5135135,34.3830251 69.4594595,34.3830251 69.4054054,34.3830251 C69.0810811,34.3830251 68.7567568,34.3830251 68.4324324,34.3830251 C68.3783784,34.3830251 68.3243243,34.3830251 68.2702703,34.3830251 C68.2162162,34.3830251 68.2162162,34.3830251 68.2162162,34.4401767 C68.2162162,34.4973284 68.2162162,34.5544801 68.2162162,34.5544801 C68.2162162,35.2974517 68.2162162,35.9832717 68.2162162,36.7262433 C68.2162162,36.8405467 68.2162162,36.95485 68.2702703,37.0691533 C68.3243243,37.3549116 68.5405405,37.5263666 68.8108108,37.5263666 C69.027027,37.5263666 69.2432432,37.469215 69.4054054,37.4120633 C69.4594595,37.4120633 69.5135135,37.3549116 69.5675676,37.3549116 C69.6756757,37.3549116 69.7837838,37.4120633 69.8378378,37.5263666 C69.8918919,37.812125 69.9459459,38.0978833 70,38.3264899 C70,38.4407933 70,38.4979449 69.8918919,38.6122483 C69.8378378,38.6693999 69.7837838,38.6693999 69.7297297,38.7265516 C69.1891892,38.9551582 68.6486486,39.0694616 68.1081081,38.9551582 C67.4594595,38.8408549 67.027027,38.4407933 66.8108108,37.7549733 C66.7027027,37.469215 66.7027027,37.1834566 66.7027027,36.8976983 C66.7567568,36.440485 66.7567568,36.097575 66.7567568,35.6975134 Z" id="Path" fill="#016797"></path>
                    <path d="M91.2872235,33.0548827 C92.2702315,33.0548827 93.0074875,33.3841786 93.6833055,33.9878879 C93.8061815,34.0976532 93.8061815,34.2074185 93.6833055,34.3720665 C93.6218675,34.4269492 93.6218675,34.4818318 93.5604295,34.4818318 C93.3761155,34.6464798 93.1918015,34.8111278 93.0689255,34.9757758 C92.9460495,35.0855411 92.8846115,35.0855411 92.7617355,34.9757758 C92.7002975,34.9208931 92.6388595,34.8660104 92.5774215,34.8111278 C92.3931075,34.6464798 92.1473555,34.5367145 91.9016035,34.4818318 C90.8571575,34.2623012 89.9355875,34.8111278 89.7512735,35.744133 C89.6898355,36.1283116 89.7512735,36.4576076 89.9355875,36.7869036 C90.4270915,37.6650261 91.7172895,37.7747914 92.4545455,37.2259648 C92.5159835,37.1710822 92.6388595,37.1161995 92.7002975,37.0064342 C92.7617355,36.9515515 92.7617355,36.9515515 92.8231735,36.8966689 C92.9460495,36.7869036 93.1303635,36.7869036 93.2532395,36.8966689 C93.4375535,37.0613169 93.6833055,37.2259648 93.8676195,37.3906128 C93.9290575,37.3906128 93.9290575,37.4454955 93.9290575,37.4454955 C93.9904955,37.5552608 94.0519335,37.6650261 93.9290575,37.7747914 C93.9290575,37.8296741 93.8676195,37.8296741 93.8676195,37.8845568 C93.4375535,38.4333834 92.8231735,38.817562 92.0859175,38.9273273 C91.2257855,39.0919753 90.3656535,38.98221 89.6283975,38.5431487 C88.7068275,38.0492047 88.1538855,37.2808475 88.0310095,36.3478423 C87.9081335,35.5246024 88.1538855,34.8111278 88.7068275,34.1525359 C89.3212075,33.4390613 90.1199015,33.1097653 91.1029095,33 C91.1029095,33.0548827 91.1643475,33.0548827 91.2872235,33.0548827 Z" id="Path" fill="#016797"></path>
                    <path d="M79.1333333,34.5 C79.1333333,33.1898734 79.1333333,31.8227848 79.1333333,30.5126582 C79.1333333,30.4556962 79.1333333,30.3987342 79.1333333,30.2848101 C79.1333333,30.1139241 79.2666667,30.056962 79.4666667,30 C79.5333333,30 79.6666667,30 79.7333333,30 C80.0666667,30 80.3333333,30 80.6666667,30 C80.8,30 80.9333333,30.056962 81,30.1708861 C81,30.2278481 81,30.2278481 81,30.2848101 C81,30.3417722 81,30.3987342 81,30.4556962 C81,33.1329114 81,35.8101266 81,38.4873418 C81,38.5443038 81,38.6012658 81,38.7151899 C81,38.8860759 80.8666667,38.943038 80.6666667,39 C80.6,39 80.6,39 80.5333333,39 C80.2,39 79.8666667,39 79.4666667,39 C79.4,39 79.4,39 79.3333333,39 C79.1333333,39 79,38.8291139 79,38.7151899 C79,38.6582278 79,38.6012658 79,38.5443038 C79.1333333,37.2341772 79.1333333,35.8670886 79.1333333,34.5 Z" id="Path" fill="#016797"></path>
                    <path d="M49.2849507,33.8571429 C49.3408181,33.8 49.3966856,33.7428571 49.452553,33.6857143 C49.7318901,33.4 50.0670946,33.1714286 50.4581666,33.0571429 C50.8492386,33 51.2403105,33 51.6313825,33.1142857 C51.6872499,33.1142857 51.7989848,33.1714286 51.8548522,33.2285714 C52.0224544,33.3428571 52.0224544,33.4571429 51.966587,33.6285714 C51.966587,33.6857143 51.966587,33.6857143 51.9107196,33.6857143 C51.7989848,33.9142857 51.6872499,34.1428571 51.5755151,34.3714286 C51.5755151,34.4285714 51.5196476,34.4857143 51.5196476,34.4857143 C51.4637802,34.5428571 51.3520454,34.6 51.2961779,34.5428571 C51.2403105,34.5428571 51.1844431,34.4857143 51.1285757,34.4857143 C50.6816363,34.3714286 50.2346969,34.4285714 49.843625,34.7142857 C49.7877575,34.7714286 49.7877575,34.7714286 49.7318901,34.8285714 C49.6201553,34.9428571 49.5642878,35.0571429 49.5642878,35.1714286 C49.5642878,36.3142857 49.5642878,37.4 49.5642878,38.5428571 C49.5642878,38.6 49.5642878,38.6571429 49.5642878,38.7714286 C49.5642878,38.9428571 49.5084204,39 49.3408181,39 C49.2849507,39 49.2849507,39 49.2290833,39 C48.9497462,39 48.6145417,39 48.3352045,39 C48.3352045,39 48.2793371,39 48.2793371,39 C48.1117348,39 48.0558674,38.8857143 48,38.7142857 C48,38.6571429 48,38.6 48,38.5428571 C48,36.8285714 48,35.1142857 48,33.4 C48,33.3428571 48,33.2857143 48,33.2857143 C48,33.1142857 48.1117348,33 48.2793371,33 C48.6145417,33 48.8938788,33.1142857 49.061481,33.4 C49.1173485,33.4571429 49.1173485,33.5142857 49.1732159,33.6285714 C49.2290833,33.7428571 49.2849507,33.7428571 49.2849507,33.8571429 Z" id="Path" fill="#016797"></path>
                    <path d="M136.8,25.0736842 C136.95,25.2421053 136.95,25.5789474 137,25.9157895 C137,25.9157895 137,26 136.95,26 C136.85,26 136.75,26 136.75,25.8315789 C136.75,25.7473684 136.75,25.6631579 136.7,25.5789474 C136.65,25.3263158 136.6,25.2421053 136.45,25.2421053 C136.4,25.2421053 136.4,25.2421053 136.35,25.2421053 C136.3,25.2421053 136.25,25.2421053 136.25,25.3263158 C136.25,25.4105263 136.25,25.5789474 136.25,25.6631579 C136.25,25.7473684 136.25,25.8315789 136.25,25.8315789 C136.25,25.9157895 136.2,25.9157895 136.15,25.9157895 C136.05,25.9157895 136,25.9157895 136,25.7473684 C136,25.2421053 136,24.7368421 136,24.2315789 C136,24.0631579 136,24.0631579 136.1,24.0631579 C136.25,23.9789474 136.45,23.9789474 136.6,24.0631579 C136.75,24.1473684 136.85,24.3157895 136.85,24.5684211 C136.85,24.7368421 136.8,24.8210526 136.75,24.9052632 C136.85,24.9894737 136.8,24.9894737 136.8,25.0736842 Z M136.3,24.6526316 C136.3,24.6526316 136.3,24.6526316 136.3,24.6526316 C136.3,24.9052632 136.3,24.9052632 136.45,24.9052632 C136.55,24.9052632 136.6,24.9052632 136.7,24.8210526 C136.8,24.7368421 136.75,24.4842105 136.65,24.4 C136.6,24.4 136.55,24.3157895 136.5,24.3157895 C136.35,24.3157895 136.3,24.4 136.3,24.6526316 Z" id="Shape" fill="#FCBA31"></path>
                </g>
            </g>
        </g>
    </g>
</svg>