<?xml version="1.0" encoding="UTF-8"?>
<svg width="165px" height="80px" viewBox="0 0 165 80" version="1.1" xmlns="http://www.w3.org/2000/svg">
  <title>C3209DCE-D0A3-4D91-89FC-03FD9D5F20AE</title>
  <g id="Master:-Integrations-page" stroke="none" stroke-width="1" fill="none" fill-rule="evenodd">
    <g id="Third-party" transform="translate(-414.000000, -2050.000000)">
      <g id="Wix_logo" transform="translate(414.000000, 2050.000000)">
        <rect id="Bounds-border" x="0" y="0" width="165" height="80" />
        <path d="M88.3888889,25.577135 C86.7222222,26.3867398 86,27.8980022 86,32 C86,32 86.8333333,31.1903952 88.1666667,30.7046323 C89.1388889,30.3538035 89.8333333,29.8950274 90.3333333,29.5441987 C91.7777778,28.4917124 92,27.2233315 92,25.0104116 C91.9722222,25.0104116 89.6944444,24.8754774 88.3888889,25.577135 Z" id="Path" fill="#FBBD71" />
        <path d="M78.8496287,26.4860272 C77.5303218,27.5891076 77.200495,29.487432 77.200495,29.487432 L72.9381188,46.0079849 L69.4368812,32.4888368 C69.1070545,31.0522669 68.447401,29.2822077 67.4579208,28.0508621 C66.240099,26.4860272 63.7029703,26.383415 63.3985149,26.383415 C63.1701733,26.383415 60.6584158,26.4860272 59.3391089,28.0508621 C58.3496287,29.2822077 57.6899752,31.0522669 57.3601485,32.4888368 L54.0618812,46.0079849 L49.799505,29.487432 C49.799505,29.487432 49.4696782,27.7173727 48.1503713,26.4860272 C46.0699257,24.5877028 43,25.0494574 43,25.0494574 L51.1188119,55.9613614 C51.1188119,55.9613614 53.7574257,56.1922387 55.0767327,55.5252599 C56.8273515,54.6274038 57.7153465,53.9860779 58.7048267,49.7533276 C59.6943069,45.9823318 62.3329208,35.0028339 62.5358911,34.233243 C62.6373762,33.8997535 62.8657178,32.8992853 63.5253713,32.8992853 C64.1850248,32.8992853 64.4133663,33.7971414 64.5148515,34.233243 C64.7431931,35.0028339 67.3564356,45.9823318 68.3459158,49.7533276 C69.4368812,53.9604249 70.1980198,54.6274038 71.9740099,55.5252599 C73.2933168,56.1922387 75.9319307,55.9613614 75.9319307,55.9613614 L84,25.0494574 C84,25.0494574 80.9300743,24.6133558 78.8496287,26.4860272 Z" id="Path" fill="#000000" />
        <path d="M92,30 C92,30 91.3888889,30.7734211 90.1944444,31.4437194 C89.3611111,31.8819914 88.6388889,32.1140177 87.8055556,32.5522897 C86.3611111,33.222588 86,33.8928863 86,34.8983338 L86,35.233483 L86,36.9092287 L86,36.9092287 L86,37.2443779 L86,55.9611691 C86,55.9611691 88.2777778,56.1931955 89.7222222,55.5228972 C91.6388889,54.6205725 92,53.7440286 92,49.9542651 L92,31.2374738 L92,31.2374738 L92,30 L92,30 Z" id="Path" fill="#000000" />
        <path d="M112.637192,40.5616839 L123,25.1454685 C123,25.1454685 118.711942,24.3759403 116.49134,26.3767136 C115.061987,27.6079588 113.632634,29.9165435 113.632634,29.9165435 L109.880583,35.4571467 C109.650866,35.7906089 109.446673,36.0214673 109.114859,36.0214673 C108.783045,36.0214673 108.451231,35.6880051 108.349134,35.4571467 L104.597083,29.9165435 C104.597083,29.9165435 103.065634,27.7105625 101.738377,26.3767136 C99.5432999,24.3759403 95.2297174,25.1454685 95.2297174,25.1454685 L105.260711,40.5360329 L95,55.9265974 C95,55.9265974 99.5177758,56.4909181 101.738377,54.4901447 C103.16773,53.2588995 104.494986,51.1555224 104.494986,51.1555224 L108.247037,45.6149192 C108.476755,45.281457 108.680948,45.0505985 109.012762,45.0505985 C109.344576,45.0505985 109.67639,45.3840607 109.778487,45.6149192 L113.530538,51.1555224 C113.530538,51.1555224 114.959891,53.2588995 116.287147,54.4901447 C118.482224,56.4909181 122.897903,55.9265974 122.897903,55.9265974 L112.637192,40.5616839 Z" id="Path" fill="#000000" />
      </g>
    </g>
  </g>
</svg>
