<?xml version="1.0" encoding="UTF-8"?>
<svg width="165px" height="80px" viewBox="0 0 165 80" version="1.1" xmlns="http://www.w3.org/2000/svg" xmlns:xlink="http://www.w3.org/1999/xlink">
    <!-- Generator: sketchtool 55.1 (78136) - https://sketchapp.com -->
    <title>15F98714-0F19-436B-AB02-29ECF75CE14C</title>
    <desc>Created with sketchtool.</desc>
    <g id="WooComm-integr" stroke="none" stroke-width="1" fill="none" fill-rule="evenodd">
        <g id="Woo-Integration" transform="translate(-382.000000, -288.000000)">
            <g id="woocommerce_logo" transform="translate(382.000000, 288.000000)">
                <path d="M12.8774862,27.0410959 L53.8524862,27.0410959 C56.4455801,27.0410959 58.5447514,29.1369863 58.5447514,31.7260274 L58.5447514,47.3424658 C58.5447514,49.9315068 56.4455801,52.0273973 53.8524862,52.0273973 L39.1582873,52.0273973 L41.1751381,56.9589041 L32.3051105,52.0273973 L12.8980663,52.0273973 C10.3049724,52.0273973 8.20565106,49.9315068 8.20565106,47.3424658 L8.20565106,31.7260274 C8.18522099,29.1575342 10.2843923,27.0410959 12.8774862,27.0410959 Z" id="Shape" fill="#9B5C8F"></path>
                <path d="M10.7165746,31.2945205 C11.0046961,30.9041096 11.4368785,30.6986301 12.0131215,30.6575342 C13.0627072,30.5753425 13.6595304,31.0684932 13.8035912,32.1369863 C14.4415746,36.4315068 15.1412983,40.0684932 15.8821823,43.0479452 L20.3892265,34.4794521 C20.8008287,33.6986301 21.3153315,33.2876712 21.9327348,33.2465753 C22.8382597,33.1849315 23.3939227,33.760274 23.6203039,34.9726027 C24.1348066,37.7054795 24.7933702,40.0273973 25.5754144,42 C26.1104972,36.7808219 27.0160221,33.0205479 28.291989,30.6986301 C28.6006906,30.1232877 29.053453,29.8356164 29.6502762,29.7945205 C30.1236188,29.7534247 30.5558011,29.8972603 30.9468232,30.2054795 C31.3378453,30.5136986 31.5436464,30.9041096 31.5848066,31.3767123 C31.6053867,31.7465753 31.5436464,32.0547945 31.3790055,32.3630137 C30.5763812,33.8424658 29.9178177,36.3287671 29.3827348,39.7808219 C28.868232,43.130137 28.683011,45.739726 28.8064917,47.609589 C28.8476519,48.1232877 28.7653315,48.5753425 28.5595304,48.9657534 C28.3125691,49.4178082 27.9421271,49.6643836 27.4687845,49.7054795 C26.9337017,49.7465753 26.3780387,49.5 25.8429558,48.9452055 C23.9290055,46.9931507 22.4060773,44.0753425 21.2947514,40.1917808 C19.9570442,42.8219178 18.9691989,44.7945205 18.3312155,46.109589 C17.116989,48.4315068 16.0879834,49.6232877 15.2236188,49.6849315 C14.6679558,49.7260274 14.1946133,49.2534247 13.783011,48.2671233 C12.7334254,45.5753425 11.6015193,40.3767123 10.3872928,32.6712329 C10.3255525,32.1369863 10.428453,31.6643836 10.7165746,31.2945205 Z" id="Shape" fill="#FFFFFF" fill-rule="nonzero"></path>
                <path d="M54.9638122,34.5205479 C54.2229282,33.2260274 53.1321823,32.4452055 51.6709945,32.1369863 C51.2799724,32.0547945 50.9095304,32.0136986 50.5596685,32.0136986 C48.5839779,32.0136986 46.9787293,33.0410959 45.7233425,35.0958904 C44.6531768,36.8424658 44.1180939,38.7739726 44.1180939,40.890411 C44.1180939,42.4726027 44.4473757,43.8287671 45.1059392,44.9589041 C45.8468232,46.2534247 46.9375691,47.0342466 48.3987569,47.3424658 C48.789779,47.4246575 49.160221,47.4657534 49.5100829,47.4657534 C51.5063536,47.4657534 53.1116022,46.4383562 54.3464088,44.3835616 C55.4165746,42.6164384 55.9516575,40.6849315 55.9516575,38.5684932 C55.9516575,36.9657534 55.6223757,35.630137 54.9638122,34.5205479 L54.9638122,34.5205479 Z M52.3707182,40.2123288 C52.0825967,41.5684932 51.5680939,42.5753425 50.8066298,43.2534247 C50.2098066,43.7876712 49.6541436,44.0136986 49.1396409,43.9109589 C48.6457182,43.8082192 48.234116,43.3767123 47.9254144,42.5753425 C47.678453,41.9383562 47.5549724,41.3013699 47.5549724,40.7054795 C47.5549724,40.1917808 47.5961326,39.6780822 47.6990331,39.2054795 C47.8842541,38.3630137 48.234116,37.5410959 48.789779,36.760274 C49.4689227,35.7534247 50.1892265,35.3424658 50.9301105,35.4863014 C51.4240331,35.5890411 51.8356354,36.0205479 52.144337,36.8219178 C52.3912983,37.4589041 52.514779,38.0958904 52.514779,38.6917808 C52.514779,39.2260274 52.4530387,39.739726 52.3707182,40.2123288 L52.3707182,40.2123288 Z" id="Shape" fill="#FFFFFF" fill-rule="nonzero"></path>
                <path d="M42.0600829,34.5205479 C41.3191989,33.2260274 40.2078729,32.4452055 38.7672652,32.1369863 C38.3762431,32.0547945 38.0058011,32.0136986 37.6559392,32.0136986 C35.6802486,32.0136986 34.075,33.0410959 32.8196133,35.0958904 C31.7494475,36.8424658 31.2143646,38.7739726 31.2143646,40.890411 C31.2143646,42.4726027 31.5436464,43.8287671 32.2022099,44.9589041 C32.9430939,46.2534247 34.0338398,47.0342466 35.4950276,47.3424658 C35.8860497,47.4246575 36.2564917,47.4657534 36.6063536,47.4657534 C38.6026243,47.4657534 40.2078729,46.4383562 41.4426796,44.3835616 C42.5128453,42.6164384 43.0479282,40.6849315 43.0479282,38.5684932 C43.0479282,36.9657534 42.7186464,35.630137 42.0600829,34.5205479 L42.0600829,34.5205479 Z M39.466989,40.2123288 C39.1788674,41.5684932 38.6643646,42.5753425 37.9029006,43.2534247 C37.3060773,43.7876712 36.7504144,44.0136986 36.2359116,43.9109589 C35.741989,43.8082192 35.3303867,43.3767123 35.0216851,42.5753425 C34.7747238,41.9383562 34.6512431,41.3013699 34.6512431,40.7054795 C34.6512431,40.1917808 34.6924033,39.6780822 34.7953039,39.2054795 C34.9805249,38.3630137 35.3303867,37.5410959 35.8860497,36.760274 C36.5651934,35.7534247 37.2854972,35.3424658 38.0263812,35.4863014 C38.5203039,35.5890411 38.9319061,36.0205479 39.2406077,36.8219178 C39.4875691,37.4589041 39.6110497,38.0958904 39.6110497,38.6917808 C39.6110497,39.2260274 39.5698895,39.739726 39.466989,40.2123288 L39.466989,40.2123288 Z" id="Shape" fill="#FFFFFF" fill-rule="nonzero"></path>
                <path d="M63.7515193,34.3356164 C62.3726519,35.6917808 61.6935083,37.4178082 61.6935083,39.5136986 C61.6935083,41.7534247 62.3726519,43.5821918 63.7309392,44.9589041 C65.0892265,46.3356164 66.859116,47.0342466 69.0611878,47.0342466 C69.6991713,47.0342466 70.4194751,46.9315068 71.2015193,46.7054795 L71.2015193,43.3767123 C70.4812155,43.5821918 69.8638122,43.6849315 69.3287293,43.6849315 C68.2379834,43.6849315 67.3736188,43.3150685 66.7150552,42.5958904 C66.0564917,41.8561644 65.7272099,40.869863 65.7272099,39.6164384 C65.7272099,38.4452055 66.0564917,37.4794521 66.6944751,36.739726 C67.3530387,35.9794521 68.155663,35.609589 69.1435083,35.609589 C69.7814917,35.609589 70.4606354,35.7123288 71.2015193,35.9178082 L71.2015193,32.5890411 C70.5223757,32.4041096 69.7609116,32.3219178 68.9582873,32.3219178 C66.859116,32.3013699 65.1303867,32.9794521 63.7515193,34.3356164 Z M78.034116,32.3013699 C76.1407459,32.3013699 74.6589779,32.9383562 73.5888122,34.1917808 C72.5186464,35.4452055 72.0041436,37.2123288 72.0041436,39.4726027 C72.0041436,41.9178082 72.5392265,43.7876712 73.5888122,45.0821918 C74.6383978,46.3767123 76.1819061,47.0342466 78.1987569,47.0342466 C80.1538674,47.0342466 81.6562155,46.3767123 82.7058011,45.0821918 C83.7553867,43.7876712 84.2904696,41.9589041 84.2904696,39.6164384 C84.2904696,37.2739726 83.7553867,35.4657534 82.685221,34.1917808 C81.5944751,32.9383562 80.0509669,32.3013699 78.034116,32.3013699 Z M79.6599448,42.9863014 C79.2895028,43.5616438 78.7338398,43.8493151 78.034116,43.8493151 C77.3755525,43.8493151 76.8816298,43.5616438 76.531768,42.9863014 C76.1819061,42.4109589 76.0172652,41.260274 76.0172652,39.5136986 C76.0172652,36.8219178 76.6964088,35.4863014 78.0752762,35.4863014 C79.515884,35.4863014 80.256768,36.8424658 80.256768,39.5753425 C80.2361878,41.260274 80.0303867,42.4109589 79.6599448,42.9863014 Z M94.4570442,32.6917808 L93.7161602,35.8356164 C93.5309392,36.6369863 93.3457182,37.4589041 93.1810773,38.3013699 L92.7694751,40.4794521 C92.378453,38.3013699 91.8433702,35.7123288 91.1642265,32.6917808 L86.3896409,32.6917808 L84.5991713,46.6849315 L88.1801105,46.6849315 L89.1473757,37.0479452 L91.5964088,46.6849315 L94.1483425,46.6849315 L96.4944751,37.0684932 L97.5029006,46.6849315 L101.248481,46.6849315 L99.3551105,32.6917808 L94.4570442,32.6917808 L94.4570442,32.6917808 Z M111.600276,32.6917808 L110.859392,35.8356164 C110.674171,36.6369863 110.48895,37.4589041 110.324309,38.3013699 L109.912707,40.4794521 C109.521685,38.3013699 108.986602,35.7123288 108.307459,32.6917808 L103.532873,32.6917808 L101.742403,46.6849315 L105.323343,46.6849315 L106.290608,37.0479452 L108.739641,46.6849315 L111.291575,46.6849315 L113.617127,37.0684932 L114.625552,46.6849315 L118.371133,46.6849315 L116.477762,32.6917808 L111.600276,32.6917808 L111.600276,32.6917808 Z M123.248619,41.1575342 L126.603177,41.1575342 L126.603177,38.260274 L123.248619,38.260274 L123.248619,35.6917808 L127.11768,35.6917808 L127.11768,32.7123288 L119.461878,32.7123288 L119.461878,46.7054795 L127.13826,46.7054795 L127.13826,43.7260274 L123.248619,43.7260274 L123.248619,41.1575342 Z M137.798757,38.9383562 C138.189779,38.3013699 138.39558,37.6438356 138.39558,36.9657534 C138.39558,35.6506849 137.881077,34.6027397 136.852072,33.8424658 C135.823066,33.0821918 134.403039,32.6917808 132.633149,32.6917808 L128.229006,32.6917808 L128.229006,46.6849315 L132.015746,46.6849315 L132.015746,40.3150685 L132.077486,40.3150685 L135.143923,46.6849315 L139.136464,46.6849315 L136.111188,40.3767123 C136.831492,40.0479452 137.407735,39.5753425 137.798757,38.9383562 Z M131.995166,38.7123288 L131.995166,35.3835616 C132.900691,35.4041096 133.538674,35.5479452 133.929696,35.8356164 C134.320718,36.1232877 134.505939,36.5753425 134.505939,37.2328767 C134.505939,38.1986301 133.662155,38.6917808 131.995166,38.7123288 Z M140.618232,34.3356164 C139.239365,35.6917808 138.560221,37.4178082 138.560221,39.5136986 C138.560221,41.7534247 139.239365,43.5821918 140.597652,44.9589041 C141.955939,46.3356164 143.725829,47.0342466 145.927901,47.0342466 C146.565884,47.0342466 147.286188,46.9315068 148.068232,46.7054795 L148.068232,43.3767123 C147.347928,43.5821918 146.730525,43.6849315 146.195442,43.6849315 C145.104696,43.6849315 144.240331,43.3150685 143.581768,42.5958904 C142.923204,41.8561644 142.593923,40.869863 142.593923,39.6164384 C142.593923,38.4452055 142.923204,37.4794521 143.561188,36.739726 C144.219751,35.9794521 145.022376,35.609589 146.010221,35.609589 C146.648204,35.609589 147.327348,35.7123288 148.068232,35.9178082 L148.068232,32.5890411 C147.389088,32.4041096 146.627624,32.3219178 145.825,32.3219178 C143.746409,32.3013699 141.997099,32.9794521 140.618232,34.3356164 Z M152.904558,43.6849315 L152.904558,41.1369863 L156.259116,41.1369863 L156.259116,38.239726 L152.904558,38.239726 L152.904558,35.6712329 L156.794199,35.6712329 L156.794199,32.6917808 L149.138398,32.6917808 L149.138398,46.6849315 L156.814779,46.6849315 L156.814779,43.7054795 L152.904558,43.7054795 L152.904558,43.6849315 Z" id="Shape" fill="#000000" fill-rule="nonzero"></path>
            </g>
        </g>
    </g>
</svg>