<?xml version="1.0" encoding="UTF-8"?>
<svg width="165px" height="80px" viewBox="0 0 165 80" version="1.1" xmlns="http://www.w3.org/2000/svg">
    <title>FFD3A645-8534-4D3E-9320-37BDFF1D1063</title>
    <g id="LAB-A:-Zapier-integration-discoverability" stroke="none" stroke-width="1" fill="none" fill-rule="evenodd">
        <g id="BigCommerce-via-Zapier" transform="translate(-414.000000, -787.000000)" fill="#FF4A00">
            <g id="Zapier-logo" transform="translate(414.000000, 787.000000)">
                <path d="M92.132953,18 C92.4457759,18.0005791 92.7534292,18.0272173 93.0525029,18.0775982 L93.0525029,18.0775982 L93.0525029,21.326298 L95.3380685,19.0290461 C95.5905048,19.2097193 95.8266619,19.4106643 96.0450001,19.6301421 C96.2634482,19.8496198 96.4639673,20.0876303 96.6436975,20.3412695 L96.6436975,20.3412695 L94.3580219,22.6385203 L97.590306,22.6385203 C97.6404632,22.9390678 97.6669718,23.2471524 97.6669718,23.5621758 L97.6669718,23.5621758 C97.6669718,23.8847253 97.6404632,24.1933863 97.590306,24.4939337 L97.590306,24.4939337 L94.3574719,24.4939337 L96.6436975,26.7906082 C96.4639673,27.0442474 96.2634482,27.2822579 96.04566,27.5017356 L96.04566,27.5017356 L95.8208038,27.7150994 C95.6674884,27.8531804 95.5065794,27.9827667 95.3387285,28.1028305 L95.3387285,28.1028305 L93.0525029,25.8055686 L93.0525029,29.0542739 C92.7539792,29.1046626 92.4463259,29.1312646 92.1335029,29.1319297 L92.1335029,29.1319297 C91.8125404,29.1312646 91.5060971,29.1046626 91.2070233,29.0542739 L91.2070233,29.0542739 L91.2070233,25.8055686 L88.9214577,28.1028305 C88.4166952,27.7420516 87.9753992,27.2978976 87.6158288,26.7906082 L87.6158288,26.7906082 L89.9015044,24.4939337 L86.6692203,24.4939337 C86.618513,24.1927989 86.5920045,23.8829851 86.5920045,23.5679617 L86.5920045,23.5679617 C86.5920045,23.2483052 86.6692203,22.6385203 86.6692203,22.6385203 L86.6692203,22.6385203 L89.9015044,22.6385203 L87.6158288,20.3412695 C87.795009,20.0876303 87.9949781,19.8501962 88.2133162,19.6313059 L88.2133162,19.6313059 C88.4323143,19.4106643 88.6690214,19.2097193 88.9214577,19.0290461 L88.9214577,19.0290461 L91.2070233,21.326298 L91.2070233,18.0775982 C91.5060971,18.0272173 91.8132004,18.0005791 92.1265733,18 L92.1265733,18 Z M92.132403,22.1746698 L92.1271233,22.1746698 C91.7157457,22.1746698 91.3217471,22.2505299 90.9575569,22.3883505 C90.8210543,22.7537625 90.7454885,23.1498555 90.7449385,23.5633285 L90.7449385,23.5685381 C90.7454885,23.9820111 90.8210543,24.3781152 90.9581069,24.7435161 C91.3217471,24.8813478 91.7157457,24.9572079 92.1271233,24.9572079 L92.132403,24.9572079 C92.5437806,24.9572079 92.9377792,24.8813478 93.3014194,24.7435161 C93.4384719,24.3775388 93.5140378,23.9820111 93.5140378,23.5685381 L93.5140378,23.5633285 C93.5140378,23.1498555 93.4384719,22.7537625 93.3014194,22.3883505 C92.9377792,22.2505299 92.5437806,22.1746698 92.132403,22.1746698 Z M80.1642843,32.3508851 C81.1645698,32.3508851 82.0932493,32.5188104 82.9501027,32.8541067 C83.8056361,33.189403 84.5390762,33.7088075 85.1509729,34.4124309 C85.7623196,35.1171628 86.2404636,36.0113233 86.5856248,37.0948014 C86.9301261,38.1800531 87.1023767,39.4586127 87.1023767,40.9341382 C87.1023767,43.8846349 86.30734,46.1929145 84.7177065,47.8577576 C83.126973,49.5232659 80.8758355,50.35602 77.9622041,50.35602 C77.4730607,50.35602 76.9730279,50.3224349 76.4613358,50.2552648 C75.9490936,50.1880947 75.5049378,50.0983129 75.1269984,49.9871386 L75.1269984,57.866214 C74.8601529,57.9102182 74.5766983,57.9438032 74.2765246,57.9664149 C73.976351,57.9883616 73.7032358,58 73.4589391,58 C73.2140925,58 72.9421873,57.9883616 72.6420136,57.9664149 C72.3418399,57.9438032 72.0692748,57.9102182 71.8249781,57.866214 L71.8249781,32.7527973 C72.046836,32.7087931 72.2749636,32.6752081 72.5083709,32.6525964 C72.7422181,32.6305389 72.9807952,32.6190113 73.2256418,32.6190113 C73.4474998,32.6190113 73.681347,32.6305389 73.9261937,32.6525964 C74.1704904,32.6752081 74.4044477,32.7087931 74.6268556,32.7527973 C74.6487444,32.7984641 74.6770129,32.9374597 74.7097911,33.1725551 C74.7432293,33.4070962 74.7766674,33.6584853 74.8101056,33.9266115 C74.8435438,34.1947377 74.876872,34.4524448 74.9103102,34.6979593 C74.9437483,34.944028 74.9599175,35.1004257 74.9599175,35.1675958 C75.1823254,34.8096878 75.4490608,34.4634181 75.7607839,34.1281218 C76.071847,33.7928255 76.4451666,33.4905601 76.8784331,33.2229881 C77.3118095,32.9543076 77.8009529,32.7423782 78.3465232,32.5859805 C78.8904436,32.4295828 79.4965106,32.3508851 80.1642843,32.3508851 Z M106.117152,32.3505526 C107.295408,32.3505526 108.329572,32.5520629 109.219203,32.9545293 C110.108725,33.3569957 110.853714,33.9099853 111.454612,34.6141629 C112.054409,35.3183406 112.510224,36.1563043 112.821837,37.1286082 C113.13301,38.1009121 113.289202,39.1565689 113.289202,40.2967981 C113.289202,40.6101477 113.277652,40.9395694 113.255104,41.2859499 C113.233215,41.633328 113.210776,41.9287213 113.188887,42.1742357 L113.188887,42.1742357 L101.546461,42.1742357 C101.591338,44.0522276 102.074762,45.4269979 102.997832,46.2985467 C103.920791,47.1700954 105.282847,47.6067011 107.084439,47.6067011 C108.663733,47.6067011 110.164052,47.3269365 111.587704,46.7681832 C111.765785,47.1034795 111.909877,47.5111555 112.021631,47.9917653 C112.132835,48.4730402 112.199051,48.9473321 112.22149,49.4169686 C111.4875,49.7302074 110.680914,49.9641944 109.803381,50.1211463 C108.924199,50.276879 107.951632,50.3556874 106.88458,50.3556874 C105.327175,50.3556874 103.992838,50.1378834 102.881458,49.7018319 C101.769419,49.2657805 100.851629,48.6513846 100.129078,47.8579793 C99.4066371,47.0646849 98.8782259,46.1254118 98.544614,45.0412686 C98.2111122,43.9572362 98.0440313,42.7672391 98.0440313,41.4700581 C98.0440313,40.1965971 98.2052825,39.0066 98.528005,37.8994017 C98.8500674,36.7933119 99.3454805,35.8326464 100.012154,35.0160751 C100.679378,34.2007232 101.518852,33.5527423 102.530577,33.0714674 C103.542302,32.5908575 104.737827,32.3505526 106.117152,32.3505526 Z M61.4169044,32.3508851 C63.6403234,32.3508851 65.3307115,32.8599813 66.4870785,33.8762894 C67.6434456,34.8937058 68.2219041,36.5198652 68.2219041,38.7545459 L68.2219041,49.5175021 C67.4435865,49.6965115 66.4986279,49.8806197 65.3866984,50.0706025 C64.274109,50.2599202 63.1396307,50.3554658 61.9838136,50.3554658 C60.8937729,50.3554658 59.9102064,50.2552648 59.0315742,50.0537545 C58.152942,49.8522442 57.4079526,49.5291405 56.7967159,49.0808964 C56.1848191,48.63498 55.7123949,48.0640341 55.378783,47.371384 C55.0451712,46.6788447 54.8786402,45.840881 54.8786402,44.8563846 C54.8786402,43.8962733 55.0727797,43.0519916 55.4622685,42.3252022 C55.8512073,41.5996321 56.3795086,40.9956554 57.0467322,40.5149347 C57.7139559,40.034879 58.4813842,39.6764168 59.348467,39.4424298 C60.2162098,39.2073345 61.1277302,39.0898422 62.0841281,39.0898422 C62.7956794,39.0898422 63.3793076,39.1072444 63.8350128,39.1401644 C64.290828,39.1744145 64.6744872,39.2132091 64.9862102,39.2577675 L64.9862102,38.6207599 C64.9862102,37.3016322 64.6525984,36.3854142 63.9854847,35.8712193 C63.318261,35.3575786 62.3508636,35.1004257 61.0832926,35.1004257 C60.304315,35.1004257 59.5767046,35.1623863 58.8984815,35.2846447 C58.2198184,35.4079007 57.5577644,35.569508 56.9136395,35.7704641 C56.4907125,35.0327014 56.279854,34.1507336 56.279854,33.1216787 C57.0351829,32.8761642 57.8689375,32.6861814 58.7815578,32.5518412 C59.6930782,32.417501 60.5711605,32.3508851 61.4169044,32.3508851 Z M62.41774,41.6714575 C61.038415,41.6714575 59.9874222,41.9290538 59.2655315,42.4428053 C58.5418809,42.9575544 58.1812105,43.7398756 58.1812105,44.7897687 C58.1812105,45.4603613 58.3027539,45.9861946 58.5482605,46.3654951 C58.7925572,46.7460148 59.0984506,47.0360877 59.4655006,47.237598 C59.8324407,47.4385541 60.2380986,47.5613668 60.6829144,47.6064794 C61.1277302,47.6517028 61.5505472,47.6736495 61.9504854,47.6736495 C62.4620676,47.6736495 62.9903688,47.645939 63.5348392,47.5891881 C64.0799695,47.5335455 64.5632832,47.4501925 64.9862102,47.3383532 L64.9862102,47.3383532 L64.9862102,41.8729679 C64.6525984,41.8282986 64.2303313,41.7842945 63.7186392,41.7391819 C63.207057,41.6946235 62.7732406,41.6714575 62.41774,41.6714575 Z M79.4302942,35.2342117 C78.8742745,35.2342117 78.3401435,35.3349669 77.8291113,35.5364772 C77.3169792,35.7367682 76.861824,36.0384795 76.4613358,36.4409459 C76.0609575,36.8434123 75.7388951,37.3525085 75.4945984,37.9669044 C75.2490917,38.5825195 75.1269984,39.3132992 75.1269984,40.1633446 L75.1269984,40.1633446 L75.1269984,47.1368429 C75.5487154,47.2937948 75.9830818,47.4055233 76.4278976,47.4721392 C76.8727134,47.5387551 77.4506219,47.5728943 78.1627232,47.5728943 C78.9635896,47.5728943 79.6970297,47.4443179 80.3642534,47.187165 C81.0314771,46.9312314 81.6041059,46.5334203 82.0818099,45.9966137 C82.5599539,45.4603613 82.9378933,44.7845591 83.2161782,43.9679879 C83.4939131,43.1526359 83.6333855,42.1862067 83.6333855,41.0684784 C83.6333855,39.2802683 83.3049433,37.8609397 82.649269,36.8098273 C81.9930447,35.7599342 80.9196132,35.2342117 79.4302942,35.2342117 Z M39,49.4842496 L48.0070942,35.4019153 L40.0676272,35.4019153 C40.0007838,34.9994489 39.9673677,34.5529783 39.9673677,34.06073 C39.9673677,33.5916477 40.0007838,33.1550421 40.0676272,32.7525756 L52.9107373,32.7525756 L53.0772683,33.1891813 L44.003939,47.3045464 L52.5103591,47.3045464 C52.5765755,47.7522363 52.6105637,48.2096802 52.6105637,48.6787625 C52.6105637,49.1270066 52.5765755,49.5508655 52.5103591,49.9538861 L39.1670864,49.9538861 L39,49.4842496 Z M91.2057034,35.3683302 L89.0370614,35.3683302 C88.9927338,35.1894316 88.9592957,34.9827118 88.9374068,34.7481706 C88.9148581,34.5136295 88.9039687,34.2842979 88.9039687,34.06073 C88.9039687,33.8378273 88.9148581,33.6079415 88.9374068,33.3734003 C88.9592957,33.1388592 88.9927338,32.9321393 89.0370614,32.7525756 L94.4420573,32.7525756 L94.4420573,49.9538861 C94.1965507,49.9978903 93.9246455,50.0309211 93.6244718,50.0535328 C93.3242981,50.0754795 93.051183,50.0871179 92.8068863,50.0871179 C92.5844784,50.0871179 92.3229126,50.0754795 92.0232889,50.0535328 C91.7225653,50.0309211 91.4500001,49.9978903 91.2057034,49.9538861 L91.2057034,35.3683302 Z M110.02007,39.6939298 C110.02007,39.0680064 109.936474,38.4703476 109.769943,37.8994017 C109.602862,37.3295643 109.358016,36.8326607 109.035953,36.4076934 C108.712681,35.9831695 108.301963,35.6421094 107.80127,35.3855107 C107.301128,35.1284687 106.70595,34.999338 106.016837,34.999338 C104.660061,34.999338 103.620618,35.413332 102.897517,36.2403223 C102.175076,37.0672018 101.73598,38.2185152 101.579899,39.6939298 L110.02007,39.6939298 Z M117.627256,32.6525964 C117.404848,32.6752081 117.171,32.7087931 116.926704,32.7527973 L116.926704,49.9535536 C117.193439,49.9975577 117.476894,50.0311428 117.777617,50.0537545 C118.077791,50.075812 118.349806,50.0873396 118.595203,50.0873396 C118.83895,50.0873396 119.112065,50.075812 119.411689,50.0537545 C119.711862,50.0311428 119.984317,49.9975577 120.229164,49.9535536 L120.229164,41.4033313 C120.229164,40.2415989 120.357087,39.2913525 120.612933,38.554144 C120.868229,37.8163813 121.21328,37.2350163 121.646547,36.8099381 C122.080363,36.3854142 122.568957,36.0895775 123.114637,35.9216523 C123.659657,35.7542812 124.232396,35.6702632 124.832744,35.6702632 L125.282729,35.6702632 C125.471699,35.6702632 125.654949,35.6928749 125.833469,35.7368791 C125.877907,35.4693071 125.917065,35.1896533 125.950503,34.8989154 C125.983281,34.6088425 126,34.3290779 126,34.0609517 C126,33.814883 125.989111,33.5803419 125.966562,33.3567741 C125.944673,33.1338713 125.910685,32.9207226 125.866907,32.7192123 C125.733814,32.6978198 125.571353,32.6809719 125.382934,32.6694443 C125.193964,32.6578059 125.010164,32.6525964 124.832744,32.6525964 C123.631389,32.6525964 122.647932,32.932361 121.880504,33.4905601 C121.113626,34.0494242 120.49601,34.7095977 120.029305,35.4693071 C120.029305,35.0888982 119.995317,34.6255796 119.92899,34.0772455 C119.862224,33.5305739 119.795348,33.0880936 119.729131,32.7527973 C119.528612,32.7087931 119.306204,32.6752081 119.061908,32.6525964 C118.816511,32.6306497 118.572214,32.6190113 118.327917,32.6190113 C118.083071,32.6190113 117.849114,32.6306497 117.627256,32.6525964 Z" id="zapier_shape" />
            </g>
        </g>
    </g>
</svg>
